<?xml version="1.0" encoding="UTF-8" standalone="no"?>
<svg
   xmlns:dc="http://purl.org/dc/elements/1.1/"
   xmlns:cc="http://creativecommons.org/ns#"
   xmlns:rdf="http://www.w3.org/1999/02/22-rdf-syntax-ns#"
   xmlns:svg="http://www.w3.org/2000/svg"
   xmlns="http://www.w3.org/2000/svg"
   xmlns:xlink="http://www.w3.org/1999/xlink"
   viewBox="0 0 550.35413 721.22461"
   height="721.22461"
   width="550.35413"
   xml:space="preserve"
   version="1.1"
   id="svg2"><metadata
     id="metadata8"><rdf:RDF><cc:Work
         rdf:about=""><dc:format>image/svg+xml</dc:format><dc:type
           rdf:resource="http://purl.org/dc/dcmitype/StillImage" /><dc:title></dc:title></cc:Work></rdf:RDF></metadata><defs
     id="defs6"><linearGradient
       id="linearGradient4374"><stop
         id="stop4376"
         offset="0"
         style="stop-color:#000000;stop-opacity:1;" /><stop
         id="stop4378"
         offset="1"
         style="stop-color:#000000;stop-opacity:0;" /></linearGradient><linearGradient
       gradientUnits="userSpaceOnUse"
       y2="-663.92517"
       x2="225.255"
       y1="-663.92517"
       x1="145.72063"
       id="linearGradient4380"
       xlink:href="#linearGradient4374" /></defs><g
     transform="matrix(1.25,0,0,-1.25,-97.535754,889.32305)"
     id="g10"><text
       id="text96"
       style="font-variant:normal;font-weight:normal;font-size:6.96000004px;font-family:'Times New Roman';-inkscape-font-specification:Times-Roman;writing-mode:lr-tb;fill:#000000;fill-opacity:1;fill-rule:nonzero;stroke:none"
       transform="matrix(1,0,0,-1,99.855,339.015)"><tspan
         id="tspan98"
         y="0"
         x="0 3.59832 5.2756801">– 1</tspan></text>
<text
       transform="scale(1,-1)"
       id="text100-7"
       style="font-variant:normal;font-weight:normal;font-size:8.88099957px;font-family:'Times New Roman';-inkscape-font-specification:Times-Roman;writing-mode:lr-tb;fill:#000000;fill-opacity:1;fill-rule:nonzero;stroke:none"
       x="90.735001"
       y="-336.315"><tspan
         id="tspan102-0"
         y="-336.315"
         x="90.735001 95.290955">10</tspan></text>
<path
       id="path4386-8"
       d="m 332.82504,168.795 0,200.80992"
       style="fill:none;fill-rule:evenodd;stroke:#666666;stroke-width:1.60000002;stroke-linecap:butt;stroke-linejoin:miter;stroke-miterlimit:4;stroke-dasharray:6.4, 1.6;stroke-dashoffset:0;stroke-opacity:1" /><path
       id="path18"
       style="fill:none;stroke:#666666;stroke-width:0.06;stroke-linecap:butt;stroke-linejoin:miter;stroke-miterlimit:10;stroke-dasharray:none;stroke-opacity:1"
       d="m 117.37417,217.575 397.2,0 m -0.24,-36.72 -396.72,0 m 396.72,9.6 -396.72,0 m 396.72,8.16 -396.72,0 m 396.72,7.2 -396.72,0 m 396.72,6 -396.72,0 m -0.24,128.16 397.2,0 m -0.24,-100.8 -396.96,0 m 396.96,15.36 -396.72,0 m 396.72,21.6 -396.72,0 m 396.72,15.12 -396.72,0 m 396.72,12 -396.72,0 m 396.72,9.6 -396.72,0 m 396.72,8.4 -396.72,0 m 396.72,6.96 -396.72,0 m 396.72,6 -396.72,0 m -0.24,128.4 397.2,0 m -0.24,-101.04 -396.96,0 m 396.96,15.36 -396.72,0 m 396.72,21.6 -396.72,0 m 396.72,15.12 -396.72,0 m 396.72,12 -396.72,0 m 396.72,9.84 -396.72,0 m 396.72,8.16 -396.72,0 m 396.72,6.96 -396.72,0 m 396.72,6 -396.72,0 m -0.24,128.4 397.2,0 m -0.24,-101.04 -396.96,0 m 396.96,15.36 -396.72,0 m 396.72,21.6 -396.72,0 m 396.72,15.36 -396.72,0 m 396.72,11.76 -396.72,0 m 396.72,9.84 -396.72,0 m 396.72,8.16 -396.72,0 m 396.72,7.2 -396.72,0 m 396.72,6 -396.72,0 m 396.72,27.12 -396.96,0 m 396.96,15.36 -396.72,0 m 396.72,21.84 -396.72,0 m 396.72,15.12 -396.72,0 m 396.72,11.76 -396.72,0 m 396.72,9.84 -396.72,0 m 396.72,8.16 -396.72,0 m 396.72,7.2 -396.72,0 m 396.72,6 -396.72,0 m 155.76,5.76 0,-538.32 m -129.12,0 0,538.32 m 19.44,-538.32 0,538.32 m 28.08,-538.32 0,538.32 m 19.2,-538.32 0,538.32 m 15.12,-538.32 0,538.32 m 12.48,-538.32 0,538.32 m 10.56,-538.32 0,538.32 m 9.12,-538.32 0,538.32 m 7.68,-538.32 0,538.32 m 163.92,0 3e-5,-538.32 m -129.12003,0 0,538.32 m 19.68023,-538.3198 -2.3e-4,538.3198 m 27.60023,-538.32 -2.3e-4,538.32 m 19.68,-538.32 0,538.32 m 15.12,-538.32 0,538.32 m 12.48023,-538.32 -2.3e-4,538.32 m 10.32,-538.32 0,538.32 m 9.12,-538.32 0,538.32" /><path
       id="path4386"
       d="m 395.2944,607.91745 0,-439.12245"
       style="fill:none;fill-rule:evenodd;stroke:#666666;stroke-width:1.60000002;stroke-linecap:butt;stroke-linejoin:miter;stroke-miterlimit:4;stroke-dasharray:6.4, 1.6;stroke-dashoffset:0;stroke-opacity:1" /><rect
       transform="scale(1,-1)"
       y="-679.06781"
       x="145.72058"
       height="30.285355"
       width="79.534485"
       id="rect4382"
       style="opacity:1;fill:#ffffff;fill-opacity:1;stroke:none;stroke-width:2.04999995;stroke-miterlimit:100;stroke-dasharray:none;stroke-opacity:1" /><path
       id="path16"
       style="fill:#000000;fill-opacity:1;fill-rule:nonzero;stroke:none"
       d="m 117.375,707.655 0,-538.86 397.2,0 0,538.86 -397.2,0 0.24,-0.48 396.72,0 -0.24,0.24 0,-538.38 0.24,0.24 -396.72,0 0.24,-0.24 0,538.38 -0.24,-0.24 -0.24,0.48" /><path
       id="path20"
       style="fill:none;stroke:#000000;stroke-width:0.06;stroke-linecap:butt;stroke-linejoin:miter;stroke-miterlimit:10;stroke-dasharray:none;stroke-opacity:1"
       d="m 422.415,169.095 0,538.32 m 34.8,-538.32 0,538.32 m 19.68,-538.32 0,538.32 m 27.6,-538.32 0,538.32 m 9.6,-538.32 0,538.32" /><path
       id="path22"
       style="fill:#6c8ebf;fill-opacity:1;fill-rule:nonzero;stroke:none"
       d="m 514.815,581.655 -1.2,2.16 -0.96,1.92 -0.72,2.16 0,-0.24 -0.48,2.4 -0.24,2.16 -0.24,3.12 -0.24,4.08 -0.24,4.8 -0.48,10.56 -0.24,11.52 -0.48,10.8 -0.24,4.8 -0.24,4.32 0,3.36 -0.24,2.4 0,1.2 -0.96,0 0,-37.44 -0.24,-10.8 -0.48,-11.04 -0.48,-10.56 -0.48,-8.88 -0.48,-7.44 -0.48,-3.36 -0.24,-2.88 -0.48,-2.4 -0.24,-2.16 -0.96,-4.32 -0.96,-5.28 0,0.24 -1.68,-5.76 -2.16,-6 -1.68,-3.36 -2.64,-3.84 -2.88,-4.08 -3.12,-3.84 -1.44,-1.92 0.24,0 -1.44,-1.44 0,0.24 -1.68,-0.72 -1.68,-0.48 0.48,0 -1.44,0.48 -1.44,1.2 0.24,-0.24 -0.96,1.44 -0.48,1.44 0,-0.24 -0.24,2.16 -0.24,2.64 0,6.24 -0.24,7.44 -0.24,8.16 -0.48,12.24 -0.48,12.96 -0.72,16.8 -0.72,24 -0.24,7.2 0,6.48 -0.24,5.52 -0.24,4.56 0,3.36 -0.24,0.96 0,1.2 -0.96,0 0,-4.08 -0.24,-5.28 0,-21.36 -0.24,-8.64 0,-9.36 -0.24,-9.84 -0.48,-26.88 0,-5.28 -0.24,-4.08 0,-4.56 -0.48,-5.28 -0.48,-5.52 -1.44,-11.76 -2.4,-11.28 -2.64,-10.56 0,0.24 -1.44,-4.56 -1.2,-4.32 -2.16,-6.48 -0.96,-2.64 -0.96,-2.88 -2.88,-6.72 -3.36,-7.2 -3.6,-7.44 -3.12,-6.24 -3.6,-7.02 -2.16,-3.84 -2.64,-4.08 -2.64,-4.8 -3.12,-5.28 -8.16,-13.2 -8.16,-13.44 -1.92,-3.12 -2.16,-3.36 -2.4,-4.32 -2.88,-4.56 -3.36,-4.8 -3.6,-5.28 -4.08,-5.76 -4.32,-5.76 -8.88,-11.04 -4.32,-5.04 0.24,0 -4.8,-4.8 0,0.24 -1.44,-1.2 0,-0.24 -1.68,-1.68 0,0.24 -4.08,-3.36 -7.68,-5.28 -2.16,-0.72 0.24,0 -2.16,-0.48 -2.16,0.24 0.24,0 -2.4,0.72 0,-0.24 -1.68,1.68 0.24,0 -0.72,1.68 -0.96,1.92 -1.92,4.56 -1.68,5.28 -1.68,5.52 -1.44,5.04 0,-0.24 -0.96,4.08 0,0.24 -0.48,1.68 0,-0.24 -0.24,1.2 -0.48,2.16 -0.48,1.92 0,0.24 -0.96,2.88 -1.2,1.92 -1.68,0.48 -0.96,0 -0.96,-0.96 -1.68,-1.92 -1.2,-2.88 -1.2,-3.6 -0.72,-2.64 -2.16,-6.48 0,-0.24 -0.48,-2.16 0,0.24 -0.72,-2.64 -0.96,-3.36 0,-0.24 -0.96,-3.84 0,0.24 -1.68,-6.48 -1.92,-6.72 -3.6,-13.92 0,-0.24 -0.72,-2.88 0,0.24 -0.96,-3.36 -1.2,-4.08 -1.2,-4.56 -1.68,-5.04 -1.68,-5.28 -3.6,-11.76 -1.92,-5.76 -1.68,-5.28 -1.68,-5.04 -1.68,-4.56 -2.88,-8.16 -2.64,-7.92 -2.88,-7.68 -3.12,-7.44 -2.88,-6.72 -1.2,-2.88 -1.2,-2.64 -1.68,-3.6 -1.2,-2.88 -2.4,-5.04 -2.16,-4.56 -0.96,-2.16 -1.44,-2.64 -1.68,-3.36 -1.68,-3.12 -2.88,-5.04 -2.88,-4.56 -1.68,-2.64 -1.68,-2.88 0.96,-0.48 1.68,2.88 1.68,2.64 2.88,4.56 2.88,5.04 1.68,3.12 1.68,3.36 1.44,2.64 0.96,2.16 2.16,4.56 2.4,5.04 1.2,2.88 1.68,3.6 1.2,2.64 1.2,2.88 2.88,6.72 3.12,7.44 2.88,7.68 2.64,7.92 2.88,8.16 1.68,4.56 1.68,5.04 1.68,5.28 1.92,5.76 3.6,11.76 1.68,5.28 1.68,5.04 1.2,4.56 1.2,4.08 0.96,3.36 0,0.24 0.72,2.88 0,-0.24 3.6,13.92 1.92,6.72 1.68,6.48 0,0.24 0.96,3.84 0,-0.24 0.96,3.36 0.72,2.64 0,0.24 0.48,2.16 0,-0.24 2.16,6.48 0.72,2.64 1.2,3.6 1.2,2.88 1.44,1.92 -0.24,-0.24 0.96,0.72 -0.24,0 0.72,0 -0.24,0 1.44,-0.48 -0.24,0.24 0.96,-1.68 0.96,-2.88 0,0.24 0.48,-1.92 0.48,-2.16 0.24,-1.2 0,-0.24 0.48,-1.68 0,0.24 0.96,-4.08 0,-0.24 1.44,-5.04 1.68,-5.52 1.68,-5.28 1.92,-4.56 0.96,-1.92 0.72,-1.68 1.92,-1.92 2.64,-0.72 2.16,-0.24 2.16,0.48 0.24,0 2.16,0.72 7.68,5.28 4.08,3.36 0,0.24 1.68,1.68 0,-0.24 1.44,1.2 0,0.24 4.8,4.8 0.24,0 4.32,5.04 8.88,11.04 4.32,5.76 4.08,5.76 3.6,5.28 3.36,4.8 2.88,4.56 2.4,4.32 2.16,3.36 1.92,3.12 8.16,13.44 8.16,13.2 3.12,5.28 2.64,4.8 2.64,4.08 2.16,3.84 3.6,7.02 3.12,6.24 3.6,7.44 3.36,7.2 2.88,6.72 0.96,2.88 0.96,2.64 2.16,6.48 1.2,4.32 1.44,4.56 0,0.24 2.64,10.56 2.4,11.28 1.44,11.76 0.48,5.52 0.48,5.28 0,4.56 0.24,4.08 0,5.28 0.48,26.88 0.24,9.84 0,9.36 0.24,8.64 0,21.36 0.24,5.28 0,4.08 -0.96,0 0,-1.2 0.24,-0.96 0,-3.36 0.24,-4.56 0.24,-5.52 0,-6.48 0.24,-7.2 0.72,-24 0.72,-16.8 0.48,-12.96 0.48,-12.24 0.24,-8.16 0.24,-7.44 0,-6.24 0.24,-2.64 0.24,-2.16 0.48,-1.68 1.2,-1.44 1.44,-1.44 1.68,-0.48 1.92,0.48 1.68,0.72 1.44,1.68 0.24,0 1.44,1.92 3.12,3.84 2.88,4.08 2.64,3.84 1.68,3.36 2.16,6 1.68,5.76 0,0.24 0.96,5.28 0.96,4.32 0.24,2.16 0.48,2.4 0.24,2.88 0.48,3.36 0.48,7.44 0.48,8.88 0.48,10.56 0.48,11.04 0.24,10.8 0,37.44 -0.96,0 0,-1.2 0.24,-2.4 0,-3.36 0.24,-4.32 0.24,-4.8 0.48,-10.8 0.24,-11.52 0.48,-10.56 0.24,-4.8 0.24,-4.08 0.24,-3.12 0.24,-2.16 0.48,-2.4 0,-0.24 0.72,-2.16 0.96,-1.92 1.2,-2.16 0.96,0.48" /><path
       id="path24"
       style="fill:#b85450;fill-opacity:1;fill-rule:nonzero;stroke:none;stroke-width:0.80000001;stroke-miterlimit:10;stroke-dasharray:none"
       d="m 513.855,292.395 -0.96,-1.68 -0.96,-1.44 -1.68,-2.4 -1.44,-2.16 -1.2,-1.92 -4.32,-6.72 -1.2,-1.68 -1.44,-2.16 -3.6,-4.8 -8.4,-11.28 -4.08,-5.76 -3.84,-4.8 -1.44,-2.16 -1.44,-1.92 -1.2,-1.44 -0.72,-0.96 -1.92,-2.4 0.24,0 -2.4,-2.4 0,0.24 -3.12,-2.16 -1.68,-0.48 0.24,0 -2.16,-0.24 -2.16,0 0.24,0 -1.68,0.48 -2.88,1.92 0.24,-0.24 -1.92,2.64 -1.44,2.64 -1.2,2.88 -0.96,3.36 0,-0.24 -0.96,4.08 -1.92,9.6 -0.72,5.28 -0.72,5.76 -0.48,6 -0.96,13.2 -0.96,13.68 -0.48,9.12 -0.48,8.64 0,1.92 -0.24,2.88 0,3.84 -0.24,4.32 0,6.72 -0.24,6.96 -0.24,13.68 -0.24,8.16 -0.24,9.12 -0.48,19.68 -0.48,36.48 -0.24,7.68 -0.24,8.46 -0.48,18.24 0,8.88 -0.24,8.16 -0.24,6.96 0,6.72 -0.96,0 0,-22.08 -0.24,-5.52 0,-11.76 -0.72,-25.74 -0.48,-36.48 0,-6.24 -0.24,-7.92 -0.96,-36.72 -0.24,-3.84 0,-3.6 -0.24,-3.12 0,-2.64 -0.48,-10.8 -0.48,-10.56 -0.48,-6.72 -0.72,-6 -0.72,-4.8 -0.96,-4.08 0,0.24 -0.96,-3.12 -1.2,-3.36 -1.68,-2.4 0.24,0.24 -0.96,-0.72 0.24,0 -1.2,-0.24 -1.44,0.24 0.24,0 -0.96,0.72 0,-0.24 -1.92,1.92 0.24,0 -1.68,3.12 -1.44,3.84 -0.96,2.4 -0.96,3.36 0,-0.24 -0.72,3.84 -0.96,4.08 -1.68,8.64 -0.72,4.08 -0.72,3.6 -0.72,4.08 -0.72,4.56 -0.96,4.8 -0.72,5.28 -0.96,8.16 -0.72,8.64 -0.96,9.36 -0.72,10.32 -0.48,7.92 -0.24,8.88 -0.48,9.6 -0.48,10.56 -0.72,14.4 -0.48,15.36 -0.96,19.02 -0.48,10.56 -0.24,10.56 -0.72,18.72 -0.72,18.24 -0.72,13.68 -0.48,13.2 -0.24,6.96 -0.48,6.48 -0.24,6 -0.24,5.52 -0.24,6.48 -0.24,5.28 -0.24,7.2 -0.24,6.48 0,2.64 -0.24,2.16 0,1.92 -0.24,1.2 0,0.24 -0.72,1.92 -0.96,1.2 -1.68,0.48 -1.44,-0.24 -0.96,-1.2 -0.72,-2.4 0,-0.24 -0.72,-5.76 -0.48,-6.72 -0.24,-7.2 -0.48,-7.68 -0.24,-2.64 0,-6.48 -0.24,-3.84 -0.48,-8.4 -0.48,-9.36 -0.48,-11.28 -0.48,-12.24 -1.2,-25.2 -0.96,-18.96 -0.96,-17.52 -0.72,-19.02 -1.44,-29.52 -0.72,-18.72 -0.96,-18 -0.24,-3.36 -0.48,-4.08 -0.24,-4.32 -0.72,-4.8 -2.4,-20.16 -0.72,-5.76 -0.96,-4.8 -0.96,-4.08 -0.72,-3.6 -1.44,-8.88 0,0.24 -1.2,-4.56 -1.44,-5.04 -2.16,-6.72 -2.16,-6.48 -2.4,-6.48 -2.88,-6.72 -3.12,-6.24 -3.12,-6 -3.12,-5.52 -2.64,-4.56 -6,-9.12 -5.76,-7.92 -6.48,-7.68 0.24,0 -3.6,-3.84 -3.84,-4.08 -3.12,-2.88 0,0.24 -3.36,-2.64 -3.36,-2.4 -3.36,-1.92 -2.64,-1.68 -2.88,-1.44 -6.24,-2.64 -5.28,-1.92 -5.52,-1.68 -6.24,-1.68 0.24,0 -6.72,-1.68 -4.08,-0.72 -3.36,-0.72 -5.52,-0.96 -5.28,-0.96 -2.88,-0.24 -3.36,-0.48 -11.52,-0.96 -11.04,-0.96 -7.92,-0.48 -7.2,-0.24 -5.04,-0.24 -4.08,-0.24 -4.56,-0.24 -2.64,0 -2.88,-0.24 -4.08,0 -3.84,-0.24 -6.48,0 -5.28,-0.24 -4.56,-0.24 -11.52,-0.72 -4.32,-0.48 -11.28,-1.44 -5.28,-0.96 -0.24,0 -5.52,-1.44 -6.48,-2.64 -2.88,-1.68 -3.12,-2.16 0.48,-0.96 3.12,2.16 2.88,1.68 6.48,2.64 5.52,1.44 -0.24,0 5.28,0.96 11.28,1.44 4.32,0.48 11.52,0.72 4.56,0.24 5.28,0.24 6.48,0 3.84,0.24 4.08,0 2.88,0.24 2.64,0 4.56,0.24 4.08,0.24 5.04,0.24 7.2,0.24 7.92,0.48 11.04,0.96 11.52,0.96 3.36,0.48 2.88,0.24 5.28,0.96 5.52,0.96 3.36,0.72 4.08,0.72 6.72,1.68 0.24,0 6.24,1.68 5.52,1.68 5.28,1.92 6.24,2.64 2.88,1.44 2.64,1.68 3.36,1.92 3.36,2.4 3.36,2.64 0,0.24 3.12,2.88 3.84,4.08 3.6,3.84 0.24,0 6.48,7.68 5.76,7.92 6,9.12 2.64,4.56 3.12,5.52 3.12,6 3.12,6.24 2.88,6.72 2.4,6.48 2.16,6.48 2.16,6.72 1.44,5.04 1.2,4.56 0,0.24 1.44,8.88 0.72,3.6 0.96,4.08 0.96,4.8 0.72,5.76 2.4,20.16 0.72,4.8 0.24,4.32 0.48,4.08 0.24,3.36 0.96,18 0.72,18.72 1.44,29.52 0.72,19.02 0.96,17.52 0.96,18.96 1.2,25.2 0.48,12.24 0.48,11.28 0.48,9.36 0.48,8.4 0.24,3.84 0,6.48 0.24,2.64 0.48,7.68 0.24,7.2 0.48,6.72 0.72,5.76 0,-0.24 0.72,2.4 0.72,0.96 -0.48,-0.24 1.2,0.24 -0.24,0 1.44,-0.48 -0.24,0.24 0.72,-0.96 0.72,-1.92 0,0.24 0.24,-1.2 0,-1.92 0.24,-2.16 0,-2.64 0.24,-6.48 0.24,-7.2 0.24,-5.28 0.24,-6.48 0.24,-5.52 0.24,-6 0.48,-6.48 0.24,-6.96 0.48,-13.2 0.72,-13.68 0.72,-18.24 0.72,-18.72 0.24,-10.56 0.48,-10.56 0.96,-19.02 0.48,-15.36 0.72,-14.4 0.48,-10.56 0.48,-9.6 0.24,-8.88 0.48,-7.92 0.72,-10.32 0.96,-9.36 0.72,-8.64 0.96,-8.16 0.72,-5.28 0.96,-4.8 0.72,-4.56 0.72,-4.08 0.72,-3.6 0.72,-4.08 1.68,-8.64 0.96,-4.08 0.72,-3.84 0,-0.24 0.96,-3.36 0.96,-2.4 1.44,-3.84 1.68,-3.12 2.16,-1.92 0,-0.24 0.96,-0.72 1.68,-0.24 1.44,0.24 0.96,0.96 1.92,2.4 1.2,3.36 0.96,3.12 0,0.24 0.96,4.08 0.72,4.8 0.72,6 0.48,6.72 0.48,10.56 0.48,10.8 0,2.64 0.24,3.12 0,3.6 0.24,3.84 0.96,36.72 0.24,7.92 0,6.24 0.48,36.48 0.72,25.74 0,11.76 0.24,5.52 0,22.08 -0.96,0 0,-6.72 0.24,-6.96 0.24,-8.16 0,-8.88 0.48,-18.24 0.24,-8.46 0.24,-7.68 0.48,-36.48 0.48,-19.68 0.24,-9.12 0.24,-8.16 0.24,-13.68 0.24,-6.96 0,-6.72 0.24,-4.32 0,-3.84 0.24,-2.88 0,-1.92 0.48,-8.64 0.48,-9.12 0.96,-13.68 0.96,-13.2 0.48,-6 0.72,-5.76 0.72,-5.28 1.92,-9.6 0.96,-4.08 0,-0.24 0.96,-3.36 1.2,-2.88 1.44,-2.64 2.16,-2.64 2.88,-2.16 1.92,-0.48 2.16,0 2.16,0.24 0.24,0 1.68,0.48 3.12,2.16 2.4,2.64 0.24,0 1.92,2.4 0.72,0.96 1.2,1.44 1.44,1.92 1.44,2.16 3.84,4.8 4.08,5.76 8.4,11.28 3.6,4.8 1.44,2.16 1.2,1.68 4.32,6.72 1.2,1.92 1.44,2.16 1.68,2.4 0.96,1.44 0.96,1.68 -0.96,0.48" /><path
       id="path34"
       style="fill:#ffffff;fill-opacity:1;fill-rule:nonzero;stroke:none"
       d="m 495.855,668.775 17.64,0 0,-10.2 -17.64,0 0,10.2 z" /><path
       id="path36"
       style="fill:#ffffff;fill-opacity:1;fill-rule:nonzero;stroke:none"
       d="m 495.855,668.775 17.52,0 0,-10.08 -17.52,0 0,10.08 z" /><text
       id="text38"
       style="font-variant:normal;font-weight:normal;font-size:8.88099957px;font-family:'Times New Roman';-inkscape-font-specification:Times-Roman;writing-mode:lr-tb;fill:#000000;fill-opacity:1;fill-rule:nonzero;stroke:none"
       transform="matrix(1,0,0,-1,495.855,660.855)"><tspan
         id="tspan40"
         y="0"
         x="0 6.48313 11.039083">H O</tspan></text>
<path
       id="path42"
       style="fill:#ffffff;fill-opacity:1;fill-rule:nonzero;stroke:none"
       d="m 502.815,664.695 3.72,0 0,-7.8 -3.72,0 0,7.8 z" /><path
       id="path44"
       style="fill:#ffffff;fill-opacity:1;fill-rule:nonzero;stroke:none"
       d="m 502.815,664.695 3.6,0 0,-7.86 -3.6,0 0,7.86 z" /><text
       id="text46"
       style="font-variant:normal;font-weight:normal;font-size:6.96000004px;font-family:'Times New Roman';-inkscape-font-specification:Times-Roman;writing-mode:lr-tb;fill:#000000;fill-opacity:1;fill-rule:nonzero;stroke:none"
       transform="matrix(1,0,0,-1,502.815,658.515)"><tspan
         id="tspan48"
         y="0"
         x="0">2</tspan></text>
<path
       id="path50"
       style="fill:#ffffff;fill-opacity:1;fill-rule:nonzero;stroke:none"
       d="m 458.895,656.055 17.64,0 0,-10.2 -17.64,0 0,10.2 z" /><path
       id="path52"
       style="fill:#ffffff;fill-opacity:1;fill-rule:nonzero;stroke:none"
       d="m 458.895,656.055 17.52,0 0,-10.08 -17.52,0 0,10.08 z" /><text
       id="text54"
       style="font-variant:normal;font-weight:normal;font-size:8.88099957px;font-family:'Times New Roman';-inkscape-font-specification:Times-Roman;writing-mode:lr-tb;fill:#000000;fill-opacity:1;fill-rule:nonzero;stroke:none"
       transform="matrix(1,0,0,-1,458.895,648.135)"><tspan
         id="tspan56"
         y="0"
         x="0 6.48313 11.039083">H O</tspan></text>
<path
       id="path58"
       style="fill:#ffffff;fill-opacity:1;fill-rule:nonzero;stroke:none"
       d="m 465.855,651.975 3.72,0 0,-7.8 -3.72,0 0,7.8 z" /><path
       id="path60"
       style="fill:#ffffff;fill-opacity:1;fill-rule:nonzero;stroke:none"
       d="m 465.855,651.975 3.6,0 0,-7.86 -3.6,0 0,7.86 z" /><text
       id="text62"
       style="font-variant:normal;font-weight:normal;font-size:6.96000004px;font-family:'Times New Roman';-inkscape-font-specification:Times-Roman;writing-mode:lr-tb;fill:#000000;fill-opacity:1;fill-rule:nonzero;stroke:none"
       transform="matrix(1,0,0,-1,465.855,645.795)"><tspan
         id="tspan64"
         y="0"
         x="0">2</tspan></text>
<path
       id="path66"
       style="fill:#ffffff;fill-opacity:1;fill-rule:nonzero;stroke:none"
       d="m 322.815,386.235 17.64,0 0,-9.96 -17.64,0 0,9.96 z" /><path
       id="path68"
       style="fill:#ffffff;fill-opacity:1;fill-rule:nonzero;stroke:none"
       d="m 322.815,386.235 17.52,0 0,-10.08 -17.52,0 0,10.08 z" /><text
       id="text70"
       style="font-variant:normal;font-weight:normal;font-size:8.88099957px;font-family:'Times New Roman';-inkscape-font-specification:Times-Roman;writing-mode:lr-tb;fill:#000000;fill-opacity:1;fill-rule:nonzero;stroke:none"
       transform="matrix(1,0,0,-1,322.815,378.315)"><tspan
         id="tspan72"
         y="0"
         x="0 6.48313 11.039083">H O</tspan></text>
<path
       id="path74"
       style="fill:#ffffff;fill-opacity:1;fill-rule:nonzero;stroke:none"
       d="m 330.015,382.395 3.48,0 0,-8.04 -3.48,0 0,8.04 z" /><path
       id="path76"
       style="fill:#ffffff;fill-opacity:1;fill-rule:nonzero;stroke:none"
       d="m 330.015,382.395 3.6,0 0,-7.86 -3.6,0 0,7.86 z" /><text
       id="text78"
       style="font-variant:normal;font-weight:normal;font-size:6.96000004px;font-family:'Times New Roman';-inkscape-font-specification:Times-Roman;writing-mode:lr-tb;fill:#000000;fill-opacity:1;fill-rule:nonzero;stroke:none"
       transform="matrix(1,0,0,-1,330.015,376.215)"><tspan
         id="tspan80"
         y="0"
         x="0">2</tspan></text>
<text
       id="text82"
       style="font-variant:normal;font-weight:normal;font-size:8.88099957px;font-family:'Times New Roman';-inkscape-font-specification:Times-Roman;writing-mode:lr-tb;fill:#000000;fill-opacity:1;fill-rule:nonzero;stroke:none"
       transform="matrix(1,0,0,-1,96.015,703.575)"><tspan
         id="tspan84"
         y="0"
         x="0 4.555953">10</tspan></text>
<text
       id="text86"
       style="font-variant:normal;font-weight:normal;font-size:6.96000004px;font-family:'Times New Roman';-inkscape-font-specification:Times-Roman;writing-mode:lr-tb;fill:#000000;fill-opacity:1;fill-rule:nonzero;stroke:none"
       transform="matrix(1,0,0,-1,105.375,706.755)"><tspan
         id="tspan88"
         y="0"
         x="0">2</tspan></text>
<text
       id="text90"
       style="font-variant:normal;font-weight:normal;font-size:8.88099957px;font-family:'Times New Roman';-inkscape-font-specification:Times-Roman;writing-mode:lr-tb;fill:#000000;fill-opacity:1;fill-rule:nonzero;stroke:none"
       transform="matrix(1,0,0,-1,96.015,581.895)"><tspan
         id="tspan94"
         y="0"
         x="0">10</tspan></text>
<text
       id="text100"
       style="font-variant:normal;font-weight:normal;font-size:8.88099957px;font-family:'Times New Roman';-inkscape-font-specification:Times-Roman;writing-mode:lr-tb;fill:#000000;fill-opacity:1;fill-rule:nonzero;stroke:none"
       transform="matrix(1,0,0,-1,90.735,213.675)"><tspan
         id="tspan102"
         y="0"
         x="0 4.555953">10</tspan></text>
<text
       id="text104"
       style="font-variant:normal;font-weight:normal;font-size:6.96000004px;font-family:'Times New Roman';-inkscape-font-specification:Times-Roman;writing-mode:lr-tb;fill:#000000;fill-opacity:1;fill-rule:nonzero;stroke:none"
       transform="matrix(1,0,0,-1,100.095,216.375)"><tspan
         id="tspan106"
         y="0"
         x="0 3.59832 5.2756801">– 2</tspan></text>
<text
       id="text108"
       style="font-variant:normal;font-weight:normal;font-size:8.88099957px;font-family:'Times New Roman';-inkscape-font-specification:Times-Roman;writing-mode:lr-tb;fill:#000000;fill-opacity:1;fill-rule:nonzero;stroke:none"
       transform="matrix(1,0,0,-1,100.335,459.495)"><tspan
         id="tspan110"
         y="0"
         x="0">1</tspan></text>
<text
       id="text112"
       style="font-variant:normal;font-weight:normal;font-size:6.96000004px;font-family:'Times New Roman';-inkscape-font-specification:Times-Roman;writing-mode:lr-tb;fill:#000000;fill-opacity:1;fill-rule:nonzero;stroke:none"
       transform="matrix(1,0,0,-1,108.495,252.135)"><tspan
         id="tspan114"
         y="0"
         x="0">2</tspan><tspan
         id="tspan116"
         y="-48.476398"
         x="0">5</tspan><tspan
         id="tspan118"
         y="73.678558"
         x="0">5</tspan><tspan
         id="tspan120"
         y="-122.38464"
         x="0">2</tspan><tspan
         id="tspan122"
         y="-171.10464"
         x="0">5</tspan><tspan
         id="tspan124"
         y="-245.08247"
         x="0">2</tspan><tspan
         id="tspan126"
         y="-293.55887"
         x="0">5</tspan><tspan
         id="tspan128"
         y="-367.47409"
         x="0">2</tspan><tspan
         id="tspan130"
         y="-416.19409"
         x="0">5</tspan></text>
<text
       id="text140"
       style="font-variant:normal;font-weight:normal;font-size:8.88099957px;font-family:'Times New Roman';-inkscape-font-specification:Times-Roman;writing-mode:lr-tb;fill:#000000;fill-opacity:1;fill-rule:nonzero;stroke:none"
       transform="matrix(0,1,1,0,84.195,400.395)"><tspan
         id="tspan142"
         y="0"
         x="0 5.0444078 9.6003609 13.463596 17.539974 19.928965 23.046194 25.435184 29.511562 31.669645 35.746025 38.135014 40.524002 44.600384 49.156334 53.4725 57.548882 59.946751 62.646572 66.962738 71.518692 73.676773 76.794006 81.34996 87.353516 89.751389 94.307343 101.27004">Specific attenuation (dB/km)</tspan></text>
<text
       id="text144"
       style="font-variant:normal;font-weight:normal;font-size:6.96000004px;font-family:'Times New Roman';-inkscape-font-specification:Times-Roman;writing-mode:lr-tb;fill:#000000;fill-opacity:1;fill-rule:nonzero;stroke:none"
       transform="matrix(1,0,0,-1,510.015,159.015)"><tspan
         id="tspan146"
         y="0"
         x="0 3.59832 5.2756801 -285.58273 -347.97913 -129.11496 -191.26776 -35.03664">3.552522</tspan></text>
<text
       id="text148"
       style="font-variant:normal;font-weight:normal;font-size:8.88099957px;font-family:'Times New Roman';-inkscape-font-specification:Times-Roman;writing-mode:lr-tb;fill:#000000;fill-opacity:1;fill-rule:nonzero;stroke:none"
       transform="matrix(1,0,0,-1,426.015,150.315)"><tspan
         id="tspan150"
         y="0"
         x="0 4.555953">10</tspan></text>
<text
       id="text152"
       style="font-variant:normal;font-weight:normal;font-size:6.96000004px;font-family:'Times New Roman';-inkscape-font-specification:Times-Roman;writing-mode:lr-tb;fill:#000000;fill-opacity:1;fill-rule:nonzero;stroke:none"
       transform="matrix(1,0,0,-1,435.375,153.495)"><tspan
         id="tspan154"
         y="0"
         x="0">2</tspan></text>
<text
       id="text156"
       style="font-variant:normal;font-weight:normal;font-size:8.88099957px;font-family:'Times New Roman';-inkscape-font-specification:Times-Roman;writing-mode:lr-tb;fill:#000000;fill-opacity:1;fill-rule:nonzero;stroke:none"
       transform="matrix(1,0,0,-1,268.815,150.315)"><tspan
         id="tspan158"
         y="0"
         x="0 4.555953 -153.36598">101</tspan></text>
<path
       id="path160"
       style="fill:#ffffff;fill-opacity:1;fill-rule:nonzero;stroke:none"
       d="m 383.535,621.735 25.8,0 0,-9.96 -25.8,0 0,9.96 z" /><path
       id="path162"
       style="fill:#ffffff;fill-opacity:1;fill-rule:nonzero;stroke:none"
       d="m 383.535,621.735 25.74,0 0,-10.08 -25.74,0 0,10.08 z" /><text
       id="text164"
       style="font-variant:normal;font-weight:normal;font-size:8.88099957px;font-family:'Times New Roman';-inkscape-font-specification:Times-Roman;writing-mode:lr-tb;fill:#000000;fill-opacity:1;fill-rule:nonzero;stroke:none"
       transform="matrix(1,0,0,-1,383.535,613.815)"><tspan
         id="tspan166"
         y="0"
         x="0 6.5097728 9.3872166 13.925408 16.323278 20.15987 22.797527">Dry air</tspan></text>
<path
       id="path168"
       style="fill:#ffffff;fill-opacity:1;fill-rule:nonzero;stroke:none"
       d="m 431.055,512.055 25.8,0 0,-10.2 -25.8,0 0,10.2 z" /><path
       id="path170"
       style="fill:#ffffff;fill-opacity:1;fill-rule:nonzero;stroke:none"
       d="m 431.055,512.055 25.74,0 0,-10.08 -25.74,0 0,10.08 z" /><text
       id="text172"
       style="font-variant:normal;font-weight:normal;font-size:8.88099957px;font-family:'Times New Roman';-inkscape-font-specification:Times-Roman;writing-mode:lr-tb;fill:#000000;fill-opacity:1;fill-rule:nonzero;stroke:none"
       transform="matrix(1,0,0,-1,431.055,504.135)"><tspan
         id="tspan174"
         y="0"
         x="0 6.5097728 9.3872166 13.925408 16.323278 20.15987 22.797527">Dry air</tspan></text>
<path
       id="path176"
       style="fill:#ffffff;fill-opacity:1;fill-rule:nonzero;stroke:none"
       d="m 458.895,265.275 25.8,0 0,-9.96 -25.8,0 0,9.96 z" /><path
       id="path178"
       style="fill:#ffffff;fill-opacity:1;fill-rule:nonzero;stroke:none"
       d="m 458.895,265.275 25.74,0 0,-10.08 -25.74,0 0,10.08 z" /><text
       id="text180"
       style="font-variant:normal;font-weight:normal;font-size:8.88099957px;font-family:'Times New Roman';-inkscape-font-specification:Times-Roman;writing-mode:lr-tb;fill:#000000;fill-opacity:1;fill-rule:nonzero;stroke:none"
       transform="matrix(1,0,0,-1,458.895,257.355)"><tspan
         id="tspan182"
         y="0"
         x="0 6.5097728 9.3872166 13.925408 16.323278 20.15987 22.797527">Dry air</tspan></text>
<path
       id="path184"
       style="fill:#ffffff;fill-opacity:1;fill-rule:nonzero;stroke:none"
       d="m 305.135,251.835 26.04,0 0,-9.96 -26.04,0 0,9.96 z" /><path
       id="path186"
       style="fill:#ffffff;fill-opacity:1;fill-rule:nonzero;stroke:none"
       d="m 305.135,251.835 25.74,0 0,-10.08 -25.74,0 0,10.08 z" /><text
       y="-243.91499"
       x="305.13501"
       id="text188"
       style="font-variant:normal;font-weight:normal;font-size:8.88099957px;font-family:'Times New Roman';-inkscape-font-specification:Times-Roman;writing-mode:lr-tb;fill:#000000;fill-opacity:1;fill-rule:nonzero;stroke:none"
       transform="scale(1,-1)"><tspan
         id="tspan190"
         y="-243.91499"
         x="305.13501 311.64478 314.52222 319.06039 321.45828 325.29486 327.93253">Dry air</tspan></text>
<path
       id="path192"
       style="fill:#ffffff;fill-opacity:1;fill-rule:nonzero;stroke:none"
       d="m 151.455,214.875 25.8,0 0,-10.2 -25.8,0 0,10.2 z" /><path
       id="path194"
       style="fill:#ffffff;fill-opacity:1;fill-rule:nonzero;stroke:none"
       d="m 151.455,214.875 25.74,0 0,-10.08 -25.74,0 0,10.08 z" /><text
       id="text196"
       style="font-style:normal;font-variant:normal;font-weight:normal;font-stretch:normal;font-size:8.88099957px;line-height:125%;font-family:'Times New Roman';-inkscape-font-specification:'Times New Roman, Normal';text-align:start;writing-mode:lr-tb;text-anchor:start;fill:#000000;fill-opacity:1;fill-rule:nonzero;stroke:none"
       transform="matrix(1,0,0,-1,151.455,206.955)"><tspan
         y="0"
         x="0"
         id="tspan4403">Dry air</tspan></text>
<text
       y="-136.39546"
       x="282.14005"
       id="text202"
       style="font-style:italic;font-variant:normal;font-weight:normal;font-stretch:normal;font-size:8.88099957px;line-height:125%;font-family:'Times New Roman';-inkscape-font-specification:'Times New Roman, Italic';text-align:start;writing-mode:lr-tb;text-anchor:start;fill:#000000;fill-opacity:1;fill-rule:nonzero;stroke:none"
       transform="scale(1,-1)"><tspan
         y="-136.39546"
         x="282.14005"
         id="tspan4405"><tspan
   id="tspan4407"
   style="font-style:normal;font-variant:normal;font-weight:normal;font-stretch:normal;font-family:'Times New Roman';-inkscape-font-specification:'Times New Roman, '">Frequency, </tspan>f<tspan
   id="tspan4409"
   style="font-style:normal;font-variant:normal;font-weight:normal;font-stretch:normal;font-family:'Times New Roman';-inkscape-font-specification:'Times New Roman, '"> (GHz)</tspan></tspan></text>
<text
       y="-672.90155"
       x="145.60355"
       id="text212"
       style="font-variant:normal;font-weight:normal;font-size:8.88099957px;line-height:125%;font-family:'Times New Roman';-inkscape-font-specification:Times-Roman;text-align:start;writing-mode:lr-tb;text-anchor:start;fill:#000000;fill-opacity:1;fill-rule:nonzero;stroke:none"
       transform="scale(1,-1)"><tspan
         style="fill:#000000;fill-opacity:1"
         y="-672.90155"
         x="145.60355"
         id="tspan4368">Pressure: 1013 hPa</tspan><tspan
         style="fill:#000000;fill-opacity:1"
         y="-661.80029"
         x="145.60355"
         id="tspan4370">Temperature: 15° C</tspan><tspan
         style="fill:#000000;fill-opacity:1"
         y="-650.69904"
         x="145.60355"
         id="tspan4372">Water vapour: 7.5 g/m</tspan></text>
</g></svg>