<?xml version="1.0" encoding="UTF-8" standalone="no"?>
<svg
   xmlns:dc="http://purl.org/dc/elements/1.1/"
   xmlns:cc="http://creativecommons.org/ns#"
   xmlns:rdf="http://www.w3.org/1999/02/22-rdf-syntax-ns#"
   xmlns:svg="http://www.w3.org/2000/svg"
   xmlns="http://www.w3.org/2000/svg"
   xmlns:sodipodi="http://sodipodi.sourceforge.net/DTD/sodipodi-0.dtd"
   xmlns:inkscape="http://www.inkscape.org/namespaces/inkscape"
   style="font-style:normal;font-weight:normal;font-size:12px;font-family:Dialog;color-interpolation:auto;fill:#000000;fill-opacity:1;stroke:#000000;stroke-width:1;stroke-linecap:square;stroke-linejoin:miter;stroke-miterlimit:10;stroke-dasharray:none;stroke-dashoffset:0;stroke-opacity:1;color-rendering:auto;image-rendering:auto;shape-rendering:auto;text-rendering:auto"
   width="280.74011"
   height="336.75476"
   version="1.1"
   id="svg4634"
   sodipodi:docname="squiggly_doppler_at_wall_1.svg"
   inkscape:version="0.92.2 (unknown)">
  <metadata
     id="metadata4638">
    <rdf:RDF>
      <cc:Work
         rdf:about="">
        <dc:format>image/svg+xml</dc:format>
        <dc:type
           rdf:resource="http://purl.org/dc/dcmitype/StillImage" />
        <dc:title></dc:title>
      </cc:Work>
    </rdf:RDF>
  </metadata>
  <sodipodi:namedview
     pagecolor="#ffffff"
     bordercolor="#666666"
     borderopacity="1"
     objecttolerance="10"
     gridtolerance="10"
     guidetolerance="10"
     inkscape:pageopacity="0"
     inkscape:pageshadow="2"
     inkscape:window-width="1855"
     inkscape:window-height="1176"
     id="namedview4636"
     showgrid="false"
     fit-margin-top="0"
     fit-margin-left="0"
     fit-margin-right="0"
     fit-margin-bottom="0"
     inkscape:zoom="1.1655825"
     inkscape:cx="353.20145"
     inkscape:cy="188.39132"
     inkscape:window-x="1145"
     inkscape:window-y="24"
     inkscape:window-maximized="1"
     inkscape:current-layer="g4388" />
  <!--Generated by the Batik Graphics2D SVG Generator-->
  <defs
     id="genericDefs">
    <defs
       id="defs1">
      <clipPath
         id="clipPath1"
         clipPathUnits="userSpaceOnUse">
        <path
           id="path4070"
           d="M 0,0 H 711 V 449 H 0 Z"
           inkscape:connector-curvature="0" />
      </clipPath>
    </defs>
  </defs>
  <g
     id="g4100"
     style="color-interpolation:linearRGB;fill:#262626;stroke:#262626;stroke-width:0.65969998;stroke-linejoin:round;color-rendering:optimizeQuality;image-rendering:optimizeQuality;text-rendering:geometricPrecision"
     transform="translate(-56.6193,-42.67015)">
    <line
       id="line4084"
       y1="336"
       x2="330"
       x1="92"
       style="fill:none"
       y2="336" />
    <line
       id="line4086"
       y1="98"
       x2="330"
       x1="92"
       style="fill:none"
       y2="98" />
    <line
       id="line4088"
       y1="336"
       x2="92"
       x1="92"
       style="fill:none"
       y2="333.62" />
    <line
       id="line4090"
       y1="336"
       x2="211"
       x1="211"
       style="fill:none"
       y2="333.62" />
    <line
       id="line4092"
       y1="336"
       x2="330"
       x1="330"
       style="fill:none"
       y2="333.62" />
    <line
       id="line4094"
       y1="98"
       x2="92"
       x1="92"
       style="fill:none"
       y2="100.38" />
    <line
       id="line4096"
       y1="98"
       x2="211"
       x1="211"
       style="fill:none"
       y2="100.38" />
    <line
       id="line4098"
       y1="98"
       x2="330"
       x1="330"
       style="fill:none"
       y2="100.38" />
  </g>
  <g
     id="g4104"
     style="font-size:16px;font-family:mwa_cmr10;color-interpolation:linearRGB;fill:#262626;stroke:#262626;color-rendering:optimizeQuality;image-rendering:optimizeQuality;text-rendering:geometricPrecision"
     transform="translate(35.3807,299.13535)">
    <path
       inkscape:connector-curvature="0"
       id="path4102"
       d="m 0.0417,13.6593 q -1.9532,0 -2.6641,-1.6172 -0.7109,-1.6172 -0.7109,-3.8515 0,-1.3907 0.2578,-2.6172 0.2578,-1.2266 1.0078,-2.0781 0.75,-0.8516 2.1094,-0.8516 1.0625,0 1.7343,0.5156 0.6719,0.5156 1.0235,1.3281 0.3515,0.8125 0.4765,1.75 0.125,0.9375 0.125,1.9532 0,1.375 -0.25,2.5781 -0.25,1.2031 -0.9921,2.0469 -0.7422,0.8437 -2.1172,0.8437 z m 0,-0.4219 q 0.8906,0 1.3281,-0.914 Q 1.8073,11.4093 1.9089,10.2999 2.0104,9.1906 2.0104,7.9406 2.0104,6.7374 1.9089,5.7218 1.8073,4.7062 1.3776,3.8781 0.9479,3.0499 0.0417,3.0499 q -0.9063,0 -1.3438,0.8282 -0.4375,0.8281 -0.539,1.8437 -0.1016,1.0156 -0.1016,2.2188 0,0.8906 0.0469,1.6797 0.0468,0.789 0.2343,1.625 0.1875,0.8359 0.6016,1.414 0.4141,0.5781 1.1016,0.5781 z"
       style="stroke:none" />
  </g>
  <g
     id="g4108"
     style="font-size:16px;font-family:mwa_cmr10;color-interpolation:linearRGB;fill:#262626;stroke:#262626;color-rendering:optimizeQuality;image-rendering:optimizeQuality;text-rendering:geometricPrecision"
     transform="translate(154.3807,299.13535)">
    <path
       inkscape:connector-curvature="0"
       id="path4106"
       d="m -2.5677,11.4718 q 0.1719,0.4688 0.5078,0.8516 0.3359,0.3828 0.8047,0.6015 0.4687,0.2188 0.9687,0.2188 1.1563,0 1.5938,-0.8984 0.4375,-0.8985 0.4375,-2.1797 0,-0.5625 -0.0234,-0.9375 Q 1.6979,8.7531 1.6198,8.3937 1.4635,7.8312 1.0964,7.4093 0.7292,6.9874 0.1823,6.9874 q -0.5313,0 -0.9219,0.1641 -0.3906,0.1641 -0.6328,0.3828 -0.2422,0.2188 -0.4297,0.461 -0.1875,0.2421 -0.2344,0.2578 h -0.1718 q -0.0469,0 -0.1016,-0.0469 Q -2.3646,8.1593 -2.3646,8.1124 V 2.7687 q 0,-0.0469 0.0469,-0.0859 0.0469,-0.0391 0.1094,-0.0391 h 0.0468 q 1.0782,0.5156 2.2813,0.5156 1.1875,0 2.2969,-0.5156 h 0.0468 q 0.0469,0 0.0938,0.0391 0.0469,0.039 0.0469,0.0859 v 0.1406 q 0,0.0781 -0.0313,0.0781 -0.5469,0.7344 -1.3672,1.1407 -0.8203,0.4062 -1.7109,0.4062 -0.6406,0 -1.3125,-0.1875 v 3.0313 q 0.5312,-0.4375 0.9531,-0.6172 0.4219,-0.1797 1.0625,-0.1797 0.8906,0 1.586,0.5078 0.6953,0.5078 1.0703,1.3203 0.375,0.8125 0.375,1.6719 0,0.9531 -0.4688,1.7734 -0.4687,0.8203 -1.2812,1.3125 -0.8125,0.4922 -1.7657,0.4922 -0.7968,0 -1.4531,-0.414 -0.6562,-0.4141 -1.039,-1.1016 -0.3829,-0.6875 -0.3829,-1.4531 0,-0.3594 0.2344,-0.586 0.2344,-0.2265 0.5938,-0.2265 0.3437,0 0.5859,0.2265 0.2422,0.2266 0.2422,0.586 0,0.3437 -0.2422,0.5781 -0.2422,0.2344 -0.5859,0.2344 -0.0625,0 -0.1328,-0.0078 -0.0704,-0.0079 -0.1016,-0.0235 z"
       style="stroke:none" />
  </g>
  <g
     id="g4114"
     style="font-size:16px;font-family:mwa_cmr10;color-interpolation:linearRGB;fill:#262626;stroke:#262626;color-rendering:optimizeQuality;image-rendering:optimizeQuality;text-rendering:geometricPrecision"
     transform="translate(273.3807,299.13535)">
    <path
       inkscape:connector-curvature="0"
       id="path4110"
       d="m -6.4323,13.2999 v -0.5625 q 2,0 2,-0.5156 V 3.8312 Q -5.2604,4.2218 -6.5261,4.2218 V 3.6593 q 1.9688,0 2.9688,-1.0156 h 0.2187 q 0.0625,0 0.1094,0.0391 0.0469,0.039 0.0469,0.1015 v 9.4375 q 0,0.5156 2,0.5156 v 0.5625 z"
       style="stroke:none" />
    <path
       inkscape:connector-curvature="0"
       id="path4112"
       d="m 4,13.6593 q -1.9531,0 -2.6641,-1.6172 Q 0.625,10.4249 0.625,8.1906 0.625,6.7999 0.8828,5.5734 1.1406,4.3468 1.8906,3.4953 2.6406,2.6437 4,2.6437 q 1.0625,0 1.7344,0.5156 0.6718,0.5156 1.0234,1.3281 0.3516,0.8125 0.4766,1.75 0.125,0.9375 0.125,1.9532 0,1.375 -0.25,2.5781 -0.25,1.2031 -0.9922,2.0469 Q 5.375,13.6593 4,13.6593 Z m 0,-0.4219 q 0.8906,0 1.3281,-0.914 Q 5.7656,11.4093 5.8672,10.2999 5.9688,9.1906 5.9688,7.9406 5.9688,6.7374 5.8672,5.7218 5.7656,4.7062 5.3359,3.8781 4.9062,3.0499 4,3.0499 q -0.9062,0 -1.3438,0.8282 -0.4374,0.8281 -0.539,1.8437 -0.1016,1.0156 -0.1016,2.2188 0,0.8906 0.0469,1.6797 0.0469,0.789 0.2344,1.625 0.1875,0.8359 0.6015,1.414 Q 3.3125,13.2374 4,13.2374 Z"
       style="stroke:none" />
  </g>
  <g
     id="g4142"
     style="font-size:16px;font-family:mwa_cmr10;color-interpolation:linearRGB;fill:#262626;stroke:#262626;color-rendering:optimizeQuality;image-rendering:optimizeQuality;text-rendering:geometricPrecision"
     transform="translate(154.3808,319.45485)">
    <path
       inkscape:connector-curvature="0"
       id="path4116"
       d="m -49.3682,13.2999 v -0.5625 q 1.625,0 2.2657,-0.9062 l 2.6562,-3.9531 -2.9375,-4.4844 q -0.25,-0.2969 -0.6797,-0.3828 -0.4297,-0.086 -1.0859,-0.086 V 2.3624 h 4.4844 v 0.5625 q -0.2969,0 -0.6719,0.1172 -0.375,0.1172 -0.375,0.3203 0,0.0313 0.0156,0.0625 l 2.0938,3.1875 1.8437,-2.75 q 0.0625,-0.1406 0.0625,-0.2343 0,-0.3282 -0.3203,-0.5157 -0.3203,-0.1875 -0.6797,-0.1875 V 2.3624 h 3.9063 v 0.5625 q -1.625,0 -2.2813,0.9219 l -2.1875,3.2656 3.375,5.1563 q 0.2813,0.3125 0.6953,0.3906 0.4141,0.0781 1.0703,0.0781 v 0.5625 h -4.4843 v -0.5625 q 0.25,0 0.6484,-0.1171 0.3984,-0.1172 0.3984,-0.3204 0,-0.0468 -0.0312,-0.0625 l -2.5156,-3.8593 -2.3125,3.4375 q -0.0469,0.0937 -0.0469,0.2187 0,0.3281 0.3203,0.5156 0.3203,0.1875 0.6797,0.1875 v 0.5625 z"
       style="stroke:none" />
    <path
       inkscape:connector-curvature="0"
       id="path4118"
       d="M -37.6806,10.3312 V 9.3468 h 4.2343 v 0.9844 z"
       style="stroke:none" />
    <path
       inkscape:connector-curvature="0"
       id="path4120"
       d="m -32.1685,16.4093 v -0.5625 q 0.5469,0 0.8984,-0.0937 0.3516,-0.0938 0.3516,-0.4219 V 7.6124 q 0,-0.4375 -0.3125,-0.5468 -0.3125,-0.1094 -0.9375,-0.1094 V 6.3937 l 2.3594,-0.1719 v 1 q 0.4375,-0.4844 1.0234,-0.7422 0.586,-0.2578 1.2422,-0.2578 0.9375,0 1.6953,0.5156 0.7578,0.5157 1.1875,1.3438 0.4297,0.8281 0.4297,1.7656 0,0.9688 -0.4766,1.8047 -0.4765,0.8359 -1.289,1.3359 -0.8125,0.5 -1.7969,0.5 -1.1562,0 -1.9687,-0.9531 v 2.7969 q 0,0.3281 0.3593,0.4219 0.3594,0.0937 0.8907,0.0937 v 0.5625 z m 2.4063,-4.6719 q 0.2812,0.5782 0.7812,0.9454 0.5,0.3671 1.0938,0.3671 0.5625,0 0.9843,-0.2968 0.4219,-0.2969 0.711,-0.7969 0.289,-0.5 0.4297,-1.0469 0.1406,-0.5469 0.1406,-1.0625 0,-0.6406 -0.2344,-1.3906 -0.2344,-0.75 -0.7031,-1.2578 -0.4688,-0.5078 -1.1406,-0.5078 -0.6563,0 -1.1954,0.3281 -0.539,0.3281 -0.8671,0.9062 z"
       style="stroke:none" />
    <path
       inkscape:connector-curvature="0"
       id="path4122"
       d="m -19.3542,13.4874 q -0.9531,0 -1.7735,-0.4921 -0.8203,-0.4922 -1.2968,-1.3125 -0.4766,-0.8204 -0.4766,-1.7891 0,-0.7344 0.2578,-1.4141 0.2578,-0.6797 0.75,-1.2187 0.4922,-0.5391 1.1406,-0.836 0.6485,-0.2968 1.3985,-0.2968 0.9844,0 1.7969,0.5156 0.8125,0.5156 1.2812,1.3906 0.4688,0.875 0.4688,1.8594 0,0.9531 -0.4766,1.7812 -0.4766,0.8282 -1.2969,1.3204 -0.8203,0.4921 -1.7734,0.4921 z m 0,-0.4843 q 1.2812,0 1.7109,-0.9297 0.4297,-0.9297 0.4297,-2.3672 0,-0.7969 -0.0859,-1.3281 -0.086,-0.5313 -0.3672,-0.9532 -0.1875,-0.2656 -0.461,-0.4687 -0.2734,-0.2031 -0.5859,-0.3047 -0.3125,-0.1016 -0.6406,-0.1016 -0.5,0 -0.9453,0.2266 -0.4453,0.2266 -0.7422,0.6484 -0.2969,0.4532 -0.3828,0.9922 -0.086,0.5391 -0.086,1.2891 0,0.9062 0.1563,1.6172 0.1562,0.7109 0.6328,1.1953 0.4766,0.4844 1.3672,0.4844 z"
       style="stroke:none" />
    <path
       inkscape:connector-curvature="0"
       id="path4124"
       d="m -14.9063,13.3468 v -2.6094 q 0,-0.125 0.1407,-0.125 h 0.2031 q 0.0937,0 0.125,0.125 0.4375,2.3125 2.1562,2.3125 0.75,0 1.2657,-0.3437 0.5156,-0.3438 0.5156,-1.0625 0,-0.5156 -0.3985,-0.875 -0.3984,-0.3594 -0.9453,-0.5 l -1.0781,-0.2031 q -0.5312,-0.125 -0.9766,-0.3672 -0.4453,-0.2422 -0.7265,-0.6406 -0.2813,-0.3985 -0.2813,-0.9297 0,-0.7032 0.375,-1.1563 0.375,-0.4531 0.9688,-0.6484 0.5937,-0.1953 1.2812,-0.1953 0.8125,0 1.4219,0.4375 l 0.4688,-0.4063 q 0,-0.0312 0.0781,-0.0312 h 0.1094 q 0.0468,0 0.0859,0.039 0.0391,0.0391 0.0391,0.086 v 2.0937 q 0,0.1563 -0.125,0.1563 h -0.1875 q -0.1407,0 -0.1407,-0.1563 0,-0.8281 -0.4687,-1.3359 -0.4688,-0.5078 -1.2969,-0.5078 -0.7187,0 -1.25,0.2656 -0.5312,0.2656 -0.5312,0.9062 0,0.4532 0.3828,0.7344 0.3828,0.2813 0.8828,0.4063 l 1.0937,0.2031 q 0.5469,0.125 1.0157,0.4219 0.4687,0.2968 0.75,0.75 0.2812,0.4531 0.2812,1.0312 0,0.5781 -0.2031,1 -0.2031,0.4219 -0.5547,0.7031 -0.3516,0.2813 -0.8359,0.4219 -0.4844,0.1406 -1.0157,0.1406 -1,0 -1.7187,-0.6875 l -0.5781,0.6407 q 0,0.0468 -0.0938,0.0468 h -0.0937 q -0.1407,0 -0.1407,-0.1406 z"
       style="stroke:none" />
    <path
       inkscape:connector-curvature="0"
       id="path4126"
       d="m -8.6922,13.2999 v -0.5625 q 0.5469,0 0.8985,-0.0859 0.3515,-0.0859 0.3515,-0.4297 V 7.8624 q 0,-0.625 -0.2421,-0.7656 Q -7.9265,6.9562 -8.6297,6.9562 V 6.3937 l 2.3125,-0.1719 v 6 q 0,0.3438 0.3047,0.4297 0.3047,0.0859 0.8047,0.0859 v 0.5625 z m 0.6719,-9.8281 q 0,-0.3437 0.2656,-0.6094 0.2657,-0.2656 0.6094,-0.2656 0.2344,0 0.4453,0.1172 0.211,0.1172 0.3282,0.3281 0.1171,0.211 0.1171,0.4297 0,0.3438 -0.2656,0.6094 -0.2656,0.2656 -0.625,0.2656 -0.3437,0 -0.6094,-0.2656 -0.2656,-0.2656 -0.2656,-0.6094 z"
       style="stroke:none" />
    <path
       inkscape:connector-curvature="0"
       id="path4128"
       d="M -3.1534,11.3781 V 6.9562 H -4.4815 V 6.5499 q 1.0469,0 1.5391,-0.9765 0.4922,-0.9766 0.4922,-2.1172 h 0.4531 v 2.9375 h 2.2656 v 0.5625 h -2.2656 v 4.3906 q 0,0.6563 0.2265,1.1563 0.2266,0.5 0.8047,0.5 0.5469,0 0.7891,-0.5235 0.2422,-0.5234 0.2422,-1.1328 v -0.9531 h 0.4531 v 0.9844 q 0,0.5 -0.1797,0.9843 -0.1797,0.4844 -0.539,0.8047 -0.3594,0.3203 -0.875,0.3203 -0.9688,0 -1.5235,-0.5781 -0.5547,-0.5781 -0.5547,-1.5312 z"
       style="stroke:none" />
    <path
       inkscape:connector-curvature="0"
       id="path4130"
       d="m 1.8634,13.2999 v -0.5625 q 0.5469,0 0.8985,-0.0859 0.3515,-0.0859 0.3515,-0.4297 V 7.8624 q 0,-0.625 -0.2422,-0.7656 Q 2.6291,6.9562 1.9259,6.9562 V 6.3937 L 4.2384,6.2218 v 6 q 0,0.3438 0.3047,0.4297 0.3047,0.0859 0.8047,0.0859 v 0.5625 z M 2.5353,3.4718 q 0,-0.3437 0.2656,-0.6094 0.2657,-0.2656 0.6094,-0.2656 0.2344,0 0.4453,0.1172 0.211,0.1172 0.3281,0.3281 0.1172,0.211 0.1172,0.4297 0,0.3438 -0.2656,0.6094 -0.2656,0.2656 -0.625,0.2656 -0.3437,0 -0.6094,-0.2656 Q 2.5353,3.8156 2.5353,3.4718 Z"
       style="stroke:none" />
    <path
       inkscape:connector-curvature="0"
       id="path4132"
       d="m 9.7616,13.4874 q -0.9531,0 -1.7734,-0.4921 Q 7.1678,12.5031 6.6913,11.6828 6.2147,10.8624 6.2147,9.8937 q 0,-0.7344 0.2578,-1.4141 0.2578,-0.6797 0.75,-1.2187 0.4922,-0.5391 1.1407,-0.836 0.6484,-0.2968 1.3984,-0.2968 0.9844,0 1.7969,0.5156 0.8125,0.5156 1.2812,1.3906 0.4688,0.875 0.4688,1.8594 0,0.9531 -0.4766,1.7812 -0.4766,0.8282 -1.2969,1.3204 -0.8203,0.4921 -1.7734,0.4921 z m 0,-0.4843 q 1.2812,0 1.7109,-0.9297 0.4297,-0.9297 0.4297,-2.3672 0,-0.7969 -0.0859,-1.3281 Q 11.7303,7.8468 11.4491,7.4249 11.2616,7.1593 10.9882,6.9562 10.7147,6.7531 10.4022,6.6515 10.0897,6.5499 9.7616,6.5499 q -0.5,0 -0.9453,0.2266 Q 8.371,7.0031 8.0741,7.4249 7.7772,7.8781 7.6913,8.4171 q -0.086,0.5391 -0.086,1.2891 0,0.9062 0.1563,1.6172 0.1562,0.7109 0.6328,1.1953 0.4766,0.4844 1.3672,0.4844 z"
       style="stroke:none" />
    <path
       inkscape:connector-curvature="0"
       id="path4134"
       d="m 14.1627,13.2999 v -0.5625 q 0.5468,0 0.8984,-0.0859 0.3516,-0.0859 0.3516,-0.4297 V 7.8624 q 0,-0.4375 -0.1329,-0.625 Q 15.147,7.0499 14.9048,7.0031 14.6627,6.9562 14.1627,6.9562 V 6.3937 l 2.3125,-0.1719 v 1.5625 q 0.3281,-0.6875 0.9531,-1.125 0.625,-0.4375 1.375,-0.4375 1.1094,0 1.664,0.5313 0.5547,0.5312 0.5547,1.625 v 3.8437 q 0,0.3438 0.3516,0.4297 0.3516,0.0859 0.8984,0.0859 v 0.5625 h -3.6562 v -0.5625 q 0.5469,0 0.8984,-0.0859 0.3516,-0.0859 0.3516,-0.4297 V 8.4249 q 0,-0.7812 -0.2266,-1.2812 -0.2265,-0.5 -0.9297,-0.5 -0.9375,0 -1.5312,0.7422 -0.5938,0.7422 -0.5938,1.6797 v 3.1562 q 0,0.3438 0.3516,0.4297 0.3516,0.0859 0.8828,0.0859 v 0.5625 z"
       style="stroke:none" />
    <path
       inkscape:connector-curvature="0"
       id="path4136"
       d="m 29.643,17.2999 v -16 h 2.1875 v 0.6407 h -1.5469 v 14.7187 h 1.5469 v 0.6406 z"
       style="stroke:none" />
    <path
       inkscape:connector-curvature="0"
       id="path4138"
       d="m 32.6349,13.2999 v -0.5625 q 0.5469,0 0.8985,-0.0859 0.3515,-0.0859 0.3515,-0.4297 V 7.8624 q 0,-0.4375 -0.1328,-0.625 Q 33.6193,7.0499 33.3771,7.0031 33.1349,6.9562 32.6349,6.9562 V 6.3937 l 2.3125,-0.1719 v 1.5625 q 0.3281,-0.6875 0.9531,-1.125 0.625,-0.4375 1.375,-0.4375 1.8438,0 2.1563,1.5 0.3281,-0.6719 0.9453,-1.0859 0.6172,-0.4141 1.3516,-0.4141 0.7187,0 1.2187,0.2344 0.5,0.2344 0.75,0.7187 0.25,0.4844 0.25,1.2032 v 3.8437 q 0,0.3438 0.3516,0.4297 0.3515,0.0859 0.8984,0.0859 v 0.5625 h -3.6719 v -0.5625 q 0.5469,0 0.8985,-0.0859 0.3515,-0.0859 0.3515,-0.4297 V 8.4249 q 0,-0.7968 -0.2265,-1.289 -0.2266,-0.4922 -0.9297,-0.4922 -0.9219,0 -1.5234,0.7422 -0.6016,0.7422 -0.6016,1.6797 v 3.1562 q 0,0.3438 0.3516,0.4297 0.3515,0.0859 0.8984,0.0859 v 0.5625 H 37.088 v -0.5625 q 0.5469,0 0.8985,-0.0859 0.3515,-0.0859 0.3515,-0.4297 V 8.4249 q 0,-0.7812 -0.2265,-1.2812 -0.2266,-0.5 -0.9297,-0.5 -0.9375,0 -1.5313,0.7422 -0.5937,0.7422 -0.5937,1.6797 v 3.1562 q 0,0.3438 0.3516,0.4297 0.3515,0.0859 0.8828,0.0859 v 0.5625 z"
       style="stroke:none" />
    <path
       inkscape:connector-curvature="0"
       id="path4140"
       d="m 45.7044,17.2999 v -0.6406 h 1.5469 V 1.9406 H 45.7044 V 1.2999 h 2.1875 v 16 z"
       style="stroke:none" />
  </g>
  <g
     id="g4172"
     style="color-interpolation:linearRGB;fill:#262626;stroke:#262626;stroke-width:0.65969998;stroke-linejoin:round;color-rendering:optimizeQuality;image-rendering:optimizeQuality;text-rendering:geometricPrecision"
     transform="translate(-56.6193,-42.67015)">
    <line
       id="line4144"
       y1="336"
       x2="92"
       x1="92"
       style="fill:none"
       y2="98" />
    <line
       id="line4146"
       y1="336"
       x2="330"
       x1="330"
       style="fill:none"
       y2="98" />
    <line
       id="line4148"
       y1="326.84619"
       x2="94.379997"
       x1="92"
       style="fill:none"
       y2="326.84619" />
    <line
       id="line4150"
       y1="281.0769"
       x2="94.379997"
       x1="92"
       style="fill:none"
       y2="281.0769" />
    <line
       id="line4152"
       y1="235.30769"
       x2="94.379997"
       x1="92"
       style="fill:none"
       y2="235.30769" />
    <line
       id="line4154"
       y1="189.5385"
       x2="94.379997"
       x1="92"
       style="fill:none"
       y2="189.5385" />
    <line
       id="line4156"
       y1="143.7692"
       x2="94.379997"
       x1="92"
       style="fill:none"
       y2="143.7692" />
    <line
       id="line4158"
       y1="98"
       x2="94.379997"
       x1="92"
       style="fill:none"
       y2="98" />
    <line
       id="line4160"
       y1="326.84619"
       x2="327.62"
       x1="330"
       style="fill:none"
       y2="326.84619" />
    <line
       id="line4162"
       y1="281.0769"
       x2="327.62"
       x1="330"
       style="fill:none"
       y2="281.0769" />
    <line
       id="line4164"
       y1="235.30769"
       x2="327.62"
       x1="330"
       style="fill:none"
       y2="235.30769" />
    <line
       id="line4166"
       y1="189.5385"
       x2="327.62"
       x1="330"
       style="fill:none"
       y2="189.5385" />
    <line
       id="line4168"
       y1="143.7692"
       x2="327.62"
       x1="330"
       style="fill:none"
       y2="143.7692" />
    <line
       id="line4170"
       y1="98"
       x2="327.62"
       x1="330"
       style="fill:none"
       y2="98" />
  </g>
  <g
     id="g4176"
     style="font-size:16px;font-family:mwa_cmr10;color-interpolation:linearRGB;fill:#262626;stroke:#262626;color-rendering:optimizeQuality;image-rendering:optimizeQuality;text-rendering:geometricPrecision"
     transform="translate(29.5751,284.17605)">
    <path
       inkscape:connector-curvature="0"
       id="path4174"
       d="m -3.9167,4.1593 q -1.9531,0 -2.6641,-1.6172 -0.7109,-1.6172 -0.7109,-3.8515 0,-1.3907 0.2578,-2.6172 0.2578,-1.2266 1.0078,-2.0781 0.75,-0.8516 2.1094,-0.8516 1.0625,0 1.7344,0.5156 0.6719,0.5156 1.0234,1.3281 0.3516,0.8125 0.4766,1.75 0.125,0.9375 0.125,1.9532 0,1.375 -0.25,2.5781 -0.25,1.2031 -0.9922,2.0469 -0.7422,0.8437 -2.1172,0.8437 z m 0,-0.4219 q 0.8906,0 1.3281,-0.914 0.4375,-0.9141 0.5391,-2.0235 0.1016,-1.1093 0.1016,-2.3593 0,-1.2032 -0.1016,-2.2188 -0.1016,-1.0156 -0.5313,-1.8437 -0.4296,-0.8282 -1.3359,-0.8282 -0.9062,0 -1.3437,0.8282 -0.4375,0.8281 -0.5391,1.8437 -0.1016,1.0156 -0.1016,2.2188 0,0.8906 0.0469,1.6797 0.0469,0.789 0.2344,1.625 0.1875,0.8359 0.6015,1.414 0.4141,0.5781 1.1016,0.5781 z"
       style="stroke:none" />
  </g>
  <g
     id="g4180"
     style="font-size:16px;font-family:mwa_cmr10;color-interpolation:linearRGB;fill:#262626;stroke:#262626;color-rendering:optimizeQuality;image-rendering:optimizeQuality;text-rendering:geometricPrecision"
     transform="translate(29.5751,238.40675)">
    <path
       inkscape:connector-curvature="0"
       id="path4178"
       d="M -6.4323,3.7999 V 3.2374 q 2,0 2,-0.5156 v -8.3906 q -0.8281,0.3906 -2.0938,0.3906 v -0.5625 q 1.9688,0 2.9688,-1.0156 h 0.2187 q 0.0625,0 0.1094,0.0391 0.0469,0.039 0.0469,0.1015 v 9.4375 q 0,0.5156 2,0.5156 v 0.5625 z"
       style="stroke:none" />
  </g>
  <g
     id="g4184"
     style="font-size:16px;font-family:mwa_cmr10;color-interpolation:linearRGB;fill:#262626;stroke:#262626;color-rendering:optimizeQuality;image-rendering:optimizeQuality;text-rendering:geometricPrecision"
     transform="translate(29.5751,192.63755)">
    <path
       inkscape:connector-curvature="0"
       id="path4182"
       d="M -7.1198,3.7999 V 3.3624 q 0,-0.0312 0.0312,-0.0781 l 2.4844,-2.75 q 0.5625,-0.6094 0.9141,-1.0234 0.3515,-0.4141 0.6953,-0.9531 0.3437,-0.5391 0.5469,-1.1016 0.2031,-0.5625 0.2031,-1.1875 0,-0.6563 -0.2422,-1.25 -0.2422,-0.5938 -0.7266,-0.9531 -0.4843,-0.3594 -1.1562,-0.3594 -0.7031,0 -1.2578,0.4141 -0.5547,0.414 -0.7735,1.0859 0.0625,-0.0156 0.1719,-0.0156 0.3594,0 0.6094,0.2422 0.25,0.2421 0.25,0.6171 0,0.375 -0.25,0.625 -0.25,0.25 -0.6094,0.25 -0.375,0 -0.6328,-0.2578 -0.2578,-0.2578 -0.2578,-0.6172 0,-0.5937 0.2265,-1.125 0.2266,-0.5312 0.6563,-0.9375 0.4297,-0.4062 0.9609,-0.625 0.5313,-0.2187 1.1407,-0.2187 0.9062,0 1.6953,0.3828 0.789,0.3828 1.25,1.0938 0.4609,0.7109 0.4609,1.6484 0,0.7031 -0.3047,1.3281 -0.3047,0.625 -0.7812,1.1328 -0.4766,0.5078 -1.2188,1.1563 -0.7422,0.6484 -0.9765,0.8672 l -1.8125,1.75 h 1.5468 q 1.125,0 1.8907,-0.0235 0.7656,-0.0234 0.8125,-0.0547 0.1875,-0.2031 0.375,-1.4843 h 0.4687 l -0.4531,2.8593 z"
       style="stroke:none" />
  </g>
  <g
     id="g4188"
     style="font-size:16px;font-family:mwa_cmr10;color-interpolation:linearRGB;fill:#262626;stroke:#262626;color-rendering:optimizeQuality;image-rendering:optimizeQuality;text-rendering:geometricPrecision"
     transform="translate(29.5751,146.86835)">
    <path
       inkscape:connector-curvature="0"
       id="path4186"
       d="m -6.3854,2.5656 q 0.375,0.5468 1.0078,0.8125 0.6328,0.2656 1.3515,0.2656 0.9375,0 1.3282,-0.7969 0.3906,-0.7969 0.3906,-1.7969 0,-0.4531 -0.086,-0.9062 -0.0859,-0.4531 -0.2812,-0.8438 -0.1953,-0.3906 -0.5313,-0.625 -0.3359,-0.2343 -0.8359,-0.2343 h -1.0625 q -0.1406,0 -0.1406,-0.1563 v -0.1406 q 0,-0.125 0.1406,-0.125 l 0.8906,-0.0625 q 0.5625,0 0.9297,-0.4219 0.3672,-0.4219 0.5391,-1.0312 0.1719,-0.6094 0.1719,-1.1563 0,-0.7656 -0.3594,-1.2578 -0.3594,-0.4922 -1.0938,-0.4922 -0.6093,0 -1.164,0.2344 -0.5547,0.2344 -0.8828,0.7031 0.0312,-0.0156 0.0546,-0.0156 0.0235,0 0.0547,0 0.3594,0 0.6016,0.25 0.2422,0.25 0.2422,0.5937 0,0.3438 -0.2422,0.5938 -0.2422,0.25 -0.6016,0.25 -0.3437,0 -0.5937,-0.25 -0.25,-0.25 -0.25,-0.5938 0,-0.6875 0.414,-1.1953 0.4141,-0.5078 1.0625,-0.7656 0.6485,-0.2578 1.3047,-0.2578 0.4844,0 1.0235,0.1406 0.539,0.1406 0.9765,0.4141 0.4375,0.2734 0.7188,0.6953 0.2812,0.4219 0.2812,0.9531 0,0.6719 -0.3047,1.2422 -0.3046,0.5703 -0.8281,0.9844 -0.5234,0.414 -1.1484,0.6172 0.7031,0.1406 1.3281,0.5312 0.625,0.3906 1,1 0.375,0.6094 0.375,1.3125 0,0.875 -0.4844,1.5938 -0.4843,0.7187 -1.2734,1.125 -0.7891,0.4062 -1.6641,0.4062 -0.75,0 -1.5,-0.289 -0.75,-0.2891 -1.2343,-0.8594 -0.4844,-0.5703 -0.4844,-1.3672 0,-0.4063 0.2656,-0.6719 0.2656,-0.2656 0.6719,-0.2656 0.25,0 0.4687,0.125 0.2188,0.125 0.336,0.3437 0.1172,0.2188 0.1172,0.4688 0,0.3906 -0.2735,0.6562 -0.2734,0.2657 -0.6484,0.2657 z"
       style="stroke:none" />
  </g>
  <g
     id="g4192"
     style="font-size:16px;font-family:mwa_cmr10;color-interpolation:linearRGB;fill:#262626;stroke:#262626;color-rendering:optimizeQuality;image-rendering:optimizeQuality;text-rendering:geometricPrecision"
     transform="translate(29.5751,101.09905)">
    <path
       inkscape:connector-curvature="0"
       id="path4190"
       d="M -7.4636,1.1593 V 0.5968 l 4.9375,-7.375 q 0.0625,-0.0781 0.1719,-0.0781 h 0.2344 q 0.1719,0 0.1719,0.1719 v 7.2812 h 1.5781 v 0.5625 h -1.5781 v 1.5625 q 0,0.3281 0.4687,0.4219 0.4688,0.0937 1.0938,0.0937 V 3.7999 H -4.7917 V 3.2374 q 0.6094,0 1.0781,-0.0937 0.4688,-0.0938 0.4688,-0.4219 V 1.1593 Z m 0.5313,-0.5625 h 3.7812 v -5.6719 z"
       style="stroke:none" />
  </g>
  <g
     id="g4196"
     style="font-size:16px;font-family:mwa_cmr10;color-interpolation:linearRGB;fill:#262626;stroke:#262626;color-rendering:optimizeQuality;image-rendering:optimizeQuality;text-rendering:geometricPrecision"
     transform="translate(29.5751,55.32985)">
    <path
       inkscape:connector-curvature="0"
       id="path4194"
       d="m -6.5261,1.9718 q 0.1719,0.4688 0.5078,0.8516 0.336,0.3828 0.8047,0.6015 0.4688,0.2188 0.9688,0.2188 1.1562,0 1.5937,-0.8984 0.4375,-0.8985 0.4375,-2.1797 0,-0.5625 -0.0234,-0.9375 -0.0234,-0.375 -0.1016,-0.7344 -0.1562,-0.5625 -0.5234,-0.9844 -0.3672,-0.4219 -0.9141,-0.4219 -0.5312,0 -0.9218,0.1641 -0.3907,0.1641 -0.6329,0.3828 -0.2421,0.2188 -0.4296,0.461 -0.1875,0.2421 -0.2344,0.2578 h -0.1719 q -0.0469,0 -0.1016,-0.0469 -0.0546,-0.0469 -0.0546,-0.0938 v -5.3437 q 0,-0.0469 0.0468,-0.0859 0.0469,-0.0391 0.1094,-0.0391 h 0.0469 q 1.0781,0.5156 2.2812,0.5156 1.1875,0 2.2969,-0.5156 h 0.0469 q 0.0469,0 0.0937,0.0391 0.0469,0.039 0.0469,0.0859 v 0.1406 q 0,0.0781 -0.0312,0.0781 -0.5469,0.7344 -1.3672,1.1407 -0.8203,0.4062 -1.711,0.4062 -0.6406,0 -1.3125,-0.1875 v 3.0313 q 0.5313,-0.4375 0.9532,-0.6172 0.4218,-0.1797 1.0625,-0.1797 0.8906,0 1.5859,0.5078 0.6953,0.5078 1.0703,1.3203 0.375,0.8125 0.375,1.6719 0,0.9531 -0.4687,1.7734 -0.4688,0.8203 -1.2813,1.3125 -0.8125,0.4922 -1.7656,0.4922 -0.7969,0 -1.4531,-0.414 Q -6.3542,3.3312 -6.737,2.6437 -7.1198,1.9562 -7.1198,1.1906 q 0,-0.3594 0.2344,-0.586 0.2343,-0.2265 0.5937,-0.2265 0.3438,0 0.5859,0.2265 0.2422,0.2266 0.2422,0.586 0,0.3437 -0.2422,0.5781 -0.2421,0.2344 -0.5859,0.2344 -0.0625,0 -0.1328,-0.0078 -0.0703,-0.0079 -0.1016,-0.0235 z"
       style="stroke:none" />
  </g>
  <g
     id="g4224"
     style="font-size:16px;font-family:mwa_cmr10;color-interpolation:linearRGB;fill:#262626;stroke:#262626;color-rendering:optimizeQuality;image-rendering:optimizeQuality;text-rendering:geometricPrecision"
     transform="rotate(-90,96.014925,78.314825)">
    <path
       inkscape:connector-curvature="0"
       id="path4198"
       d="m -46.1182,-5.7001 v -0.5625 q 1.6407,0 1.6407,-0.5156 v -3.2969 l -3.3594,-5.5156 q -0.2344,-0.3281 -0.6563,-0.4062 -0.4218,-0.0782 -1.0625,-0.0782 v -0.5625 h 4.5 v 0.5625 q -1.1093,0 -1.1093,0.375 0,0.0313 0.0312,0.125 l 2.8906,4.7657 2.6407,-4.3282 q 0.0937,-0.1562 0.0937,-0.3281 0,-0.3125 -0.2734,-0.4609 -0.2735,-0.1485 -0.6172,-0.1485 v -0.5625 h 3.4687 v 0.5625 q -0.625,0 -1.164,0.2266 -0.5391,0.2266 -0.836,0.6953 l -3.1093,5.0781 v 3.2969 q 0,0.5156 1.6562,0.5156 v 0.5625 z"
       style="stroke:none" />
    <path
       inkscape:connector-curvature="0"
       id="path4200"
       d="m -37.6806,-8.6688 v -0.9844 h 4.2343 v 0.9844 z"
       style="stroke:none" />
    <path
       inkscape:connector-curvature="0"
       id="path4202"
       d="m -32.1685,-2.5907 v -0.5625 q 0.5469,0 0.8984,-0.0937 0.3516,-0.0938 0.3516,-0.4219 v -7.7188 q 0,-0.4375 -0.3125,-0.5468 -0.3125,-0.1094 -0.9375,-0.1094 v -0.5625 l 2.3594,-0.1719 v 1 q 0.4375,-0.4844 1.0234,-0.7422 0.586,-0.2578 1.2422,-0.2578 0.9375,0 1.6953,0.5156 0.7578,0.5157 1.1875,1.3438 0.4297,0.8281 0.4297,1.7656 0,0.9688 -0.4766,1.8047 -0.4765,0.8359 -1.289,1.3359 -0.8125,0.5 -1.7969,0.5 -1.1562,0 -1.9687,-0.9531 v 2.7969 q 0,0.3281 0.3593,0.4219 0.3594,0.0937 0.8907,0.0937 v 0.5625 z m 2.4063,-4.6719 q 0.2812,0.5782 0.7812,0.9454 0.5,0.3671 1.0938,0.3671 0.5625,0 0.9843,-0.2968 0.4219,-0.2969 0.711,-0.7969 0.289,-0.5 0.4297,-1.0469 0.1406,-0.5469 0.1406,-1.0625 0,-0.6406 -0.2344,-1.3906 -0.2344,-0.75 -0.7031,-1.2578 -0.4688,-0.5078 -1.1406,-0.5078 -0.6563,0 -1.1954,0.3281 -0.539,0.3281 -0.8671,0.9062 z"
       style="stroke:none" />
    <path
       inkscape:connector-curvature="0"
       id="path4204"
       d="m -19.3542,-5.5126 q -0.9531,0 -1.7735,-0.4921 -0.8203,-0.4922 -1.2968,-1.3125 -0.4766,-0.8204 -0.4766,-1.7891 0,-0.7344 0.2578,-1.4141 0.2578,-0.6797 0.75,-1.2187 0.4922,-0.5391 1.1406,-0.836 0.6485,-0.2968 1.3985,-0.2968 0.9844,0 1.7969,0.5156 0.8125,0.5156 1.2812,1.3906 0.4688,0.875 0.4688,1.8594 0,0.9531 -0.4766,1.7812 -0.4766,0.8282 -1.2969,1.3204 -0.8203,0.4921 -1.7734,0.4921 z m 0,-0.4843 q 1.2812,0 1.7109,-0.9297 0.4297,-0.9297 0.4297,-2.3672 0,-0.7969 -0.0859,-1.3281 -0.086,-0.5313 -0.3672,-0.9532 -0.1875,-0.2656 -0.461,-0.4687 -0.2734,-0.2031 -0.5859,-0.3047 -0.3125,-0.1016 -0.6406,-0.1016 -0.5,0 -0.9453,0.2266 -0.4453,0.2266 -0.7422,0.6484 -0.2969,0.4532 -0.3828,0.9922 -0.086,0.5391 -0.086,1.2891 0,0.9062 0.1563,1.6172 0.1562,0.7109 0.6328,1.1953 0.4766,0.4844 1.3672,0.4844 z"
       style="stroke:none" />
    <path
       inkscape:connector-curvature="0"
       id="path4206"
       d="m -14.9063,-5.6532 v -2.6094 q 0,-0.125 0.1407,-0.125 h 0.2031 q 0.0937,0 0.125,0.125 0.4375,2.3125 2.1562,2.3125 0.75,0 1.2657,-0.3437 0.5156,-0.3438 0.5156,-1.0625 0,-0.5156 -0.3985,-0.875 -0.3984,-0.3594 -0.9453,-0.5 l -1.0781,-0.2031 q -0.5312,-0.125 -0.9766,-0.3672 -0.4453,-0.2422 -0.7265,-0.6406 -0.2813,-0.3985 -0.2813,-0.9297 0,-0.7032 0.375,-1.1563 0.375,-0.4531 0.9688,-0.6484 0.5937,-0.1953 1.2812,-0.1953 0.8125,0 1.4219,0.4375 l 0.4688,-0.4063 q 0,-0.0312 0.0781,-0.0312 h 0.1094 q 0.0468,0 0.0859,0.039 0.0391,0.0391 0.0391,0.086 v 2.0937 q 0,0.1563 -0.125,0.1563 h -0.1875 q -0.1407,0 -0.1407,-0.1563 0,-0.8281 -0.4687,-1.3359 -0.4688,-0.5078 -1.2969,-0.5078 -0.7187,0 -1.25,0.2656 -0.5312,0.2656 -0.5312,0.9062 0,0.4532 0.3828,0.7344 0.3828,0.2813 0.8828,0.4063 l 1.0937,0.2031 q 0.5469,0.125 1.0157,0.4219 0.4687,0.2968 0.75,0.75 0.2812,0.4531 0.2812,1.0312 0,0.5781 -0.2031,1 -0.2031,0.4219 -0.5547,0.7031 -0.3516,0.2813 -0.8359,0.4219 -0.4844,0.1406 -1.0157,0.1406 -1,0 -1.7187,-0.6875 l -0.5781,0.6407 q 0,0.0468 -0.0938,0.0468 h -0.0937 q -0.1407,0 -0.1407,-0.1406 z"
       style="stroke:none" />
    <path
       inkscape:connector-curvature="0"
       id="path4208"
       d="m -8.6922,-5.7001 v -0.5625 q 0.5469,0 0.8985,-0.0859 0.3515,-0.0859 0.3515,-0.4297 v -4.3594 q 0,-0.625 -0.2421,-0.7656 -0.2422,-0.1406 -0.9454,-0.1406 v -0.5625 l 2.3125,-0.1719 v 6 q 0,0.3438 0.3047,0.4297 0.3047,0.0859 0.8047,0.0859 v 0.5625 z m 0.6719,-9.8281 q 0,-0.3437 0.2656,-0.6094 0.2657,-0.2656 0.6094,-0.2656 0.2344,0 0.4453,0.1172 0.211,0.1172 0.3282,0.3281 0.1171,0.211 0.1171,0.4297 0,0.3438 -0.2656,0.6094 -0.2656,0.2656 -0.625,0.2656 -0.3437,0 -0.6094,-0.2656 -0.2656,-0.2656 -0.2656,-0.6094 z"
       style="stroke:none" />
    <path
       inkscape:connector-curvature="0"
       id="path4210"
       d="m -3.1534,-7.6219 v -4.4219 h -1.3281 v -0.4063 q 1.0469,0 1.5391,-0.9765 0.4922,-0.9766 0.4922,-2.1172 h 0.4531 v 2.9375 h 2.2656 v 0.5625 h -2.2656 v 4.3906 q 0,0.6563 0.2265,1.1563 0.2266,0.5 0.8047,0.5 0.5469,0 0.7891,-0.5235 0.2422,-0.5234 0.2422,-1.1328 v -0.9531 h 0.4531 v 0.9844 q 0,0.5 -0.1797,0.9843 -0.1797,0.4844 -0.539,0.8047 -0.3594,0.3203 -0.875,0.3203 -0.9688,0 -1.5235,-0.5781 -0.5547,-0.5781 -0.5547,-1.5312 z"
       style="stroke:none" />
    <path
       inkscape:connector-curvature="0"
       id="path4212"
       d="m 1.8634,-5.7001 v -0.5625 q 0.5469,0 0.8985,-0.0859 0.3515,-0.0859 0.3515,-0.4297 v -4.3594 q 0,-0.625 -0.2422,-0.7656 -0.2421,-0.1406 -0.9453,-0.1406 v -0.5625 l 2.3125,-0.1719 v 6 q 0,0.3438 0.3047,0.4297 0.3047,0.0859 0.8047,0.0859 v 0.5625 z m 0.6719,-9.8281 q 0,-0.3437 0.2656,-0.6094 0.2657,-0.2656 0.6094,-0.2656 0.2344,0 0.4453,0.1172 0.211,0.1172 0.3281,0.3281 0.1172,0.211 0.1172,0.4297 0,0.3438 -0.2656,0.6094 -0.2656,0.2656 -0.625,0.2656 -0.3437,0 -0.6094,-0.2656 -0.2656,-0.2656 -0.2656,-0.6094 z"
       style="stroke:none" />
    <path
       inkscape:connector-curvature="0"
       id="path4214"
       d="m 9.7616,-5.5126 q -0.9531,0 -1.7734,-0.4921 -0.8204,-0.4922 -1.2969,-1.3125 -0.4766,-0.8204 -0.4766,-1.7891 0,-0.7344 0.2578,-1.4141 0.2578,-0.6797 0.75,-1.2187 0.4922,-0.5391 1.1407,-0.836 0.6484,-0.2968 1.3984,-0.2968 0.9844,0 1.7969,0.5156 0.8125,0.5156 1.2812,1.3906 0.4688,0.875 0.4688,1.8594 0,0.9531 -0.4766,1.7812 -0.4766,0.8282 -1.2969,1.3204 -0.8203,0.4921 -1.7734,0.4921 z m 0,-0.4843 q 1.2812,0 1.7109,-0.9297 0.4297,-0.9297 0.4297,-2.3672 0,-0.7969 -0.0859,-1.3281 -0.086,-0.5313 -0.3672,-0.9532 -0.1875,-0.2656 -0.4609,-0.4687 -0.2735,-0.2031 -0.586,-0.3047 -0.3125,-0.1016 -0.6406,-0.1016 -0.5,0 -0.9453,0.2266 -0.4453,0.2266 -0.7422,0.6484 -0.2969,0.4532 -0.3828,0.9922 -0.086,0.5391 -0.086,1.2891 0,0.9062 0.1563,1.6172 0.1562,0.7109 0.6328,1.1953 0.4766,0.4844 1.3672,0.4844 z"
       style="stroke:none" />
    <path
       inkscape:connector-curvature="0"
       id="path4216"
       d="m 14.1627,-5.7001 v -0.5625 q 0.5468,0 0.8984,-0.0859 0.3516,-0.0859 0.3516,-0.4297 v -4.3594 q 0,-0.4375 -0.1329,-0.625 -0.1328,-0.1875 -0.375,-0.2343 -0.2421,-0.0469 -0.7421,-0.0469 v -0.5625 l 2.3125,-0.1719 v 1.5625 q 0.3281,-0.6875 0.9531,-1.125 0.625,-0.4375 1.375,-0.4375 1.1094,0 1.664,0.5313 0.5547,0.5312 0.5547,1.625 v 3.8437 q 0,0.3438 0.3516,0.4297 0.3516,0.0859 0.8984,0.0859 v 0.5625 h -3.6562 v -0.5625 q 0.5469,0 0.8984,-0.0859 0.3516,-0.0859 0.3516,-0.4297 v -3.7969 q 0,-0.7812 -0.2266,-1.2812 -0.2265,-0.5 -0.9297,-0.5 -0.9375,0 -1.5312,0.7422 -0.5938,0.7422 -0.5938,1.6797 v 3.1562 q 0,0.3438 0.3516,0.4297 0.3516,0.0859 0.8828,0.0859 v 0.5625 z"
       style="stroke:none" />
    <path
       inkscape:connector-curvature="0"
       id="path4218"
       d="m 29.643,-1.7001 v -16 h 2.1875 v 0.6407 h -1.5469 v 14.7187 h 1.5469 v 0.6406 z"
       style="stroke:none" />
    <path
       inkscape:connector-curvature="0"
       id="path4220"
       d="m 32.6349,-5.7001 v -0.5625 q 0.5469,0 0.8985,-0.0859 0.3515,-0.0859 0.3515,-0.4297 v -4.3594 q 0,-0.4375 -0.1328,-0.625 -0.1328,-0.1875 -0.375,-0.2343 -0.2422,-0.0469 -0.7422,-0.0469 v -0.5625 l 2.3125,-0.1719 v 1.5625 q 0.3281,-0.6875 0.9531,-1.125 0.625,-0.4375 1.375,-0.4375 1.8438,0 2.1563,1.5 0.3281,-0.6719 0.9453,-1.0859 0.6172,-0.4141 1.3516,-0.4141 0.7187,0 1.2187,0.2344 0.5,0.2344 0.75,0.7187 0.25,0.4844 0.25,1.2032 v 3.8437 q 0,0.3438 0.3516,0.4297 0.3515,0.0859 0.8984,0.0859 v 0.5625 h -3.6719 v -0.5625 q 0.5469,0 0.8985,-0.0859 0.3515,-0.0859 0.3515,-0.4297 v -3.7969 q 0,-0.7968 -0.2265,-1.289 -0.2266,-0.4922 -0.9297,-0.4922 -0.9219,0 -1.5234,0.7422 -0.6016,0.7422 -0.6016,1.6797 v 3.1562 q 0,0.3438 0.3516,0.4297 0.3515,0.0859 0.8984,0.0859 v 0.5625 H 37.088 v -0.5625 q 0.5469,0 0.8985,-0.0859 0.3515,-0.0859 0.3515,-0.4297 v -3.7969 q 0,-0.7812 -0.2265,-1.2812 -0.2266,-0.5 -0.9297,-0.5 -0.9375,0 -1.5313,0.7422 -0.5937,0.7422 -0.5937,1.6797 v 3.1562 q 0,0.3438 0.3516,0.4297 0.3515,0.0859 0.8828,0.0859 v 0.5625 z"
       style="stroke:none" />
    <path
       inkscape:connector-curvature="0"
       id="path4222"
       d="m 45.7044,-1.7001 v -0.6406 h 1.5469 v -14.7187 h -1.5469 v -0.6407 h 2.1875 v 16 z"
       style="stroke:none" />
  </g>
  <g
     id="g4244"
     style="color-interpolation:linearRGB;fill:#0000ff;stroke:#0000ff;stroke-linecap:butt;color-rendering:optimizeQuality;image-rendering:optimizeQuality;text-rendering:geometricPrecision"
     transform="translate(59.1807,101.09905)">
    <circle
       id="circle4226"
       cy="-0.5"
       cx="-0.5"
       style="fill:none"
       r="3.9583001" />
    <circle
       id="circle4228"
       cy="-0.5"
       transform="translate(23.8)"
       cx="-0.5"
       style="fill:none"
       r="3.9583001" />
    <circle
       id="circle4230"
       cy="-0.5"
       transform="translate(47.6)"
       cx="-0.5"
       style="fill:none"
       r="3.9583001" />
    <circle
       id="circle4232"
       cy="-0.5"
       transform="translate(71.4)"
       cx="-0.5"
       style="fill:none"
       r="3.9583001" />
    <circle
       id="circle4234"
       cy="-0.5"
       transform="translate(95.2)"
       cx="-0.5"
       style="fill:none"
       r="3.9583001" />
    <circle
       id="circle4236"
       cy="-0.5"
       transform="translate(119)"
       cx="-0.5"
       style="fill:none"
       r="3.9583001" />
    <circle
       id="circle4238"
       cy="-0.5"
       transform="translate(142.8)"
       cx="-0.5"
       style="fill:none"
       r="3.9583001" />
    <circle
       id="circle4240"
       cy="-0.5"
       transform="translate(166.6)"
       cx="-0.5"
       style="fill:none"
       r="3.9583001" />
    <circle
       id="circle4242"
       cy="-0.5"
       transform="translate(190.4)"
       cx="-0.5"
       style="fill:none"
       r="3.9583001" />
  </g>
  <g
     id="g4248"
     style="color-interpolation:linearRGB;fill:#ff0000;stroke:#ff0000;stroke-width:0.65969998;stroke-linecap:butt;stroke-linejoin:round;color-rendering:optimizeQuality;image-rendering:optimizeQuality;text-rendering:geometricPrecision"
     transform="translate(-56.6193,-42.67015)">
    <path
       inkscape:connector-curvature="0"
       id="path4246"
       style="fill:none;fill-rule:evenodd"
       d="m 92,326.8462 h 0.238 l 0.238,-8e-4 0.238,-10e-4 0.238,-0.002 0.238,-0.003 0.238,-0.004 0.238,-0.004 0.238,-0.005 0.238,-0.006 0.238,-0.006 0.238,-0.007 0.238,-0.008 0.238,-0.009 0.238,-0.009 0.238,-0.0101 0.238,-0.0108 0.238,-0.0115 0.238,-0.0122 0.238,-0.013 0.238,-0.0136 0.238,-0.0144 0.238,-0.0151 0.238,-0.0158 0.238,-0.0166 0.238,-0.0172 0.238,-0.018 0.238,-0.0187 0.238,-0.0194 0.238,-0.0201 0.238,-0.0209 0.238,-0.0215 0.238,-0.0223 0.238,-0.023 0.238,-0.0237 0.238,-0.0244 0.238,-0.0252 0.238,-0.0258 0.238,-0.0266 0.238,-0.0273 0.238,-0.0279 0.238,-0.0288 0.238,-0.0294 0.238,-0.0301 0.238,-0.0309 0.238,-0.0315 0.238,-0.0323 0.238,-0.033 0.238,-0.0337 0.238,-0.0344 0.238,-0.0352 0.238,-0.0358 0.238,-0.0365 0.238,-0.0373 0.238,-0.0379 0.238,-0.0387 0.238,-0.0394 0.238,-0.0401 0.238,-0.0408 0.238,-0.0415 0.238,-0.0422 0.238,-0.043 0.238,-0.0436 0.238,-0.0443 0.238,-0.0451 0.238,-0.0457 0.238,-0.0465 0.238,-0.0471 0.238,-0.0479 0.238,-0.0486 0.238,-0.0492 0.238,-0.05 0.238,-0.0507 0.238,-0.0513 0.238,-0.0521 0.238,-0.0528 0.238,-0.0535 0.238,-0.0542 0.238,-0.0548 0.238,-0.0556 0.238,-0.0563 0.238,-0.0569 0.238,-0.0577 0.238,-0.0583 0.238,-0.0591 0.238,-0.0597 0.238,-0.0605 0.238,-0.0611 0.238,-0.0619 0.238,-0.0625 0.238,-0.0632 0.238,-0.0639 0.238,-0.0646 0.238,-0.0653 0.238,-0.066 0.238,-0.0667 0.238,-0.0673 0.238,-0.068 0.238,-0.0688 0.238,-0.0694 0.238,-0.0701 0.238,-0.0708 0.238,-0.0715 0.238,-0.0721 0.238,-0.0729 0.238,-0.0735 0.238,-0.0742 0.238,-0.0749 0.238,-0.0755 0.238,-0.0762 0.238,-0.077 0.238,-0.0776 0.238,-0.0782 0.238,-0.079 0.238,-0.0796 0.238,-0.0803 0.238,-0.081 0.238,-0.0816 0.238,-0.0823 0.238,-0.083 0.238,-0.0836 0.238,-0.0844 0.238,-0.085 0.238,-0.0856 0.238,-0.0863 0.238,-0.087 0.238,-0.0877 0.238,-0.0883 0.238,-0.089 0.238,-0.0897 0.238,-0.0903 0.238,-0.0909 0.238,-0.0917 0.238,-0.0923 0.238,-0.0929 0.238,-0.0936 0.238,-0.0943 0.238,-0.0949 0.238,-0.0956 0.238,-0.0962 0.238,-0.0969 0.238,-0.0975 0.238,-0.0982 0.238,-0.0988 0.238,-0.0995 0.238,-0.1001 0.238,-0.1008 0.238,-0.1014 0.238,-0.1021 0.238,-0.1027 0.238,-0.1033 0.238,-0.104 0.238,-0.1046 0.238,-0.1053 0.238,-0.1059 0.238,-0.1065 0.238,-0.1073 0.238,-0.1078 0.238,-0.1084 0.238,-0.1091 0.238,-0.1097 0.238,-0.1104 0.238,-0.111 0.238,-0.1116 0.238,-0.1122 0.238,-0.1129 0.238,-0.1134 0.238,-0.1142 0.238,-0.1147 0.238,-0.1153 0.238,-0.116 0.238,-0.1166 0.238,-0.1172 0.238,-0.1179 0.238,-0.1184 0.238,-0.1191 0.238,-0.1197 0.238,-0.1203 0.238,-0.1208 0.238,-0.1216 0.238,-0.1221 0.238,-0.1227 0.238,-0.1234 0.238,-0.1239 0.238,-0.1246 0.238,-0.1251 0.238,-0.1257 0.238,-0.1264 0.238,-0.127 0.238,-0.1275 0.238,-0.1281 0.238,-0.1288 0.238,-0.1293 0.238,-0.13 0.238,-0.1305 0.238,-0.1311 0.238,-0.1317 0.238,-0.1323 0.238,-0.1329 0.238,-0.1334 0.238,-0.1341 0.238,-0.1346 0.238,-0.1352 0.238,-0.1358 0.238,-0.1364 0.238,-0.1369 0.238,-0.1375 0.238,-0.1381 0.238,-0.1387 0.238,-0.1393 0.238,-0.1398 0.238,-0.1403 0.238,-0.141 0.238,-0.1415 0.238,-0.1421 0.238,-0.1426 0.238,-0.1432 0.238,-0.1438 0.238,-0.1443 0.238,-0.1449 0.238,-0.1455 0.238,-0.146 0.238,-0.1465 0.238,-0.1471 0.238,-0.1476 0.238,-0.1482 0.238,-0.1488 0.238,-0.1493 0.238,-0.1498 0.238,-0.1504 0.238,-0.1509 0.238,-0.1515 0.238,-0.152 0.238,-0.1525 0.238,-0.1531 0.238,-0.1536 0.238,-0.1541 0.238,-0.1547 0.238,-0.1552 0.238,-0.1558 0.238,-0.1562 0.238,-0.1568 0.238,-0.1573 0.238,-0.1578 0.238,-0.1584 0.238,-0.1589 0.238,-0.1593 0.238,-0.1599 0.238,-0.1604 0.238,-0.161 0.238,-0.1614 0.238,-0.1619 0.238,-0.1625 0.238,-0.163 0.238,-0.1634 0.238,-0.164 0.238,-0.1645 0.238,-0.1649 0.238,-0.1655 0.238,-0.166 0.238,-0.1664 0.238,-0.167 0.238,-0.1674 0.238,-0.1679 0.238,-0.1685 0.238,-0.1689 0.238,-0.1693 0.238,-0.1699 0.238,-0.1704 0.238,-0.1708 0.238,-0.1713 0.238,-0.1718 0.238,-0.1723 0.238,-0.1727 0.238,-0.1732 0.238,-0.1737 0.238,-0.1741 0.238,-0.1746 0.238,-0.1751 0.238,-0.1756 0.238,-0.176 0.238,-0.1764 0.238,-0.1769 0.238,-0.1774 0.238,-0.1778 0.238,-0.1783 0.238,-0.1787 0.238,-0.1792 0.238,-0.1796 0.238,-0.1801 0.238,-0.1805 0.238,-0.1809 0.238,-0.1814 0.238,-0.1819 0.238,-0.1822 0.238,-0.1828 0.238,-0.1831 0.238,-0.1835 0.238,-0.184 0.238,-0.1845 0.238,-0.1848 0.238,-0.1852 0.238,-0.1857 0.238,-0.1861 0.238,-0.1866 0.238,-0.1869 0.238,-0.1874 0.238,-0.1877 0.238,-0.1882 0.238,-0.1886 0.238,-0.189 0.238,-0.1894 0.238,-0.1898 0.238,-0.1902 0.238,-0.1906 0.238,-0.191 0.238,-0.1914 0.238,-0.1918 0.238,-0.1922 0.238,-0.1926 0.238,-0.1929 0.238,-0.1934 0.238,-0.1937 0.238,-0.1941 0.238,-0.1945 0.238,-0.1949 0.238,-0.1952 0.238,-0.1956 0.238,-0.196 0.238,-0.1964 0.238,-0.1967 0.238,-0.1971 0.238,-0.1975 0.238,-0.1978 0.238,-0.1982 0.238,-0.1985 0.238,-0.1989 0.238,-0.1993 0.238,-0.1996 0.238,-0.2 0.238,-0.2003 0.238,-0.2006 0.238,-0.201 0.238,-0.2014 0.238,-0.2017 0.238,-0.202 0.238,-0.2024 0.238,-0.2027 0.238,-0.203 0.238,-0.2033 0.238,-0.2037 0.238,-0.204 0.238,-0.2044 0.238,-0.2046 0.238,-0.205 0.238,-0.2053 0.238,-0.2057 0.238,-0.2059 0.238,-0.2062 0.238,-0.2066 0.238,-0.2069 0.238,-0.2072 0.238,-0.2074 0.238,-0.2078 0.238,-0.2081 0.238,-0.2084 0.238,-0.2087 0.238,-0.2089 0.238,-0.2093 0.238,-0.2096 0.238,-0.2098 0.238,-0.2101 0.238,-0.2105 0.238,-0.2107 0.238,-0.2109 0.238,-0.2113 0.238,-0.2115 0.238,-0.2118 0.238,-0.2121 0.238,-0.2123 0.238,-0.2126 0.238,-0.2129 0.238,-0.2132 0.238,-0.2134 0.238,-0.2136 0.238,-0.214 0.238,-0.2141 0.238,-0.2144 0.238,-0.2147 0.238,-0.2149 0.238,-0.2152 0.238,-0.2154 0.238,-0.2156 0.238,-0.216 0.238,-0.2161 0.238,-0.2164 0.238,-0.2165 0.238,-0.2169 0.238,-0.217 0.238,-0.2173 0.238,-0.2175 0.238,-0.2178 0.238,-0.2179 0.238,-0.2182 0.238,-0.2184 0.238,-0.2186 0.238,-0.2188 0.238,-0.219 0.238,-0.2193 0.238,-0.2194 0.238,-0.2197 0.238,-0.2198 0.238,-0.22 0.238,-0.2203 0.238,-0.2204 0.238,-0.2206 0.238,-0.2209 0.238,-0.2209 0.238,-0.2212 0.238,-0.2214 0.238,-0.2216 0.238,-0.2217 0.238,-0.2219 0.238,-0.2221 0.238,-0.2222 0.238,-0.2225 0.238,-0.2225 0.238,-0.2228 0.238,-0.2229 0.238,-0.2231 0.238,-0.2233 0.238,-0.2233 0.238,-0.2236 0.238,-0.2237 0.238,-0.2239 0.238,-0.224 0.238,-0.2241 0.238,-0.2243 0.238,-0.2245 0.238,-0.2246 0.238,-0.2247 0.238,-0.2248 0.238,-0.225 0.238,-0.2251 0.238,-0.2253 0.238,-0.2254 0.238,-0.2255 0.238,-0.2256 0.238,-0.2257 0.238,-0.2258 0.238,-0.226 0.238,-0.2261 0.238,-0.2262 0.238,-0.2263 0.238,-0.2264 0.238,-0.2265 0.238,-0.2266 0.238,-0.2267 0.238,-0.2268 0.238,-0.2269 0.238,-0.227 0.238,-0.2271 0.238,-0.2272 0.238,-0.2272 0.238,-0.2274 0.238,-0.2274 0.238,-0.2275 0.238,-0.2276 0.238,-0.2276 0.238,-0.2277 0.238,-0.2278 0.238,-0.2279 0.238,-0.2279 0.238,-0.228 0.238,-0.2281 0.238,-0.2281 0.238,-0.2281 0.238,-0.2282 0.238,-0.2283 0.238,-0.2284 0.238,-0.2283 0.238,-0.2284 0.238,-0.2285 0.238,-0.2285 0.238,-0.2286 0.238,-0.2285 0.238,-0.2286 0.238,-0.2287 0.238,-0.2286 0.238,-0.2287 0.238,-0.2287 0.238,-0.2288 0.238,-0.2288 0.238,-0.2287 0.238,-0.2288 0.238,-0.2288 0.238,-0.2289 0.238,-0.2288 0.238,-0.2288 0.238,-0.2289 0.238,-0.2288 0.238,-0.2289 0.238,-0.2288 0.238,-0.2289 0.238,-0.2288 0.238,-0.2288 0.238,-0.2288 0.238,-0.2288 0.238,-0.2288 0.238,-0.2288 0.238,-0.2287 0.238,-0.2287 0.238,-0.2287 0.238,-0.2287 0.238,-0.2286 0.238,-0.2287 0.238,-0.2285 0.238,-0.2286 0.238,-0.2285 0.238,-0.2284 0.238,-0.2284 0.238,-0.2284 0.238,-0.2283 0.238,-0.2283 0.238,-0.2282 0.238,-0.2282 0.238,-0.2281 0.238,-0.2281 0.238,-0.228 0.238,-0.2279 0.238,-0.2278 0.238,-0.2278 0.238,-0.2278 0.238,-0.2276 0.238,-0.2276 0.238,-0.2275 0.238,-0.2274 0.238,-0.2274 0.238,-0.2272 0.238,-0.2272 0.238,-0.2271 0.238,-0.227 0.238,-0.2269 0.238,-0.2268 0.238,-0.2267 0.238,-0.2266 0.238,-0.2265 0.238,-0.2264 0.238,-0.2263 0.238,-0.2262 0.238,-0.2261 0.238,-0.2259 0.238,-0.2259 0.238,-0.2257 0.238,-0.2256 0.238,-0.2255 0.238,-0.2254 0.238,-0.2252 0.238,-0.2251 0.238,-0.225 0.238,-0.2249 0.238,-0.2247 0.238,-0.2246 0.238,-0.2244 0.238,-0.2243 0.238,-0.2242 0.238,-0.224 0.238,-0.2238 0.238,-0.2237 0.238,-0.2236 0.238,-0.2234 0.238,-0.2233 0.238,-0.223 0.238,-0.223 0.238,-0.2227 0.238,-0.2226 0.238,-0.2224 0.238,-0.2223 0.238,-0.2221 0.238,-0.2219 0.238,-0.2217 0.238,-0.2216 0.238,-0.2213 0.238,-0.2212 0.238,-0.221 0.238,-0.2208 0.238,-0.2207 0.238,-0.2204 0.238,-0.2202 0.238,-0.2201 0.238,-0.2198 0.238,-0.2197 0.238,-0.2194 0.238,-0.2192 0.238,-0.2191 0.238,-0.2188 0.238,-0.2186 0.238,-0.2184 0.238,-0.2181 0.238,-0.218 0.238,-0.2177 0.238,-0.2175 0.238,-0.2173 0.238,-0.2171 0.238,-0.2168 0.238,-0.2166 0.238,-0.2164 0.238,-0.2161 0.238,-0.2159 0.238,-0.2157 0.238,-0.2154 0.238,-0.2151 0.238,-0.215 0.238,-0.2146 0.238,-0.2145 0.238,-0.2141 0.238,-0.2139 0.238,-0.2137 0.238,-0.2134 0.238,-0.2132 0.238,-0.2128 0.238,-0.2126 0.238,-0.2124 0.238,-0.2121 0.238,-0.2118 0.238,-0.2115 0.238,-0.2112 0.238,-0.211 0.238,-0.2107 0.238,-0.2104 0.238,-0.2102 0.238,-0.2098 0.238,-0.2096 0.238,-0.2092 0.238,-0.209 0.238,-0.2087 0.238,-0.2084 0.238,-0.208 0.238,-0.2078 0.238,-0.2075 0.238,-0.2072 0.238,-0.2068 0.238,-0.2066 0.238,-0.2063 0.238,-0.2059 0.238,-0.2056 0.238,-0.2053 0.238,-0.205 0.238,-0.2047 0.238,-0.2043 0.238,-0.2041 0.238,-0.2036 0.238,-0.2034 0.238,-0.203 0.238,-0.2027 0.238,-0.2024 0.238,-0.202 0.238,-0.2017 0.238,-0.2013 0.238,-0.201 0.238,-0.2007 0.238,-0.2003 0.238,-0.2 0.238,-0.1996 0.238,-0.1992 0.238,-0.1989 0.238,-0.1986 0.238,-0.1982 0.238,-0.1978 0.238,-0.1975 0.238,-0.1971 0.238,-0.1967 0.238,-0.1964 0.238,-0.1959 0.238,-0.1957 0.238,-0.1952 0.238,-0.1949 0.238,-0.1945 0.238,-0.1941 0.238,-0.1937 0.238,-0.1934 0.238,-0.1929 0.238,-0.1926 0.238,-0.1922 0.238,-0.1918 0.238,-0.1913 0.238,-0.1911 0.238,-0.1906 0.238,-0.1902 0.238,-0.1898 0.238,-0.1894 0.238,-0.189 0.238,-0.1885 0.238,-0.1882 0.238,-0.1878 0.238,-0.1874 0.238,-0.1869 0.238,-0.1865 0.238,-0.1861 0.238,-0.1857 0.238,-0.1853 0.238,-0.1848 0.238,-0.1844 0.238,-0.184 0.238,-0.1836 0.238,-0.1831 0.238,-0.1827 0.238,-0.1823 0.238,-0.1818 0.238,-0.1814 0.238,-0.181 0.238,-0.1805 0.238,-0.18 0.238,-0.1797 0.238,-0.1791 0.238,-0.1788 0.238,-0.1783 0.238,-0.1778 0.238,-0.1773 0.238,-0.177 0.238,-0.1764 0.238,-0.176 0.238,-0.1756 0.238,-0.175 0.238,-0.1746 0.238,-0.1742 0.238,-0.1736 0.238,-0.1733 0.238,-0.1727 0.238,-0.1723 0.238,-0.1718 0.238,-0.1713 0.238,-0.1708 0.238,-0.1703 0.238,-0.1699 0.238,-0.1694 0.238,-0.1689 0.238,-0.1684 0.238,-0.168 0.238,-0.1674 0.238,-0.167 0.238,-0.1664 0.238,-0.166 0.238,-0.1654 0.238,-0.165 0.238,-0.1645 0.238,-0.1639 0.238,-0.1635 0.238,-0.163 0.238,-0.1624 0.238,-0.162 0.238,-0.1614 0.238,-0.1609 0.238,-0.1605 0.238,-0.1598 0.238,-0.1594 0.238,-0.1589 0.238,-0.1583 0.238,-0.1579 0.238,-0.1573 0.238,-0.1567 0.238,-0.1563 0.238,-0.1557 0.238,-0.1552 0.238,-0.1547 0.238,-0.1542 0.238,-0.1536 0.238,-0.1531 0.238,-0.1525 0.238,-0.152 0.238,-0.1514 0.238,-0.151 0.238,-0.1503 0.238,-0.1499 0.238,-0.1493 0.238,-0.1487 0.238,-0.1482 0.238,-0.1477 0.238,-0.1471 0.238,-0.1465 0.238,-0.146 0.238,-0.1454 0.238,-0.1449 0.238,-0.1444 0.238,-0.1437 0.238,-0.1432 0.238,-0.1427 0.238,-0.1421 0.238,-0.1415 0.238,-0.1409 0.238,-0.1404 0.238,-0.1398 0.238,-0.1393 0.238,-0.1386 0.238,-0.1381 0.238,-0.1375 0.238,-0.137 0.238,-0.1364 0.238,-0.1357 0.238,-0.1353 0.238,-0.1346 0.238,-0.134 0.238,-0.1335 0.238,-0.1329 0.238,-0.1323 0.238,-0.1317 0.238,-0.1311 0.238,-0.1305 0.238,-0.1299 0.238,-0.1294 0.238,-0.1287 0.238,-0.1282 0.238,-0.1275 0.238,-0.127 0.238,-0.1263 0.238,-0.1258 0.238,-0.1251 0.238,-0.1246 0.238,-0.1239 0.238,-0.1233 0.238,-0.1228 0.238,-0.1221 0.238,-0.1215 0.238,-0.1209 0.238,-0.1203 0.238,-0.1197 0.238,-0.1191 0.238,-0.1184 0.238,-0.1178 0.238,-0.1173 0.238,-0.1166 0.238,-0.1159 0.238,-0.1154 0.238,-0.1147 0.238,-0.1141 0.238,-0.1135 0.238,-0.1129 0.238,-0.1122 0.238,-0.1116 0.238,-0.111 0.238,-0.1104 0.238,-0.1097 0.238,-0.109 0.238,-0.1085 0.238,-0.1078 0.238,-0.1072 0.238,-0.1065 0.238,-0.106 0.238,-0.1052 0.238,-0.1047 0.238,-0.104 0.238,-0.1033 0.238,-0.1027 0.238,-0.1021 0.238,-0.1014 0.238,-0.1008 0.238,-0.1001 0.238,-0.0995 0.238,-0.0988 0.238,-0.0982 0.238,-0.0975 0.238,-0.0969 0.238,-0.0962 0.238,-0.0956 0.238,-0.0949 0.238,-0.0943 0.238,-0.0936 0.238,-0.0929 0.238,-0.0923 0.238,-0.0916 0.238,-0.091 0.238,-0.0903 0.238,-0.0897 0.238,-0.0889 0.238,-0.0884 0.238,-0.0876 0.238,-0.087 0.238,-0.0864 0.238,-0.0856 0.238,-0.085 0.238,-0.0843 0.238,-0.0837 0.238,-0.083 0.238,-0.0823 0.238,-0.0816 0.238,-0.081 0.238,-0.0803 0.238,-0.0796 0.238,-0.079 0.238,-0.0782 0.238,-0.0776 0.238,-0.0769 0.238,-0.0763 0.238,-0.0755 0.238,-0.0749 0.238,-0.0742 0.238,-0.0735 0.238,-0.0729 0.238,-0.0721 0.238,-0.0715 0.238,-0.0708 0.238,-0.0701 0.238,-0.0694 0.238,-0.0687 0.238,-0.0681 0.238,-0.0673 0.238,-0.0667 0.238,-0.066 0.238,-0.0653 0.238,-0.0645 0.238,-0.064 0.238,-0.0632 0.238,-0.0625 0.238,-0.0618 0.238,-0.0612 0.238,-0.0604 0.238,-0.0598 0.238,-0.059 0.238,-0.0584 0.238,-0.0576 0.238,-0.057 0.238,-0.0563 0.238,-0.0556 0.238,-0.0548 0.238,-0.0542 0.238,-0.0535 0.238,-0.0527 0.238,-0.0521 0.238,-0.0514 0.238,-0.0507 0.238,-0.05 0.238,-0.0492 0.238,-0.0486 0.238,-0.0478 0.238,-0.0472 0.238,-0.0465 0.238,-0.0457 0.238,-0.045 0.238,-0.0444 0.238,-0.0436 0.238,-0.0429 0.238,-0.0423 0.238,-0.0415 0.238,-0.0408 0.238,-0.0401 0.238,-0.0393 0.238,-0.0387 0.238,-0.038 0.238,-0.0372 0.238,-0.0366 0.238,-0.0358 0.238,-0.0351 0.238,-0.0345 0.238,-0.0336 0.238,-0.0331 0.238,-0.0322 0.238,-0.0316 0.238,-0.0308 0.238,-0.0302 0.238,-0.0294 0.238,-0.0287 0.238,-0.028 0.238,-0.0273 0.238,-0.0266 0.238,-0.0258 0.238,-0.0251 0.238,-0.0245 0.238,-0.0237 0.238,-0.023 0.238,-0.0222 0.238,-0.0216 0.238,-0.0208 0.238,-0.0202 0.238,-0.0194 0.238,-0.0187 0.238,-0.0179 0.238,-0.0173 0.238,-0.0165 0.238,-0.0158 0.238,-0.0152 0.238,-0.0143 0.238,-0.0137 0.238,-0.013 0.238,-0.0122 0.238,-0.0115 0.238,-0.0108 0.238,-0.0101 0.238,-0.009 0.238,-0.009 0.238,-0.008 0.238,-0.007 0.238,-0.006 0.238,-0.006 0.238,-0.005 0.238,-0.004 0.238,-0.004 0.238,-0.003 0.238,-0.002 0.238,-0.001 0.238,-7e-4 H 330" />
  </g>
  <g
     id="g4252"
     style="color-interpolation:sRGB;fill:#ffffff;stroke:#ffffff;color-rendering:optimizeSpeed;image-rendering:optimizeSpeed;shape-rendering:crispEdges;text-rendering:optimizeSpeed"
     transform="translate(-56.6193,-42.67015)">
    <path
       inkscape:connector-curvature="0"
       id="path4250"
       d="M 142,85 V 43 h 139 v 42 z"
       style="stroke:none" />
  </g>
  <g
     id="g4256"
     style="font-size:16px;font-family:mwa_cmr10;color-interpolation:linearRGB;color-rendering:optimizeQuality;image-rendering:optimizeQuality;text-rendering:geometricPrecision"
     transform="translate(131.7778,11.69455)">
    <path
       inkscape:connector-curvature="0"
       id="path4254"
       d="M 0.4219,6.9093 V 6.3468 q 0.5469,0 0.8984,-0.0937 0.3516,-0.0938 0.3516,-0.4219 v -7.7188 q 0,-0.4375 -0.3125,-0.5468 -0.3125,-0.1094 -0.9375,-0.1094 v -0.5625 l 2.3593,-0.1719 v 1 q 0.4376,-0.4844 1.0235,-0.7422 0.5859,-0.2578 1.2422,-0.2578 0.9375,0 1.6953,0.5156 0.7578,0.5157 1.1875,1.3438 0.4297,0.8281 0.4297,1.7656 0,0.9688 -0.4766,1.8047 -0.4766,0.8359 -1.289,1.3359 -0.8126,0.5 -1.7969,0.5 -1.1563,0 -1.9688,-0.9531 v 2.7969 q 0,0.3281 0.3594,0.4219 0.3594,0.0937 0.8906,0.0937 V 6.9093 Z M 2.8281,2.2374 q 0.2813,0.5782 0.7813,0.9454 0.5,0.3671 1.0937,0.3671 0.5625,0 0.9844,-0.2968 0.4219,-0.2969 0.7109,-0.7969 0.2891,-0.5 0.4297,-1.0469 0.1407,-0.5469 0.1407,-1.0625 0,-0.6406 -0.2344,-1.3906 Q 6.5,-1.7938 6.0312,-2.3016 5.5625,-2.8094 4.8906,-2.8094 q -0.6562,0 -1.1953,0.3281 -0.5391,0.3281 -0.8672,0.9062 z"
       style="stroke:none" />
  </g>
  <g
     id="g4280"
     style="font-size:16px;font-family:mwa_cmr10;color-interpolation:linearRGB;color-rendering:optimizeQuality;image-rendering:optimizeQuality;text-rendering:geometricPrecision"
     transform="translate(131.7778,11.69455)">
    <path
       inkscape:connector-curvature="0"
       id="path4258"
       d="m 13.2362,3.9874 q -0.9532,0 -1.7735,-0.4921 Q 10.6424,3.0031 10.1658,2.1828 9.6893,1.3624 9.6893,0.3937 q 0,-0.7344 0.2578,-1.4141 0.2578,-0.6797 0.75,-1.2187 0.4922,-0.5391 1.1406,-0.836 0.6485,-0.2968 1.3985,-0.2968 0.9843,0 1.7968,0.5156 0.8125,0.5156 1.2813,1.3906 0.4687,0.875 0.4687,1.8594 0,0.9531 -0.4765,1.7812 -0.4766,0.8282 -1.2969,1.3204 -0.8203,0.4921 -1.7734,0.4921 z m 0,-0.4843 q 1.2812,0 1.7109,-0.9297 0.4297,-0.9297 0.4297,-2.3672 0,-0.7969 -0.086,-1.3281 -0.0859,-0.5313 -0.3671,-0.9532 -0.1875,-0.2656 -0.461,-0.4687 -0.2734,-0.2031 -0.5859,-0.3047 -0.3125,-0.1016 -0.6406,-0.1016 -0.5,0 -0.9454,0.2266 -0.4453,0.2266 -0.7421,0.6484 -0.2969,0.4532 -0.3829,0.9922 -0.0859,0.5391 -0.0859,1.2891 0,0.9062 0.1563,1.6172 0.1562,0.7109 0.6328,1.1953 0.4765,0.4844 1.3672,0.4844 z"
       style="stroke:none" />
    <path
       inkscape:connector-curvature="0"
       id="path4260"
       d="M 17.6528,3.7999 V 3.2374 q 0.5469,0 0.8985,-0.0859 0.3515,-0.0859 0.3515,-0.4297 v -4.3594 q 0,-0.625 -0.2421,-0.7656 -0.2422,-0.1406 -0.9454,-0.1406 v -0.5625 l 2.3125,-0.1719 v 6 q 0,0.3438 0.3047,0.4297 0.3047,0.0859 0.8047,0.0859 v 0.5625 z m 0.6719,-9.8281 q 0,-0.3437 0.2656,-0.6094 0.2657,-0.2656 0.6094,-0.2656 0.2344,0 0.4453,0.1172 0.211,0.1172 0.3282,0.3281 0.1171,0.211 0.1171,0.4297 0,0.3438 -0.2656,0.6094 -0.2656,0.2656 -0.625,0.2656 -0.3437,0 -0.6094,-0.2656 -0.2656,-0.2656 -0.2656,-0.6094 z"
       style="stroke:none" />
    <path
       inkscape:connector-curvature="0"
       id="path4262"
       d="M 22.0354,3.7999 V 3.2374 q 0.5469,0 0.8984,-0.0859 0.3516,-0.0859 0.3516,-0.4297 v -4.3594 q 0,-0.4375 -0.1328,-0.625 -0.1328,-0.1875 -0.375,-0.2343 -0.2422,-0.0469 -0.7422,-0.0469 v -0.5625 l 2.3125,-0.1719 v 1.5625 q 0.3281,-0.6875 0.9531,-1.125 0.625,-0.4375 1.375,-0.4375 1.1094,0 1.6641,0.5313 0.5547,0.5312 0.5547,1.625 v 3.8437 q 0,0.3438 0.3515,0.4297 0.3516,0.0859 0.8985,0.0859 V 3.7999 H 26.4885 V 3.2374 q 0.5469,0 0.8984,-0.0859 0.3516,-0.0859 0.3516,-0.4297 v -3.7969 q 0,-0.7812 -0.2266,-1.2812 -0.2265,-0.5 -0.9296,-0.5 -0.9375,0 -1.5313,0.7422 -0.5937,0.7422 -0.5937,1.6797 v 3.1562 q 0,0.3438 0.3515,0.4297 0.3516,0.0859 0.8828,0.0859 v 0.5625 z"
       style="stroke:none" />
    <path
       inkscape:connector-curvature="0"
       id="path4264"
       d="M 31.5481,1.8781 V -2.5438 H 30.22 v -0.4063 q 1.0469,0 1.5391,-0.9765 0.4922,-0.9766 0.4922,-2.1172 h 0.4531 v 2.9375 H 34.97 v 0.5625 h -2.2656 v 4.3906 q 0,0.6563 0.2265,1.1563 0.2266,0.5 0.8047,0.5 0.5469,0 0.7891,-0.5235 0.2422,-0.5234 0.2422,-1.1328 V 0.8937 H 35.22 v 0.9844 q 0,0.5 -0.1797,0.9843 -0.1797,0.4844 -0.539,0.8047 -0.3594,0.3203 -0.875,0.3203 -0.9688,0 -1.5235,-0.5781 -0.5547,-0.5781 -0.5547,-1.5312 z"
       style="stroke:none" />
    <path
       inkscape:connector-curvature="0"
       id="path4266"
       d="m 42.9833,1.8781 v -4.4219 h -1.3281 v -0.4063 q 1.0469,0 1.5391,-0.9765 0.4921,-0.9766 0.4921,-2.1172 h 0.4532 v 2.9375 h 2.2656 v 0.5625 h -2.2656 v 4.3906 q 0,0.6563 0.2265,1.1563 0.2266,0.5 0.8047,0.5 0.5469,0 0.7891,-0.5235 0.2422,-0.5234 0.2422,-1.1328 V 0.8937 h 0.4531 v 0.9844 q 0,0.5 -0.1797,0.9843 -0.1797,0.4844 -0.5391,0.8047 -0.3593,0.3203 -0.875,0.3203 -0.9687,0 -1.5234,-0.5781 -0.5547,-0.5781 -0.5547,-1.5312 z"
       style="stroke:none" />
    <path
       inkscape:connector-curvature="0"
       id="path4268"
       d="m 48.1407,2.2218 q 0,-0.9531 0.75,-1.5469 0.75,-0.5937 1.8047,-0.8437 1.0547,-0.25 1.9922,-0.25 v -0.6563 q 0,-0.4531 -0.2031,-0.8906 -0.2031,-0.4375 -0.5859,-0.7109 -0.3829,-0.2735 -0.836,-0.2735 -1.0625,0 -1.625,0.4688 0.3125,0 0.5078,0.2344 0.1953,0.2343 0.1953,0.5312 0,0.3281 -0.2265,0.5547 -0.2266,0.2266 -0.5391,0.2266 -0.3125,0 -0.539,-0.2266 -0.2266,-0.2266 -0.2266,-0.5547 0,-0.8437 0.7656,-1.25 0.7656,-0.4062 1.6875,-0.4062 0.6406,0 1.2969,0.2734 0.6562,0.2734 1.0781,0.7891 0.4219,0.5156 0.4219,1.2031 v 3.6094 q 0,0.3125 0.1328,0.5703 0.1328,0.2578 0.4141,0.2578 0.2656,0 0.3906,-0.2656 0.125,-0.2657 0.125,-0.5625 V 1.4718 h 0.4687 v 1.0313 q 0,0.3593 -0.1875,0.6797 -0.1875,0.3203 -0.5,0.5156 -0.3125,0.1953 -0.6875,0.1953 -0.4687,0 -0.8046,-0.3672 -0.336,-0.3672 -0.3829,-0.8672 -0.2968,0.6094 -0.875,0.9688 -0.5781,0.3593 -1.2343,0.3593 -0.6094,0 -1.1953,-0.1875 Q 48.9376,3.6124 48.5392,3.2296 48.1407,2.8468 48.1407,2.2218 Z m 1.2969,0 q 0,0.5625 0.4141,0.9453 0.414,0.3828 0.9765,0.3828 0.5157,0 0.9375,-0.2578 0.4219,-0.2578 0.6719,-0.7031 0.25,-0.4453 0.25,-0.9297 v -1.6719 q -0.7187,0 -1.4844,0.2422 -0.7656,0.2422 -1.2656,0.75 -0.5,0.5078 -0.5,1.2422 z"
       style="stroke:none" />
    <path
       inkscape:connector-curvature="0"
       id="path4270"
       d="M 55.8387,3.7999 V 3.2374 q 0.5469,0 0.8984,-0.0859 0.3516,-0.0859 0.3516,-0.4297 v -4.3594 q 0,-0.4375 -0.1328,-0.625 -0.1328,-0.1875 -0.375,-0.2343 -0.2422,-0.0469 -0.7422,-0.0469 v -0.5625 l 2.2812,-0.1719 v 1.5625 q 0.2657,-0.6875 0.7422,-1.125 0.4766,-0.4375 1.1485,-0.4375 0.4843,0 0.8593,0.2813 0.375,0.2812 0.375,0.75 0,0.2812 -0.2109,0.5 -0.2109,0.2187 -0.5078,0.2187 -0.2969,0 -0.5078,-0.2109 -0.211,-0.211 -0.211,-0.5078 0,-0.4375 0.2969,-0.6094 h -0.0937 q -0.6407,0 -1.0547,0.4687 -0.4141,0.4688 -0.586,1.1641 -0.1718,0.6953 -0.1718,1.3203 v 2.625 q 0,0.5156 1.5625,0.5156 v 0.5625 z"
       style="stroke:none" />
    <path
       inkscape:connector-curvature="0"
       id="path4272"
       d="m 62.0713,5.0499 q 0,-0.5625 0.4141,-0.9921 Q 62.8995,3.6281 63.462,3.4406 63.1495,3.2062 62.9776,2.839 62.8057,2.4718 62.8057,2.0499 q 0,-0.75 0.4844,-1.3281 -0.7344,-0.7187 -0.7344,-1.6406 0,-0.5 0.2109,-0.9375 0.211,-0.4375 0.5938,-0.7578 0.3828,-0.3203 0.8516,-0.4922 0.4687,-0.1719 0.9687,-0.1719 0.9531,0 1.7031,0.5625 0.3282,-0.3594 0.7813,-0.5469 0.4531,-0.1875 0.9375,-0.1875 0.3437,0 0.5625,0.2422 0.2187,0.2422 0.2187,0.586 0,0.2031 -0.1484,0.3515 -0.1484,0.1485 -0.3516,0.1485 -0.2031,0 -0.3515,-0.1485 -0.1485,-0.1484 -0.1485,-0.3515 0,-0.2969 0.2032,-0.4063 -0.8282,0 -1.4219,0.5625 0.2812,0.2969 0.4609,0.711 0.1797,0.414 0.1797,0.8359 0,0.6719 -0.375,1.2187 -0.375,0.5469 -0.9922,0.8438 -0.6172,0.2969 -1.2578,0.2969 -0.875,0 -1.6094,-0.4688 -0.2187,0.3125 -0.2187,0.7031 0,0.4219 0.2734,0.7344 0.2735,0.3125 0.6953,0.3125 h 1.3125 q 0.9532,0 1.7188,0.1719 0.7656,0.1719 1.289,0.6953 0.5235,0.5234 0.5235,1.4609 0,0.7032 -0.5938,1.1719 -0.5937,0.4688 -1.4218,0.6719 -0.8282,0.2031 -1.5313,0.2031 -0.7031,0 -1.5312,-0.2031 Q 63.2588,6.6906 62.6651,6.2218 62.0713,5.7531 62.0713,5.0499 Z m 0.8907,0 q 0,0.5469 0.4375,0.9063 0.4375,0.3594 1.0546,0.5391 0.6172,0.1796 1.1641,0.1796 0.5469,0 1.1641,-0.1796 0.6172,-0.1797 1.0468,-0.5391 0.4297,-0.3594 0.4297,-0.9063 0,-0.8281 -0.7656,-1.0781 -0.7656,-0.25 -1.8594,-0.25 h -1.3125 q -0.3593,0 -0.6718,0.1797 -0.3125,0.1797 -0.5,0.4922 -0.1875,0.3125 -0.1875,0.6562 z m 2.2187,-4.0312 q 1.3594,0 1.3594,-1.9375 0,-0.8438 -0.2891,-1.3828 -0.289,-0.5391 -1.0703,-0.5391 -0.7812,0 -1.0703,0.5391 -0.2891,0.539 -0.2891,1.3828 0,0.5312 0.1094,0.9609 0.1094,0.4297 0.4063,0.7032 0.2968,0.2734 0.8437,0.2734 z"
       style="stroke:none" />
    <path
       inkscape:connector-curvature="0"
       id="path4274"
       d="m 73.5193,3.9874 q -0.9688,0 -1.7891,-0.5156 -0.8203,-0.5156 -1.2812,-1.375 -0.461,-0.8594 -0.461,-1.8125 0,-0.9375 0.4219,-1.7812 0.4219,-0.8438 1.1875,-1.3594 0.7656,-0.5156 1.7031,-0.5156 0.7344,0 1.2735,0.2422 0.539,0.2421 0.8906,0.6796 0.3516,0.4375 0.5312,1.0313 0.1797,0.5937 0.1797,1.3125 0,0.2031 -0.1562,0.2031 h -4.6406 v 0.1719 q 0,1.3281 0.539,2.2812 0.5391,0.9532 1.7422,0.9532 0.5,0 0.9141,-0.2188 0.414,-0.2187 0.7265,-0.6094 0.3125,-0.3906 0.4219,-0.8281 0.0156,-0.0625 0.0547,-0.1015 0.0391,-0.0391 0.1016,-0.0391 h 0.1406 q 0.1562,0 0.1562,0.2031 -0.2187,0.9063 -0.9687,1.4922 -0.75,0.5859 -1.6875,0.5859 z m -2.125,-4.2812 h 3.6562 q 0,-0.6094 -0.1718,-1.2266 -0.1719,-0.6172 -0.5625,-1.0234 -0.3907,-0.4063 -1.0157,-0.4063 -0.9062,0 -1.4062,0.8438 -0.5,0.8437 -0.5,1.8125 z"
       style="stroke:none" />
    <path
       inkscape:connector-curvature="0"
       id="path4276"
       d="m 78.2126,1.8781 v -4.4219 h -1.3282 v -0.4063 q 1.0469,0 1.5391,-0.9765 0.4922,-0.9766 0.4922,-2.1172 h 0.4531 v 2.9375 h 2.2656 v 0.5625 h -2.2656 v 4.3906 q 0,0.6563 0.2266,1.1563 0.2265,0.5 0.8047,0.5 0.5468,0 0.789,-0.5235 0.2422,-0.5234 0.2422,-1.1328 V 0.8937 h 0.4531 v 0.9844 q 0,0.5 -0.1796,0.9843 -0.1797,0.4844 -0.5391,0.8047 -0.3594,0.3203 -0.875,0.3203 -0.9688,0 -1.5234,-0.5781 -0.5547,-0.5781 -0.5547,-1.5312 z"
       style="stroke:none" />
    <path
       inkscape:connector-curvature="0"
       id="path4278"
       d="M 83.2606,3.8468 V 1.2374 q 0,-0.125 0.1406,-0.125 h 0.2032 q 0.0937,0 0.125,0.125 0.4375,2.3125 2.1562,2.3125 0.75,0 1.2656,-0.3437 0.5157,-0.3438 0.5157,-1.0625 0,-0.5156 -0.3985,-0.875 -0.3984,-0.3594 -0.9453,-0.5 L 85.245,0.5656 q -0.5313,-0.125 -0.9766,-0.3672 -0.4453,-0.2422 -0.7265,-0.6406 -0.2813,-0.3985 -0.2813,-0.9297 0,-0.7032 0.375,-1.1563 0.375,-0.4531 0.9688,-0.6484 0.5937,-0.1953 1.2812,-0.1953 0.8125,0 1.4219,0.4375 l 0.4687,-0.4063 q 0,-0.0312 0.0782,-0.0312 h 0.1093 q 0.0469,0 0.086,0.039 0.039,0.0391 0.039,0.086 v 2.0937 q 0,0.1563 -0.125,0.1563 h -0.1875 q -0.1406,0 -0.1406,-0.1563 0,-0.8281 -0.4687,-1.3359 -0.4688,-0.5078 -1.2969,-0.5078 -0.7188,0 -1.25,0.2656 -0.5313,0.2656 -0.5313,0.9062 0,0.4532 0.3828,0.7344 0.3829,0.2813 0.8829,0.4063 l 1.0937,0.2031 q 0.5469,0.125 1.0156,0.4219 0.4688,0.2968 0.75,0.75 0.2813,0.4531 0.2813,1.0312 0,0.5781 -0.2031,1 -0.2032,0.4219 -0.5547,0.7031 -0.3516,0.2813 -0.836,0.4219 -0.4843,0.1406 -1.0156,0.1406 -1,0 -1.7187,-0.6875 l -0.5782,0.6407 q 0,0.0468 -0.0937,0.0468 h -0.0938 q -0.1406,0 -0.1406,-0.1406 z"
       style="stroke:none" />
  </g>
  <g
     id="g4284"
     style="color-interpolation:linearRGB;fill:#0000ff;stroke:#0000ff;stroke-linecap:butt;color-rendering:optimizeQuality;image-rendering:optimizeQuality;text-rendering:geometricPrecision"
     transform="translate(109.0772,11.69455)">
    <circle
       id="circle4282"
       cy="-0.5"
       cx="-0.5"
       style="fill:none"
       r="3.9583001" />
  </g>
  <g
     id="g4288"
     style="font-size:16px;font-family:mwa_cmr10;color-interpolation:linearRGB;color-rendering:optimizeQuality;image-rendering:optimizeQuality;text-rendering:geometricPrecision"
     transform="translate(131.7778,30.96515)">
    <path
       inkscape:connector-curvature="0"
       id="path4286"
       d="M 0.4219,3.7999 V 3.2374 q 0.5469,0 0.8984,-0.0859 0.3516,-0.0859 0.3516,-0.4297 v -4.3594 q 0,-0.4375 -0.1328,-0.625 Q 1.4062,-2.4501 1.1641,-2.4969 0.9219,-2.5438 0.4219,-2.5438 v -0.5625 l 2.2812,-0.1719 v 1.5625 q 0.2657,-0.6875 0.7422,-1.125 0.4766,-0.4375 1.1485,-0.4375 0.4843,0 0.8593,0.2813 0.375,0.2812 0.375,0.75 0,0.2812 -0.2109,0.5 -0.211,0.2187 -0.5078,0.2187 -0.2969,0 -0.5078,-0.2109 -0.211,-0.211 -0.211,-0.5078 0,-0.4375 0.2969,-0.6094 H 4.5938 q -0.6407,0 -1.0547,0.4687 -0.4141,0.4688 -0.586,1.1641 -0.1719,0.6953 -0.1719,1.3203 v 2.625 q 0,0.5156 1.5626,0.5156 v 0.5625 z"
       style="stroke:none" />
  </g>
  <g
     id="g4306"
     style="font-size:16px;font-family:mwa_cmr10;color-interpolation:linearRGB;color-rendering:optimizeQuality;image-rendering:optimizeQuality;text-rendering:geometricPrecision"
     transform="translate(131.7778,30.96515)">
    <path
       inkscape:connector-curvature="0"
       id="path4290"
       d="M 10.2014,3.9874 Q 9.2483,3.9874 8.428,3.4953 7.6076,3.0031 7.1311,2.1828 6.6545,1.3624 6.6545,0.3937 q 0,-0.7344 0.2578,-1.4141 0.2578,-0.6797 0.75,-1.2187 0.4922,-0.5391 1.1407,-0.836 0.6484,-0.2968 1.3984,-0.2968 0.9844,0 1.7969,0.5156 0.8125,0.5156 1.2812,1.3906 0.4688,0.875 0.4688,1.8594 0,0.9531 -0.4766,1.7812 -0.4766,0.8282 -1.2969,1.3204 -0.8203,0.4921 -1.7734,0.4921 z m 0,-0.4843 q 1.2812,0 1.7109,-0.9297 0.4297,-0.9297 0.4297,-2.3672 0,-0.7969 -0.0859,-1.3281 -0.086,-0.5313 -0.3672,-0.9532 -0.1875,-0.2656 -0.4609,-0.4687 -0.2735,-0.2031 -0.586,-0.3047 -0.3125,-0.1016 -0.6406,-0.1016 -0.5,0 -0.9453,0.2266 -0.4453,0.2266 -0.7422,0.6484 -0.2969,0.4532 -0.3828,0.9922 -0.086,0.5391 -0.086,1.2891 0,0.9062 0.1563,1.6172 0.1562,0.7109 0.6328,1.1953 0.4766,0.4844 1.3672,0.4844 z"
       style="stroke:none" />
    <path
       inkscape:connector-curvature="0"
       id="path4292"
       d="m 15.79,3.7999 v -9.4687 q 0,-0.4375 -0.1328,-0.625 -0.1329,-0.1875 -0.375,-0.2344 Q 15.04,-6.5751 14.54,-6.5751 v -0.5625 l 2.3593,-0.1718 v 5.0156 q 0.2657,-0.2969 0.625,-0.5234 0.3594,-0.2266 0.7657,-0.3438 0.4062,-0.1172 0.8281,-0.1172 0.7187,0 1.3281,0.2891 0.6094,0.289 1.0625,0.7969 0.4531,0.5078 0.711,1.1718 0.2578,0.6641 0.2578,1.3672 0,0.9688 -0.4766,1.8047 -0.4766,0.8359 -1.2891,1.3359 -0.8125,0.5 -1.7968,0.5 -0.6094,0 -1.1797,-0.3203 Q 17.165,3.3468 16.79,2.8312 l -0.5469,0.9687 z m 1.1562,-1.5781 q 0.2656,0.5938 0.7656,0.961 0.5,0.3671 1.1094,0.3671 0.8281,0 1.3438,-0.4765 0.5156,-0.4766 0.7187,-1.2031 0.2031,-0.7266 0.2031,-1.5235 0,-1.3594 -0.3593,-2.0625 -0.1563,-0.3125 -0.4219,-0.5781 -0.2656,-0.2656 -0.6016,-0.4141 -0.3359,-0.1484 -0.6953,-0.1484 -0.6406,0 -1.1875,0.3359 -0.5469,0.336 -0.875,0.9141 z"
       style="stroke:none" />
    <path
       inkscape:connector-curvature="0"
       id="path4294"
       d="m 27.3542,3.9874 q -0.9531,0 -1.7734,-0.4921 -0.8203,-0.4922 -1.2969,-1.3125 -0.4765,-0.8204 -0.4765,-1.7891 0,-0.7344 0.2578,-1.4141 0.2578,-0.6797 0.75,-1.2187 0.4922,-0.5391 1.1406,-0.836 0.6484,-0.2968 1.3984,-0.2968 0.9844,0 1.7969,0.5156 0.8125,0.5156 1.2813,1.3906 0.4687,0.875 0.4687,1.8594 0,0.9531 -0.4765,1.7812 -0.4766,0.8282 -1.2969,1.3204 -0.8203,0.4921 -1.7735,0.4921 z m 0,-0.4843 q 1.2813,0 1.711,-0.9297 0.4297,-0.9297 0.4297,-2.3672 0,-0.7969 -0.086,-1.3281 -0.0859,-0.5313 -0.3672,-0.9532 -0.1875,-0.2656 -0.4609,-0.4687 -0.2734,-0.2031 -0.5859,-0.3047 -0.3125,-0.1016 -0.6407,-0.1016 -0.5,0 -0.9453,0.2266 -0.4453,0.2266 -0.7422,0.6484 -0.2968,0.4532 -0.3828,0.9922 -0.0859,0.5391 -0.0859,1.2891 0,0.9062 0.1562,1.6172 0.1563,0.7109 0.6329,1.1953 0.4765,0.4844 1.3671,0.4844 z"
       style="stroke:none" />
    <path
       inkscape:connector-curvature="0"
       id="path4296"
       d="m 32.9116,1.8781 v -4.4219 h -1.3282 v -0.4063 q 1.0469,0 1.5391,-0.9765 0.4922,-0.9766 0.4922,-2.1172 h 0.4531 v 2.9375 h 2.2656 v 0.5625 h -2.2656 v 4.3906 q 0,0.6563 0.2266,1.1563 0.2265,0.5 0.8047,0.5 0.5468,0 0.789,-0.5235 0.2422,-0.5234 0.2422,-1.1328 V 0.8937 h 0.4531 v 0.9844 q 0,0.5 -0.1797,0.9843 -0.1796,0.4844 -0.539,0.8047 -0.3594,0.3203 -0.875,0.3203 -0.9688,0 -1.5235,-0.5781 -0.5546,-0.5781 -0.5546,-1.5312 z"
       style="stroke:none" />
    <path
       inkscape:connector-curvature="0"
       id="path4298"
       d="M 43.128,6.9093 V 6.3468 q 0.5469,0 0.8984,-0.0937 0.3516,-0.0938 0.3516,-0.4219 v -7.7188 q 0,-0.4375 -0.3125,-0.5468 -0.3125,-0.1094 -0.9375,-0.1094 v -0.5625 l 2.3594,-0.1719 v 1 q 0.4375,-0.4844 1.0234,-0.7422 0.586,-0.2578 1.2422,-0.2578 0.9375,0 1.6953,0.5156 0.7578,0.5157 1.1875,1.3438 0.4297,0.8281 0.4297,1.7656 0,0.9688 -0.4766,1.8047 -0.4765,0.8359 -1.289,1.3359 -0.8125,0.5 -1.7969,0.5 -1.1562,0 -1.9687,-0.9531 v 2.7969 q 0,0.3281 0.3593,0.4219 0.3594,0.0937 0.8907,0.0937 v 0.5625 z m 2.4063,-4.6719 q 0.2812,0.5782 0.7812,0.9454 0.5,0.3671 1.0938,0.3671 0.5625,0 0.9843,-0.2968 0.4219,-0.2969 0.711,-0.7969 0.289,-0.5 0.4297,-1.0469 0.1406,-0.5469 0.1406,-1.0625 0,-0.6406 -0.2344,-1.3906 -0.2344,-0.75 -0.7031,-1.2578 -0.4688,-0.5078 -1.1406,-0.5078 -0.6563,0 -1.1954,0.3281 -0.539,0.3281 -0.8671,0.9062 z"
       style="stroke:none" />
    <path
       inkscape:connector-curvature="0"
       id="path4300"
       d="m 52.1431,2.2218 q 0,-0.9531 0.75,-1.5469 0.75,-0.5937 1.8047,-0.8437 1.0546,-0.25 1.9921,-0.25 v -0.6563 q 0,-0.4531 -0.2031,-0.8906 -0.2031,-0.4375 -0.5859,-0.7109 -0.3828,-0.2735 -0.836,-0.2735 -1.0625,0 -1.625,0.4688 0.3125,0 0.5079,0.2344 0.1953,0.2343 0.1953,0.5312 0,0.3281 -0.2266,0.5547 -0.2266,0.2266 -0.5391,0.2266 -0.3125,0 -0.539,-0.2266 -0.2266,-0.2266 -0.2266,-0.5547 0,-0.8437 0.7656,-1.25 0.7657,-0.4062 1.6875,-0.4062 0.6407,0 1.2969,0.2734 0.6563,0.2734 1.0781,0.7891 0.4219,0.5156 0.4219,1.2031 v 3.6094 q 0,0.3125 0.1328,0.5703 0.1328,0.2578 0.4141,0.2578 0.2656,0 0.3906,-0.2656 0.125,-0.2657 0.125,-0.5625 V 1.4718 h 0.4688 v 1.0313 q 0,0.3593 -0.1875,0.6797 -0.1875,0.3203 -0.5,0.5156 -0.3125,0.1953 -0.6875,0.1953 -0.4688,0 -0.8047,-0.3672 -0.336,-0.3672 -0.3828,-0.8672 -0.2969,0.6094 -0.875,0.9688 -0.5782,0.3593 -1.2344,0.3593 -0.6094,0 -1.1953,-0.1875 Q 52.9399,3.6124 52.5415,3.2296 52.1431,2.8468 52.1431,2.2218 Z m 1.2968,0 q 0,0.5625 0.4141,0.9453 0.4141,0.3828 0.9766,0.3828 0.5156,0 0.9375,-0.2578 0.4218,-0.2578 0.6718,-0.7031 0.25,-0.4453 0.25,-0.9297 v -1.6719 q -0.7187,0 -1.4843,0.2422 -0.7657,0.2422 -1.2657,0.75 -0.5,0.5078 -0.5,1.2422 z"
       style="stroke:none" />
    <path
       inkscape:connector-curvature="0"
       id="path4302"
       d="m 61.0598,1.8781 v -4.4219 h -1.3282 v -0.4063 q 1.0469,0 1.5391,-0.9765 0.4922,-0.9766 0.4922,-2.1172 h 0.4531 v 2.9375 h 2.2656 v 0.5625 H 62.216 v 4.3906 q 0,0.6563 0.2266,1.1563 0.2265,0.5 0.8047,0.5 0.5468,0 0.789,-0.5235 0.2422,-0.5234 0.2422,-1.1328 V 0.8937 h 0.4531 v 0.9844 q 0,0.5 -0.1796,0.9843 -0.1797,0.4844 -0.5391,0.8047 -0.3594,0.3203 -0.875,0.3203 -0.9688,0 -1.5234,-0.5781 -0.5547,-0.5781 -0.5547,-1.5312 z"
       style="stroke:none" />
    <path
       inkscape:connector-curvature="0"
       id="path4304"
       d="M 66.0609,3.7999 V 3.2374 q 0.5469,0 0.8985,-0.0859 0.3515,-0.0859 0.3515,-0.4297 v -8.3906 q 0,-0.4375 -0.1328,-0.625 -0.1328,-0.1875 -0.375,-0.2344 -0.2422,-0.0469 -0.7422,-0.0469 v -0.5625 l 2.375,-0.1718 v 5.5 q 0.3282,-0.6563 0.9297,-1.0625 0.6016,-0.4063 1.336,-0.4063 1.1093,0 1.664,0.5313 0.5547,0.5312 0.5547,1.625 v 3.8437 q 0,0.3438 0.3516,0.4297 0.3515,0.0859 0.8984,0.0859 V 3.7999 H 70.5141 V 3.2374 q 0.5468,0 0.8984,-0.0859 0.3516,-0.0859 0.3516,-0.4297 v -3.7969 q 0,-0.7812 -0.2266,-1.2812 -0.2266,-0.5 -0.9297,-0.5 -0.9375,0 -1.5312,0.7422 -0.5938,0.7422 -0.5938,1.6797 v 3.1562 q 0,0.3438 0.3516,0.4297 0.3515,0.0859 0.8828,0.0859 v 0.5625 z"
       style="stroke:none" />
  </g>
  <g
     id="g4312"
     style="color-interpolation:linearRGB;fill:#ff0000;stroke:#ff0000;stroke-width:0.65969998;stroke-linecap:butt;stroke-linejoin:round;color-rendering:optimizeQuality;image-rendering:optimizeQuality;text-rendering:geometricPrecision"
     transform="translate(-56.6193,-42.67015)">
    <line
       id="line4308"
       y1="73.6353"
       x2="185.4091"
       x1="145.98399"
       style="fill:none"
       y2="73.6353" />
    <path
       inkscape:connector-curvature="0"
       id="path4310"
       style="fill:none;fill-rule:evenodd;stroke:#262626;stroke-linejoin:miter"
       d="M 142,85 V 43 h 139 v 42 z" />
  </g>
  <g
     id="g4388"
     style="font-size:16px;font-family:mwa_cmr10;color-interpolation:linearRGB;fill:#262626;stroke:#262626;color-rendering:optimizeQuality;image-rendering:optimizeQuality;text-rendering:geometricPrecision"
     transform="translate(467.8808,318.95485)" />
</svg>
