<?xml version="1.0" encoding="UTF-8" standalone="no"?>
<!-- Created with matplotlib (http://matplotlib.org/) -->

<svg
   xmlns:dc="http://purl.org/dc/elements/1.1/"
   xmlns:cc="http://creativecommons.org/ns#"
   xmlns:rdf="http://www.w3.org/1999/02/22-rdf-syntax-ns#"
   xmlns:svg="http://www.w3.org/2000/svg"
   xmlns="http://www.w3.org/2000/svg"
   xmlns:xlink="http://www.w3.org/1999/xlink"
   xmlns:sodipodi="http://sodipodi.sourceforge.net/DTD/sodipodi-0.dtd"
   xmlns:inkscape="http://www.inkscape.org/namespaces/inkscape"
   height="6.8343387cm"
   version="1.1"
   viewBox="0 0 393.08013 258.30572"
   width="10.400245cm"
   id="svg451"
   sodipodi:docname="walabot_rangetest.svg"
   inkscape:version="0.92.2 (unknown)">
  <metadata
     id="metadata455">
    <rdf:RDF>
      <cc:Work
         rdf:about="">
        <dc:format>image/svg+xml</dc:format>
        <dc:type
           rdf:resource="http://purl.org/dc/dcmitype/StillImage" />
        <dc:title></dc:title>
      </cc:Work>
    </rdf:RDF>
  </metadata>
  <sodipodi:namedview
     pagecolor="#ffffff"
     bordercolor="#666666"
     borderopacity="1"
     objecttolerance="10"
     gridtolerance="10"
     guidetolerance="10"
     inkscape:pageopacity="0"
     inkscape:pageshadow="2"
     inkscape:window-width="1855"
     inkscape:window-height="1176"
     id="namedview453"
     showgrid="false"
     units="cm"
     fit-margin-top="0"
     fit-margin-left="0"
     fit-margin-right="0"
     fit-margin-bottom="0"
     inkscape:zoom="2.5186812"
     inkscape:cx="221.04831"
     inkscape:cy="158.96986"
     inkscape:window-x="1145"
     inkscape:window-y="24"
     inkscape:window-maximized="1"
     inkscape:current-layer="svg451" />
  <defs
     id="defs4"
     style="stroke-linecap:butt;stroke-linejoin:round;stroke-miterlimit:100000">
    <style
       type="text/css"
       id="style2">
*{stroke-linecap:butt;stroke-linejoin:round;stroke-miterlimit:100000;}
  </style>
    <defs
       id="defs45">
      <path
         inkscape:connector-curvature="0"
         style="stroke:#000000;stroke-width:0.5;stroke-linecap:butt;stroke-linejoin:round;stroke-miterlimit:100000"
         id="m0f16f03a52"
         d="M 0,3 C 0.795609,3 1.55874,2.683901 2.12132,2.12132 2.683901,1.55874 3,0.795609 3,0 3,-0.795609 2.683901,-1.55874 2.12132,-2.12132 1.55874,-2.683901 0.795609,-3 0,-3 -0.795609,-3 -1.55874,-2.683901 -2.12132,-2.12132 -2.683901,-1.55874 -3,-0.795609 -3,0 -3,0.795609 -2.683901,1.55874 -2.12132,2.12132 -1.55874,2.683901 -0.795609,3 0,3 Z" />
    </defs>
    <defs
       id="defs19">
      <path
         inkscape:connector-curvature="0"
         style="stroke:#000000;stroke-width:0.5;stroke-linecap:butt;stroke-linejoin:round;stroke-miterlimit:100000"
         id="m85b9af95b0"
         d="M 0,3 C 0.795609,3 1.55874,2.683901 2.12132,2.12132 2.683901,1.55874 3,0.795609 3,0 3,-0.795609 2.683901,-1.55874 2.12132,-2.12132 1.55874,-2.683901 0.795609,-3 0,-3 -0.795609,-3 -1.55874,-2.683901 -2.12132,-2.12132 -2.683901,-1.55874 -3,-0.795609 -3,0 -3,0.795609 -2.683901,1.55874 -2.12132,2.12132 -1.55874,2.683901 -0.795609,3 0,3 Z" />
    </defs>
    <defs
       id="defs203">
      <path
         id="BitstreamVeraSans-Roman-20"
         d=""
         inkscape:connector-curvature="0"
         style="stroke-linecap:butt;stroke-linejoin:round;stroke-miterlimit:100000" />
      <path
         d="M 8.59375,75.984375 H 29.296875 V 69 H 17.578125 V -6.203125 h 11.71875 V -13.1875 H 8.59375 Z"
         id="BitstreamVeraSans-Roman-5b"
         inkscape:connector-curvature="0"
         style="stroke-linecap:butt;stroke-linejoin:round;stroke-miterlimit:100000" />
      <path
         d="M 30.421875,75.984375 V -13.1875 H 9.71875 v 6.984375 H 21.390625 V 69 H 9.71875 v 6.984375 z"
         id="BitstreamVeraSans-Roman-5d"
         inkscape:connector-curvature="0"
         style="stroke-linecap:butt;stroke-linejoin:round;stroke-miterlimit:100000" />
      <path
         d="M 54.890625,33.015625 V 0 H 45.90625 v 32.71875 q 0,7.765625 -3.03125,11.609375 -3.03125,3.859375 -9.078125,3.859375 -7.28125,0 -11.484375,-4.640625 -4.203125,-4.625 -4.203125,-12.640625 V 0 h -9.03125 v 54.6875 h 9.03125 v -8.5 q 3.234375,4.9375 7.59375,7.375 4.375,2.4375 10.09375,2.4375 9.421875,0 14.25,-5.828125 4.84375,-5.828125 4.84375,-17.15625"
         id="BitstreamVeraSans-Roman-6e"
         inkscape:connector-curvature="0"
         style="stroke-linecap:butt;stroke-linejoin:round;stroke-miterlimit:100000" />
      <path
         d="m 34.28125,27.484375 q -10.890625,0 -15.09375,-2.484375 -4.203125,-2.484375 -4.203125,-8.5 0,-4.78125 3.15625,-7.59375 3.15625,-2.796875 8.5625,-2.796875 7.484375,0 12,5.296875 4.515625,5.296875 4.515625,14.078125 v 2 z m 17.921875,3.71875 V 0 H 43.21875 v 8.296875 q -3.078125,-4.96875 -7.671875,-7.34375 -4.59375,-2.375 -11.234375,-2.375 -8.390625,0 -13.359375,4.71875 Q 6,8.015625 6,15.921875 q 0,9.21875 6.171875,13.90625 6.1875,4.6875 18.4375,4.6875 H 43.21875 v 0.890625 q 0,6.203125 -4.078125,9.59375 -4.078125,3.390625 -11.453125,3.390625 -4.6875,0 -9.140625,-1.125 -4.4375,-1.125 -8.53125,-3.375 v 8.3125 q 4.921875,1.90625 9.5625,2.84375 Q 24.21875,56 28.609375,56 q 11.875,0 17.734375,-6.15625 5.859375,-6.140625 5.859375,-18.640625"
         id="BitstreamVeraSans-Roman-61"
         inkscape:connector-curvature="0"
         style="stroke-linecap:butt;stroke-linejoin:round;stroke-miterlimit:100000" />
      <path
         d="m 30.609375,48.390625 q -7.21875,0 -11.421875,-5.640625 -4.203125,-5.640625 -4.203125,-15.453125 0,-9.8125 4.171875,-15.453125 4.1875,-5.640625 11.453125,-5.640625 7.1875,0 11.375,5.65625 4.203125,5.671875 4.203125,15.4375 0,9.71875 -4.203125,15.40625 -4.1875,5.6875 -11.375,5.6875 m 0,7.609375 q 11.71875,0 18.40625,-7.625 6.703125,-7.609375 6.703125,-21.078125 0,-13.421875 -6.703125,-21.078125 -6.6875,-7.640625 -18.40625,-7.640625 -11.765625,0 -18.4375,7.640625 -6.65625,7.65625 -6.65625,21.078125 0,13.46875 6.65625,21.078125 Q 18.84375,56 30.609375,56"
         id="BitstreamVeraSans-Roman-6f"
         inkscape:connector-curvature="0"
         style="stroke-linecap:butt;stroke-linejoin:round;stroke-miterlimit:100000" />
      <path
         d="M 19.671875,64.796875 V 8.109375 H 31.59375 q 15.09375,0 22.09375,6.828125 7,6.84375 7,21.59375 0,14.640625 -7,21.453125 -7,6.8125 -22.09375,6.8125 z M 9.8125,72.90625 h 20.265625 q 21.1875,0 31.09375,-8.8125 9.921875,-8.8125 9.921875,-27.5625 0,-18.859375 -9.96875,-27.703125 Q 51.171875,0 30.078125,0 H 9.8125 Z"
         id="BitstreamVeraSans-Roman-44"
         inkscape:connector-curvature="0"
         style="stroke-linecap:butt;stroke-linejoin:round;stroke-miterlimit:100000" />
      <path
         d="M 52,44.1875 Q 55.375,50.25 60.0625,53.125 64.75,56 71.09375,56 q 8.546875,0 13.1875,-5.984375 4.640625,-5.96875 4.640625,-17 V 0 h -9.03125 v 32.71875 q 0,7.859375 -2.796875,11.65625 -2.78125,3.8125 -8.484375,3.8125 -6.984375,0 -11.046875,-4.640625 -4.046875,-4.625 -4.046875,-12.640625 V 0 h -9.03125 v 32.71875 q 0,7.90625 -2.78125,11.6875 -2.78125,3.78125 -8.59375,3.78125 -6.890625,0 -10.953125,-4.65625 -4.046875,-4.65625 -4.046875,-12.625 V 0 h -9.03125 v 54.6875 h 9.03125 v -8.5 q 3.078125,5.03125 7.375,7.421875 Q 29.78125,56 35.6875,56 41.65625,56 45.828125,52.96875 50,49.953125 52,44.1875"
         id="BitstreamVeraSans-Roman-6d"
         inkscape:connector-curvature="0"
         style="stroke-linecap:butt;stroke-linejoin:round;stroke-miterlimit:100000" />
      <path
         d="m 56.203125,29.59375 v -4.390625 h -41.3125 q 0.59375,-9.28125 5.59375,-14.140625 5,-4.859375 13.9375,-4.859375 5.171875,0 10.03125,1.265625 4.859375,1.265625 9.65625,3.8125 v -8.5 q -4.84375,-2.046875 -9.921875,-3.125 -5.078125,-1.078125 -10.296875,-1.078125 -13.09375,0 -20.734375,7.609375 -7.640625,7.625 -7.640625,20.625 0,13.421875 7.25,21.296875 Q 20.015625,56 32.328125,56 q 11.03125,0 17.453125,-7.109375 6.421875,-7.09375 6.421875,-19.296875 m -8.984375,2.640625 q -0.09375,7.359375 -4.125,11.75 -4.03125,4.40625 -10.671875,4.40625 -7.515625,0 -12.03125,-4.25 -4.515625,-4.25 -5.203125,-11.96875 z"
         id="BitstreamVeraSans-Roman-65"
         inkscape:connector-curvature="0"
         style="stroke-linecap:butt;stroke-linejoin:round;stroke-miterlimit:100000" />
      <path
         d="M 4.203125,54.6875 H 13.1875 L 24.421875,12.015625 35.59375,54.6875 H 46.1875 L 57.421875,12.015625 68.609375,54.6875 H 77.59375 L 63.28125,0 H 52.6875 L 40.921875,44.828125 29.109375,0 H 18.5 Z"
         id="BitstreamVeraSans-Roman-77"
         inkscape:connector-curvature="0"
         style="stroke-linecap:butt;stroke-linejoin:round;stroke-miterlimit:100000" />
      <path
         d="m 45.40625,27.984375 q 0,9.765625 -4.03125,15.125 -4.015625,5.375 -11.296875,5.375 -7.21875,0 -11.25,-5.375 -4.03125,-5.359375 -4.03125,-15.125 0,-9.71875 4.03125,-15.09375 4.03125,-5.375 11.25,-5.375 7.28125,0 11.296875,5.375 4.03125,5.375 4.03125,15.09375 M 54.390625,6.78125 q 0,-13.953125 -6.203125,-20.765625 -6.1875,-6.8125 -18.984375,-6.8125 -4.734375,0 -8.9375,0.703125 -4.203125,0.703125 -8.15625,2.171875 V -9.1875 q 3.953125,-2.140625 7.8125,-3.15625 3.859375,-1.03125 7.859375,-1.03125 8.84375,0 13.234375,4.609375 4.390625,4.609375 4.390625,13.9375 V 9.625 Q 42.625,4.78125 38.28125,2.390625 33.9375,0 27.875,0 17.828125,0 11.671875,7.65625 q -6.15625,7.671875 -6.15625,20.328125 0,12.6875 6.15625,20.34375 Q 17.828125,56 27.875,56 q 6.0625,0 10.40625,-2.390625 4.34375,-2.390625 7.125,-7.21875 V 54.6875 h 8.984375 z"
         id="BitstreamVeraSans-Roman-67"
         inkscape:connector-curvature="0"
         style="stroke-linecap:butt;stroke-linejoin:round;stroke-miterlimit:100000" />
      <path
         d="m 41.109375,46.296875 q -1.515625,0.875 -3.296875,1.28125 Q 36.03125,48 33.890625,48 26.265625,48 22.1875,43.046875 18.109375,38.09375 18.109375,28.8125 V 0 h -9.03125 v 54.6875 h 9.03125 v -8.5 q 2.84375,4.984375 7.375,7.390625 Q 30.03125,56 36.53125,56 q 0.921875,0 2.046875,-0.125 1.125,-0.109375 2.484375,-0.359375 z"
         id="BitstreamVeraSans-Roman-72"
         inkscape:connector-curvature="0"
         style="stroke-linecap:butt;stroke-linejoin:round;stroke-miterlimit:100000" />
    </defs>
    <defs
       id="defs377">
      <path
         d="m 9.8125,72.90625 h 46.09375 v -8.3125 H 19.671875 V 43.015625 h 34.71875 V 34.71875 H 19.671875 V 8.296875 H 56.78125 V 0 H 9.8125 Z"
         id="BitstreamVeraSans-Roman-45"
         inkscape:connector-curvature="0"
         style="stroke-linecap:butt;stroke-linejoin:round;stroke-miterlimit:100000" />
      <path
         d="M 9.421875,54.6875 H 18.40625 V 0 H 9.421875 Z m 0,21.296875 H 18.40625 V 64.59375 H 9.421875 Z"
         id="BitstreamVeraSans-Roman-69"
         inkscape:connector-curvature="0"
         style="stroke-linecap:butt;stroke-linejoin:round;stroke-miterlimit:100000" />
      <path
         d="M 54.890625,33.015625 V 0 H 45.90625 v 32.71875 q 0,7.765625 -3.03125,11.609375 -3.03125,3.859375 -9.078125,3.859375 -7.28125,0 -11.484375,-4.640625 -4.203125,-4.625 -4.203125,-12.640625 V 0 h -9.03125 v 75.984375 h 9.03125 V 46.1875 q 3.234375,4.9375 7.59375,7.375 4.375,2.4375 10.09375,2.4375 9.421875,0 14.25,-5.828125 4.84375,-5.828125 4.84375,-17.15625"
         id="BitstreamVeraSans-Roman-68"
         inkscape:connector-curvature="0"
         style="stroke-linecap:butt;stroke-linejoin:round;stroke-miterlimit:100000" />
      <path
         d="M 48.78125,52.59375 V 44.1875 q -3.8125,2.109375 -7.640625,3.15625 -3.828125,1.046875 -7.734375,1.046875 -8.75,0 -13.59375,-5.546875 -4.828125,-5.53125 -4.828125,-15.546875 0,-10.015625 4.828125,-15.5625 4.84375,-5.53125 13.59375,-5.53125 3.90625,0 7.734375,1.046875 3.828125,1.046875 7.640625,3.15625 v -8.3125 q -3.765625,-1.75 -7.796875,-2.625 -4.015625,-0.890625 -8.5625,-0.890625 -12.359375,0 -19.640625,7.765625 -7.265625,7.765625 -7.265625,20.953125 0,13.375 7.34375,21.03125 Q 20.21875,56 33.015625,56 q 4.140625,0 8.09375,-0.859375 3.953125,-0.84375 7.671875,-2.546875"
         id="BitstreamVeraSans-Roman-63"
         inkscape:connector-curvature="0"
         style="stroke-linecap:butt;stroke-linejoin:round;stroke-miterlimit:100000" />
      <path
         d="M 32.171875,-5.078125 Q 28.375,-14.84375 24.75,-17.8125 q -3.609375,-2.984375 -9.65625,-2.984375 h -7.1875 v 7.515625 h 5.28125 q 3.703125,0 5.75,1.765625 2.0625,1.75 4.546875,8.296875 L 25.09375,0.875 2.984375,54.6875 H 12.5 L 29.59375,11.921875 46.6875,54.6875 h 9.515625 z"
         id="BitstreamVeraSans-Roman-79"
         inkscape:connector-curvature="0"
         style="stroke-linecap:butt;stroke-linejoin:round;stroke-miterlimit:100000" />
      <path
         d="M 18.3125,70.21875 V 54.6875 h 18.5 v -6.984375 h -18.5 v -29.6875 q 0,-6.6875 1.828125,-8.59375 1.828125,-1.90625 7.453125,-1.90625 H 36.8125 V 0 H 27.59375 Q 17.1875,0 13.234375,3.875 9.28125,7.765625 9.28125,18.015625 v 29.6875 H 2.6875 V 54.6875 h 6.59375 v 15.53125 z"
         id="BitstreamVeraSans-Roman-74"
         inkscape:connector-curvature="0"
         style="stroke-linecap:butt;stroke-linejoin:round;stroke-miterlimit:100000" />
      <path
         d="m 44.28125,53.078125 v -8.5 Q 40.484375,46.53125 36.375,47.5 q -4.09375,0.984375 -8.5,0.984375 -6.6875,0 -10.03125,-2.046875 Q 14.5,44.390625 14.5,40.28125 q 0,-3.125 2.390625,-4.90625 2.390625,-1.78125 9.625,-3.390625 l 3.078125,-0.6875 Q 39.15625,29.25 43.1875,25.515625 47.21875,21.78125 47.21875,15.09375 q 0,-7.625 -6.03125,-12.078125 -6.03125,-4.4375 -16.578125,-4.4375 -4.390625,0 -9.15625,0.859375 Q 10.6875,0.296875 5.421875,2 v 9.28125 q 4.984375,-2.59375 9.8125,-3.890625 4.828125,-1.28125 9.578125,-1.28125 6.34375,0 9.75,2.171875 3.421875,2.171875 3.421875,6.125 0,3.65625 -2.46875,5.609375 -2.453125,1.953125 -10.8125,3.765625 l -3.125,0.734375 q -8.34375,1.75 -12.0625,5.390625 -3.703125,3.640625 -3.703125,9.984375 0,7.71875 5.46875,11.90625 Q 16.75,56 26.8125,56 q 4.96875,0 9.359375,-0.734375 4.40625,-0.71875 8.109375,-2.1875"
         id="BitstreamVeraSans-Roman-73"
         inkscape:connector-curvature="0"
         style="stroke-linecap:butt;stroke-linejoin:round;stroke-miterlimit:100000" />
      <path
         d="m 9.8125,72.90625 h 9.859375 V 0 H 9.8125 Z"
         id="BitstreamVeraSans-Roman-49"
         inkscape:connector-curvature="0"
         style="stroke-linecap:butt;stroke-linejoin:round;stroke-miterlimit:100000" />
    </defs>
    <defs
       id="defs419">
      <path
         d="m 7.515625,23 q -0.828125,0 -1.375,0.625 -0.53125,0.640625 -0.53125,1.375 0,0.734375 0.53125,1.359375 Q 6.6875,27 7.515625,27 H 83.40625 q -3.8125,2.734375 -6.75,6.328125 -2.921875,3.59375 -4.875,7.71875 -1.953125,4.125 -2.78125,8.765625 0,1.3125 1.015625,1.3125 h 2 q 0.34375,0 0.609375,-0.296875 0.28125,-0.296875 0.375,-0.625 0.828125,-4.296875 2.609375,-7.984375 1.78125,-3.6875 4.46875,-6.875 2.6875,-3.171875 6,-5.46875 3.328125,-2.28125 7.53125,-3.75 0.671875,-0.4375 0.671875,-1.125 0,-0.78125 -0.671875,-0.96875 Q 88.375,22.21875 84.03125,18.625 79.6875,15.046875 76.859375,10.1875 74.03125,5.328125 73,-0.203125 72.90625,-0.53125 72.609375,-0.828125 72.3125,-1.125 72.015625,-1.125 h -2 Q 69,-1.125 69,0.203125 70.265625,7.03125 74.0625,13.0625 77.875,19.09375 83.40625,23 Z"
         id="Cmsy10-21"
         inkscape:connector-curvature="0"
         style="stroke-linecap:butt;stroke-linejoin:round;stroke-miterlimit:100000" />
    </defs>
    <defs
       id="defs246">
      <path
         inkscape:connector-curvature="0"
         style="stroke:#000000;stroke-width:0.5;stroke-linecap:butt;stroke-linejoin:round;stroke-miterlimit:100000"
         id="m5c7a111f29"
         d="M 0,0 H -4" />
    </defs>
    <defs
       id="defs238">
      <path
         inkscape:connector-curvature="0"
         style="stroke:#000000;stroke-width:0.5;stroke-linecap:butt;stroke-linejoin:round;stroke-miterlimit:100000"
         id="mc02e066d63"
         d="M 0,0 H 4" />
    </defs>
    <defs
       id="defs314">
      <path
         style="stroke-linecap:butt;stroke-linejoin:round;stroke-miterlimit:100000"
         inkscape:connector-curvature="0"
         id="BitstreamVeraSans-Roman-33"
         d="M 40.578125,39.3125 Q 47.65625,37.796875 51.625,33 q 3.984375,-4.78125 3.984375,-11.8125 0,-10.78125 -7.421875,-16.703125 -7.421875,-5.90625 -21.09375,-5.90625 -4.578125,0 -9.4375,0.90625 -4.859375,0.90625 -10.03125,2.71875 v 9.515625 q 4.09375,-2.390625 8.96875,-3.609375 4.890625,-1.21875 10.21875,-1.21875 9.265625,0 14.125,3.65625 4.859375,3.65625 4.859375,10.640625 0,6.453125 -4.515625,10.078125 -4.515625,3.640625 -12.5625,3.640625 h -8.5 v 8.109375 h 8.890625 q 7.265625,0 11.125,2.90625 3.859375,2.90625 3.859375,8.375 0,5.609375 -3.984375,8.609375 -3.96875,3.015625 -11.390625,3.015625 -4.0625,0 -8.703125,-0.890625 Q 15.375,64.15625 9.8125,62.3125 v 8.78125 q 5.625,1.5625 10.53125,2.34375 4.90625,0.78125 9.25,0.78125 11.234375,0 17.765625,-5.109375 6.546875,-5.09375 6.546875,-13.78125 0,-6.0625 -3.46875,-10.234375 -3.46875,-4.171875 -9.859375,-5.78125" />
    </defs>
    <defs
       id="defs337">
      <path
         style="stroke-linecap:butt;stroke-linejoin:round;stroke-miterlimit:100000"
         inkscape:connector-curvature="0"
         id="BitstreamVeraSans-Roman-34"
         d="M 37.796875,64.3125 12.890625,25.390625 h 24.90625 z m -2.59375,8.59375 h 12.40625 V 25.390625 h 10.40625 V 17.1875 H 47.609375 V 0 h -9.8125 V 17.1875 H 4.890625 v 9.515625 z" />
    </defs>
    <defs
       id="defs90">
      <path
         style="stroke-linecap:butt;stroke-linejoin:round;stroke-miterlimit:100000"
         inkscape:connector-curvature="0"
         id="BitstreamVeraSans-Roman-30"
         d="m 31.78125,66.40625 q -7.609375,0 -11.453125,-7.5 Q 16.5,51.421875 16.5,36.375 q 0,-14.984375 3.828125,-22.484375 3.84375,-7.5 11.453125,-7.5 7.671875,0 11.5,7.5 3.84375,7.5 3.84375,22.484375 0,15.046875 -3.84375,22.53125 -3.828125,7.5 -11.5,7.5 m 0,7.8125 q 12.265625,0 18.734375,-9.703125 6.46875,-9.6875 6.46875,-28.140625 0,-18.40625 -6.46875,-28.109375 -6.46875,-9.6875 -18.734375,-9.6875 -12.25,0 -18.71875,9.6875 Q 6.59375,17.96875 6.59375,36.375 q 0,18.453125 6.46875,28.140625 6.46875,9.703125 18.71875,9.703125" />
      <path
         style="stroke-linecap:butt;stroke-linejoin:round;stroke-miterlimit:100000"
         inkscape:connector-curvature="0"
         id="BitstreamVeraSans-Roman-2e"
         d="M 10.6875,12.40625 H 21 V 0 H 10.6875 Z" />
    </defs>
    <defs
       id="defs81">
      <path
         inkscape:connector-curvature="0"
         style="stroke:#000000;stroke-width:0.5;stroke-linecap:butt;stroke-linejoin:round;stroke-miterlimit:100000"
         id="m1d36773529"
         d="M 0,0 V 4" />
    </defs>
    <defs
       id="defs73">
      <path
         inkscape:connector-curvature="0"
         style="stroke:#000000;stroke-width:0.5;stroke-linecap:butt;stroke-linejoin:round;stroke-miterlimit:100000"
         id="m2506db4ea9"
         d="M 0,0 V -4" />
    </defs>
    <defs
       id="defs113">
      <path
         style="stroke-linecap:butt;stroke-linejoin:round;stroke-miterlimit:100000"
         inkscape:connector-curvature="0"
         id="BitstreamVeraSans-Roman-35"
         d="m 10.796875,72.90625 h 38.71875 v -8.3125 h -29.6875 V 46.734375 q 2.140625,0.734375 4.28125,1.09375 2.15625,0.359375 4.3125,0.359375 Q 40.625,48.1875 47.75,41.5 54.890625,34.8125 54.890625,23.390625 54.890625,11.625 47.5625,5.09375 40.234375,-1.421875 26.90625,-1.421875 q -4.59375,0 -9.359375,0.78125 -4.75,0.78125 -9.828125,2.34375 V 11.625 q 4.390625,-2.390625 9.078125,-3.5625 4.6875,-1.171875 9.90625,-1.171875 8.453125,0 13.375,4.4375 4.9375,4.4375 4.9375,12.0625 0,7.609375 -4.9375,12.046875 -4.921875,4.453125 -13.375,4.453125 -3.953125,0 -7.890625,-0.875 -3.921875,-0.875 -8.015625,-2.734375 z" />
    </defs>
    <defs
       id="defs136">
      <path
         style="stroke-linecap:butt;stroke-linejoin:round;stroke-miterlimit:100000"
         inkscape:connector-curvature="0"
         id="BitstreamVeraSans-Roman-31"
         d="m 12.40625,8.296875 h 16.109375 v 55.625 L 10.984375,60.40625 v 8.984375 l 17.4375,3.515625 H 38.28125 V 8.296875 H 54.390625 V 0 H 12.40625 Z" />
    </defs>
    <defs
       id="defs179">
      <path
         style="stroke-linecap:butt;stroke-linejoin:round;stroke-miterlimit:100000"
         inkscape:connector-curvature="0"
         id="BitstreamVeraSans-Roman-32"
         d="M 19.1875,8.296875 H 53.609375 V 0 H 7.328125 v 8.296875 q 5.609375,5.8125 15.296875,15.59375 9.703125,9.796875 12.1875,12.640625 4.734375,5.3125 6.609375,9 1.890625,3.6875 1.890625,7.25 0,5.8125 -4.078125,9.46875 -4.078125,3.671875 -10.625,3.671875 -4.640625,0 -9.796875,-1.609375 -5.140625,-1.609375 -11,-4.890625 v 9.96875 Q 13.765625,71.78125 18.9375,73 q 5.1875,1.21875 9.484375,1.21875 11.328125,0 18.0625,-5.671875 6.734375,-5.65625 6.734375,-15.125 0,-4.5 -1.6875,-8.53125 Q 49.859375,40.875 45.40625,35.40625 44.1875,33.984375 37.640625,27.21875 31.109375,20.453125 19.1875,8.296875" />
    </defs>
  </defs>
  <path
     inkscape:connector-curvature="0"
     id="path12"
     style="opacity:0.2;fill:none;stroke:#0000ff;stroke-linecap:square;stroke-linejoin:round;stroke-miterlimit:100000"
     d="m 179.31331,832.09267 0.87709,1.8641 0.87709,1.33825 0.87709,0.5536 0.87709,-0.32254 0.87709,-1.10464 2.63127,-4.97365 0.8771,-0.99578 0.87709,-0.23927 0.87709,0.53512 0.87709,1.14692 1.75418,2.84433 0.87709,0.97332 0.87709,0.314 0.87709,-0.4174 0.87709,-1.02754 1.75418,-2.62686 0.87709,-0.81721 0.87709,-0.0645 0.8771,0.79286 0.87709,1.52436 1.75418,3.71257 0.87709,1.15954 0.87709,0.0817 0.87709,-1.20991 0.87709,-2.41062 1.75418,-6.51196 0.87709,-2.62367 0.87709,-1.1787 0.87709,0.78495 0.87709,2.87541 0.8771,4.61925 1.75418,10.93844 0.87709,3.95107 0.87709,1.4435 0.87709,-1.72576 0.87709,-4.93675 0.87709,-7.486 1.75418,-16.98458 0.87709,-5.93982 0.87709,-2.08705 0.87709,2.65491 0.87709,7.37189 0.87709,11.05792 1.75419,24.91243 0.87709,8.76016 0.87709,3.2669 0.87709,-3.45588 0.87709,-10.12681 0.87709,-15.35421 1.75418,-34.95899 0.87709,-12.59017 0.87709,-5.16154 0.87709,3.98115 0.87709,13.11152 0.87709,20.35909 1.75419,47.31746 0.87709,17.60722 0.87709,7.96467 0.87709,-4.05431 0.87709,-16.19784 0.87709,-26.01572 1.75418,-62.11769 0.87709,-23.97796 0.87709,-11.87718 0.87709,3.47449 0.87709,19.21957 0.87709,32.22178 1.75419,79.40748 0.87709,31.84697 0.87709,17.09708 0.87709,-2.02328 0.87709,-21.97521 0.87709,-38.82748 1.75418,-99.13586 0.87709,-41.32493 0.87709,-23.80797 0.87709,-0.52568 0.87709,24.23346 0.87709,45.6362 2.63128,173.61706 0.87709,32.16632 0.87709,4.39537 0.87709,-25.74165 0.87709,-52.40829 2.63127,-210.44957 0.87709,-42.28859 0.87709,-9.79232 0.87709,26.23665 0.87709,58.86803 2.63128,250.49778 0.77367,47.84372 m 1.78284,0 0.0748,-2.17 0.87709,-64.71357 1.75418,-197.37648 0.87709,-95.73665 0.87709,-68.0184 0.87709,-25.82876 0.87709,23.16187 0.87709,69.63007 0.87709,104.36819 1.75419,233.10013 0.24755,23.5836 m 3.29285,0 0.84505,-110.96704 1.75418,-267.40336 0.87709,-100.70512 0.87709,-49.44062 0.87709,13.21934 0.87709,75.43859 0.87709,125.06583 1.84635,314.79238 m 4.00471,0 0.28858,-43.97898 1.75418,-336.85421 0.87709,-138.85529 0.87709,-80.37034 0.87709,-4.64136 0.87709,74.09467 0.87709,140.62017 1.86268,389.98534 m 4.44983,0 2.4584,-543.11653 0.87709,-117.10409 0.87709,-30.35396 0.87709,64.18416 0.87709,148.36838 1.96409,478.02204 m 4.70832,0 1.22141,-324.41789 0.87709,-219.95363 0.87709,-156.92795 0.87709,-62.55281 0.87709,45.47064 0.87709,146.50248 0.87709,220.91652 1.23397,350.96264 m 4.90285,0 0.003,-0.7224 1.75418,-520.58932 0.87709,-196.24986 0.87709,-98.65295 0.87709,19.07268 0.87709,134.4753 0.87709,225.29447 1.40835,437.37208 m 5.00265,0 1.48282,-475.21507 0.87709,-231.13377 0.87709,-135.19518 0.87709,-12.63235 0.87709,113.16995 0.87709,218.04648 1.60255,522.95994 m 5.06217,0 2.10619,-668.60881 0.87709,-168.38847 0.87709,-46.36626 0.87709,84.78687 0.87709,199.9209 1.82232,598.65577 m 5.08347,0 0.98803,-334.83739 0.87709,-273.88916 0.87709,-194.7303 0.87709,-78.49089 0.87709,52.47405 0.87709,173.03702 0.87709,260.13409 1.19059,396.30258 m 5.05295,0 1.65028,-533.71416 0.87709,-211.56715 0.87709,-105.60809 0.87709,19.7889 0.87709,140.4995 0.87709,233.46875 1.43902,457.13225 m 4.98119,0 1.47361,-451.96743 0.87709,-217.47759 0.87709,-125.08686 0.87709,-9.88319 0.87709,105.8613 0.87709,200.02718 1.69759,498.52659 m 4.86978,0 2.20354,-584.29639 0.87709,-135.41252 0.87709,-33.82864 0.87709,72.55869 0.87709,163.36445 2.00799,517.61441 m 4.66802,0 2.0949,-498.22652 0.87709,-136.30562 0.87709,-50.33218 0.87709,43.43488 0.87709,126.94364 2.33711,514.4858 m 4.38978,0 0.28984,-54.74129 1.75418,-363.77871 0.87709,-128.6177 0.87709,-58.78989 0.87709,20.43103 0.87709,93.68652 0.87709,147.15386 1.83753,344.65618 m 3.96819,0 0.33392,-49.22801 1.75418,-301.3448 0.87709,-114.05975 0.87709,-59.62396 0.87709,4.47337 0.87709,65.68511 0.87709,112.40597 1.75418,269.35165 0.60493,72.34042 m 3.23791,0 0.54262,-59.81725 1.75418,-237.72924 0.87709,-94.84487 0.87709,-54.0535 0.87709,-4.463 0.87709,44.09238 0.87709,82.34056 1.75418,207.06134 0.87709,84.22991 0.58927,33.18367 m 1.72159,0 0.32041,-13.0828 0.8771,-69.48503 1.75418,-177.85231 0.87709,-73.32636 0.87709,-43.79409 0.87709,-7.16519 0.87709,29.16962 0.87709,58.19891 1.75418,150.52058 0.87709,62.40027 0.87709,37.50229 0.87709,6.57133 0.87709,-24.08455 0.87709,-48.50847 1.75419,-125.39589 0.87709,-51.69322 0.87709,-30.75374 0.87709,-4.93114 0.87709,20.4433 0.87709,40.39667 1.75418,102.71968 0.87709,41.418 0.87709,23.77443 0.87709,2.44425 0.87709,-18.10694 0.87709,-33.80824 1.75419,-82.6483 0.87709,-31.75559 0.87709,-16.77379 0.87709,0.68856 0.87709,16.91808 0.87709,28.65583 1.75418,65.25831 0.87709,22.85371 0.87709,9.94045 0.87709,-4.27123 0.87709,-16.70757 2.63128,-75.37983 0.87709,-14.8263 0.87709,-3.43931 0.87709,8.11754 0.87709,17.3007 1.75418,44.05343 0.87709,16.60669 0.87709,7.75425 0.87709,-2.59055 0.87709,-12.05525 2.63128,-56.98082 0.87709,-11.03436 0.87709,-1.68676 0.87709,8.03676 0.87709,15.92944 1.75418,40.08871 0.87709,15.01708 0.87709,6.65834 0.87709,-3.35645 0.87709,-12.81394 0.87709,-19.60487 1.75418,-42.09429 0.8771,-13.19111 0.87708,-3.406 0.8771,7.38246 0.87709,16.86308 2.63127,67.7952 0.87709,12.25424 0.87709,1.18674 0.87709,-10.42205 0.87709,-20.15028 1.75418,-52.39002 0.87709,-21.54296 0.87709,-12.06754 0.87709,0.10347 0.8771,12.52615 0.87709,22.66504 1.75418,56.92701 0.87709,22.86151 0.87709,12.4923 0.87709,-0.5777 0.87709,-13.76234 0.87709,-24.41785 1.75418,-60.74957 0.87709,-24.34118 0.87709,-13.39382 0.87709,0.35393 0.87709,14.21094 0.8771,25.43763 1.75418,63.75365 0.87709,25.86935 0.87709,14.64475 0.87709,0.44881 0.87709,-13.96143 0.87709,-25.76869 1.75418,-65.87329 0.87709,-27.3493 0.87709,-16.12768 0.87709,-1.71389 0.8771,13.10877 0.87709,25.46768 2.63127,95.77861 0.87709,17.73718 0.87709,3.32997 0.87709,-11.7501 0.87709,-24.60039 2.63127,-97.22812 0.87709,-19.38109 0.87709,-5.19337 0.8771,9.98174 0.87708,23.23862 2.63128,97.55109 0.87709,20.98113 0.87709,7.20985 0.87709,-7.89664 0.87709,-21.45735 1.75418,-65.33495 0.87709,-31.42939 0.87709,-22.47293 0.87709,-9.29568 0.87709,5.58232 0.87709,19.3321 0.8771,29.35492 1.75418,65.56005 0.87709,23.80543 0.87709,11.37823 0.87709,-3.11943 0.87709,-16.93674 0.87709,-27.47126 1.75418,-64.60235 0.87709,-24.93986 0.87709,-13.39584 0.87709,0.58076 0.87709,14.34177 0.87709,25.30192 1.75419,63.02593 0.87709,25.84836 0.87709,15.29738 0.87709,1.96916 0.87709,-11.61309 0.87709,-22.90214 2.63127,-87.3866 0.87709,-17.04134 0.87709,-4.47393 0.87709,8.81123 0.87709,20.32547 2.63128,85.11934 0.87709,18.59464 0.87709,6.88495 0.87709,-5.99106 0.87709,-17.62279 0.87709,-25.85702 1.75418,-56.26636 0.87709,-19.93153 0.87709,-9.16063 0.87709,3.2019 0.87709,14.84182 0.87709,23.6044 1.75419,54.85213 0.87709,21.03223 0.87709,11.26558 0.87709,-0.48781 0.87709,-12.02695 0.87709,-21.21484 1.75418,-52.96594 0.87709,-21.88197 0.87709,-13.16972 0.87709,-2.11178 0.87709,9.21932 0.87709,18.72354 2.63128,73.10715 0.87709,14.84748 0.87709,4.56161 0.87709,-6.45723 0.87709,-16.16452 2.63127,-70.68716 0.87709,-16.27723 0.87709,-6.82989 0.87709,3.77641 0.87709,13.57082 0.87709,20.75428 1.75419,46.8648 0.87709,17.44083 0.87709,8.88801 0.87709,-1.21051 0.87709,-10.9748 0.87709,-18.60767 1.75418,-45.33263 0.87709,-18.32357 0.87709,-10.71028 0.87709,-1.20868 0.87709,8.40842 0.87709,16.36719 2.63128,62.24232 0.87709,12.27399 0.87709,3.45114 0.87709,-5.90345 0.87709,-14.06057 2.63127,-60.08143 0.87709,-13.55959 0.87709,-5.48875 0.87709,3.49149 0.87709,11.71718 0.8771,17.68435 1.75418,39.51827 0.87709,14.55122 0.87709,7.29565 0.87709,-1.2038 0.87709,-9.368 0.87709,-15.70108 1.75418,-37.94675 0.87709,-15.23727 0.87709,-8.84878 0.87709,-0.9292 0.87709,7.0455 0.8771,13.61121 2.63127,51.47249 0.87709,10.1286 0.87709,2.8785 0.87709,-4.78307 0.87709,-11.44664 2.63127,-48.97144 0.87709,-11.11992 0.87709,-4.61734 0.87709,2.61435 0.87709,9.24202 0.87709,14.06738 1.75419,31.66694 0.87709,11.81265 0.87709,6.1222 0.87709,-0.57234 0.87709,-7.034 0.87709,-12.09326 1.75418,-29.73812 0.87709,-12.20255 0.87709,-7.3737 0.87709,-1.31172 0.87709,4.86025 0.87709,10.02427 2.63128,39.61628 0.87709,8.35758 0.87709,3.00947 0.87709,-2.75835 0.87709,-7.90051 0.87709,-11.50973 1.75418,-25.06573 0.87709,-9.06549 0.87709,-4.49657 0.87709,0.76443 0.87709,5.76358 0.8771,9.61865 1.75418,23.28546 0.87709,9.49565 0.87709,5.75374 0.87709,1.08809 0.87709,-3.65515 0.87709,-7.63924 2.63127,-30.71684 0.87709,-6.7677 0.87709,-2.76977 0.87709,1.61555 0.8771,5.6156 0.87709,8.54537 1.75418,19.47364 0.87709,7.53175 0.87709,4.25636 0.87709,0.31761 0.87709,-3.59191 0.87709,-6.80157 2.63127,-26.02797 0.87709,-5.52966 0.87709,-2.11083 0.8771,1.61098 0.87708,4.99694 0.8771,7.47682 1.75418,16.96235 0.87709,6.57828 0.87709,3.73592 0.87709,0.28718 0.87709,-3.17604 0.87709,-6.06567 2.63127,-23.6576 0.87709,-5.17087 0.87709,-2.06678 0.87709,1.3821 0.8771,4.58601 0.87709,6.99703 1.75418,16.19394 0.87709,6.40065 0.87709,3.69737 0.87709,0.34447 0.87709,-3.08098 0.87709,-5.98524 2.63127,-23.64823 0.87709,-5.15472 0.87709,-1.96735 0.8771,1.59255 0.87709,4.90065 0.87709,7.36914 1.75418,16.77243 0.87709,6.4216 0.87709,3.45542 0.87709,-0.16011 0.87709,-3.78401 0.87709,-6.7644 2.63127,-24.8632 0.87709,-4.78368 0.8771,-1.18071 0.87709,2.67521 0.87709,6.08285 2.63127,25.98998 0.87709,5.93389 0.87709,2.39918 0.87709,-1.612 0.87709,-5.36264 0.87709,-8.15453 1.75418,-18.47652 0.87709,-6.89495 0.8771,-3.47034 0.87708,0.62876 0.8771,4.64148 0.87709,7.81488 1.75418,19.04297 0.87709,7.66303 0.87709,4.37564 0.87709,0.24455 0.87709,-3.95541 0.87709,-7.42982 2.63127,-27.56498 0.87709,-5.10334 0.87709,-0.98337 0.8771,3.33754 0.87709,7.03516 2.63127,28.01378 0.87709,5.64875 0.87709,1.56913 0.87709,-2.81691 0.87709,-6.66536 2.63127,-28.12973 0.87709,-6.01406 0.87709,-1.98981 0.8771,2.41761 0.87709,6.35228 2.63127,27.99867 0.87709,6.20807 0.87709,2.24017 0.87709,-2.15794 0.87709,-6.12403 2.63127,-27.71147 0.87709,-6.24566 0.87709,-2.32171 0.8771,2.04992 0.87709,6.00403 2.63127,27.36016 0.87709,6.14698 0.87709,2.24249 0.87709,-2.09895 0.87709,-6.01008 2.63127,-27.03431 0.87709,-5.93657 0.87709,-2.01663 0.8771,2.3037 0.87708,6.15383 2.63128,26.8174 0.87709,5.64228 0.87709,1.66363 0.87709,-2.65633 0.87709,-6.44041 2.63127,-26.78346 0.87709,-5.29401 0.87709,-1.2075 0.87709,3.14285 0.87709,6.86823 2.63128,26.99414 0.87709,4.92256 0.87709,0.6757 0.87709,-3.74381 0.87709,-7.42918 1.75418,-19.4576 0.87709,-8.03866 0.87709,-4.5582 0.87709,-0.098 0.87709,4.4351 0.87709,8.109 1.75419,20.29406 0.87709,8.0259 0.87709,4.22955 0.87709,-0.49479 0.87709,-5.18905 0.87709,-8.8879 1.75418,-21.3668 0.87709,-8.11075 0.87709,-3.96229 0.87709,1.07215 0.87709,5.97558 0.87709,9.74143 1.75419,22.65922 0.87709,8.30393 0.87709,3.77816 0.87709,-1.60511 0.87709,-6.76344 0.87709,-10.64158 1.75418,-24.1429 0.87709,-8.61011 0.87709,-3.69406 0.87709,2.0674 0.87709,7.52162 0.87709,11.5579 1.75418,25.77907 0.8771,9.02765 0.87709,3.7214 0.87709,-2.43659 0.87709,-8.22056 0.87709,-12.45888 1.75418,-27.52021 0.87709,-9.5489 0.87709,-3.86569 0.87709,2.69497 0.87709,8.83343 0.87709,13.3133 1.75418,29.31229 0.8771,10.16047 0.87709,4.12637 0.87709,-2.83021 0.87709,-9.33721 0.87709,-14.09148 1.75418,-31.09712 0.87709,-10.84403 0.87709,-4.49697 0.87709,2.83579 0.87709,9.71359 0.87709,14.76661 1.75418,32.815 0.8771,11.57709 0.87709,4.96554 0.87709,-2.71115 0.87709,-9.94969 0.87709,-15.31577 1.75418,-34.40728 0.87709,-12.33419 0.87709,-5.51528 0.87709,2.46158 0.87709,10.03843 0.87709,15.72087 1.75418,35.81897 0.8771,13.08804 0.87709,6.12542 0.87709,-2.09778 0.87709,-9.97872 0.87709,-15.96929 1.75418,-37.00106 0.87709,-13.81079 0.87709,-6.77229 0.87709,1.63523 0.87709,9.77528 0.87709,16.05432 1.75418,37.91249 0.8771,14.47536 0.87708,7.43047 0.8771,-1.09337 0.87709,-9.43827 0.87709,-15.9752 1.75418,-38.52184 0.87709,-15.05658 0.87709,-8.07399 0.87709,0.4945 0.87709,8.98263 0.87709,15.73703 1.75418,38.80837 0.87709,15.53233 0.87709,8.67758 0.8771,0.13722 0.87709,-8.42726 0.87709,-15.35027 1.75418,-38.76265 0.87709,-15.8844 0.87709,-9.21776 0.87709,-0.77703 0.87709,7.79398 0.87709,14.83016 1.75418,38.38659 0.87709,16.09923 0.87709,9.67382 0.87708,1.40069 0.8771,-7.10651 0.8771,-14.1958 2.6312,-53.86129 0.8771,-10.02874 0.8771,-1.98547 0.8771,6.3893 0.8771,13.46922 2.6313,52.79296 0.8771,10.26967 0.8771,2.51121 0.8771,-5.66649 0.877,-12.67432 2.6313,-51.31408 0.8771,-10.38845 0.8771,-2.96092 0.8771,4.96086 0.8771,11.83575 2.6313,49.46978 0.877,10.38164 0.8771,3.32146 0.8771,-4.29297 0.8771,-10.97795 2.6313,-47.31462 0.8771,-10.25049 0.8771,-3.58384 0.8771,3.68049 0.8771,10.1241 2.6312,44.91001 0.8771,10.00064 0.8771,3.74334 0.8771,-3.13764 0.8771,-9.29538 2.6313,-42.32146 0.877,-9.64161 0.8771,-3.79942 0.8771,2.6749 0.8771,8.51026 1.7542,26.71386 0.8771,12.90196 0.8771,9.18622 0.8771,3.75544 0.8771,-2.29883 0.8771,-7.78403 0.877,-11.64161 1.7542,-25.21721 0.8771,-8.64982 0.8771,-3.61827 0.8771,2.01222 0.8771,7.12852 0.8771,10.74103 1.7542,23.37165 0.8771,8.04959 0.877,3.39771 0.8771,-1.81426 0.8771,-6.55194 0.8771,-9.89644 1.7542,-21.53783 0.8771,-7.40371 0.8771,-3.10589 0.8771,1.70094 0.8771,6.05893 0.8771,9.12019 1.7541,19.75338 0.8771,6.73063 0.8771,2.7566 0.8771,-1.66547 0.8771,-5.6508 1.7542,-17.8784 0.8771,-8.59416 0.8771,-6.04839 0.877,-2.36464 0.8771,1.69884 0.8771,5.32577 2.6313,24.2646 0.8771,5.37401 0.8771,1.94517 0.8771,-1.79036 0.8771,-5.07938 2.6312,-22.27415 0.8771,-4.723 0.8771,-1.51314 0.8771,1.92821 0.8771,4.90495 2.6313,20.51683 0.8771,4.10901 0.8771,1.08282 0.877,-2.10001 0.8771,-4.79403 2.6313,-18.99989 0.8771,-3.54351 0.8771,-0.6673 0.8771,2.29325 0.8771,4.7369 1.7542,12.51503 0.877,5.20774 0.8771,3.03561 0.8771,0.27827 0.8771,-2.49579 0.8771,-4.723 1.7542,-11.9227 0.8771,-4.75525 0.8771,-2.59206 0.8771,0.0743 0.877,2.69621 0.8771,4.74138 1.7542,11.46864 0.8771,4.38324 0.8771,2.21718 0.8771,-0.38236 0.8771,-2.88406 0.8771,-4.78114 1.7542,-11.13668 0.877,-4.08924 0.8771,-1.91302 0.8771,0.63974 0.8771,3.0502 0.8771,4.83168 1.7542,10.9087 0.8771,3.86882 0.8771,1.67941 0.8771,-0.8423 0.8771,-3.18692 0.877,-4.8831 1.7542,-10.76526 0.8771,-3.71586 0.8771,-1.51421 0.8771,0.98783 0.8771,3.28809 0.8771,4.92639 1.7542,10.68641 0.8771,3.62287 0.877,1.41354 0.8771,-1.07603 0.8771,-3.34921 1.7542,-10.52507 0.8771,-5.0809 0.8771,-3.58139 0.8771,-1.37192 0.8771,1.1083 0.8771,3.36744 1.7541,10.52618 0.8771,5.07601 0.8771,3.58223 0.8771,1.38271 0.8771,-1.08767 0.8771,-3.34162 1.7542,-10.49276 0.8771,-5.08568 0.8771,-3.61589 0.877,-1.43825 0.8771,1.01852 0.8771,3.27214 0.8771,4.88145 1.7542,10.63358 0.8771,3.67281 0.8771,1.53027 0.8771,-0.90643 0.8771,-3.1609 0.8771,-4.79385 1.7541,-10.60206 0.8771,-3.74375 0.8771,-1.65013 0.8771,0.75788 0.8771,3.01107 0.8771,4.67222 1.7542,10.53684 0.8771,3.82002 0.877,1.78918 0.8771,-0.57998 0.8771,-2.82698 0.8771,-4.51736 1.7542,-10.42922 0.8771,-3.89379 0.8771,-1.93898 0.8771,0.38019 0.8771,2.61386 0.8771,4.33134 1.7541,10.27332 0.8771,3.95821 0.8771,2.09168 0.8771,-0.16603 0.8771,-2.37756 0.8771,-4.11736 1.7542,-10.06607 0.8771,-4.00767 0.8771,-2.24016 0.877,-0.0552 0.8771,2.1243 0.8771,3.87951 1.7542,9.807 0.8771,4.03784 0.8771,2.37829 0.8771,0.27655 0.8771,-1.86044 0.8771,-3.62252 2.6312,-13.54376 0.8771,-2.50102 0.8771,-0.49199 0.8771,1.59212 0.8771,3.35151 2.6313,13.17278 0.8771,2.60448 0.877,0.69621 0.8771,-1.32515 0.8771,-3.0717 2.6313,-12.73691 0.8771,-2.68599 0.8771,-0.88486 0.8771,1.06464 0.8771,2.7882 2.6312,12.24331 0.8771,2.74399 0.8771,1.05466 0.8771,-0.81502 0.8771,-2.50575 1.7542,-7.86413 0.8771,-3.83643 0.8771,-2.77791 0.8771,-1.20333 0.877,0.57989 0.8771,2.22853 0.8771,3.42971 1.7542,7.68826 0.8771,2.78802 0.8771,1.32947 0.8771,-0.36195 0.8771,-1.96013 0.8771,-3.16142 1.7541,-7.34341 0.8771,-2.77522 0.8771,-1.4325 0.8771,0.16312 0.8771,1.7034 0.8771,2.89529 1.7542,6.97465 0.8771,2.7408 0.8771,1.51246 0.877,0.0154 0.8771,-1.46053 0.8771,-2.63401 1.7542,-6.58707 0.8771,-2.68626 0.8771,-1.56975 0.8771,-0.1729 0.8771,1.23306 0.8771,2.37975 2.6312,8.79814 0.8771,1.60505 0.8771,0.3092 0.8771,-1.02206 0.8771,-2.13412 2.6313,-8.29481 0.8771,-1.61903 0.8771,-0.42426 0.877,0.82823 0.8771,1.89831 2.6313,7.76725 0.8771,1.61228 0.8771,0.51806 0.8771,-0.65207 0.8771,-1.67325 2.6312,-7.21832 0.8771,-1.58518 0.8771,-0.59054 0.8771,0.49407 0.8771,1.45967 2.6313,6.65024 0.8771,1.53786 0.8771,0.64147 0.877,-0.35483 0.8771,-1.25837 1.7542,-4.06017 0.8771,-2.0046 0.8771,-1.4703 0.8771,-0.67041 0.8771,0.23509 0.8771,1.07028 0.8771,1.67765 1.7541,3.7862 0.8771,1.38234 0.8771,0.67672 0.8771,-0.1358 0.8771,-0.89657 0.8771,-1.46173 1.7542,-3.38818 0.8771,-1.27388 0.8771,-0.65976 0.8771,0.0581 0.877,0.73864 0.8771,1.25273 1.7542,2.9737 0.8771,1.14502 0.8771,0.61891 0.8771,-0.003 0.8771,-0.5982 0.8771,-1.05248 1.7542,-2.54566 0.877,-0.99626 0.8771,-0.55385 0.8771,-0.0274 0.8771,0.47707 0.8771,0.86321 1.7542,2.1081 0.8771,0.82871 0.8771,0.4647 0.8771,0.0333 0.877,-0.37711 0.8771,-0.68739 1.7542,-1.6663 0.8771,-0.64418 0.8771,-0.35223 0.8771,-0.0138 0.8771,0.29996 1.7542,1.15778 0.8771,0.59653 0.877,0.44534 0.8771,0.21807 0.8771,-0.0309 0.8771,-0.24688 2.6313,-1.18312 0.8771,-0.2357 0.8771,-0.0648 0.8771,0.0996 3.5083,0.86894 0.8771,0.0196 1.7542,-0.29453 1.7542,-0.38403 0.8771,-0.0657 0.8771,0.0689 1.7541,0.48206 1.7542,0.534 0.8771,0.0959 0.8771,-0.0862 0.8771,-0.27043 3.5084,-1.57964 0.877,-0.0463 0.8771,0.21532 0.8771,0.45409 2.6313,1.82735 0.8771,0.3324 0.8771,0.0195 0.8771,-0.3201 0.8771,-0.61588 2.6312,-2.33022 0.8771,-0.40323 0.8771,-0.0133 0.8771,0.39997 0.8771,0.75254 2.6313,2.79504 0.8771,0.48146 0.8771,0.0243 0.877,-0.45557 0.8771,-0.86185 2.6313,-3.20367 0.8771,-0.56077 0.8771,-0.048 0.8771,0.48884 0.8771,0.94275 2.6312,3.53947 0.8771,0.63438 0.8771,0.0789 0.8771,-0.50289 0.8771,-0.99557 2.6313,-3.78825 0.8771,-0.69533 0.8771,-0.11086 0.877,0.50197 0.8771,1.02191 2.6313,3.93901 0.8771,0.73685 0.8771,0.13745 0.8771,-0.49124 0.8771,-1.02469 2.6312,-3.98463 0.8771,-0.75272 0.8771,-0.15202 0.8771,0.47651 0.8771,1.00799 2.6313,3.92224 0.8771,0.73755 0.8771,0.14828 0.8771,-0.46398 0.877,-0.97683 2.6313,-3.7534 0.8771,-0.68714 0.8771,-0.12052 0.8771,0.45987 0.8771,0.93694 2.6313,3.48405 0.877,0.59865 0.8771,0.064 0.8771,-0.47012 0.8771,-0.89442 1.7542,-2.2425 0.8771,-0.88176 0.8771,-0.47081 0.8771,0.025 0.8771,0.50009 0.877,0.85548 1.7542,1.98316 0.8771,0.70456 0.8771,0.30393 0.8771,-0.14866 0.8771,-0.55424 2.6313,-2.52199 0.8771,-0.49523 0.877,-0.1 0.8771,0.30772 0.8771,0.63597 1.7542,1.60868 0.8771,0.59707 0.8771,0.25937 0.8771,-0.13752 0.8771,-0.50141 2.6312,-2.25661 0.8771,-0.39914 0.8771,-0.004 0.8771,0.40365 0.8771,0.72743 1.7542,1.7351 0.8771,0.60005 0.8771,0.20121 0.8771,-0.26447 0.877,-0.69224 2.6313,-2.94366 0.8771,-0.52608 0.8771,-0.0106 0.8771,0.53702 0.8771,0.99614 1.7542,2.52044 0.8771,0.98315 0.877,0.47486 0.8771,-0.16554 0.8771,-0.80578 0.8771,-1.30742 1.7542,-3.03978 0.8771,-1.0932 0.8771,-0.45007 0.8771,0.32083 0.8771,1.0626 0.8771,1.61771 1.7541,3.58932 0.8771,1.22982 0.8771,0.45421 0.8771,-0.44951 0.8771,-1.29959 1.7542,-4.08771 0.8771,-1.98644 0.8771,-1.39074 0.8771,-0.48867 0.877,0.54678 0.8771,1.50943 1.7542,4.67263 0.8771,2.25278 0.8771,1.57254 0.8771,0.55367 0.8771,-0.60892 0.8771,-1.6855 1.7541,-5.21697 0.8771,-2.52013 0.8771,-1.77083 0.8771,-0.64819 0.8771,0.63331 0.8771,1.82211 1.7542,5.70464 0.8771,2.78099 0.8771,1.98032 0.8771,0.77012 0.877,-0.61858 0.8771,-1.91464 0.8771,-2.85987 1.7542,-6.28827 0.8771,-2.19501 0.8771,-0.91626 0.8771,0.56459 0.8771,1.95967 0.8771,2.99348 1.7541,6.70966 0.8771,2.40833 0.8771,1.0824 0.8771,-0.47246 0.8771,-1.95506 0.8771,-3.07487 1.7542,-7.05625 0.8771,-2.61329 0.8771,-1.26343 0.8771,0.34452 0.877,1.90003 0.8771,3.10033 1.7542,7.31473 0.8771,2.80274 0.8771,1.45348 0.8771,-0.18434 0.8771,-1.79522 0.8771,-3.06746 1.7541,-7.4735 0.8771,-2.96946 0.8771,-1.64605 0.8771,-0.003 0.8771,1.64267 0.8771,2.97535 1.7542,7.52296 0.8771,3.1064 0.8771,1.83416 0.8771,0.21295 0.877,-1.44589 0.8771,-2.82462 2.6313,-10.66279 0.8771,-2.01056 0.8771,-0.43775 0.8771,1.20966 0.8771,2.61749 2.6312,10.53261 0.8771,2.16795 0.8771,0.67042 0.8771,-0.94011 0.8771,-2.3577 2.6313,-10.23195 0.8771,-2.29912 0.8771,-0.9031 0.8771,0.64445 0.877,2.05059 0.8771,3.05337 1.7542,6.70465 0.8771,2.39731 0.8771,1.12759 0.8771,-0.33088 0.8771,-1.70286 0.8771,-2.73453 1.7541,-6.378 0.8771,-2.45638 0.8771,-1.33561 0.8771,0.008 0.8771,1.32254 0.8771,2.36553 1.7542,5.93622 0.8771,2.47106 0.8771,1.51917 0.8771,0.31381 0.877,-0.91873 0.8771,-1.95356 2.6313,-7.82034 0.8771,-1.67072 0.8771,-0.62593 0.8771,0.50142 v 0"
     clip-path="url(#pfe04068209)"
     transform="matrix(0.26515939,0,0,0.26515939,-32.469687,-11.73387)" />
  <path
     inkscape:connector-curvature="0"
     id="path15"
     style="fill:none;stroke:#008000;stroke-linecap:square;stroke-linejoin:round;stroke-miterlimit:100000"
     d="m 179.31331,827.05065 4.38545,0.46384 4.38546,0.69825 6.13963,1.03178 1.75418,0.0532 1.75418,-0.21142 1.75419,-0.49741 1.75418,-0.74401 1.75418,-0.94412 2.63127,-1.72938 2.63127,-2.0687 2.63127,-2.39824 2.63128,-2.73369 2.63127,-3.08213 2.63127,-3.44682 2.63127,-3.8293 2.63127,-4.23018 2.63128,-4.64947 2.63127,-5.08684 2.63127,-5.54158 2.63127,-6.0128 2.63127,-6.49932 2.63128,-6.99979 2.63127,-7.51264 2.63127,-8.03611 3.50836,-11.54384 3.50837,-12.50436 3.50836,-13.47227 3.50836,-14.43962 3.50837,-15.39797 3.50836,-16.33839 3.50836,-17.25163 4.38545,-22.79202 4.38546,-24.06814 4.38545,-25.2279 5.26255,-31.60646 6.13963,-38.35005 7.89382,-50.82872 14.91054,-96.33003 6.13963,-37.97834 4.38546,-25.93808 4.38545,-24.66429 3.50836,-18.65224 3.50836,-17.56499 3.50837,-16.36606 3.50836,-15.06267 2.63127,-10.38345 2.63128,-9.55876 2.63127,-8.69996 2.63127,-7.81036 2.63127,-6.89339 1.75418,-4.07429 1.75418,-3.64999 1.75418,-3.2203 1.75419,-2.786 1.75418,-2.34784 1.75418,-1.90658 1.75418,-1.46301 1.75418,-1.0179 1.75418,-0.57203 1.75418,-0.12618 1.75419,0.31891 1.75418,0.76246 1.75418,1.2037 1.75418,1.64193 1.75418,2.07638 1.75418,2.50637 1.75419,2.93119 1.75418,3.35015 1.75418,3.76261 1.75418,4.16792 2.63127,6.9947 2.63127,7.86041 2.63127,8.69467 2.63128,9.49493 2.63127,10.25879 2.63127,10.98415 3.50836,15.70379 3.50837,16.82102 3.50836,17.83378 4.38545,23.55217 4.38546,24.7514 5.26254,30.97887 7.01673,42.85982 12.27927,76.8872 9.64799,59.76904 6.13964,36.82453 5.26254,30.44647 5.26255,29.17804 4.38545,23.19901 4.38545,22.06672 4.38546,20.82634 3.50836,15.6922 3.50836,14.76075 3.50836,13.75123 2.63128,9.59221 2.63127,8.91544 2.63127,8.17104 2.63127,7.34146 1.75418,4.38256 1.75419,3.93238 1.75418,3.44489 1.75418,2.92091 1.75418,2.36557 1.75418,1.78944 0.87709,0.6765 0.87709,0.5323 0.87709,0.39073 0.87709,0.25317 0.8771,0.12086 0.87709,-0.005 1.75418,-0.35733 1.75418,-0.76373 1.75418,-1.09841 1.75418,-1.36273 2.63127,-2.40018 3.50837,-3.58914 8.7709,-9.21732 3.50837,-3.37417 3.50836,-3.07698 3.50836,-2.74561 3.50836,-2.39872 2.63128,-1.56921 2.63127,-1.37421 2.63127,-1.18322 2.63127,-0.99777 3.50837,-1.05357 3.50836,-0.75402 3.50836,-0.47447 3.50836,-0.21604 3.50837,0.0206 3.50836,0.23523 3.50836,0.42792 4.38545,0.77306 4.38546,0.99961 5.26254,1.44396 6.13964,1.94312 7.89381,2.77215 13.15636,4.92152 15.78764,5.84499 13.15636,4.61277 36.83781,12.70482 11.40217,4.29206 32.45236,12.42626 6.13964,1.96978 5.26254,1.45528 4.38545,1.01267 4.38546,0.80795 4.38545,0.5908 4.38545,0.37249 4.38546,0.16553 5.26254,-0.0416 6.13964,-0.30772 7.89381,-0.64642 17.54181,-1.50426 7.89382,-0.39529 7.01673,-0.12522 7.01672,0.0911 7.89382,0.32419 25.43563,1.29212 5.26254,-0.0544 5.26255,-0.28986 4.38545,-0.44759 4.38545,-0.64549 4.38546,-0.84174 5.26254,-1.2518 5.26255,-1.48099 6.13963,-1.95443 8.77091,-3.05603 16.66472,-5.8745 7.01673,-2.22165 6.13963,-1.71968 5.26255,-1.27082 5.26254,-1.05852 5.26254,-0.82795 5.26255,-0.58402 5.26254,-0.33162 5.26255,-0.0755 5.26254,0.17966 5.26254,0.42952 5.26259,0.66991 5.2625,0.89709 5.2625,1.1076 6.1397,1.53193 6.1396,1.75615 7.0167,2.23121 8.7709,3.03305 17.5419,6.39127 10.5251,3.69897 7.8938,2.55066 7.0167,2.03482 6.1396,1.56201 6.1397,1.33261 6.1396,1.08901 6.1396,0.84405 6.1397,0.61229 7.0167,0.45113 7.8938,0.25843 10.5251,0.0831 36.8378,0.0572 13.1564,0.3442 14.0334,0.59802 15.7876,0.90388 21.9273,1.50501 62.2735,4.61698 27.1898,2.21825 22.8043,1.85099 3.5084,0.0314 4.3854,-0.24785 28.944,-1.98866 10.5251,-0.43903 10.5251,-0.21 9.648,0.0287 9.648,0.23994 11.4022,0.51231 16.6647,0.77206 5.2626,0.0152 5.2625,-0.19254 6.1396,-0.44805 8.7709,-0.88534 38.592,-4.18922 9.648,-0.71687 9.648,-0.48763 8.7709,-0.22289 8.7709,-0.004 8.7709,0.2131 9.648,0.46744 10.5251,0.74357 14.0335,1.22298 v 0"
     clip-path="url(#pfe04068209)"
     transform="matrix(0.26515939,0,0,0.26515939,-32.469687,-11.73387)" />
  <use
     style="fill:#ff0000;stroke:#000000;stroke-width:0.5;stroke-linecap:butt;stroke-linejoin:round;stroke-miterlimit:100000"
     x="376.65872"
     xlink:href="#m85b9af95b0"
     y="142.15564"
     id="use21"
     width="100%"
     height="100%"
     transform="matrix(0.26515939,0,0,0.26515939,-32.469687,-11.73387)" />
  <use
     style="fill:#ff0000;stroke:#000000;stroke-width:0.5;stroke-linecap:butt;stroke-linejoin:round;stroke-miterlimit:100000"
     x="592.42303"
     xlink:href="#m85b9af95b0"
     y="751.867"
     id="use23"
     width="100%"
     height="100%"
     transform="matrix(0.26515939,0,0,0.26515939,-32.469687,-11.73387)" />
  <use
     style="fill:#ff0000;stroke:#000000;stroke-width:0.5;stroke-linecap:butt;stroke-linejoin:round;stroke-miterlimit:100000"
     x="838.00842"
     xlink:href="#m85b9af95b0"
     y="808.6568"
     id="use25"
     width="100%"
     height="100%"
     transform="matrix(0.26515939,0,0,0.26515939,-32.469687,-11.73387)" />
  <use
     style="fill:#ff0000;stroke:#000000;stroke-width:0.5;stroke-linecap:butt;stroke-linejoin:round;stroke-miterlimit:100000"
     x="987.11383"
     xlink:href="#m85b9af95b0"
     y="786.37256"
     id="use27"
     width="100%"
     height="100%"
     transform="matrix(0.26515939,0,0,0.26515939,-32.469687,-11.73387)" />
  <use
     style="fill:#ff0000;stroke:#000000;stroke-width:0.5;stroke-linecap:butt;stroke-linejoin:round;stroke-miterlimit:100000"
     x="1162.532"
     xlink:href="#m85b9af95b0"
     y="819.04535"
     id="use29"
     width="100%"
     height="100%"
     transform="matrix(0.26515939,0,0,0.26515939,-32.469687,-11.73387)" />
  <use
     style="fill:#ff0000;stroke:#000000;stroke-width:0.5;stroke-linecap:butt;stroke-linejoin:round;stroke-miterlimit:100000"
     x="1557.2228"
     xlink:href="#m85b9af95b0"
     y="822.75903"
     id="use31"
     width="100%"
     height="100%"
     transform="matrix(0.26515939,0,0,0.26515939,-32.469687,-11.73387)" />
  <path
     inkscape:connector-curvature="0"
     id="path38"
     style="opacity:0.2;fill:none;stroke:#00bfbf;stroke-linecap:square;stroke-linejoin:round;stroke-miterlimit:100000"
     d="m 175.80495,827.58919 0.87709,0.80452 0.87709,1.27829 1.75418,2.97781 0.87709,1.21141 0.87709,0.79359 0.87709,0.30566 0.87709,-0.16817 0.87709,-0.56301 0.87709,-0.84231 3.50837,-3.94573 0.87709,-0.7321 0.87709,-0.50193 0.87709,-0.19415 0.87709,0.19952 0.87709,0.66814 0.87709,1.16986 0.87709,1.62841 2.63127,5.64239 0.87709,1.03008 0.87709,0.009 0.8771,-1.23194 0.87709,-2.48516 0.87709,-3.49413 1.75418,-7.80283 0.87709,-2.81251 0.87709,-1.09678 0.87709,1.11174 0.87709,3.43631 0.87709,5.41545 1.75418,13.19029 0.87709,5.28337 0.87709,2.72765 0.8771,-0.70577 0.87709,-4.42617 0.87709,-7.70819 2.63127,-28.62878 0.87709,-5.05133 0.87709,-0.11438 0.87709,5.37156 0.87709,10.35039 2.63127,41.37722 0.87709,8.23213 0.87709,1.50109 0.8771,-6.15944 0.87709,-13.28934 2.63127,-56.96602 0.87709,-12.44261 0.87709,-3.62766 0.87709,6.6464 0.87709,16.43731 0.87709,23.74096 1.75418,51.82637 0.87709,17.85564 0.87709,6.68305 0.87709,-6.66016 0.8771,-19.66903 0.87709,-29.72021 1.75418,-67.5329 0.87709,-24.6348 0.87709,-10.8645 0.87709,6.00341 0.87709,22.82139 0.87709,36.23965 1.75418,85.73223 0.87709,32.92351 0.87709,16.36815 0.8771,-4.46021 0.87709,-25.69545 0.87709,-43.15199 1.75418,-106.37739 0.87709,-42.83365 0.87709,-23.37799 0.87709,1.80459 0.87709,28.06129 0.87709,50.26293 2.63127,183.7463 0.87709,32.05374 0.87709,2.18866 0.8771,-29.66557 0.87709,-57.33404 2.63127,-222.00241 0.87709,-42.51837 0.87709,-7.73163 0.87709,30.24153 0.87709,64.08892 2.63127,263.53611 0.56698,35.45383 m 2.12526,0 0.81613,-65.34137 2.63127,-307.7164 0.87709,-69.05041 0.87709,-24.16979 0.87709,27.24957 0.87709,75.41118 0.87709,110.76604 1.8561,252.85118 m 3.4637,0 0.81984,-114.08284 1.75418,-278.55346 0.87709,-102.79718 0.87709,-48.44186 0.87709,17.18083 0.87709,81.66479 0.87709,132.41147 1.74185,312.61825 m 4.11925,0 0.27854,-44.92343 1.75418,-350.9033 0.87709,-142.4104 0.87709,-80.476 0.87709,-1.2094 0.87709,80.48323 0.87709,148.81313 1.77925,390.62617 m 4.53686,0 2.4548,-563.35853 0.87709,-118.97275 0.87709,-28.11475 0.87709,70.19229 0.87709,157.09503 1.89825,483.15871 m 4.78114,0 1.21443,-337.01297 0.87709,-228.10457 0.87709,-161.40512 0.87709,-62.45152 0.87709,50.22636 0.87709,155.13018 0.87709,231.90326 1.18256,351.71438 m 4.96919,0 0.86498,-273.82132 0.87709,-266.64392 0.87709,-204.26849 0.87709,-101.868 0.87709,21.36295 0.87709,141.98022 0.87709,236.76169 1.3707,446.49687 m 5.07032,0 1.4528,-489.70468 0.87709,-243.5449 0.87709,-143.00491 0.87709,-14.28836 0.87709,118.13582 0.87709,228.90365 1.58003,543.50338 m 5.13841,0 2.05247,-691.90521 0.87709,-181.96205 0.87709,-53.54907 0.87709,85.50212 0.87709,208.63355 1.81743,633.28066 m 5.17852,0 0.0208,-6.7494 1.75419,-617.42643 0.87709,-214.87778 0.87709,-92.634292 0.87709,47.131612 0.87709,177.74463 0.87709,274.31384 1.20824,432.49782 m 5.15595,0 1.52963,-536.64204 0.87709,-238.50462 0.87709,-127.71919 0.87709,6.76349 0.87709,139.24201 0.87709,244.53699 1.48319,512.32336 m 5.1129,0 2.17482,-688.63098 0.87709,-155.49635 0.87709,-31.73418 0.87709,96.87984 0.87709,205.91353 1.77865,573.06814 m 5.04365,0 1.94861,-588.10847 0.87709,-173.62203 0.87709,-64.91089 0.87709,54.60872 0.87709,162.19751 1.75418,504.95223 0.37394,104.88293 m 4.91432,0 0.85137,-244.3174 0.8771,-238.70069 0.87709,-180.98087 0.87709,-90.17394 0.87709,16.03706 0.87709,117.37027 0.87709,194.82328 1.61166,425.94229 m 4.73119,0 1.55096,-382.34863 0.8771,-177.74171 0.87709,-106.0586 0.87709,-16.00536 0.87709,75.11499 0.87709,150.17431 2.05079,456.865 m 4.43602,0 2.2841,-458.77091 0.87709,-112.30371 0.87709,-39.74312 0.87709,38.39078 0.87709,107.34344 2.5356,465.08352 m 4.04185,0 0.43927,-67.2262 1.75418,-300.15968 0.8771,-109.74443 0.87709,-54.54723 0.87709,9.15967 0.87709,69.25913 0.87709,114.67281 1.75418,271.30491 0.55848,67.28102 m 3.37656,0 0.45041,-49.35745 1.75418,-241.79879 0.8771,-100.06179 0.87709,-60.85333 0.87709,-11.71192 0.87709,37.91524 0.87709,78.81764 2.63127,305.53837 0.59498,41.51203 m 2.22563,0 0.68775,-49.39768 2.63127,-268.91235 0.8771,-59.941 0.87709,-24.38575 0.87709,14.27593 0.87709,48.79893 0.87709,72.98902 1.75418,159.82683 0.87709,57.33374 0.87709,27.93263 0.87709,-5.3776 0.87709,-36.31532 0.87709,-59.3002 1.75418,-138.68461 0.8771,-53.62628 0.87709,-29.85026 0.87709,-1.66272 0.87709,25.58026 0.87709,46.93618 1.75418,118.10612 0.87709,49.07417 0.87709,30.34436 0.87709,6.96581 0.87709,-16.57757 0.87709,-35.98623 2.63128,-142.4284 0.87709,-29.63436 0.87709,-10.68465 0.87709,9.24628 0.87709,26.49067 2.63127,118.62203 0.87709,27.94412 0.87709,12.9951 0.87709,-3.48842 0.87709,-18.44526 0.87709,-29.26058 1.75419,-66.96535 0.87709,-25.49311 0.87709,-14.08666 0.87709,-0.82283 0.87709,11.80703 0.87709,21.57561 1.75418,54.02312 0.87709,22.48903 0.87709,14.15369 0.87709,3.83468 0.87709,-6.50105 0.87709,-15.01321 2.63127,-61.10267 0.8771,-13.38761 0.87709,-5.70638 0.87709,2.42765 0.87709,9.54985 0.87709,14.48458 1.75418,32.09126 0.87709,11.9702 0.87709,6.60155 0.87709,0.53003 0.87709,-5.13511 0.87709,-9.45168 1.75418,-23.73827 0.8771,-10.06844 0.87709,-6.68136 0.87709,-2.49893 0.87709,1.69809 0.87709,5.20833 1.75418,15.9127 0.87709,7.83079 0.87709,6.09893 0.87709,3.60949 0.87709,0.84631 0.87709,-1.72886 0.87709,-3.75009 3.50837,-19.36289 0.87709,-2.5913 0.87709,-1.0291 0.87709,0.49283 0.87709,1.81725 0.87709,2.83848 3.50836,14.01055 0.87709,2.25223 0.87709,1.08895 0.8771,-0.27712 0.87709,-1.71078 0.87709,-3.03873 0.87709,-4.06554 1.75418,-9.10328 0.87709,-3.69686 0.87709,-2.23088 0.87709,-0.26716 0.87709,1.9196 0.87709,3.97873 0.87709,5.53963 1.75418,12.27033 0.8771,4.63333 0.87708,2.35998 0.8771,-0.49347 0.87709,-3.45494 0.87709,-5.99385 2.63127,-22.47261 0.87709,-4.50314 0.87709,-1.16283 0.87709,2.5686 0.87709,6.02291 1.75418,18.16504 0.87709,8.97339 0.87709,6.64301 0.8771,2.98282 0.87709,-1.3861 0.87709,-5.68068 0.87709,-9.09647 1.75418,-21.8169 0.87709,-8.73424 0.87709,-4.90845 0.87709,-0.0332 0.87709,5.01626 0.87709,9.30006 2.63127,35.25067 0.87709,6.88795 0.8771,1.6359 0.87709,-4.07465 0.87709,-9.18401 2.63127,-39.28723 0.87709,-8.87371 0.87709,-3.37218 0.87709,2.89781 0.87709,8.77452 0.87709,13.1412 1.75418,29.4752 0.87709,10.82048 0.8771,5.19455 0.87709,-1.52622 0.87709,-8.09716 0.87709,-13.2753 1.75418,-31.92066 0.87709,-12.68402 0.87709,-7.05607 0.87709,4.3e-4 0.87709,7.17821 0.87709,13.12352 2.63127,48.28419 0.87709,8.90927 0.8771,1.63754 0.87709,-6.04619 0.87709,-12.69534 2.63127,-51.24914 0.87709,-10.70561 0.87709,-3.34321 0.87709,4.73314 0.87709,12.00435 2.63127,53.42223 0.87709,12.3957 0.8771,5.06916 0.87709,-3.27573 0.87709,-11.0696 0.87709,-16.83426 1.75418,-37.90421 0.87709,-13.93007 0.87709,-6.76528 0.87709,1.71566 0.87709,9.91677 0.87709,16.28636 1.75418,38.86399 0.87709,15.26059 0.87709,8.37953 0.8771,-0.0996 0.87709,-8.57875 0.87709,-15.4562 1.75418,-39.17659 0.87709,-16.34238 0.87709,-9.85943 0.87709,-1.52178 0.87709,7.09568 0.87709,14.36617 2.63127,55.95721 0.87709,11.15402 0.8771,3.09485 0.87709,-5.51427 0.87709,-13.048 2.63127,-55.407 0.87709,-12.21603 0.87709,-4.56534 0.87709,3.88651 0.87709,11.54235 0.87709,16.96774 1.75418,36.9001 0.87709,13.00422 0.8771,5.88038 0.87709,-2.2678 0.87709,-9.89762 0.87709,-15.58174 1.75418,-35.7914 0.87709,-13.48565 0.87709,-6.99109 0.87709,0.71467 0.87709,8.16822 0.87709,13.97633 1.75418,34.01427 0.87709,13.63753 0.8771,7.85494 0.87709,0.71784 0.87709,-6.41238 0.87709,-12.20277 2.63127,-45.06635 0.87709,-8.438 0.87709,-1.97871 0.87709,4.68946 0.87709,10.3186 2.63127,41.59353 0.87709,8.71676 0.87709,3.02347 0.8771,-3.05729 0.87709,-8.38501 2.63127,-37.3386 0.87709,-8.67937 0.87709,-3.81634 0.87709,1.56943 0.87709,6.46414 0.87709,9.98418 1.75418,22.45049 0.87709,8.32629 0.87709,4.33197 0.8771,-0.27277 0.87709,-4.61619 0.87709,-7.91611 1.75418,-19.12063 0.87709,-7.67027 0.87709,-4.55646 0.87709,-0.79465 0.87709,2.89677 0.87709,5.85476 2.63127,22.19544 0.87709,4.48796 0.8771,1.60511 0.87709,-1.35452 0.87709,-3.8611 2.63127,-17.14085 0.87709,-4.13639 0.87709,-2.14224 0.87709,0.0291 0.87709,1.99109 0.87709,3.43529 1.75418,8.35502 0.87709,3.5227 0.8771,2.40134 0.87709,1.05004 0.87709,-0.29346 0.87709,-1.43184 0.87709,-2.23451 2.63127,-7.71256 0.87709,-1.86478 0.87709,-1.19211 0.87709,-0.44823 0.87709,0.30481 0.87709,1.01644 0.87709,1.63956 1.75418,4.53112 1.75419,4.59426 0.87709,1.55554 0.87709,0.65629 0.87709,-0.45325 0.87709,-1.6291 0.87709,-2.68467 2.63127,-10.37601 0.87709,-2.31833 0.87709,-0.83317 0.87709,0.94199 0.87709,2.70835 0.8771,4.13584 1.75418,9.79924 0.87709,3.9187 0.87709,2.17006 0.87709,-0.10133 0.87709,-2.50251 0.87709,-4.58674 2.63127,-17.60179 0.87709,-3.5085 0.87709,-0.8495 0.87709,2.09764 0.8771,4.78511 2.63127,20.85325 0.87709,4.80224 0.87709,1.86555 0.87709,-1.52966 0.87709,-4.7518 0.87709,-7.17968 1.75418,-16.24689 0.87709,-6.00945 0.87709,-2.90231 0.87709,0.83805 0.8771,4.51454 0.87709,7.42373 1.75418,17.879 0.87709,7.09398 0.87709,3.9175 0.87709,-0.064 0.87709,-4.10624 0.87709,-7.4393 2.63127,-27.07511 0.87709,-4.87254 0.87709,-0.75164 0.8771,3.56322 0.87708,7.25182 2.63128,28.54445 0.87709,5.73386 0.87709,1.56955 0.87709,-2.92347 0.87709,-6.89154 2.63127,-29.38535 0.87709,-6.47381 0.87709,-2.35374 0.87709,2.22502 0.87709,6.39186 1.75419,19.89338 0.87709,9.72938 0.87709,7.07116 0.87709,3.07254 0.87709,-1.50442 0.87709,-5.78779 0.87709,-8.96283 1.75418,-20.33661 0.87709,-7.51147 0.87709,-3.69944 0.87709,0.79548 0.87709,5.11451 0.8771,8.43673 1.75418,20.03601 0.87709,7.787 0.87709,4.21366 0.87709,-0.12822 0.87709,-4.40589 0.87709,-7.80598 1.75418,-19.40527 0.87709,-7.89638 0.87709,-4.60048 0.87709,-0.47192 0.87709,3.69348 0.8771,7.10261 2.63127,26.33265 0.87709,4.85111 0.87709,0.98465 0.87709,-3.00546 0.87709,-6.35763 2.63127,-24.97489 0.87709,-4.96264 0.87709,-1.39501 0.87709,2.36596 0.8771,5.60001 2.63127,23.29442 0.87709,4.93738 0.87709,1.69348 0.87709,-1.79458 0.87709,-4.8558 2.63127,-21.36126 0.87709,-4.78243 0.87709,-1.87572 0.87709,1.30611 0.87709,4.14754 1.75419,12.97411 0.87709,6.27241 0.87709,4.50881 0.87709,1.9422 0.87709,-0.91053 0.87709,-3.49373 0.87709,-5.32136 1.75418,-11.69837 0.87709,-4.13069 0.87709,-1.89768 0.87709,0.61319 0.87709,2.9087 0.87709,4.55545 1.75419,10.19103 0.87709,3.66447 0.87709,1.75051 0.87709,-0.41511 0.87709,-2.40253 0.87709,-3.83476 1.75418,-8.65174 0.87709,-3.128 0.87709,-1.51192 0.87709,0.31351 0.87709,1.9812 0.87709,3.17288 1.75419,7.11935 0.87709,2.53969 0.87709,1.19525 0.87709,-0.30238 0.87709,-1.64689 0.87709,-2.57965 1.75418,-5.62815 0.87709,-1.91777 0.87709,-0.81517 0.87709,0.37306 0.87709,1.39845 2.63127,6.26854 0.8771,1.27965 0.87709,0.38696 0.87709,-0.51502 0.87709,-1.2318 1.75418,-3.24198 0.87709,-1.25889 0.87709,-0.64137 0.87709,0.0741 0.87709,0.71648 2.63127,3.45846 0.87709,0.60467 0.8771,0.0172 0.87709,-0.55333 2.63127,-3.05377 0.87709,-0.56772 0.87709,-0.003 0.87709,0.58044 0.87709,1.03716 1.75418,2.39872 0.87709,0.75658 0.87709,0.14782 0.87709,-0.53852 0.8771,-1.14161 1.75418,-3.06664 0.87709,-1.23302 0.87709,-0.60601 0.87709,0.20186 0.87709,1.01766 0.87709,1.65839 1.75418,3.84102 0.87709,1.35318 0.87709,0.51328 0.87709,-0.48438 0.87709,-1.43241 1.75419,-4.52751 0.87709,-2.18666 0.87709,-1.50135 0.87709,-0.47051 0.87709,0.70418 0.87709,1.78313 2.63127,7.83281 0.87709,1.66809 0.87709,0.46955 0.87709,-0.86679 0.87709,-2.07177 2.63128,-8.84052 0.87709,-1.84476 0.87709,-0.50224 0.87709,0.97839 0.87709,2.30157 2.63127,9.72724 0.87709,2.02358 0.87709,0.56075 0.87709,-1.0456 0.87709,-2.47674 2.63128,-10.48718 0.87709,-2.19784 0.87709,-0.63768 0.87709,1.07515 0.87709,2.60218 2.63127,11.11839 0.87709,2.36191 0.87709,0.72628 0.87709,-1.07366 0.87709,-2.68329 2.63125,-11.62231 0.8771,-2.51122 0.8771,-0.82054 0.8771,1.04756 0.8771,2.72569 2.6312,12.00321 0.8771,2.64227 0.8771,0.91524 0.8771,-1.00282 0.8771,-2.7351 2.6313,-12.26776 0.8771,-2.7526 0.877,-1.00599 0.8771,0.94494 0.8771,2.71711 1.7542,8.39243 0.8771,4.03216 0.8771,2.84069 0.8771,1.08928 0.8771,-0.87883 0.8771,-2.67713 1.7541,-8.40438 0.8771,-4.07941 0.8771,-2.90596 0.8771,-1.16241 0.8771,0.80875 0.8771,2.62021 0.8771,3.91631 1.7542,8.54025 0.8771,2.94863 0.8771,1.22351 0.877,-0.73824 0.8771,-2.55098 0.8771,-3.85907 1.7542,-8.49567 0.8771,-2.96965 0.8771,-1.27158 0.8771,0.67016 0.8771,2.47352 0.8771,3.78489 1.7541,8.40559 0.8771,2.97062 0.8771,1.30632 0.8771,-0.60659 0.8771,-2.39134 0.8771,-3.69803 1.7542,-8.27775 0.8771,-2.95368 0.8771,-1.32812 0.877,0.54889 0.8771,2.30727 0.8771,3.60229 1.7542,8.11986 0.8771,2.92134 0.8771,1.33801 0.8771,-0.4977 0.8771,-2.22348 0.8771,-3.50093 1.7541,-7.93927 0.8771,-2.87641 0.8771,-1.33751 0.8771,0.45302 0.8771,2.14144 0.8771,3.39658 1.7542,7.74272 0.8771,2.8218 0.8771,1.32852 0.8771,-0.41424 0.877,-2.06191 0.8771,-3.29126 1.7542,-7.53613 0.8771,-2.76035 0.8771,-1.31319 0.8771,0.38031 0.8771,1.98506 0.8771,3.18623 1.7541,7.32434 0.8771,2.69477 0.8771,1.29373 0.8771,-0.34979 0.8771,-1.91049 0.8771,-3.08216 1.7542,-7.11101 0.8771,-2.62737 0.8771,-1.27228 0.8771,0.32109 0.877,1.83735 0.8771,2.97906 1.7542,6.89848 0.8771,2.56 0.8771,1.25076 0.8771,-0.29255 0.8771,-1.7645 0.8771,-2.87645 1.7542,-6.68778 0.877,-2.49396 0.8771,-1.23068 0.8771,0.26266 0.8771,1.69066 0.8771,2.77345 1.7542,6.47867 0.8771,2.42989 0.8771,1.21305 0.8771,-0.23021 0.8771,-1.61454 0.877,-2.66892 1.7542,-6.26985 0.8771,-2.36772 0.8771,-1.19829 0.8771,0.1944 0.8771,1.5351 0.8771,2.56165 1.7542,6.05907 0.877,2.30679 0.8771,1.18612 0.8771,-0.15499 0.8771,-1.45162 0.8771,-2.45052 1.7542,-5.84354 0.8771,-2.24582 0.8771,-1.1756 0.8771,0.11239 0.8771,1.36389 0.877,2.33469 1.7542,5.6202 0.8771,2.18301 0.8771,1.1652 0.8771,-0.0677 0.8771,-1.27229 0.8771,-2.21377 1.7542,-5.38613 0.8771,-2.11625 0.877,-1.15278 0.8771,0.0226 0.8771,1.17791 0.8771,2.08796 1.7542,5.13887 0.8771,2.04328 0.8771,1.13583 0.8771,0.0204 0.8771,-1.08252 0.8771,-1.9581 1.7541,-4.8769 0.8771,-1.96188 0.8771,-1.11157 0.8771,-0.0586 0.8771,0.98856 0.8771,1.82581 1.7542,4.59987 0.8771,1.87007 0.877,1.07719 0.8771,0.0887 0.8771,-0.8991 0.8771,-1.69344 1.7542,-4.30889 0.8771,-1.76637 0.8771,-1.03004 0.8771,-0.10739 0.8771,0.81761 0.8771,1.56404 1.7541,4.00669 0.8771,1.64995 0.8771,0.9679 0.8771,0.11139 0.8771,-0.74789 0.8771,-1.44124 1.7542,-3.69773 0.8771,-1.5208 0.8771,-0.88916 0.877,-0.0977 0.8771,0.69377 0.8771,1.32912 1.7542,3.38809 0.8771,1.37987 0.8771,0.79302 0.8771,0.064 0.8771,-0.65895 0.8771,-1.23196 1.7541,-3.08531 0.8771,-1.22911 0.8771,-0.67964 0.8771,-0.008 0.8771,0.64662 0.8771,1.15404 1.7542,2.79815 0.8771,1.07146 0.8771,0.55026 0.877,-0.0696 0.8771,-0.65937 0.8771,-1.09937 1.7542,-2.5361 0.8771,-0.91079 0.8771,-0.40724 0.8771,0.16963 0.8771,0.69887 3.5083,4.13211 0.8771,0.25398 0.8771,-0.29022 0.8771,-0.76567 2.6313,-3.19892 0.8771,-0.59967 0.8771,-0.0949 0.8771,0.42856 0.877,0.85914 1.7542,2.21886 0.8771,0.88264 0.8771,0.46005 0.8771,-0.0649 0.8771,-0.58075 0.8771,-0.97736 1.7542,-2.28055 0.877,-0.81511 0.8771,-0.3385 0.8771,0.21955 0.8771,0.74192 3.5084,4.30277 0.8771,0.24034 0.8771,-0.36317 0.8771,-0.9064 2.6312,-3.86893 0.8771,-0.77708 0.8771,-0.1702 0.8771,0.48982 0.8771,1.068 2.6313,4.28322 0.8771,0.8105 0.877,0.13179 0.8771,-0.594 0.8771,-1.22039 2.6313,-4.7528 0.8771,-0.87915 0.8771,-0.12761 0.8771,0.671 0.8771,1.35738 2.6312,5.26105 0.8771,0.98133 0.8771,0.15868 0.8771,-0.71714 0.8771,-1.47333 2.6313,-5.7893 0.8771,-1.11377 0.877,-0.2245 0.8771,0.73014 0.8771,1.56347 2.6313,6.3177 0.8771,1.27183 0.8771,0.32294 0.8771,-0.7092 0.8771,-1.6242 2.6312,-6.82638 0.8771,-1.44965 0.8771,-0.45031 0.8771,0.65516 0.8771,1.65334 2.6313,7.29649 0.8771,1.64038 0.8771,0.60156 0.877,-0.57046 0.8771,-1.6503 1.7542,-5.17304 0.8771,-2.53814 0.8771,-1.83667 0.8771,-0.77045 0.8771,0.45904 0.8771,1.61607 0.8771,2.47589 1.7541,5.58077 0.8771,2.03092 0.8771,0.94998 0.8771,-0.32618 0.8771,-1.55325 0.8771,-2.49372 1.7542,-5.82908 0.8771,-2.21578 0.8771,-1.13269 0.877,0.17814 0.8771,1.46582 0.8771,2.48168 1.7542,6.02207 0.8771,2.3845 0.8771,1.31111 0.8771,-0.0218 0.8771,-1.35894 0.8771,-2.44231 1.7541,-6.15575 0.8771,-2.53134 0.8771,-1.47816 0.8771,-0.13559 0.8771,1.23861 0.8771,2.37942 2.6313,8.88098 0.8771,1.62756 0.8771,0.28719 0.877,-1.11128 0.8771,-2.29784 2.6313,-8.98727 0.8771,-1.75414 0.8771,-0.42657 0.8771,0.9834 0.8771,2.20306 2.6312,9.00914 0.8771,1.85411 0.8771,0.54835 0.8771,-0.86108 0.8771,-2.10079 2.6313,-8.9535 0.8771,-1.92522 0.8771,-0.64835 0.877,0.74961 0.8771,1.99661 2.6313,8.8302 0.8771,1.96677 0.8771,0.72389 0.8771,-0.65321 0.8771,-1.89556 2.6312,-8.65108 0.8771,-1.97957 0.8771,-0.7738 0.8771,0.57477 0.8771,1.80172 1.7542,5.67437 0.8771,2.75453 0.8771,1.96577 0.8771,0.7985 0.8771,-0.5157 0.877,-1.71807 1.7542,-5.49081 0.8771,-2.68542 0.8771,-1.92857 0.8771,-0.79977 0.8771,0.4759 0.8771,1.64621 0.8771,2.48176 1.7542,5.42264 0.877,1.87194 0.8771,0.78054 0.8771,-0.45385 0.8771,-1.5863 0.8771,-2.39421 1.7542,-5.22838 0.8771,-1.80017 0.8771,-0.74469 0.8771,0.44683 0.877,1.53717 1.7542,4.9313 0.8771,2.4058 0.8771,1.71753 0.8771,0.69652 0.8771,-0.45115 0.8771,-1.49639 1.7542,-4.7509 0.8771,-2.29998 0.877,-1.62793 0.8771,-0.64048 0.8771,0.46253 0.8771,1.46057 2.6313,6.76345 0.8771,1.5345 0.8771,0.58075 0.8771,-0.47649 0.8771,-1.42565 2.6312,-6.47094 0.8771,-1.43946 0.8771,-0.52089 0.8771,0.48872 0.8771,1.38728 2.6313,6.16665 0.8771,1.34388 0.877,0.46352 0.8771,-0.49546 0.8771,-1.34121 2.6313,-5.84167 0.8771,-1.24762 0.8771,-0.41019 0.8771,0.49382 0.8771,1.28372 2.6312,5.48574 0.8771,1.14946 0.8771,0.36117 0.8771,-0.48203 0.8771,-1.21184 2.6313,-5.08836 0.8771,-1.04716 0.877,-0.31555 0.8771,0.4596 0.8771,1.12376 2.6313,4.63976 0.8771,0.93771 0.8771,0.27126 0.8771,-0.42734 0.8771,-1.01894 2.6312,-4.13195 0.8771,-0.81766 0.8771,-0.22531 0.8771,0.38735 0.8771,0.89825 2.6313,3.55958 0.8771,0.68344 0.8771,0.17401 0.877,-0.34285 0.8771,-0.7639 2.6313,-2.9207 0.8771,-0.53169 0.8771,-0.11333 0.8771,0.29792 0.8771,0.6194 1.7541,1.58443 0.8771,0.63277 0.8771,0.35965 0.8771,0.0392 0.8771,-0.25726 1.7542,-1.02893 0.8771,-0.52076 0.8771,-0.37463 0.8771,-0.16542 0.8771,0.052 1.7541,0.54479 1.7542,0.54952 0.8771,0.0945 0.8771,-0.0518 3.5084,-0.61761 0.8771,0.069 1.7541,0.49616 1.7542,0.50656 0.8771,0.041 0.8771,-0.17168 0.8771,-0.37672 2.6313,-1.52469 0.877,-0.23239 0.8771,0.075 0.8771,0.40541 0.8771,0.68426 1.7542,1.67186 0.8771,0.63403 0.8771,0.28002 0.8771,-0.16879 0.8771,-0.62293 0.8771,-0.98453 1.7541,-2.28938 0.8771,-0.83518 0.8771,-0.35368 0.8771,0.23604 0.8771,0.81794 0.8771,1.27025 1.7542,2.91069 0.8771,1.05468 0.8771,0.45346 0.877,-0.27367 0.8771,-0.98488 0.8771,-1.53435 1.7542,-3.52228 0.8771,-1.28843 0.8771,-0.57815 0.8771,0.27985 0.8771,1.11918 0.8771,1.77032 1.7541,4.11014 0.8771,1.53138 0.8771,0.72523 0.8771,-0.25407 0.8771,-1.21742 0.8771,-1.97254 1.7542,-4.6604 0.8771,-1.77774 0.8771,-0.89112 0.877,0.19716 0.8771,1.27758 0.8771,2.13645 1.7542,5.15997 0.8771,2.0213 0.8771,1.07125 0.8771,-0.11123 0.8771,-1.29896 0.8771,-2.25873 1.7541,-5.59713 0.8771,-2.25567 0.8771,-1.26039 0.8771,-5e-4 0.8771,1.28225 0.8771,2.33742 1.7542,5.96192 0.8771,2.47462 0.8771,1.45288 0.8771,0.13389 0.877,-1.22939 0.8771,-2.37194 2.6313,-8.91889 0.8771,-1.64287 0.8771,-0.2841 0.8771,1.14338 0.8771,2.36305 2.6312,9.28928 0.8771,1.82466 0.8771,0.44583 0.8771,-1.0282 0.8771,-2.31269 2.6313,-9.54043 0.8771,-1.99288 0.8771,-0.61364 0.877,0.88849 0.8771,2.2239 2.6313,9.66853 0.8771,2.14269 0.8771,0.78209 0.8771,-0.72934 0.8771,-2.10058 1.7542,-6.51263 0.877,-3.16045 0.8771,-2.27002 0.8771,-0.94602 0.8771,0.5561 0.8771,1.94728 0.8771,2.96079 1.7542,6.59601 0.8771,2.37155 0.8771,1.10069 0.8771,-0.37406 0.877,-1.76905 0.8771,-2.81753 1.7542,-6.50764 0.8771,-2.44488 0.8771,-1.24198 0.8771,0.18842 0.8771,1.5711 0.8771,2.64233 1.7542,6.3438 0.877,2.48848 0.8771,1.3664 0.8771,-0.004 0.8771,-1.35874 0.8771,-2.44002 1.7542,-6.10956 0.8771,-2.50169 0.8771,-1.47118 0.8771,-0.17496 0.877,1.13712 0.8771,2.21565 2.6313,8.29582 0.8771,1.55431 0.8771,0.3445 0.8771,-0.91117 0.8771,-1.97432 2.6312,-7.89406 0.8771,-1.61441 0.8771,-0.50144 0.8771,0.68544 0.8771,1.72104 2.6313,7.41523 v 0"
     clip-path="url(#pfe04068209)"
     transform="matrix(0.26515939,0,0,0.26515939,-32.469687,-11.73387)" />
  <path
     inkscape:connector-curvature="0"
     id="path41"
     style="fill:none;stroke:#bf00bf;stroke-linecap:square;stroke-linejoin:round;stroke-miterlimit:100000"
     d="m 175.80495,827.46842 9.64799,1.00102 2.63128,-0.0625 1.75418,-0.24905 1.75418,-0.43747 1.75418,-0.6221 1.75418,-0.79333 2.63127,-1.48229 2.63128,-1.80826 2.63127,-2.12365 2.63127,-2.44111 2.63127,-2.76812 2.63127,-3.1089 2.63128,-3.4659 2.63127,-3.84045 2.63127,-4.23319 2.63127,-4.64427 2.63127,-5.07351 2.63128,-5.52039 2.63127,-5.98419 2.63127,-6.46391 2.63127,-6.95838 2.63127,-7.46621 2.63128,-7.98583 3.50836,-11.47311 3.50836,-12.43285 3.50837,-13.40419 3.50836,-14.37976 3.50836,-15.35162 3.50836,-16.31138 3.50837,-17.25028 4.38545,-22.83668 4.38545,-24.17741 4.38546,-25.41657 5.26254,-31.95926 5.26255,-33.308 7.01672,-45.98794 12.27927,-82.47311 8.77091,-58.12473 6.13963,-39.1026 4.38546,-26.6984 4.38545,-25.39924 3.50836,-19.22848 3.50837,-18.13639 3.50836,-16.93779 3.50836,-15.63981 2.63127,-10.8228 2.63127,-10.00585 2.63128,-9.15662 2.63127,-8.27825 2.63127,-7.37404 1.75418,-4.40246 1.75418,-3.98476 1.75419,-3.56198 1.75418,-3.13484 1.75418,-2.70405 1.75418,-2.270341 1.75418,-1.834435 1.75418,-1.397068 1.75418,-0.958963 1.75418,-0.520849 1.75419,-0.08344 1.75418,0.352536 1.75418,0.786385 1.75418,1.217408 1.75418,1.64492 1.75418,2.068247 1.75418,2.48673 1.75418,2.89975 1.75419,3.30665 1.75418,3.70685 1.75418,4.09976 2.63127,6.86902 2.63127,7.70654 2.63128,8.51275 2.63127,9.28534 2.63127,10.02213 3.50836,14.44347 3.50836,15.59192 3.50837,16.6417 3.50836,17.58925 4.38545,23.15904 5.26255,29.235 6.13963,35.64069 7.89382,47.3773 19.29599,116.54496 6.13964,35.57329 5.26254,29.40692 5.26255,28.20942 5.26254,26.85994 4.38545,21.26533 4.38546,20.19261 4.38545,19.08257 4.38546,17.94935 3.50836,13.53645 3.50836,12.80517 3.50836,12.07909 3.50837,11.36247 3.50836,10.65907 3.50836,9.97222 3.50837,9.30472 3.50836,8.65879 3.50836,8.03605 3.50836,7.43727 3.50837,6.86233 3.50836,6.30981 3.50836,5.77643 3.50836,5.25606 2.63128,3.6025 2.63127,3.30603 2.63127,2.99548 2.63127,2.65812 2.63127,2.27623 1.75419,1.27374 1.75418,1.05126 1.75418,0.80426 1.75418,0.53754 1.75418,0.2627 1.75418,-0.003 1.75418,-0.24363 1.75419,-0.44638 2.63127,-0.95963 3.50836,-1.63203 5.26255,-2.8086 16.66472,-9.12332 7.89381,-3.99393 7.01673,-3.30896 7.01672,-3.05277 6.13964,-2.43061 6.13963,-2.17129 5.26255,-1.62539 5.26254,-1.38005 4.38546,-0.94326 4.38545,-0.73907 4.38545,-0.52062 4.38546,-0.28933 4.38545,-0.0471 4.38545,0.20392 4.38546,0.46091 4.38545,0.72098 4.38545,0.98091 4.38546,1.23738 4.38545,1.48694 4.38545,1.72617 4.38546,1.95164 5.26254,2.61533 5.26255,2.87974 6.13963,3.63751 7.01673,4.42688 18.4189,11.82751 4.38545,2.45182 2.63128,1.26336 2.63127,1.01994 1.75418,0.49861 1.75418,0.32126 1.75418,0.12518 1.75418,-0.0737 1.75418,-0.25737 2.63128,-0.66643 2.63127,-0.90396 4.38545,-1.78954 14.03345,-5.96404 5.26255,-1.94418 5.26254,-1.69965 5.26255,-1.43355 4.38545,-0.98335 4.38545,-0.78885 4.38546,-0.59507 4.38545,-0.40433 5.26254,-0.24059 5.26255,0.015 5.26254,0.25617 5.26255,0.48053 5.26254,0.68636 6.13964,1.03431 6.13963,1.25414 7.01673,1.6585 7.89381,2.09102 10.52509,3.03691 28.94399,8.5085 6.13964,1.54114 4.38545,0.91079 3.50836,0.51135 2.63128,0.18416 2.63127,-0.0209 3.50836,-0.30233 4.38545,-0.63241 24.55854,-3.90988 8.77091,-1.04457 8.77091,-0.81695 8.7709,-0.59812 9.648,-0.4247 9.648,-0.20754 11.4022,-0.009 13.1563,0.23508 16.6648,0.54243 48.24,1.938 34.2065,1.46105 21.9273,1.18171 35.9607,2.01479 8.7709,0.21735 7.8938,-0.028 7.8938,-0.24334 10.5251,-0.56701 18.4189,-1.27149 21.9273,-1.44568 14.0334,-0.70507 13.1564,-0.43421 12.2793,-0.18132 12.2792,0.0359 14.0335,0.27462 18.4189,0.61449 50.8712,2.03592 14.0335,0.78598 12.2793,0.90298 12.2792,1.12305 14.0335,1.31282 2.6313,-0.14789 7.0167,-0.78862 34.2065,-4.01519 11.4022,-1.06288 10.5251,-0.76447 9.648,-0.49317 9.648,-0.28494 10.5251,-0.0761 10.5251,0.15268 11.4021,0.39122 13.1564,0.68372 10.5251,0.67352 v 0"
     clip-path="url(#pfe04068209)"
     transform="matrix(0.26515939,0,0,0.26515939,-32.469687,-11.73387)" />
  <use
     style="fill:#bfbf00;stroke:#000000;stroke-width:0.5;stroke-linecap:butt;stroke-linejoin:round;stroke-miterlimit:100000"
     x="376.65872"
     xlink:href="#m0f16f03a52"
     y="94.403221"
     id="use47"
     width="100%"
     height="100%"
     transform="matrix(0.26515939,0,0,0.26515939,-32.469687,-11.73387)" />
  <use
     style="fill:#bfbf00;stroke:#000000;stroke-width:0.5;stroke-linecap:butt;stroke-linejoin:round;stroke-miterlimit:100000"
     x="673.99243"
     xlink:href="#m0f16f03a52"
     y="785.23749"
     id="use49"
     width="100%"
     height="100%"
     transform="matrix(0.26515939,0,0,0.26515939,-32.469687,-11.73387)" />
  <use
     style="fill:#bfbf00;stroke:#000000;stroke-width:0.5;stroke-linecap:butt;stroke-linejoin:round;stroke-miterlimit:100000"
     x="836.25421"
     xlink:href="#m0f16f03a52"
     y="807.31616"
     id="use51"
     width="100%"
     height="100%"
     transform="matrix(0.26515939,0,0,0.26515939,-32.469687,-11.73387)" />
  <use
     style="fill:#bfbf00;stroke:#000000;stroke-width:0.5;stroke-linecap:butt;stroke-linejoin:round;stroke-miterlimit:100000"
     x="1024.8287"
     xlink:href="#m0f16f03a52"
     y="821.5177"
     id="use53"
     width="100%"
     height="100%"
     transform="matrix(0.26515939,0,0,0.26515939,-32.469687,-11.73387)" />
  <use
     style="fill:#bfbf00;stroke:#000000;stroke-width:0.5;stroke-linecap:butt;stroke-linejoin:round;stroke-miterlimit:100000"
     x="1557.2228"
     xlink:href="#m0f16f03a52"
     y="823.70483"
     id="use55"
     width="100%"
     height="100%"
     transform="matrix(0.26515939,0,0,0.26515939,-32.469687,-11.73387)" />
  <path
     inkscape:connector-curvature="0"
     id="path60"
     style="fill:none;stroke:#000000;stroke-width:0.2651594;stroke-linecap:square;stroke-linejoin:miter;stroke-miterlimit:100000"
     d="M 8.1845775,0.1325797 H 392.94753" />
  <path
     inkscape:connector-curvature="0"
     id="path63"
     style="fill:none;stroke:#000000;stroke-width:0.2651594;stroke-linecap:square;stroke-linejoin:miter;stroke-miterlimit:100000"
     d="M 392.94753,232.18121 V 0.1325797" />
  <path
     inkscape:connector-curvature="0"
     id="path66"
     style="fill:none;stroke:#000000;stroke-width:0.2651594;stroke-linecap:square;stroke-linejoin:miter;stroke-miterlimit:100000"
     d="M 8.1845775,232.18121 H 392.94753" />
  <path
     inkscape:connector-curvature="0"
     id="path69"
     style="fill:none;stroke:#000000;stroke-width:0.2651594;stroke-linecap:square;stroke-linejoin:miter;stroke-miterlimit:100000"
     d="M 8.1845775,232.18121 V 0.1325797" />
  <use
     style="stroke:#000000;stroke-width:10.68200873;stroke-linecap:butt;stroke-linejoin:round;stroke-miterlimit:100;stroke-dasharray:none"
     x="376.65872"
     xlink:href="#m2506db4ea9"
     y="919.88098"
     id="use75"
     width="100%"
     height="100%"
     transform="matrix(0.26498522,0,0,0.47244094,-32.299787,-202.40831)" />
  <use
     style="stroke:#000000;stroke-width:10.68200873;stroke-linecap:butt;stroke-linejoin:round;stroke-miterlimit:100;stroke-dasharray:none"
     x="676.039"
     xlink:href="#m2506db4ea9"
     y="919.88098"
     id="use102"
     width="100%"
     height="100%"
     transform="matrix(0.26498522,0,0,0.47244094,-32.299787,-202.40831)" />
  <use
     style="stroke:#000000;stroke-width:10.68200873;stroke-linecap:butt;stroke-linejoin:round;stroke-miterlimit:100;stroke-dasharray:none"
     x="975.41931"
     xlink:href="#m2506db4ea9"
     y="919.88098"
     id="use125"
     width="100%"
     height="100%"
     transform="matrix(0.26498522,0,0,0.47244094,-32.299787,-202.40831)" />
  <use
     style="stroke:#000000;stroke-width:10.68200873;stroke-linecap:butt;stroke-linejoin:round;stroke-miterlimit:100;stroke-dasharray:none"
     x="1274.7996"
     xlink:href="#m2506db4ea9"
     y="919.88098"
     id="use148"
     width="100%"
     height="100%"
     transform="matrix(0.26498522,0,0,0.47244094,-32.299787,-202.40831)" />
  <use
     style="stroke:#000000;stroke-width:10.68200873;stroke-linecap:butt;stroke-linejoin:round;stroke-miterlimit:100;stroke-dasharray:none"
     x="1574.1798"
     xlink:href="#m2506db4ea9"
     y="919.88098"
     id="use168"
     width="100%"
     height="100%"
     transform="matrix(0.26498522,0,0,0.47244094,-32.299787,-202.40831)" />
  <use
     height="100%"
     width="100%"
     y="0"
     style="stroke-linecap:butt;stroke-linejoin:round;stroke-miterlimit:100000"
     id="use213"
     xlink:href="#BitstreamVeraSans-Roman-20"
     x="283.34961"
     transform="matrix(0.03181913,0,0,-0.03181913,187.62958,240.06493)" />
  <use
     height="100%"
     width="100%"
     y="0"
     style="stroke-linecap:butt;stroke-linejoin:round;stroke-miterlimit:100000"
     id="use225"
     xlink:href="#BitstreamVeraSans-Roman-20"
     x="605.9082"
     transform="matrix(0.03181913,0,0,-0.03181913,187.62958,240.06493)" />
  <use
     style="stroke:#000000;stroke-width:0.5;stroke-linecap:butt;stroke-linejoin:round;stroke-miterlimit:100000"
     x="1604.3829"
     xlink:href="#m5c7a111f29"
     y="831.58722"
     id="use248"
     width="100%"
     height="100%"
     transform="matrix(0.26515939,0,0,0.26515939,-32.469687,-11.73387)" />
  <use
     height="100%"
     width="100%"
     y="0"
     style="stroke-linecap:butt;stroke-linejoin:round;stroke-miterlimit:100000"
     id="use387"
     xlink:href="#BitstreamVeraSans-Roman-20"
     x="242.72461"
     transform="matrix(0,-0.03181913,-0.03181913,0,0.07616743,127.44896)" />
  <defs
     id="defs449">
    <clipPath
       id="pfe04068209"
       style="stroke-linecap:butt;stroke-linejoin:round;stroke-miterlimit:100000">
      <rect
         height="875.12885"
         width="1451.0629"
         x="153.3201"
         y="44.752125"
         id="rect446"
         style="stroke-linecap:butt;stroke-linejoin:round;stroke-miterlimit:100000" />
    </clipPath>
  </defs>
  <text
     xml:space="preserve"
     style="font-style:normal;font-variant:normal;font-weight:normal;font-stretch:normal;font-size:11.99999905px;line-height:125%;font-family:'Latin Modern Roman';-inkscape-font-specification:'Latin Modern Roman, Normal';font-variant-ligatures:normal;font-variant-caps:normal;font-variant-numeric:normal;text-align:center;letter-spacing:0px;word-spacing:0px;writing-mode:lr-tb;text-anchor:middle;fill:#000000;fill-opacity:1;stroke:none;stroke-width:0.74999994px;stroke-linecap:butt;stroke-linejoin:miter;stroke-miterlimit:100000;stroke-opacity:1"
     x="67.410912"
     y="243.30571"
     id="text2705"><tspan
       sodipodi:role="line"
       id="tspan2703"
       style="text-align:center;text-anchor:middle;stroke-width:0.74999994px;stroke-linecap:butt;stroke-linejoin:round;stroke-miterlimit:100000"
       x="67.410912"
       y="243.30571">0</tspan></text>
  <text
     xml:space="preserve"
     style="font-style:normal;font-variant:normal;font-weight:normal;font-stretch:normal;font-size:11.99999905px;line-height:125%;font-family:'Latin Modern Roman';-inkscape-font-specification:'Latin Modern Roman, Normal';font-variant-ligatures:normal;font-variant-caps:normal;font-variant-numeric:normal;text-align:center;letter-spacing:0px;word-spacing:0px;writing-mode:lr-tb;text-anchor:middle;fill:#000000;fill-opacity:1;stroke:none;stroke-width:0.74999994px;stroke-linecap:butt;stroke-linejoin:miter;stroke-miterlimit:100000;stroke-opacity:1"
     x="146.86041"
     y="243.30571"
     id="text2709"><tspan
       sodipodi:role="line"
       id="tspan2707"
       style="text-align:center;text-anchor:middle;stroke-width:0.74999994px;stroke-linecap:butt;stroke-linejoin:round;stroke-miterlimit:100000"
       x="146.86041"
       y="243.30571">0.5</tspan></text>
  <text
     xml:space="preserve"
     style="font-style:normal;font-variant:normal;font-weight:normal;font-stretch:normal;font-size:11.99999905px;line-height:125%;font-family:'Latin Modern Roman';-inkscape-font-specification:'Latin Modern Roman, Normal';font-variant-ligatures:normal;font-variant-caps:normal;font-variant-numeric:normal;text-align:center;letter-spacing:0px;word-spacing:0px;writing-mode:lr-tb;text-anchor:middle;fill:#000000;fill-opacity:1;stroke:none;stroke-width:0.74999994px;stroke-linecap:butt;stroke-linejoin:miter;stroke-miterlimit:100000;stroke-opacity:1"
     x="226.12392"
     y="243.30571"
     id="text2713"><tspan
       sodipodi:role="line"
       id="tspan2711"
       style="text-align:center;text-anchor:middle;stroke-width:0.74999994px;stroke-linecap:butt;stroke-linejoin:round;stroke-miterlimit:100000"
       x="226.12392"
       y="243.30571">1</tspan></text>
  <text
     xml:space="preserve"
     style="font-style:normal;font-variant:normal;font-weight:normal;font-stretch:normal;font-size:11.99999905px;line-height:125%;font-family:'Latin Modern Roman';-inkscape-font-specification:'Latin Modern Roman, Normal';font-variant-ligatures:normal;font-variant-caps:normal;font-variant-numeric:normal;text-align:center;letter-spacing:0px;word-spacing:0px;writing-mode:lr-tb;text-anchor:middle;fill:#000000;fill-opacity:1;stroke:none;stroke-width:0.74999994px;stroke-linecap:butt;stroke-linejoin:miter;stroke-miterlimit:100000;stroke-opacity:1"
     x="305.32739"
     y="243.30571"
     id="text2717"><tspan
       sodipodi:role="line"
       id="tspan2715"
       style="text-align:center;text-anchor:middle;stroke-width:0.74999994px;stroke-linecap:butt;stroke-linejoin:round;stroke-miterlimit:100000"
       x="305.32739"
       y="243.30571">1.5</tspan></text>
  <text
     xml:space="preserve"
     style="font-style:normal;font-variant:normal;font-weight:normal;font-stretch:normal;font-size:11.99999905px;line-height:125%;font-family:'Latin Modern Roman';-inkscape-font-specification:'Latin Modern Roman, Normal';font-variant-ligatures:normal;font-variant-caps:normal;font-variant-numeric:normal;text-align:center;letter-spacing:0px;word-spacing:0px;writing-mode:lr-tb;text-anchor:middle;fill:#000000;fill-opacity:1;stroke:none;stroke-width:0.74999994px;stroke-linecap:butt;stroke-linejoin:miter;stroke-miterlimit:100000;stroke-opacity:1"
     x="384.94485"
     y="243.30571"
     id="text2721"><tspan
       sodipodi:role="line"
       id="tspan2719"
       style="text-align:center;text-anchor:middle;stroke-width:0.74999994px;stroke-linecap:butt;stroke-linejoin:round;stroke-miterlimit:100000"
       x="384.94485"
       y="243.30571">2</tspan></text>
  <text
     xml:space="preserve"
     style="font-style:normal;font-variant:normal;font-weight:normal;font-stretch:normal;font-size:11.99999905px;line-height:125%;font-family:'Latin Modern Roman';-inkscape-font-specification:'Latin Modern Roman, Normal';font-variant-ligatures:normal;font-variant-caps:normal;font-variant-numeric:normal;text-align:center;letter-spacing:0px;word-spacing:0px;writing-mode:lr-tb;text-anchor:middle;fill:#000000;fill-opacity:1;stroke:none;stroke-width:0.74999994px;stroke-linecap:butt;stroke-linejoin:miter;stroke-miterlimit:100000;stroke-opacity:1"
     x="201.98618"
     y="255.30571"
     id="text2725"><tspan
       sodipodi:role="line"
       id="tspan2723"
       style="text-align:center;text-anchor:middle;stroke-width:0.74999994px;stroke-linecap:butt;stroke-linejoin:round;stroke-miterlimit:100000"
       x="201.98618"
       y="255.30571">Down range [m]</tspan></text>
  <text
     xml:space="preserve"
     style="font-style:normal;font-variant:normal;font-weight:normal;font-stretch:normal;font-size:11.99999905px;line-height:125%;font-family:'Latin Modern Roman';-inkscape-font-specification:'Latin Modern Roman, Normal';font-variant-ligatures:normal;font-variant-caps:normal;font-variant-numeric:normal;text-align:end;letter-spacing:0px;word-spacing:0px;writing-mode:lr-tb;text-anchor:end;fill:#000000;fill-opacity:1;stroke:none;stroke-width:0.74999994px;stroke-linecap:butt;stroke-linejoin:miter;stroke-miterlimit:100000;stroke-opacity:1"
     x="5.5319996"
     y="210.72624"
     id="text2729"><tspan
       sodipodi:role="line"
       id="tspan2727"
       style="text-align:end;text-anchor:end;stroke-width:0.74999994px;stroke-linecap:butt;stroke-linejoin:round;stroke-miterlimit:100000"
       x="5.5319996"
       y="210.72624">0</tspan></text>
  <text
     xml:space="preserve"
     style="font-style:normal;font-variant:normal;font-weight:normal;font-stretch:normal;font-size:11.99999905px;line-height:125%;font-family:'Latin Modern Roman';-inkscape-font-specification:'Latin Modern Roman, Normal';font-variant-ligatures:normal;font-variant-caps:normal;font-variant-numeric:normal;text-align:end;letter-spacing:0px;word-spacing:0px;writing-mode:lr-tb;text-anchor:end;fill:#000000;fill-opacity:1;stroke:none;stroke-width:0.74999994px;stroke-linecap:butt;stroke-linejoin:miter;stroke-miterlimit:100000;stroke-opacity:1"
     x="6.0239964"
     y="17.294033"
     id="text2733"><tspan
       sodipodi:role="line"
       id="tspan2731"
       style="text-align:end;text-anchor:end;stroke-width:0.74999994px;stroke-linecap:butt;stroke-linejoin:round;stroke-miterlimit:100000"
       x="6.0239964"
       y="17.294033">1</tspan></text>
  <use
     style="stroke:#000000;stroke-width:10.68200874;stroke-linecap:butt;stroke-linejoin:round;stroke-miterlimit:100;stroke-dasharray:none"
     x="676.039"
     xlink:href="#m2506db4ea9"
     y="919.88098"
     id="use102-0"
     width="100%"
     height="100%"
     transform="matrix(0,0.26498522,-0.47244094,0,442.90659,27.721899)" />
  <use
     style="stroke:#000000;stroke-width:10.68200874;stroke-linecap:butt;stroke-linejoin:round;stroke-miterlimit:100;stroke-dasharray:none"
     x="676.039"
     xlink:href="#m2506db4ea9"
     y="919.88098"
     id="use102-0-4"
     width="100%"
     height="100%"
     transform="matrix(0,0.26498522,-0.47244094,0,442.90659,-165.84231)" />
</svg>
