<!DOCTYPE svg PUBLIC "-//W3C//DTD SVG 1.1//EN" "http://www.w3.org/Graphics/SVG/1.1/DTD/svg11.dtd">
<svg xmlns="http://www.w3.org/2000/svg" xmlns:xlink="http://www.w3.org/1999/xlink" width="590px" height="561px" version="1.1"><defs/><g transform="translate(0.5,0.5)"><path d="M 88 480 L 518 480" fill="none" stroke="#666666" stroke-miterlimit="10" stroke-dasharray="3 3" pointer-events="none"/><g fill="#000000" font-family="Helvetica" text-anchor="end" font-size="12px"><text x="75.79" y="483.79">\(f_R\)</text></g><path d="M 88 40 L 528 40" fill="none" stroke="#666666" stroke-miterlimit="10" stroke-dasharray="3 3" pointer-events="none"/><g fill="#000000" font-family="Helvetica" text-anchor="end" font-size="12px"><text x="75.93" y="43.79">\(f_0+\Delta f\)</text></g><path d="M 88 120 L 528 120" fill="none" stroke="#666666" stroke-miterlimit="10" stroke-dasharray="3 3" pointer-events="none"/><g fill="#000000" font-family="Helvetica" text-anchor="end" font-size="12px"><text x="75.93" y="123.79">\(f_0\)</text></g><path d="M 88 140 L 561.63 140" fill="none" stroke="#000000" stroke-miterlimit="10" pointer-events="none"/><path d="M 566.88 140 L 559.88 143.5 L 561.63 140 L 559.88 136.5 Z" fill="#000000" stroke="#000000" stroke-miterlimit="10" pointer-events="none"/><g fill="#000000" font-family="Helvetica" text-anchor="middle" font-size="12px"><text x="567.5" y="151.5">t</text></g><g fill="#000000" font-family="Helvetica" font-size="12px"><text x="89.5" y="11.5">transmitted frequency</text></g><path d="M 221.63 160 L 154.37 160" fill="none" stroke="#000000" stroke-miterlimit="10" pointer-events="none"/><path d="M 226.88 160 L 219.88 163.5 L 221.63 160 L 219.88 156.5 Z" fill="#000000" stroke="#000000" stroke-miterlimit="10" pointer-events="none"/><path d="M 149.12 160 L 156.12 156.5 L 154.37 160 L 156.12 163.5 Z" fill="#000000" stroke="#000000" stroke-miterlimit="10" pointer-events="none"/><g fill="#000000" font-family="Helvetica" text-anchor="middle" font-size="12px"><text x="184.21" y="173.79">\(T-d\)</text></g><path d="M 148 160 L 148 40" fill="none" stroke="#666666" stroke-miterlimit="10" pointer-events="none"/><path d="M 308 40 L 388 120" fill="none" stroke="#b85450" stroke-width="3" stroke-miterlimit="10" pointer-events="none"/><path d="M 468 40 L 388 120" fill="none" stroke="#b85450" stroke-width="3" stroke-miterlimit="10" pointer-events="none"/><path d="M 498 70 L 468 40" fill="none" stroke="#b85450" stroke-width="3" stroke-miterlimit="10" pointer-events="none"/><path d="M 88 100 L 148 40" fill="none" stroke="#b85450" stroke-width="3" stroke-miterlimit="10" pointer-events="none"/><path d="M 88 140 L 88 26.37" fill="none" stroke="#000000" stroke-miterlimit="10" pointer-events="none"/><path d="M 88 21.12 L 91.5 28.12 L 88 26.37 L 84.5 28.12 Z" fill="#000000" stroke="#000000" stroke-miterlimit="10" pointer-events="none"/><path d="M 88 240 L 528 240" fill="none" stroke="#666666" stroke-miterlimit="10" stroke-dasharray="3 3" pointer-events="none"/><g fill="#000000" font-family="Helvetica" text-anchor="end" font-size="12px"><text x="75.93" y="243.79">\(f_0+\Delta f\)</text></g><path d="M 88 320 L 528 320" fill="none" stroke="#666666" stroke-miterlimit="10" stroke-dasharray="3 3" pointer-events="none"/><g fill="#000000" font-family="Helvetica" text-anchor="end" font-size="12px"><text x="75.93" y="323.79">\(f_0\)</text></g><path d="M 88 340 L 561.63 340" fill="none" stroke="#000000" stroke-miterlimit="10" pointer-events="none"/><path d="M 566.88 340 L 559.88 343.5 L 561.63 340 L 559.88 336.5 Z" fill="#000000" stroke="#000000" stroke-miterlimit="10" pointer-events="none"/><g fill="#000000" font-family="Helvetica" font-size="12px"><text x="87.5" y="213.5">\textcolor{DiagramRed}{transmitted} and \textcolor{DiagramGreen}{received} frequency</text></g><path d="M 88 340 L 88 226.37" fill="none" stroke="#000000" stroke-miterlimit="10" pointer-events="none"/><path d="M 88 221.12 L 91.5 228.12 L 88 226.37 L 84.5 228.12 Z" fill="#000000" stroke="#000000" stroke-miterlimit="10" pointer-events="none"/><path d="M 258 359.69 L 258 320" fill="none" stroke="#666666" stroke-miterlimit="10" pointer-events="none"/><path d="M 198 359.69 L 221.63 359.69" fill="none" stroke="#000000" stroke-miterlimit="10" pointer-events="none"/><path d="M 226.88 359.69 L 219.88 363.19 L 221.63 359.69 L 219.88 356.19 Z" fill="#000000" stroke="#000000" stroke-miterlimit="10" pointer-events="none"/><path d="M 288 359.69 L 264.37 359.69" fill="none" stroke="#000000" stroke-miterlimit="10" pointer-events="none"/><path d="M 259.12 359.69 L 266.12 356.19 L 264.37 359.69 L 266.12 363.19 Z" fill="#000000" stroke="#000000" stroke-miterlimit="10" pointer-events="none"/><path d="M 228 359.69 L 228 320" fill="none" stroke="#666666" stroke-miterlimit="10" pointer-events="none"/><path d="M 88 540 L 561.63 540" fill="none" stroke="#000000" stroke-miterlimit="10" pointer-events="none"/><path d="M 566.88 540 L 559.88 543.5 L 561.63 540 L 559.88 536.5 Z" fill="#000000" stroke="#000000" stroke-miterlimit="10" pointer-events="none"/><g fill="#000000" font-family="Helvetica" text-anchor="end" font-size="12px"><text x="75.79" y="543.79">\(0\)</text></g><g fill="#000000" font-family="Helvetica" font-size="12px"><text x="89.5" y="411.5">| beat frequency |</text></g><path d="M 88 540 L 88 426.37" fill="none" stroke="#000000" stroke-miterlimit="10" pointer-events="none"/><path d="M 88 421.12 L 91.5 428.12 L 88 426.37 L 84.5 428.12 Z" fill="#000000" stroke="#000000" stroke-miterlimit="10" pointer-events="none"/><path d="M 148 480 L 118 480" fill="none" stroke="#6c8ebf" stroke-width="3" stroke-miterlimit="10" pointer-events="none"/><path d="M 163 540 L 148 480" fill="none" stroke="#6c8ebf" stroke-width="3" stroke-miterlimit="10" pointer-events="none"/><path d="M 148 40 L 228 120" fill="none" stroke="#b85450" stroke-width="3" stroke-miterlimit="10" pointer-events="none"/><path d="M 228 120 L 308 40" fill="none" stroke="#b85450" stroke-width="3" stroke-miterlimit="10" pointer-events="none"/><path d="M 228 160 L 228 120" fill="none" stroke="#666666" stroke-miterlimit="10" pointer-events="none"/><path d="M 498 270 L 468 240" fill="none" stroke="#b85450" stroke-width="3" stroke-miterlimit="10" pointer-events="none"/><path d="M 308 240 L 388 320" fill="none" stroke="#b85450" stroke-width="3" stroke-miterlimit="10" pointer-events="none"/><path d="M 228 320 L 308 240" fill="none" stroke="#b85450" stroke-width="3" stroke-miterlimit="10" pointer-events="none"/><path d="M 148 240 L 228 320" fill="none" stroke="#b85450" stroke-width="3" stroke-miterlimit="10" pointer-events="none"/><path d="M 88 300 L 148 240" fill="none" stroke="#b85450" stroke-width="3" stroke-miterlimit="10" pointer-events="none"/><path d="M 528 270 L 498 240" fill="none" stroke="#82b366" stroke-width="3" stroke-miterlimit="10" pointer-events="none"/><path d="M 428 280 L 398 310" fill="none" stroke="#82b366" stroke-width="3" stroke-miterlimit="10" pointer-events="none"/><path d="M 338 240 L 418 320" fill="none" stroke="#82b366" stroke-width="3" stroke-miterlimit="10" pointer-events="none"/><path d="M 258 320 L 338 240" fill="none" stroke="#82b366" stroke-width="3" stroke-miterlimit="10" pointer-events="none"/><path d="M 178 240 L 258 320" fill="none" stroke="#82b366" stroke-width="3" stroke-miterlimit="10" pointer-events="none"/><path d="M 118 300 L 178 240" fill="none" stroke="#82b366" stroke-width="3" stroke-miterlimit="10" pointer-events="none"/><path d="M 468 240 L 388 320" fill="none" stroke="#b85450" stroke-width="3" stroke-miterlimit="10" pointer-events="none"/><path d="M 498 240 L 418 320" fill="none" stroke="#82b366" stroke-width="3" stroke-miterlimit="10" pointer-events="none"/><path d="M 178 480 L 163 540" fill="none" stroke="#6c8ebf" stroke-width="3" stroke-miterlimit="10" pointer-events="none"/><path d="M 243 540 L 228 480" fill="none" stroke="#6c8ebf" stroke-width="3" stroke-miterlimit="10" pointer-events="none"/><path d="M 258 480 L 243 540" fill="none" stroke="#6c8ebf" stroke-width="3" stroke-miterlimit="10" pointer-events="none"/><path d="M 308 480 L 258 480" fill="none" stroke="#6c8ebf" stroke-width="3" stroke-miterlimit="10" pointer-events="none"/><path d="M 323 540 L 308 480" fill="none" stroke="#6c8ebf" stroke-width="3" stroke-miterlimit="10" pointer-events="none"/><path d="M 228 480 L 178 480" fill="none" stroke="#6c8ebf" stroke-width="3" stroke-miterlimit="10" pointer-events="none"/><path d="M 403 541 L 388 480" fill="none" stroke="#6c8ebf" stroke-width="3" stroke-miterlimit="10" pointer-events="none"/><path d="M 418 480 L 403 540" fill="none" stroke="#6c8ebf" stroke-width="3" stroke-miterlimit="10" pointer-events="none"/><path d="M 388 480 L 338 480" fill="none" stroke="#6c8ebf" stroke-width="3" stroke-miterlimit="10" pointer-events="none"/><path d="M 338 480 L 323 540" fill="none" stroke="#6c8ebf" stroke-width="3" stroke-miterlimit="10" pointer-events="none"/><path d="M 468 480 L 418 480" fill="none" stroke="#6c8ebf" stroke-width="3" stroke-miterlimit="10" pointer-events="none"/><path d="M 483 540 L 468 480" fill="none" stroke="#6c8ebf" stroke-width="3" stroke-miterlimit="10" pointer-events="none"/><path d="M 498 480 L 483 540" fill="none" stroke="#6c8ebf" stroke-width="3" stroke-miterlimit="10" pointer-events="none"/><path d="M 508 480 L 498 480" fill="none" stroke="#6c8ebf" stroke-width="3" stroke-miterlimit="10" pointer-events="none"/><g fill="#000000" font-family="Helvetica" text-anchor="middle" font-size="12px"><text x="242.5" y="371.5">\(\tau\)</text></g><path d="M 258 480 L 258 360" fill="none" stroke="#666666" stroke-miterlimit="10" stroke-dasharray="3 3" pointer-events="none"/><path d="M 228 480 L 228 360" fill="none" stroke="#666666" stroke-miterlimit="10" stroke-dasharray="3 3" pointer-events="none"/><g fill="#000000" font-family="Helvetica" text-anchor="middle" font-size="12px"><text x="567.5" y="351.5">t</text></g><g fill="#000000" font-family="Helvetica" text-anchor="middle" font-size="12px"><text x="567.5" y="551.5">t</text></g></g></svg>