<!DOCTYPE svg PUBLIC "-//W3C//DTD SVG 1.1//EN" "http://www.w3.org/Graphics/SVG/1.1/DTD/svg11.dtd">
<svg xmlns="http://www.w3.org/2000/svg" xmlns:xlink="http://www.w3.org/1999/xlink" width="561px" height="621px" version="1.1"><defs/><g transform="translate(0.5,0.5)"><path d="M 60 200 L 533.63 200" fill="none" stroke="#000000" stroke-miterlimit="10" pointer-events="none"/><path d="M 538.88 200 L 531.88 203.5 L 533.63 200 L 531.88 196.5 Z" fill="#000000" stroke="#000000" stroke-miterlimit="10" pointer-events="none"/><g fill="#000000" font-family="Helvetica" font-size="12px"><text x="59.5" y="13.5">transmitted and received frequencies</text></g><path d="M 60 200 L 60 26.37" fill="none" stroke="#000000" stroke-miterlimit="10" pointer-events="none"/><path d="M 60 21.12 L 63.5 28.12 L 60 26.37 L 56.5 28.12 Z" fill="#000000" stroke="#000000" stroke-miterlimit="10" pointer-events="none"/><path d="M 80 180 L 360 40" fill="none" stroke="#b85450" stroke-width="3" stroke-miterlimit="10" pointer-events="none"/><path d="M 140 180 L 420 40" fill="none" stroke="#82b366" stroke-width="3" stroke-miterlimit="10" pointer-events="none"/><path d="M 230 180 L 510 40" fill="none" stroke="#6c8ebf" stroke-width="3" stroke-miterlimit="10" pointer-events="none"/><path d="M 160 180 L 440 40" fill="none" stroke="#d79b00" stroke-width="3" stroke-miterlimit="10" pointer-events="none"/><path d="M 60 400 L 533.63 400" fill="none" stroke="#000000" stroke-miterlimit="10" pointer-events="none"/><path d="M 538.88 400 L 531.88 403.5 L 533.63 400 L 531.88 396.5 Z" fill="#000000" stroke="#000000" stroke-miterlimit="10" pointer-events="none"/><g fill="#000000" font-family="Helvetica" text-anchor="middle" font-size="12px"><text x="539.5" y="411.5">t</text></g><g fill="#000000" font-family="Helvetica" text-anchor="middle" font-size="12px"><text x="79.5" y="271.5">Mixer output</text></g><path d="M 60 400 L 60 286.37" fill="none" stroke="#000000" stroke-miterlimit="10" pointer-events="none"/><path d="M 60 281.12 L 63.5 288.12 L 60 286.37 L 56.5 288.12 Z" fill="#000000" stroke="#000000" stroke-miterlimit="10" pointer-events="none"/><path d="M 60 600 L 533.63 600" fill="none" stroke="#000000" stroke-miterlimit="10" pointer-events="none"/><path d="M 538.88 600 L 531.88 603.5 L 533.63 600 L 531.88 596.5 Z" fill="#000000" stroke="#000000" stroke-miterlimit="10" pointer-events="none"/><g fill="#000000" font-family="Helvetica" text-anchor="middle" font-size="12px"><text x="539.5" y="611.5">t</text></g><g fill="#000000" font-family="Helvetica" text-anchor="middle" font-size="12px"><text x="79.5" y="471.5">Range response</text></g><path d="M 60 600 L 60 486.37" fill="none" stroke="#000000" stroke-miterlimit="10" pointer-events="none"/><path d="M 60 481.12 L 63.5 488.12 L 60 486.37 L 56.5 488.12 Z" fill="#000000" stroke="#000000" stroke-miterlimit="10" pointer-events="none"/><path d="M 270 600 Q 270 600 275 540 Q 280 480 285 540 Q 290 600 290 600" fill="none" stroke="#6c8ebf" stroke-width="3" stroke-miterlimit="10" pointer-events="none"/><path d="M 160 360 L 360 360" fill="none" stroke="#d79b00" stroke-width="3" stroke-miterlimit="10" pointer-events="none"/><path d="M 210 580 Q 210 580 215 530 Q 220 480 225 540 Q 230 600 230 600" fill="none" stroke="#d6b656" stroke-width="3" stroke-miterlimit="10" pointer-events="none"/><path d="M 190 600 Q 190 600 195 540 Q 200 480 205 530 Q 210 580 210 580" fill="none" stroke="#82b366" stroke-width="3" stroke-miterlimit="10" pointer-events="none"/><path d="M 290 600 Q 290 600 500 600" fill="none" stroke="#666666" stroke-width="3" stroke-miterlimit="10" pointer-events="none"/><path d="M 60 600 Q 60 600 190 600" fill="none" stroke="#666666" stroke-width="3" stroke-miterlimit="10" pointer-events="none"/><path d="M 230 600 Q 230 600 270 600" fill="none" stroke="#666666" stroke-width="3" stroke-miterlimit="10" pointer-events="none"/><g fill="#000000" font-family="Helvetica" text-anchor="middle" font-size="12px"><text x="539.5" y="213.5">t</text></g><g fill="#000000" font-family="Helvetica" text-anchor="end" font-size="12px"><text x="47.5" y="471.5">\(\|F\|\)</text></g><g fill="#000000" font-family="Helvetica" text-anchor="end" font-size="12px"><text x="47.5" y="271.5">\(f\)</text></g><g fill="#000000" font-family="Helvetica" text-anchor="end" font-size="12px"><text x="47.5" y="11.5">\(f\)</text></g><path d="M 230 310 L 360 310" fill="none" stroke="#6c8ebf" stroke-width="3" stroke-miterlimit="10" pointer-events="none"/><path d="M 140 380 L 360 380" fill="none" stroke="#82b366" stroke-width="3" stroke-miterlimit="10" pointer-events="none"/></g></svg>