<?xml version="1.0" encoding="UTF-8" standalone="no"?>
<svg
   xmlns:dc="http://purl.org/dc/elements/1.1/"
   xmlns:cc="http://creativecommons.org/ns#"
   xmlns:rdf="http://www.w3.org/1999/02/22-rdf-syntax-ns#"
   xmlns:svg="http://www.w3.org/2000/svg"
   xmlns="http://www.w3.org/2000/svg"
   xmlns:sodipodi="http://sodipodi.sourceforge.net/DTD/sodipodi-0.dtd"
   xmlns:inkscape="http://www.inkscape.org/namespaces/inkscape"
   width="680.49805"
   height="240.765"
   version="1.1"
   id="svg2"
   inkscape:version="0.92.2 (unknown)"
   sodipodi:docname="fmcw_blocks.svg">
  <metadata
     id="metadata180">
    <rdf:RDF>
      <cc:Work
         rdf:about="">
        <dc:format>image/svg+xml</dc:format>
        <dc:type
           rdf:resource="http://purl.org/dc/dcmitype/StillImage" />
        <dc:title></dc:title>
      </cc:Work>
    </rdf:RDF>
  </metadata>
  <sodipodi:namedview
     pagecolor="#ffffff"
     bordercolor="#666666"
     borderopacity="1"
     objecttolerance="10"
     gridtolerance="10"
     guidetolerance="10"
     inkscape:pageopacity="0"
     inkscape:pageshadow="2"
     inkscape:window-width="1855"
     inkscape:window-height="1176"
     id="namedview178"
     showgrid="false"
     fit-margin-top="0"
     fit-margin-left="0"
     fit-margin-right="0"
     fit-margin-bottom="0"
     inkscape:zoom="1.7300435"
     inkscape:cx="383.00314"
     inkscape:cy="107.89647"
     inkscape:window-x="1145"
     inkscape:window-y="24"
     inkscape:window-maximized="1"
     inkscape:current-layer="g6" />
  <defs
     id="defs4" />
  <g
     transform="translate(0.5,0.26499947)"
     id="g6">
    <circle
       cx="305"
       cy="80"
       pointer-events="none"
       id="ellipse8"
       r="20"
       style="fill:#ffffff;stroke:#000000" />
    <path
       d="m 295,80 c 0.78,-2.09 2.77,-3.48 5,-3.48 2.23,0 4.22,1.39 5,3.48 0.78,2.09 2.77,3.48 5,3.48 2.23,0 4.22,-1.39 5,-3.48"
       stroke-miterlimit="10"
       pointer-events="none"
       id="path10"
       inkscape:connector-curvature="0"
       style="fill:none;stroke:#000000;stroke-miterlimit:10" />
    <path
       d="m 402,60 36,20 -36,20 z"
       stroke-miterlimit="10"
       pointer-events="none"
       id="path12"
       inkscape:connector-curvature="0"
       style="fill:#ffffff;stroke:#000000;stroke-miterlimit:10" />
    <path
       d="m 400,80 2,0 m 36,0 2,0"
       stroke-miterlimit="10"
       pointer-events="none"
       id="path14"
       inkscape:connector-curvature="0"
       style="fill:none;stroke:#000000;stroke-miterlimit:10" />
    <path
       d="m 560,0 20,32 20,-32 m -20,0 0,80"
       stroke-miterlimit="10"
       pointer-events="none"
       id="path16"
       inkscape:connector-curvature="0"
       style="fill:none;stroke:#000000;stroke-miterlimit:10" />
    <path
       d="m 440,80 133.63,0"
       stroke-miterlimit="10"
       pointer-events="none"
       id="path18"
       inkscape:connector-curvature="0"
       style="fill:none;stroke:#000000;stroke-miterlimit:10" />
    <path
       d="m 578.88,80 -7,3.5 1.75,-3.5 -1.75,-3.5 z"
       stroke-miterlimit="10"
       pointer-events="none"
       id="path20"
       inkscape:connector-curvature="0"
       style="fill:#000000;stroke:#000000;stroke-miterlimit:10" />
    <path
       d="m 325,80 68.63,0"
       stroke-miterlimit="10"
       pointer-events="none"
       id="path22"
       inkscape:connector-curvature="0"
       style="fill:none;stroke:#000000;stroke-miterlimit:10" />
    <path
       d="m 398.88,80 -7,3.5 1.75,-3.5 -1.75,-3.5 z"
       stroke-miterlimit="10"
       pointer-events="none"
       id="path24"
       inkscape:connector-curvature="0"
       style="fill:#000000;stroke:#000000;stroke-miterlimit:10" />
    <rect
       x="320"
       y="180"
       width="40"
       height="40"
       pointer-events="none"
       id="rect26"
       style="fill:#ffffff;stroke:#000000" />
    <path
       d="m 324.62,200 c 4.38,-4.43 11,-4.43 15.38,0 4.38,4.43 11,4.43 15.38,0 m -30.76,-8.7 c 4.38,-4.42 11,-4.42 15.38,0 4.38,4.43 11,4.43 15.38,0 m -30.76,17.4 c 4.38,-4.43 11,-4.43 15.38,0 4.38,4.42 11,4.42 15.38,0 m -18.46,1.73 4.62,-5.21 m -4.62,-12.18 4.62,-5.21"
       stroke-miterlimit="10"
       pointer-events="none"
       id="path28"
       inkscape:connector-curvature="0"
       style="fill:none;stroke:#000000;stroke-miterlimit:10" />
    <circle
       cx="500"
       cy="200"
       pointer-events="none"
       id="ellipse30"
       r="20"
       style="fill:#ffffff;stroke:#000000" />
    <path
       d="m 485.76,185.76 28.48,28.48 m 0,-28.48 -28.48,28.48"
       stroke-miterlimit="10"
       pointer-events="none"
       id="path32"
       inkscape:connector-curvature="0"
       style="fill:none;stroke:#000000;stroke-miterlimit:10" />
    <path
       d="m 402,180 36,20 -36,20 z"
       stroke-miterlimit="10"
       transform="matrix(-1,0,0,-1,840,400)"
       pointer-events="none"
       id="path34"
       inkscape:connector-curvature="0"
       style="fill:#ffffff;stroke:#000000;stroke-miterlimit:10" />
    <path
       d="m 400,200 2,0 m 36,0 2,0"
       stroke-miterlimit="10"
       transform="matrix(-1,0,0,-1,840,400)"
       pointer-events="none"
       id="path36"
       inkscape:connector-curvature="0"
       style="fill:none;stroke:#000000;stroke-miterlimit:10" />
    <path
       d="m 560,120 20,32 20,-32 m -20,0 0,80"
       stroke-miterlimit="10"
       pointer-events="none"
       id="path38"
       inkscape:connector-curvature="0"
       style="fill:none;stroke:#000000;stroke-miterlimit:10" />
    <path
       d="m 500,80 0,93.63"
       stroke-miterlimit="10"
       pointer-events="none"
       id="path40"
       inkscape:connector-curvature="0"
       style="fill:none;stroke:#000000;stroke-miterlimit:10" />
    <path
       d="m 500,178.88 -3.5,-7 3.5,1.75 3.5,-1.75 z"
       stroke-miterlimit="10"
       pointer-events="none"
       id="path42"
       inkscape:connector-curvature="0"
       style="fill:#000000;stroke:#000000;stroke-miterlimit:10" />
    <path
       d="m 580,200 -53.63,0"
       stroke-miterlimit="10"
       pointer-events="none"
       id="path44"
       inkscape:connector-curvature="0"
       style="fill:none;stroke:#000000;stroke-miterlimit:10" />
    <path
       d="m 521.12,200 7,-3.5 -1.75,3.5 1.75,3.5 z"
       stroke-miterlimit="10"
       pointer-events="none"
       id="path46"
       inkscape:connector-curvature="0"
       style="fill:#000000;stroke:#000000;stroke-miterlimit:10" />
    <path
       d="m 480,200 -33.63,0"
       stroke-miterlimit="10"
       pointer-events="none"
       id="path48"
       inkscape:connector-curvature="0"
       style="fill:none;stroke:#000000;stroke-miterlimit:10" />
    <path
       d="m 441.12,200 7,-3.5 -1.75,3.5 1.75,3.5 z"
       stroke-miterlimit="10"
       pointer-events="none"
       id="path50"
       inkscape:connector-curvature="0"
       style="fill:#000000;stroke:#000000;stroke-miterlimit:10" />
    <path
       d="m 400,200 -33.63,0"
       stroke-miterlimit="10"
       pointer-events="none"
       id="path52"
       inkscape:connector-curvature="0"
       style="fill:none;stroke:#000000;stroke-miterlimit:10" />
    <path
       d="m 361.12,200 7,-3.5 -1.75,3.5 1.75,3.5 z"
       stroke-miterlimit="10"
       pointer-events="none"
       id="path54"
       inkscape:connector-curvature="0"
       style="fill:#000000;stroke:#000000;stroke-miterlimit:10" />
    <rect
       x="0"
       y="40"
       width="200"
       height="200"
       pointer-events="none"
       id="rect56"
       style="fill:none;stroke:#000000;stroke-dasharray:3, 3" />
    <path
       d="m 240,200 -73.63,0"
       stroke-miterlimit="10"
       pointer-events="none"
       id="path58"
       inkscape:connector-curvature="0"
       style="fill:none;stroke:#000000;stroke-miterlimit:10" />
    <path
       d="m 161.12,200 7,-3.5 -1.75,3.5 1.75,3.5 z"
       stroke-miterlimit="10"
       pointer-events="none"
       id="path60"
       inkscape:connector-curvature="0"
       style="fill:#000000;stroke:#000000;stroke-miterlimit:10" />
    <path
       d="m 240,180 25.71,0 14.29,20 -14.29,20 -25.71,0 z"
       stroke-miterlimit="10"
       transform="matrix(-1,0,0,-1,520,400)"
       pointer-events="none"
       id="path62"
       inkscape:connector-curvature="0"
       style="fill:#ffffff;stroke:#000000;stroke-miterlimit:10" />
    <path
       d="m 320,200 -33.63,0"
       stroke-miterlimit="10"
       pointer-events="none"
       id="path64"
       inkscape:connector-curvature="0"
       style="fill:none;stroke:#000000;stroke-miterlimit:10" />
    <path
       d="m 281.12,200 7,-3.5 -1.75,3.5 1.75,3.5 z"
       stroke-miterlimit="10"
       pointer-events="none"
       id="path66"
       inkscape:connector-curvature="0"
       style="fill:#000000;stroke:#000000;stroke-miterlimit:10" />
    <g
       font-size="16px"
       id="g68"
       style="font-size:16px;font-family:LMRoman;text-anchor:middle;fill:#000000"
       transform="translate(0,4)">
      <text
         x="259.5"
         y="233.5"
         id="text70"
         style="line-height:0%">ADC</text>
    </g>
    <g
       font-size="16px"
       id="g72"
       style="font-size:16px;font-family:LMRoman;text-anchor:middle;fill:#000000"
       transform="translate(0,4)">
      <text
         x="339.5"
         y="233.5"
         id="text74"
         style="line-height:0%">IF filter</text>
    </g>
    <g
       font-size="16px"
       id="g76"
       style="font-size:16px;font-family:LMRoman;text-anchor:middle;fill:#000000"
       transform="translate(0,4)">
      <text
         x="419.5"
         y="233.5"
         id="text78"
         style="line-height:0%">IF amplifier</text>
    </g>
    <g
       font-size="16px"
       id="g80"
       style="font-size:16px;font-family:LMRoman;text-anchor:middle;fill:#000000"
       transform="translate(0,4)">
      <text
         x="499.5"
         y="233.5"
         id="text82"
         style="line-height:0%">Mixer</text>
    </g>
    <g
       font-size="16px"
       id="g84"
       style="font-size:16px;font-family:LMRoman;text-anchor:middle;fill:#000000"
       transform="translate(2)">
      <text
         x="634.5"
         y="153.5"
         id="text86"
         style="line-height:0%">Rx antenna</text>
    </g>
    <g
       font-size="16px"
       id="g88"
       style="font-size:16px;font-family:LMRoman;text-anchor:middle;fill:#000000">
      <text
         x="419.5"
         y="53.5"
         id="text90"
         style="line-height:0%">RF amplifier</text>
    </g>
    <g
       font-size="16px"
       id="g92"
       style="font-size:16px;font-family:LMRoman;text-anchor:middle;fill:#000000">
      <text
         x="304.5"
         y="53.5"
         id="text94"
         style="line-height:0%">VCO</text>
    </g>
    <path
       d="m 80,80 q 0,0 33.63,0"
       stroke-miterlimit="10"
       pointer-events="none"
       id="path96"
       inkscape:connector-curvature="0"
       style="fill:none;stroke:#000000;stroke-linecap:round;stroke-linejoin:round;stroke-miterlimit:10" />
    <path
       d="m 118.88,80 0.07,0.13 -1.39,0.72 -1.51,0.49 -1.3,0.9 -1.42,0.65 -1.45,0.61 -0.16,-0.08 0.43,-0.66 0.45,-0.65 0.16,-0.8 0.64,-0.55 0.23,-0.76 0.1,0.05 -0.39,-0.72 -0.51,-0.78 -0.15,-0.6 -0.42,-0.74 -0.38,-0.71 -0.06,-0.11 1.45,0.78 1.46,0.83 1.35,0.6 1.46,0.82 1.34,0.58 z"
       stroke-miterlimit="10"
       pointer-events="none"
       id="path98"
       inkscape:connector-curvature="0"
       style="fill:#000000;stroke:#000000;stroke-linecap:round;stroke-linejoin:round;stroke-miterlimit:10" />
    <rect
       x="40"
       y="60"
       width="40"
       height="40"
       pointer-events="none"
       id="rect100"
       style="fill:#ffffff;stroke:#000000" />
    <path
       d="M 70,95 45,95 45,70"
       stroke-miterlimit="10"
       pointer-events="none"
       id="path102"
       inkscape:connector-curvature="0"
       style="fill:none;stroke:#666666;stroke-miterlimit:10" />
    <g
       font-style="italic"
       font-size="8px"
       id="g104"
       style="font-style:italic;font-size:8px;font-family:LMRoman;text-anchor:middle;fill:#666666">
      <g
         style="font-style:normal;font-variant:normal;font-weight:normal;font-stretch:normal;font-size:8px;line-height:125%;font-family:'Latin Modern Roman Slanted';-inkscape-font-specification:'Latin Modern Roman Slanted, Normal';text-align:center;writing-mode:lr-tb;text-anchor:middle"
         id="text106">
        <path
           d="m 75.769312,95.508 0.072,-0.456 -0.2,0 -0.072,0.44 c -0.096,0.592 -0.392,0.896 -0.687999,0.896 -0.536,0 -0.408,-0.728 -0.392001,-0.864 l 0.376001,-2.224 1.143999,0 0.04,-0.248 -1.144,0 0.248,-1.472 -0.2,0 c -0.119999,0.656 -0.503999,1.512 -1.295999,1.544 l -0.024,0.176 0.679999,0 -0.368,2.208 c -0.168,0.984 0.560001,1.08 0.848,1.08 0.568,0 0.888001,-0.568 0.976,-1.08 z"
           style="font-style:normal;font-variant:normal;font-weight:normal;font-stretch:normal;font-size:8px;line-height:125%;font-family:'Latin Modern Roman Slanted';-inkscape-font-specification:'Latin Modern Roman Slanted, Normal';text-align:center;writing-mode:lr-tb;text-anchor:middle"
           id="path4321"
           inkscape:connector-curvature="0" />
      </g>
    </g>
    <g
       font-style="italic"
       font-size="8px"
       id="g108"
       style="font-style:italic;font-size:8px;font-family:LMRoman;text-anchor:middle;fill:#666666">
      <g
         style="line-height:125%"
         id="text110">
        <path
           d="m 48.212,61.284 0.04,-0.248 c -0.248,0.016 -0.576,0.024 -0.784,0.024 l -0.904,-0.024 -0.04,0.248 c 0.416,0.008 0.544,0.216 0.512,0.4 -0.008,0.064 -0.04,0.112 -0.064,0.16 L 44.868,65.7 44.012,61.66 c -0.032,-0.112 -0.024,-0.144 -0.024,-0.144 0.04,-0.232 0.496,-0.232 0.696,-0.232 l 0.04,-0.248 c -0.296,0.024 -0.848,0.024 -1.152,0.024 l -1.008,-0.024 -0.04,0.248 c 0.52,0 0.672,0 0.728,0.304 l 1.04,4.912 c 0.032,0.152 0.064,0.176 0.168,0.176 0.136,0 0.16,-0.04 0.216,-0.152 l 2.576,-4.704 c 0.16,-0.296 0.416,-0.528 0.96,-0.536 z"
           style="font-style:normal;font-variant:normal;font-weight:normal;font-stretch:normal;font-size:8px;line-height:125%;font-family:'Latin Modern Roman Slanted';-inkscape-font-specification:'Latin Modern Roman Slanted, Normal';text-align:center;writing-mode:lr-tb;text-anchor:middle"
           id="path4324"
           inkscape:connector-curvature="0" />
      </g>
    </g>
    <path
       d="M 50,90 Q 51,80 59.5,78.5 68,77 70,70"
       stroke-miterlimit="10"
       pointer-events="none"
       id="path112"
       inkscape:connector-curvature="0"
       style="fill:none;stroke:#000000;stroke-miterlimit:10" />
    <g
       font-size="16px"
       id="g114"
       style="font-size:16px;font-family:LMRoman;text-anchor:middle;fill:#000000">
      <text
         x="99.5"
         y="33.5"
         id="text116"
         style="line-height:0%">Radar backend</text>
    </g>
    <path
       d="m 160,80 q 0,0 118.63,0"
       stroke-miterlimit="10"
       pointer-events="none"
       id="path118"
       inkscape:connector-curvature="0"
       style="fill:none;stroke:#000000;stroke-linecap:round;stroke-linejoin:round;stroke-miterlimit:10" />
    <path
       d="m 283.88,80 -0.01,-0.02 -1.42,0.65 -1.36,0.78 -1.46,0.59 -1.35,0.79 -1.4,0.71 0.18,0.09 0.24,-0.76 0.35,-0.69 0.37,-0.7 0.45,-0.65 0.16,-0.79 0.14,0.07 -0.51,-0.78 -0.36,-0.71 -0.16,-0.6 -0.69,-0.87 -0.17,-0.61 -0.01,-0.02 1.4,0.69 1.44,0.79 1.35,0.61 1.45,0.79 1.37,0.64 z"
       stroke-miterlimit="10"
       pointer-events="none"
       id="path120"
       inkscape:connector-curvature="0"
       style="fill:#000000;stroke:#000000;stroke-linecap:round;stroke-linejoin:round;stroke-miterlimit:10" />
    <path
       d="M 120,60 145.71,60 160,80 145.71,100 120,100 Z"
       stroke-miterlimit="10"
       pointer-events="none"
       id="path122"
       inkscape:connector-curvature="0"
       style="fill:#ffffff;stroke:#000000;stroke-miterlimit:10" />
    <g
       font-size="16px"
       id="g124"
       style="font-size:16px;font-family:LMRoman;text-anchor:middle;fill:#000000"
       transform="translate(0,4)">
      <text
         x="139.5"
         y="113.5"
         id="text126"
         style="line-height:0%">DAC</text>
    </g>
    <g
       font-size="16px"
       id="g128"
       style="font-size:16px;font-family:LMRoman;text-anchor:middle;fill:#000000"
       transform="translate(0,4)">
      <text
         x="64.5"
         y="113.5"
         id="text130"
         style="line-height:0%">Predistortion</text>
    </g>
    <rect
       x="40"
       y="180"
       width="40"
       height="40"
       pointer-events="none"
       id="rect132"
       style="fill:#ffffff;stroke:#000000" />
    <path
       d="m 70,215 -25,0 0,-25"
       stroke-miterlimit="10"
       pointer-events="none"
       id="path134"
       inkscape:connector-curvature="0"
       style="fill:none;stroke:#666666;stroke-miterlimit:10" />
    <g
       font-style="italic"
       font-size="8px"
       id="g136"
       style="font-style:italic;font-size:8px;font-family:LMRoman;text-anchor:middle;fill:#666666">
      <g
         style="line-height:125%"
         id="text138">
        <path
           d="m 76.977437,211.42 c 0.048,-0.296 -0.199999,-0.56 -0.624,-0.56 -0.56,0 -1.312,0.424 -1.456,1.272 l -0.152,0.92 -0.631999,0 -0.04,0.248 0.632001,0 -0.432001,2.592 c -0.064,0.36 -0.152,0.36 -0.688,0.36 l -0.04,0.248 0.919999,-0.024 c 0.32,0 0.696001,0 1.008001,0.024 l 0.04,-0.248 -0.167999,0 c -0.592,0 -0.592,-0.088 -0.544,-0.376 l 0.431999,-2.576 0.912,0 0.04,-0.248 -0.936001,0 0.152,-0.928 c 0.120001,-0.704 0.568,-1.088 0.920001,-1.088 0.024,0 0.144,0 0.256,0.056 -0.104,0.032 -0.264,0.136 -0.296001,0.336 -0.032,0.184 0.072,0.344 0.288001,0.344 0.232,0 0.375999,-0.16 0.407999,-0.352 z"
           style="font-style:normal;font-variant:normal;font-weight:normal;font-stretch:normal;font-size:8px;line-height:125%;font-family:'Latin Modern Roman Slanted';-inkscape-font-specification:'Latin Modern Roman Slanted, Normal';text-align:center;writing-mode:lr-tb;text-anchor:middle"
           id="path4318"
           inkscape:connector-curvature="0" />
      </g>
    </g>
    <path
       d="m 48,209 q 1,1 1.5,1 0.5,0 1,-2 0.5,-2 1,0 0.5,2 1,-0.5 0.5,-2.5 1,-1 0.5,1.5 1,2 0.5,0.5 1,-0.5 0.5,-1 1,0.5 0.5,1.5 1,1 0.5,-0.5 1,-1.5 0.5,-1 1,-9.5 0.5,-8.5 1,-0.5 0.5,8 1,10 0.5,2 1,1 0.5,-1 1,0 0.5,1 1,0.5 0.5,-0.5 1,0 0.5,0.5 1,0.5 0.5,0 1,0 0.5,0 1,0 0.5,0 1.5,0"
       stroke-miterlimit="10"
       pointer-events="none"
       id="path140"
       inkscape:connector-curvature="0"
       style="fill:none;stroke:#000000;stroke-miterlimit:10" />
    <g
       font-style="italic"
       font-size="8px"
       id="g142"
       style="font-style:italic;font-size:8px;font-family:LMRoman;text-anchor:middle;fill:#666666">
      <g
         style="line-height:125%"
         id="text144">
        <path
           d="m 47.378625,182.86 0.072,-1.8 -4.392,0 -0.04,0.248 0.192,0 c 0.616,0 0.616,0.088 0.568,0.376 l -0.696,4.192 c -0.048,0.288 -0.08,0.376 -0.696,0.376 l -0.192,0 -0.04,0.248 c 0.288,-0.024 0.912,-0.024 1.224,-0.024 0.328,0 1.056,0 1.336,0.024 l 0.04,-0.248 -0.264,0 c -0.76,0 -0.744,-0.104 -0.696,-0.384 l 0.328,-1.968 0.688,0 c 0.768,0 0.808,0.256 0.696,0.936 l 0.2,0 0.352,-2.12 -0.2,0 c -0.112,0.672 -0.24,0.936 -1.008,0.936 l -0.688,0 0.344,-2.024 c 0.04,-0.264 0.064,-0.32 0.44,-0.32 l 0.96,0 c 1.2,0 1.328,0.448 1.272,1.552 l 0.2,0 z"
           style="font-style:normal;font-variant:normal;font-weight:normal;font-stretch:normal;font-size:8px;line-height:125%;font-family:'Latin Modern Roman Slanted';-inkscape-font-specification:'Latin Modern Roman Slanted, Normal';text-align:center;writing-mode:lr-tb;text-anchor:middle"
           id="path4315"
           inkscape:connector-curvature="0" />
      </g>
    </g>
    <g
       font-size="16px"
       id="g146"
       style="font-size:16px;font-family:LMRoman;text-anchor:middle;fill:#000000">
      <text
         x="59.5"
         y="173.5"
         id="text148"
         style="line-height:0%">FFT</text>
    </g>
    <rect
       x="120"
       y="180"
       width="40"
       height="40"
       pointer-events="none"
       id="rect150"
       style="fill:#ffffff;stroke:#000000" />
    <path
       d="m 125,210 q 5,0 10,-12.5 5,-12.5 10,0 5,12.5 10,12.5"
       stroke-miterlimit="10"
       pointer-events="none"
       id="path152"
       inkscape:connector-curvature="0"
       style="fill:none;stroke:#000000;stroke-miterlimit:10" />
    <g
       font-size="16px"
       id="g154"
       style="font-size:16px;font-family:LMRoman;text-anchor:middle;fill:#000000">
      <text
         x="139.5"
         y="173.5"
         id="text156"
         style="line-height:0%">Window</text>
    </g>
    <path
       d="m 86.37,200 q 0,0 33.63,0"
       stroke-miterlimit="10"
       pointer-events="none"
       id="path158"
       inkscape:connector-curvature="0"
       style="fill:none;stroke:#000000;stroke-linecap:round;stroke-linejoin:round;stroke-miterlimit:10" />
    <path
       d="m 81.12,200 0.07,0.14 1.23,-1.04 1.53,-0.44 1.39,-0.71 1.49,-0.53 1.29,-0.92 -0.2,-0.1 -0.08,0.83 -0.3,0.73 -0.4,0.68 -0.26,0.74 -0.51,0.62 -0.12,-0.06 0.49,0.77 0.12,0.59 0.63,0.84 0.12,0.58 0.51,0.78 0,0 -1.35,-0.6 -1.55,-1 -1.19,-0.28 -1.41,-0.71 -1.5,-0.91 z"
       stroke-miterlimit="10"
       pointer-events="none"
       id="path160"
       inkscape:connector-curvature="0"
       style="fill:#000000;stroke:#000000;stroke-linecap:round;stroke-linejoin:round;stroke-miterlimit:10" />
    <g
       font-size="16px"
       id="g162"
       style="font-size:16px;font-family:LMRoman;text-anchor:middle;fill:#000000">
      <text
         x="479.5"
         y="143.5"
         id="text164"
         style="line-height:0%">LO</text>
    </g>
    <path
       d="m 610,40 50,0 -30,20 43.63,0"
       stroke-miterlimit="10"
       pointer-events="none"
       id="path166"
       inkscape:connector-curvature="0"
       style="fill:none;stroke:#000000;stroke-miterlimit:10" />
    <path
       d="m 678.88,60 -7,3.5 1.75,-3.5 -1.75,-3.5 z"
       stroke-miterlimit="10"
       pointer-events="none"
       id="path168"
       inkscape:connector-curvature="0"
       style="fill:#000000;stroke:#000000;stroke-miterlimit:10" />
    <path
       d="m 606.37,180 43.63,0 -30,-20 50,0"
       stroke-miterlimit="10"
       pointer-events="none"
       id="path170"
       inkscape:connector-curvature="0"
       style="fill:none;stroke:#000000;stroke-miterlimit:10" />
    <path
       d="m 601.12,180 7,-3.5 -1.75,3.5 1.75,3.5 z"
       stroke-miterlimit="10"
       pointer-events="none"
       id="path172"
       inkscape:connector-curvature="0"
       style="fill:#000000;stroke:#000000;stroke-miterlimit:10" />
    <g
       font-size="16px"
       id="g174"
       style="font-size:16px;font-family:LMRoman;text-anchor:middle;fill:#000000"
       transform="translate(2)">
      <text
         x="634.5"
         y="33.5"
         id="text176"
         style="line-height:0%">Tx antenna</text>
    </g>
  </g>
</svg>
