<!DOCTYPE svg PUBLIC "-//W3C//DTD SVG 1.1//EN" "http://www.w3.org/Graphics/SVG/1.1/DTD/svg11.dtd">
<svg xmlns="http://www.w3.org/2000/svg" xmlns:xlink="http://www.w3.org/1999/xlink" width="187px" height="187px" version="1.1"><defs/><g transform="translate(0.5,0.5)"><ellipse cx="72" cy="72" rx="80" ry="20" fill="none" stroke="#82b366" stroke-width="2" transform="rotate(135,72,72)" pointer-events="none"/><path d="M 97 97 Q 89 103 87.41 110.18" fill="none" stroke="#b85450" stroke-miterlimit="10" pointer-events="none"/><path d="M 87.24 110.91 L 86.97 109.82 L 87.41 110.18 L 87.95 110.04 Z" fill="#b85450" stroke="#b85450" stroke-miterlimit="10" pointer-events="none"/><g fill="#B85450" font-family="LMRoman" text-anchor="middle" font-size="1px"><text x="93.78" y="137.02">$\color{DiagramRed}\alpha$</text></g><path d="M 185 185 L 144.83 144.83" fill="none" stroke="#6c8ebf" stroke-width="2" stroke-miterlimit="10" pointer-events="none"/><path d="M 103 103 Q 92 114 93.79 130.14" fill="none" stroke="#b85450" stroke-miterlimit="10" pointer-events="none"/><path d="M 93.88 130.89 L 93.27 129.95 L 93.79 130.14 L 94.26 129.84 Z" fill="#b85450" stroke="#b85450" stroke-miterlimit="10" pointer-events="none"/><path d="M 107 107 Q 118 94 133.14 93.11" fill="none" stroke="#b85450" stroke-miterlimit="10" pointer-events="none"/><path d="M 133.88 93.07 L 132.92 93.62 L 133.14 93.11 L 132.86 92.63 Z" fill="#b85450" stroke="#b85450" stroke-miterlimit="10" pointer-events="none"/><g fill="#B85450" font-family="LMRoman" text-anchor="middle" font-size="1px"><text x="120.78" y="88.02">$\color{DiagramRed}\alpha$</text></g><path d="M 72 72 L 20.82 20.82" fill="none" stroke="#6c8ebf" stroke-width="2" stroke-miterlimit="10" pointer-events="none"/><path d="M 16.58 16.58 L 25.07 19.41 L 20.82 20.82 L 19.41 25.07 Z" fill="#6c8ebf" stroke="#6c8ebf" stroke-width="2" stroke-miterlimit="10" pointer-events="none"/><ellipse cx="72" cy="72" rx="80" ry="20" fill-opacity="0.5" fill="#d5e8d4" stroke="#82b366" stroke-opacity="0.5" stroke-width="2" transform="rotate(135,72,72)" pointer-events="none"/><path d="M 139.17 139.17 L 72 72" fill="none" stroke="#6c8ebf" stroke-width="2" stroke-miterlimit="10" pointer-events="none"/><path d="M 42 122.2 L 142 142" fill="none" stroke="#82b366" stroke-width="2" stroke-miterlimit="10" stroke-dasharray="6 6" pointer-events="none"/><g fill="#82B366" font-family="LMRoman" text-anchor="middle" font-size="1px"><text x="139.34" y="58.11">$\color{DiagramGreen}R$</text></g><path d="M 128 30.6 L 142 142" fill="none" stroke="#82b366" stroke-width="2" stroke-miterlimit="10" stroke-dasharray="6 6" pointer-events="none"/><ellipse cx="142" cy="142" rx="4" ry="4" fill="#f5f5f5" stroke="#000000" stroke-width="2" transform="rotate(135,142,142)" pointer-events="none"/><ellipse cx="34" cy="84" rx="4" ry="4" fill="#f5f5f5" stroke="#000000" stroke-width="2" transform="rotate(135,34,84)" pointer-events="none"/><path d="M 142 142 L 34 84.6" fill="none" stroke="#82b366" stroke-width="2" stroke-miterlimit="10" stroke-dasharray="6 6" pointer-events="none"/><g fill="#B85450" font-family="LMRoman" text-anchor="middle" font-size="1px"><text x="85.78" y="98.02">$\color{DiagramRed}\alpha$</text></g></g></svg>