<!DOCTYPE svg PUBLIC "-//W3C//DTD SVG 1.1//EN" "http://www.w3.org/Graphics/SVG/1.1/DTD/svg11.dtd">
<svg xmlns="http://www.w3.org/2000/svg" xmlns:xlink="http://www.w3.org/1999/xlink" width="202px" height="202px" version="1.1"><defs/><g transform="translate(0.5,0.5)"><rect x="20" y="20" width="160" height="160" fill="#ffffff" stroke="none" pointer-events="none"/><rect x="20" y="100" width="80" height="80" fill-opacity="0.8" fill="#ffbd83" stroke="none" pointer-events="none"/><rect x="100" y="20" width="80" height="80" fill-opacity="0.8" fill="#db4551" stroke="none" pointer-events="none"/><rect x="100" y="100" width="80" height="80" fill-opacity="0.8" fill="#ffd69c" stroke="none" pointer-events="none"/><rect x="20" y="20" width="80" height="80" fill-opacity="0.8" fill="#8b0000" stroke="none" pointer-events="none"/><path d="M 20 200 L 20 0" fill="none" stroke="#666666" stroke-miterlimit="10" pointer-events="none"/><path d="M 100 200 L 100 180" fill="none" stroke="#666666" stroke-miterlimit="10" pointer-events="none"/><path d="M 180 200 L 180 0" fill="none" stroke="#666666" stroke-miterlimit="10" pointer-events="none"/><path d="M 200 20 L 0 20" fill="none" stroke="#666666" stroke-miterlimit="10" pointer-events="none"/><path d="M 20 100 L 0 100" fill="none" stroke="#666666" stroke-miterlimit="10" pointer-events="none"/><path d="M 200 180 L 0 180" fill="none" stroke="#666666" stroke-miterlimit="10" pointer-events="none"/><ellipse cx="60" cy="140" rx="4" ry="4" fill="#666666" stroke="none" pointer-events="none"/><path d="M 140 85 L 60 85" fill="none" stroke="#000000" stroke-width="2" stroke-miterlimit="10" stroke-dasharray="6 6" pointer-events="none"/><g fill="#000000" font-family="LMRoman" font-size="12px"><text x="61.3" y="93.7">{\small 60\%}</text></g><g fill="#000000" font-family="LMRoman" text-anchor="end" font-size="12px"><text x="137.7" y="93.7">{\small 40\%}</text></g><path d="M 92 140 L 92 60" fill="none" stroke="#000000" stroke-width="2" stroke-miterlimit="10" stroke-dasharray="6 6" pointer-events="none"/><g fill="#000000" font-family="LMRoman" text-anchor="end" font-size="12px" transform="rotate(-90,89.4,61.2)"><text x="88.9" y="57.7">{\small 80\%}</text></g><g fill="#000000" font-family="LMRoman" font-size="12px" transform="rotate(-90,89.4,138.2)"><text x="88.9" y="134.7">{\small 20\%}</text></g><ellipse cx="92" cy="85" rx="5" ry="5" fill="#ffffff" stroke="#000000" pointer-events="none"/><ellipse cx="140" cy="140" rx="4" ry="4" fill="#666666" stroke="none" pointer-events="none"/><ellipse cx="140" cy="60" rx="4" ry="4" fill="#666666" stroke="none" pointer-events="none"/><ellipse cx="60" cy="60" rx="4" ry="4" fill="#666666" stroke="none" pointer-events="none"/><g fill="#000000" font-family="LMRoman" font-size="12px"><text x="21.5" y="33.5">48\%</text></g><g fill="#000000" font-family="LMRoman" font-size="12px"><text x="21.5" y="173.5">12\%</text></g><g fill="#000000" font-family="LMRoman" text-anchor="end" font-size="12px"><text x="177.5" y="33.5">32\%</text></g><g fill="#000000" font-family="LMRoman" text-anchor="end" font-size="12px"><text x="177.5" y="173.5">8\%</text></g><path d="M 200 100 L 180 100" fill="none" stroke="#666666" stroke-miterlimit="10" pointer-events="none"/><path d="M 100 20 L 100 0" fill="none" stroke="#666666" stroke-miterlimit="10" pointer-events="none"/></g></svg>