<?xml version="1.0" encoding="UTF-8" standalone="no"?>
<svg
   xmlns:dc="http://purl.org/dc/elements/1.1/"
   xmlns:cc="http://creativecommons.org/ns#"
   xmlns:rdf="http://www.w3.org/1999/02/22-rdf-syntax-ns#"
   xmlns:svg="http://www.w3.org/2000/svg"
   xmlns="http://www.w3.org/2000/svg"
   xmlns:sodipodi="http://sodipodi.sourceforge.net/DTD/sodipodi-0.dtd"
   xmlns:inkscape="http://www.inkscape.org/namespaces/inkscape"
   viewBox="0 0 531.75794 300.95404"
   height="8.4935923cm"
   width="15.007391cm"
   xml:space="preserve"
   version="1.1"
   id="svg2"
   inkscape:version="0.91 r13725"
   sodipodi:docname="wigig.svg"><sodipodi:namedview
     pagecolor="#ffffff"
     bordercolor="#666666"
     borderopacity="1"
     objecttolerance="10"
     gridtolerance="10"
     guidetolerance="10"
     inkscape:pageopacity="0"
     inkscape:pageshadow="2"
     inkscape:window-width="1855"
     inkscape:window-height="1176"
     id="namedview93"
     showgrid="false"
     fit-margin-top="0"
     fit-margin-left="0"
     fit-margin-right="0"
     fit-margin-bottom="0"
     units="cm"
     inkscape:zoom="1.7696912"
     inkscape:cx="342.62243"
     inkscape:cy="160.8815"
     inkscape:window-x="1145"
     inkscape:window-y="24"
     inkscape:window-maximized="1"
     inkscape:current-layer="svg2" /><metadata
     id="metadata8"><rdf:RDF><cc:Work
         rdf:about=""><dc:format>image/svg+xml</dc:format><dc:type
           rdf:resource="http://purl.org/dc/dcmitype/StillImage" /><dc:title /></cc:Work></rdf:RDF></metadata><defs
     id="defs6"><clipPath
       id="clipPath50"
       clipPathUnits="userSpaceOnUse"><path
         id="path52"
         d="m 187.383,550.001 255.294,0 0,42.956 -255.294,0 0,-42.956"
         inkscape:connector-curvature="0" /></clipPath><clipPath
       id="clipPath50-3"
       clipPathUnits="userSpaceOnUse"><path
         id="path52-6"
         d="m 187.383,550.001 255.294,0 0,42.956 -255.294,0 0,-42.956"
         inkscape:connector-curvature="0" /></clipPath></defs><path
     inkscape:connector-curvature="0"
     d="m 383.81544,59.579183 -355.522044,0 20.562927,-14.035305 87.510187,-12.276838 14.55283,-31.841373 110.03042,0 14.79397,31.842783 87.50878,12.275428 20.56293,14.035305"
     style="fill:#ffddb5;fill-opacity:1;fill-rule:nonzero;stroke:none"
     id="path54" /><path
     inkscape:connector-curvature="0"
     d="m 386.05618,60.270161 -360.004936,0 0.926474,-0.631751 0.194602,0.286262 -0.194602,-0.286262 21.621957,-14.757306 87.295845,-12.245815 14.57962,-31.90201 110.916,0 14.82217,31.90201 87.29585,12.245815 22.54702,15.389057 0,0 m -357.762784,-0.690978 355.522044,0 L 363.25251,45.543878 275.74373,33.26845 260.94976,1.425667 l -110.03042,0 L 136.36651,33.26704 48.856323,45.543878 28.293396,59.579183"
     style="fill:#989695;fill-opacity:1;fill-rule:nonzero;stroke:none"
     id="path56" /><path
     inkscape:connector-curvature="0"
     d="m 27.172339,59.924675 -0.141016,-0.205884 21.555681,-14.712181 0.105761,-0.04089 87.267645,-12.241585 14.5105,-31.748302 0.22563,-0.145246 110.47321,0 0.22562,0.143836 14.75167,31.749712 87.26905,12.241584 0.10571,0.04089 21.55427,14.712181 0.0972,0.279211 -0.23691,0.17486 -357.764172,0 -0.238317,-0.17486 0.0973,-0.279211 0.141016,0.205883 0,-0.249598 356.956153,0 -20.83932,-14.222856 -87.3452,-12.254275 -0.19178,-0.141016 -14.74037,-31.72856 -110.15451,0 -14.49924,31.72715 -0.19319,0.142426 -87.345203,12.254275 -21.506324,14.678337 -0.141016,-0.205883 0,-0.249598 0,0.249598"
     style="fill:#231f20;fill-opacity:1;fill-rule:nonzero;stroke:none"
     id="path58" /><text
     sodipodi:linespacing="125%"
     y="32.992664"
     x="205.75699"
     style="font-style:normal;font-variant:normal;font-weight:normal;font-stretch:normal;font-size:15px;line-height:125%;font-family:'Latin Modern Roman';-inkscape-font-specification:'Latin Modern Roman, Normal';text-align:center;writing-mode:lr-tb;text-anchor:middle;fill:#231f20;fill-opacity:1;fill-rule:nonzero;stroke:none"
     id="text60"><tspan
       id="tspan62"
       style="font-size:15px;text-align:center;text-anchor:middle">Spectrum Mask</tspan></text>
<path
     inkscape:connector-curvature="0"
     d="m 396.5125,285.49359 127.10744,0 0,-215.764086 -127.10744,0 0,215.764086 z"
     style="fill:#a8aaac;fill-opacity:1;fill-rule:nonzero;stroke:none"
     id="path64" /><text
     sodipodi:linespacing="125%"
     y="278.23364"
     x="459.86374"
     style="font-style:normal;font-variant:normal;font-weight:normal;font-stretch:normal;font-size:15px;line-height:125%;font-family:'Latin Modern Roman';-inkscape-font-specification:'Latin Modern Roman, Normal';text-align:center;writing-mode:lr-tb;text-anchor:middle;fill:#231f20;fill-opacity:1;fill-rule:nonzero;stroke:none"
     id="text66"><tspan
       id="tspan68"
       style="font-size:15px;text-align:center;text-anchor:middle">Channel 4</tspan></text>
<path
     inkscape:connector-curvature="0"
     d="m 269.41212,285.49359 127.10745,0 0,-215.764086 -127.10744,0 0,215.764086 z"
     style="fill:#bcbec0;fill-opacity:1;fill-rule:nonzero;stroke:none"
     id="path70" /><text
     sodipodi:linespacing="125%"
     y="278.23364"
     x="332.86835"
     style="font-style:normal;font-variant:normal;font-weight:normal;font-stretch:normal;font-size:15px;line-height:125%;font-family:'Latin Modern Roman';-inkscape-font-specification:'Latin Modern Roman, Normal';text-align:center;writing-mode:lr-tb;text-anchor:middle;fill:#231f20;fill-opacity:1;fill-rule:nonzero;stroke:none"
     id="text72"><tspan
       id="tspan74"
       style="font-size:15px;text-align:center;text-anchor:middle">Channel 3</tspan></text>
<path
     inkscape:connector-curvature="0"
     d="m 142.30328,285.49359 127.10884,0 0,-215.764086 -127.10884,0 0,215.764086 z"
     style="fill:#d2d3d5;fill-opacity:1;fill-rule:nonzero;stroke:none"
     id="path76" /><text
     sodipodi:linespacing="125%"
     y="278.23364"
     x="205.82019"
     style="font-style:normal;font-variant:normal;font-weight:normal;font-stretch:normal;font-size:15px;line-height:125%;font-family:'Latin Modern Roman';-inkscape-font-specification:'Latin Modern Roman, Normal';text-align:center;writing-mode:lr-tb;text-anchor:middle;fill:#231f20;fill-opacity:1;fill-rule:nonzero;stroke:none"
     id="text78"><tspan
       id="tspan80"
       style="font-size:15px;text-align:center;text-anchor:middle">Channel 2</tspan></text>
<path
     inkscape:connector-curvature="0"
     d="m 15.201506,285.49359 127.108824,0 0,-215.764086 -127.108824,0 0,215.764086 z"
     style="fill:#e7e7e8;fill-opacity:1;fill-rule:nonzero;stroke:none"
     id="path82" /><text
     sodipodi:linespacing="125%"
     y="278.23364"
     x="78.94342"
     style="font-style:normal;font-variant:normal;font-weight:normal;font-stretch:normal;font-size:15px;line-height:125%;font-family:'Latin Modern Roman';-inkscape-font-specification:'Latin Modern Roman, Normal';text-align:center;writing-mode:lr-tb;text-anchor:middle;fill:#231f20;fill-opacity:1;fill-rule:nonzero;stroke:none"
     id="text84"><tspan
       id="tspan86"
       style="font-size:15px;text-align:center;text-anchor:middle">Channel 1</tspan></text>
<path
     inkscape:connector-curvature="0"
     d="m 4.0217714,104.0584 408.9684286,0 0,-14.710774 -408.9684286,0 0,14.710774 z"
     style="fill:#b2d4f0;fill-opacity:1;fill-rule:nonzero;stroke:none"
     id="path88" /><path
     inkscape:connector-curvature="0"
     d="m 4.0217714,104.0584 0,-0.2496 408.7188386,0 0,-14.212986 -408.4706508,0 0,14.462586 -0.2481878,0 0,-0.2496 0,0.2496 -0.249598,0 0,-14.712184 0.073328,-0.17627 0.1762698,-0.07192 408.9684288,0 0.17627,0.07192 0.072,0.17627 0,14.712184 -0.072,0.17627 -0.17627,0.0719 -408.9684288,0 -0.1762698,-0.0719 -0.073328,-0.17627 0.249598,0"
     style="fill:#231f20;fill-opacity:1;fill-rule:nonzero;stroke:none"
     id="path90" /><text
     sodipodi:linespacing="100%"
     y="100.93349"
     x="209.07008"
     style="font-style:normal;font-variant:normal;font-weight:normal;font-stretch:normal;font-size:15px;line-height:100%;font-family:'Latin Modern Roman';-inkscape-font-specification:'Latin Modern Roman, Normal';text-align:center;writing-mode:lr-tb;text-anchor:middle;fill:#231f20;fill-opacity:1;fill-rule:nonzero;stroke:none"
     id="text92"><tspan
       id="tspan94"
       style="font-style:normal;font-variant:normal;font-weight:normal;font-stretch:normal;font-size:15px;line-height:100%;font-family:'Latin Modern Roman';-inkscape-font-specification:'Latin Modern Roman, Normal';text-align:center;writing-mode:lr-tb;text-anchor:middle">U.S. and Canada (57.05 GHz – 64.00 GHz)</tspan></text>
<path
     inkscape:connector-curvature="0"
     d="m 530.67919,133.48135 -7.05924,0 0,-14.71218 7.05924,0 0,14.71218 m -515.477684,0 -14.1227349,0 0,-14.71218 14.1227349,0 0,14.71218"
     style="fill:#d6e7f7;fill-opacity:1;fill-rule:nonzero;stroke:none"
     id="path96" /><path
     inkscape:connector-curvature="0"
     d="m 396.51956,133.48135 127.10038,0 0,-14.71077 -127.10038,0 0,14.71077 z"
     style="fill:#b2c0cf;fill-opacity:1;fill-rule:nonzero;stroke:none"
     id="path98" /><path
     inkscape:connector-curvature="0"
     d="m 269.41212,133.48135 127.10745,0 0,-14.71077 -127.10744,0 0,14.71077 z"
     style="fill:#bac9d7;fill-opacity:1;fill-rule:nonzero;stroke:none"
     id="path100" /><path
     inkscape:connector-curvature="0"
     d="m 142.30892,133.48135 127.1018,0 0,-14.71077 -127.10179,0 0,14.71077 z"
     style="fill:#c3d2e1;fill-opacity:1;fill-rule:nonzero;stroke:none"
     id="path102" /><path
     inkscape:connector-curvature="0"
     d="m 15.201506,133.48135 127.108824,0 0,-14.71077 -127.108824,0 0,14.71077 z"
     style="fill:#cbdbeb;fill-opacity:1;fill-rule:nonzero;stroke:none"
     id="path104" /><path
     inkscape:connector-curvature="0"
     d="m 1.0787711,133.48135 529.6004189,0 0,-14.71077 -529.6004189,0 0,14.71077 z"
     style="fill:#b2d4f0;fill-opacity:1;fill-rule:nonzero;stroke:none"
     id="path106" /><path
     inkscape:connector-curvature="0"
     d="m 1.0787711,133.48135 0,-0.2496 529.3508189,0 0,-14.21299 -529.1012209,0 0,14.46259 -0.249598,0 0,-0.2496 0,0.2496 -0.249598,0 0,-14.71219 0.073328,-0.17626 0.1762698,-0.0719 529.6004191,0 0.17627,0.0719 0.0733,0.17626 0,14.71219 -0.0733,0.17627 -0.17627,0.0719 -529.6004191,0 -0.1762698,-0.0719 -0.073328,-0.17627 0.249598,0"
     style="fill:#231f20;fill-opacity:1;fill-rule:nonzero;stroke:none"
     id="path108" /><text
     sodipodi:linespacing="100%"
     y="130.35643"
     x="266.44308"
     style="font-style:normal;font-variant:normal;font-weight:normal;font-stretch:normal;font-size:15px;line-height:100%;font-family:'Latin Modern Roman';-inkscape-font-specification:'Latin Modern Roman, Normal';text-align:center;writing-mode:lr-tb;text-anchor:middle;fill:#231f20;fill-opacity:1;fill-rule:nonzero;stroke:none"
     id="text110"><tspan
       id="tspan112"
       style="font-style:normal;font-variant:normal;font-weight:normal;font-stretch:normal;font-size:15px;line-height:100%;font-family:'Latin Modern Roman';-inkscape-font-specification:'Latin Modern Roman, Normal';text-align:center;writing-mode:lr-tb;text-anchor:middle">European Union (57.00 GHz – 66.00 GHz)</tspan></text>
<path
     inkscape:connector-curvature="0"
     d="m 1.0787711,192.31879 529.6004189,0 0,-14.71077 -529.6004189,0 0,14.71077 z"
     style="fill:#b2d4f0;fill-opacity:1;fill-rule:nonzero;stroke:none"
     id="path114" /><path
     inkscape:connector-curvature="0"
     d="m 1.0787711,192.31879 0,-0.24819 529.3508189,0 0,-14.21298 -529.1012209,0 0,14.46117 -0.249598,0 0,-0.24819 0,0.24819 -0.249598,0 0,-14.71077 0.073328,-0.17627 0.1762698,-0.0733 529.6004191,0 0.17627,0.0733 0.0733,0.17627 0,14.71077 -0.0733,0.17627 -0.17627,0.0733 -529.6004191,0 -0.1762698,-0.0733 -0.073328,-0.17627 0.249598,0"
     style="fill:#231f20;fill-opacity:1;fill-rule:nonzero;stroke:none"
     id="path116" /><text
     sodipodi:linespacing="100%"
     y="189.19388"
     x="266.37543"
     style="font-style:normal;font-variant:normal;font-weight:normal;font-stretch:normal;font-size:15px;line-height:100%;font-family:'Latin Modern Roman';-inkscape-font-specification:'Latin Modern Roman, Normal';text-align:center;writing-mode:lr-tb;text-anchor:middle;fill:#231f20;fill-opacity:1;fill-rule:nonzero;stroke:none"
     id="text118"><tspan
       id="tspan120"
       style="font-style:normal;font-variant:normal;font-weight:normal;font-stretch:normal;font-size:15px;line-height:100%;font-family:'Latin Modern Roman';-inkscape-font-specification:'Latin Modern Roman, Normal';text-align:center;writing-mode:lr-tb;text-anchor:middle">Japan (57.00 GHz – 66.00 GHz)</tspan></text>
<path
     inkscape:connector-curvature="0"
     d="m 396.51956,251.16469 16.47628,0 0,-14.71077 -16.47628,0 0,14.71077 z"
     style="fill:#b2c0cf;fill-opacity:1;fill-rule:nonzero;stroke:none"
     id="path122" /><path
     inkscape:connector-curvature="0"
     d="m 269.41212,251.16469 127.10745,0 0,-14.71077 -127.10744,0 0,14.71077 z"
     style="fill:#bac9d7;fill-opacity:1;fill-rule:nonzero;stroke:none"
     id="path124" /><path
     inkscape:connector-curvature="0"
     d="m 142.30892,251.16469 127.1018,0 0,-14.71077 -127.10179,0 0,14.71077 z"
     style="fill:#c3d2e1;fill-opacity:1;fill-rule:nonzero;stroke:none"
     id="path126" /><path
     inkscape:connector-curvature="0"
     d="m 118.76917,251.16469 23.53975,0 0,-14.71077 -23.53975,0 0,14.71077 z"
     style="fill:#cbdbeb;fill-opacity:1;fill-rule:nonzero;stroke:none"
     id="path128" /><path
     inkscape:connector-curvature="0"
     d="m 118.76917,251.16469 294.22669,0 0,-14.71077 -294.22669,0 0,14.71077 z"
     style="fill:#b2d4f0;fill-opacity:1;fill-rule:nonzero;stroke:none"
     id="path130" /><path
     inkscape:connector-curvature="0"
     d="m 118.76917,251.16469 0,-0.24959 293.97709,0 0,-14.21299 -293.72749,0 0,14.46258 -0.2496,0 0,-0.24959 0,0.24959 -0.2496,0 0,-14.71218 0.0733,-0.17627 0.17627,-0.0719 294.22669,0 0.17627,0.0719 0.072,0.17627 0,14.71218 -0.072,0.17627 -0.17627,0.0719 -294.22669,0 -0.17627,-0.0719 -0.0733,-0.17627 0.2496,0"
     style="fill:#231f20;fill-opacity:1;fill-rule:nonzero;stroke:none"
     id="path132" /><text
     sodipodi:linespacing="100%"
     y="248.03978"
     x="266.25204"
     style="font-style:normal;font-variant:normal;font-weight:normal;font-stretch:normal;font-size:15px;line-height:100%;font-family:'Latin Modern Roman';-inkscape-font-specification:'Latin Modern Roman, Normal';text-align:center;writing-mode:lr-tb;text-anchor:middle;fill:#231f20;fill-opacity:1;fill-rule:nonzero;stroke:none"
     id="text134"><tspan
       id="tspan136"
       style="font-style:normal;font-variant:normal;font-weight:normal;font-stretch:normal;font-size:15px;line-height:100%;font-family:'Latin Modern Roman';-inkscape-font-specification:'Latin Modern Roman, Normal';text-align:center;writing-mode:lr-tb;text-anchor:middle">China (59.00 GHz – 64.00 GHz)</tspan></text>
<path
     inkscape:connector-curvature="0"
     d="m 1.0787711,162.89725 411.9170889,0 0,-14.71077 -411.9170889,0 0,14.71077 z"
     style="fill:#b2d4f0;fill-opacity:1;fill-rule:nonzero;stroke:none"
     id="path138" /><path
     inkscape:connector-curvature="0"
     d="m 1.0787711,162.89725 0,-0.2496 411.6674789,0 0,-14.21298 -411.4178809,0 0,14.46258 -0.249598,0 0,-0.2496 0,0.2496 -0.249598,0 0,-14.71218 0.073328,-0.17627 0.1762698,-0.0733 411.9170691,0 0.17627,0.0733 0.072,0.17627 0,14.71218 -0.072,0.17486 -0.17627,0.0733 -411.9170691,0 -0.1762698,-0.0733 -0.073328,-0.17486 0.249598,0"
     style="fill:#231f20;fill-opacity:1;fill-rule:nonzero;stroke:none"
     id="path140" /><text
     sodipodi:linespacing="100%"
     y="159.77234"
     x="207.40683"
     style="font-style:normal;font-variant:normal;font-weight:normal;font-stretch:normal;font-size:15px;line-height:100%;font-family:'Latin Modern Roman';-inkscape-font-specification:'Latin Modern Roman, Normal';text-align:center;writing-mode:lr-tb;text-anchor:middle;fill:#231f20;fill-opacity:1;fill-rule:nonzero;stroke:none"
     id="text142"><tspan
       id="tspan144"
       style="font-style:normal;font-variant:normal;font-weight:normal;font-stretch:normal;font-size:15px;line-height:100%;font-family:'Latin Modern Roman';-inkscape-font-specification:'Latin Modern Roman, Normal';text-align:center;writing-mode:lr-tb;text-anchor:middle">South Korea (57.00 GHz – 64.00 GHz)</tspan></text>
<text
     sodipodi:linespacing="125%"
     y="297.78903"
     x="78.65361"
     style="font-style:normal;font-variant:normal;font-weight:normal;font-stretch:normal;font-size:15px;line-height:125%;font-family:'Latin Modern Roman';-inkscape-font-specification:'Latin Modern Roman, Normal';text-align:center;writing-mode:lr-tb;text-anchor:middle;fill:#231f20;fill-opacity:1;fill-rule:nonzero;stroke:none"
     id="text162">$F_C$ = 58.32 GHz</text>
<path
     inkscape:connector-curvature="0"
     d="M 0,63.847734 0,1.078771 C 0,0.482274 0.4822742,0 1.0787711,0 1.675268,0 2.1589523,0.482274 2.1589523,1.078771 l 0,62.768963 c 0,0.596497 -0.4836843,1.080182 -1.0801812,1.080182 C 0.4822742,64.927916 0,64.444231 0,63.847734"
     style="fill:#231f20;fill-opacity:1;fill-rule:nonzero;stroke:none"
     id="path182" /><path
     inkscape:connector-curvature="0"
     d="m 529.59901,63.847734 0,-62.768963 C 529.59901,0.482274 530.08271,0 530.67919,0 c 0.5965,0 1.07877,0.482274 1.07877,1.078771 l 0,62.768963 c 0,0.596497 -0.48227,1.080182 -1.07877,1.080182 -0.59648,0 -1.08018,-0.483685 -1.08018,-1.080182"
     style="fill:#231f20;fill-opacity:1;fill-rule:nonzero;stroke:none"
     id="path184" /><path
     inkscape:connector-curvature="0"
     d="m 78.558506,1.328369 -3.487322,0 c -0.136784,0 -0.248186,-0.111403 -0.248186,-0.249598 0,-0.136785 0.111402,-0.248188 0.248186,-0.248188 l 3.487322,0 c 0.138195,0 0.249599,0.111403 0.249599,0.248188 0,0.138195 -0.111403,0.249598 -0.249599,0.249598 z m -5.97766,0 -3.487321,0 c -0.138196,0 -0.249599,-0.111403 -0.249599,-0.249598 0,-0.136785 0.111402,-0.248188 0.249599,-0.248188 l 3.487321,0 c 0.136784,0 0.248187,0.111403 0.248187,0.248188 0,0.138195 -0.111403,0.249598 -0.248187,0.249598 z m -5.979071,0 -3.487322,0 c -0.138196,0 -0.249597,-0.111403 -0.249597,-0.249598 0,-0.136785 0.111402,-0.248188 0.249597,-0.248188 l 3.487322,0 c 0.138196,0 0.249598,0.111403 0.249598,0.248188 0,0.138195 -0.111402,0.249598 -0.249598,0.249598 z m -5.979072,0 -3.487321,0 c -0.136785,0 -0.249598,-0.111403 -0.249598,-0.249598 0,-0.136785 0.112812,-0.248188 0.249598,-0.248188 l 3.487321,0 c 0.138196,0 0.249599,0.111403 0.249599,0.248188 0,0.138195 -0.111402,0.249598 -0.249599,0.249598 z m -5.97766,0 -3.488731,0 c -0.136786,0 -0.248188,-0.111403 -0.248188,-0.249598 0,-0.136785 0.111402,-0.248188 0.248188,-0.248188 l 3.488731,0 c 0.136786,0 0.248188,0.111403 0.248188,0.248188 0,0.138195 -0.111402,0.249598 -0.248188,0.249598 z m -5.979071,0 -3.487322,0 c -0.138196,0 -0.249598,-0.111403 -0.249598,-0.249598 0,-0.136785 0.111402,-0.248188 0.249598,-0.248188 l 3.487322,0 c 0.136785,0 0.249598,0.111403 0.249598,0.248188 0,0.138195 -0.112812,0.249598 -0.249598,0.249598 z m -5.979072,0 -3.487321,0 c -0.136784,0 -0.249598,-0.111403 -0.249598,-0.249598 0,-0.136785 0.112813,-0.248188 0.249598,-0.248188 l 3.487321,0 c 0.138197,0 0.249599,0.111403 0.249599,0.248188 0,0.138195 -0.111402,0.249598 -0.249599,0.249598 z m -5.977659,0 -3.488732,0 c -0.136785,0 -0.248188,-0.111403 -0.248188,-0.249598 0,-0.136785 0.111403,-0.248188 0.248188,-0.248188 l 3.488732,0 c 0.136785,0 0.248187,0.111403 0.248187,0.248188 0,0.138195 -0.111402,0.249598 -0.248187,0.249598 z m -5.979071,0 -3.487322,0 c -0.138196,0 -0.249599,-0.111403 -0.249599,-0.249598 0,-0.136785 0.111403,-0.248188 0.249599,-0.248188 l 3.487322,0 c 0.136785,0 0.249598,0.111403 0.249598,0.248188 0,0.138195 -0.112813,0.249598 -0.249598,0.249598 z m -5.979071,0 -1.387596,0 -0.740333,1.618862 -0.329977,0.122683 -0.122684,-0.329977 0.806611,-1.764108 0.225625,-0.145246 1.548354,0 c 0.138195,0 0.249598,0.111403 0.249598,0.248188 0,0.138195 -0.111403,0.249598 -0.249598,0.249598 z M 21.588113,5.211945 20.138471,8.384801 19.808494,8.507485 19.68581,8.177508 21.135453,5.004651 21.46543,4.881968 21.588113,5.211945 Z m -2.484698,5.43757 -1.449644,3.172855 -0.331387,0.122684 -0.122683,-0.329976 1.449643,-3.172856 0.329976,-0.122684 0.124095,0.329977 z m -2.486109,5.437571 -1.449643,3.172856 -0.329977,0.122684 -0.122684,-0.329977 1.449643,-3.172857 0.329977,-0.122683 0.122684,0.329977 z m -2.484699,5.437569 -1.449643,3.172856 -0.329977,0.122684 -0.124094,-0.329977 1.449643,-3.172856 0.331387,-0.122683 0.122684,0.329976 z m -2.486109,5.437571 -1.449643,3.172856 -0.3299774,0.122684 -0.122683,-0.329978 1.4496424,-3.171446 0.329977,-0.124094 0.122684,0.329977 z m -2.4846994,5.437569 -0.298954,0.655724 -0.191781,0.142426 -2.739938,0.392025 c -0.136785,0.01833 -0.262289,-0.07615 -0.282032,-0.211524 -0.01974,-0.136786 0.07615,-0.262289 0.211524,-0.282031 l 2.605973,-0.372283 0.242547,-0.530219 0.329977,-0.124095 0.122684,0.329977 z M 3.4647589,33.941098 1.1140251,34.276717 C 0.9786499,34.296459 0.8517356,34.201979 0.8319934,34.066603 0.8122512,33.929818 0.908142,33.804314 1.0435172,33.784572 L 3.394251,33.448954 c 0.1367853,-0.01974 0.2622894,0.07474 0.2820316,0.210113 0.019742,0.136786 -0.074738,0.263699 -0.2115237,0.282031"
     style="fill:#231f20;fill-opacity:1;fill-rule:nonzero;stroke:none"
     id="path186" /><path
     inkscape:connector-curvature="0"
     d="m 78.558506,0.830583 3.488731,0 c 0.136786,0 0.248188,0.111403 0.248188,0.248188 0,0.138195 -0.111402,0.249598 -0.248188,0.249598 l -3.488731,0 c -0.136784,0 -0.248187,-0.111403 -0.248187,-0.249598 0,-0.136785 0.111403,-0.248188 0.248187,-0.248188 z m 5.979072,0 3.487321,0 c 0.138196,0 0.249598,0.111403 0.249598,0.248188 0,0.138195 -0.111402,0.249598 -0.249598,0.249598 l -3.487321,0 c -0.138196,0 -0.249598,-0.111403 -0.249598,-0.249598 0,-0.136785 0.111402,-0.248188 0.249598,-0.248188 z m 5.979071,0 3.487321,0 c 0.136784,0 0.249598,0.111403 0.249598,0.248188 0,0.138195 -0.112812,0.249598 -0.249598,0.249598 l -3.487321,0 c -0.138196,0 -0.249599,-0.111403 -0.249599,-0.249598 0,-0.136785 0.111402,-0.248188 0.249599,-0.248188 z m 5.977664,0 3.48873,0 c 0.136777,0 0.248177,0.111403 0.248177,0.248188 0,0.138195 -0.1114,0.249598 -0.248177,0.249598 l -3.48873,0 c -0.13679,0 -0.24819,-0.111403 -0.24819,-0.249598 0,-0.136785 0.1114,-0.248188 0.24819,-0.248188 z m 5.979067,0 3.48732,0 c 0.13819,0 0.2496,0.111403 0.2496,0.248188 0,0.138195 -0.11141,0.249598 -0.2496,0.249598 l -3.48732,0 c -0.13679,0 -0.2496,-0.111403 -0.2496,-0.249598 0,-0.136785 0.11281,-0.248188 0.2496,-0.248188 z m 5.97907,0 3.48732,0 c 0.1382,0 0.2496,0.111403 0.2496,0.248188 0,0.138195 -0.11135,0.249598 -0.2496,0.249598 l -3.48732,0 c -0.1382,0 -0.2496,-0.111403 -0.2496,-0.249598 0,-0.136785 0.1114,-0.248188 0.2496,-0.248188 z m 5.97907,0 3.48732,0 c 0.13679,0 0.24819,0.111403 0.24819,0.248188 0,0.138195 -0.11146,0.249598 -0.24819,0.249598 l -3.48732,0 c -0.13819,0 -0.2496,-0.111403 -0.2496,-0.249598 0,-0.136785 0.11135,-0.248188 0.2496,-0.248188 z m 5.97766,0 3.48732,0 c 0.1382,0 0.2496,0.111403 0.2496,0.248188 0,0.138195 -0.11146,0.249598 -0.2496,0.249598 l -3.48732,0 c -0.13678,0 -0.24819,-0.111403 -0.24819,-0.249598 0,-0.136785 0.11135,-0.248188 0.24819,-0.248188 z m 5.97907,0 3.48733,0 c 0.13819,0 0.24959,0.111403 0.24959,0.248188 0,0.138195 -0.11134,0.249598 -0.24959,0.249598 l -3.48733,0 c -0.13819,0 -0.24959,-0.111403 -0.24959,-0.249598 0,-0.136785 0.11134,-0.248188 0.24959,-0.248188 z m 5.97907,0 1.54272,0 0.22562,0.145246 0.80943,1.768339 -0.12409,0.329977 -0.32998,-0.122684 -0.74174,-1.623092 -1.38196,0 c -0.13819,0 -0.24959,-0.111403 -0.24959,-0.249598 0,-0.136785 0.11134,-0.248188 0.24959,-0.248188 z m 3.61283,4.179709 1.44964,3.171446 -0.12268,0.329977 -0.32998,-0.122684 -1.44964,-3.172856 0.12268,-0.329977 0.32998,0.124094 z m 2.4847,5.43757 1.44963,3.171447 -0.12268,0.329976 -0.32997,-0.122684 -1.44964,-3.171445 0.12268,-0.331388 0.32998,0.124094 z m 2.48469,5.437571 1.44964,3.171445 -0.12268,0.329977 -0.32998,-0.122683 -1.44964,-3.171447 0.12268,-0.329976 0.32998,0.122684 z m 2.48611,5.437569 1.44964,3.171447 -0.12411,0.329976 -0.32996,-0.122684 -1.44965,-3.171446 0.1241,-0.329977 0.32998,0.122684 z m 2.48469,5.43757 1.44965,3.171446 -0.12269,0.329977 -0.32997,-0.122683 -1.44965,-3.171446 0.12269,-0.329976 0.32997,0.122682 z m 2.4847,5.437571 0.24114,0.525989 2.6102,0.365231 c 0.13678,0.01974 0.23126,0.145246 0.21294,0.282031 -0.0198,0.135375 -0.14526,0.231266 -0.28203,0.211524 l -2.74558,-0.384973 -0.19319,-0.142426 -0.29614,-0.650083 0.12269,-0.329977 0.32997,0.122684 z m 5.31912,1.238119 3.45348,0.483684 c 0.13537,0.01974 0.23126,0.145246 0.21152,0.282032 -0.0183,0.136785 -0.14526,0.231265 -0.28062,0.211523 l -3.45349,-0.483684 c -0.13677,-0.01974 -0.23125,-0.145246 -0.21293,-0.282032 0.0197,-0.135375 0.14525,-0.231266 0.28203,-0.211523 z m 5.91983,0.830583 3.45348,0.483684 c 0.13679,0.01974 0.23128,0.145246 0.21293,0.282032 -0.0197,0.136785 -0.14523,0.231266 -0.28203,0.211523 L 159.57491,34.7604 c -0.13538,-0.01974 -0.23127,-0.145246 -0.21153,-0.282031 0.0184,-0.135376 0.14525,-0.231266 0.28062,-0.211524 z m 5.92126,0.830583 3.45349,0.483684 c 0.13677,0.01974 0.23125,0.145247 0.21151,0.282032 -0.0183,0.136785 -0.14384,0.231266 -0.28062,0.211524 l -3.45348,-0.483685 c -0.13679,-0.01974 -0.23127,-0.145246 -0.21293,-0.282031 0.0197,-0.135375 0.14524,-0.231266 0.28203,-0.211524 z m 5.91985,0.830583 3.45488,0.483684 c 0.13539,0.01974 0.23127,0.145247 0.21152,0.282032 -0.0197,0.136785 -0.14524,0.231266 -0.28203,0.211524 l -3.45348,-0.483684 c -0.13537,-0.01974 -0.23125,-0.145247 -0.21152,-0.282032 0.0184,-0.135375 0.14526,-0.231266 0.28063,-0.211524 z m 5.92125,0.830583 3.45347,0.483685 c 0.13679,0.01974 0.23128,0.145246 0.21294,0.282031 -0.0197,0.136786 -0.14524,0.231266 -0.28203,0.211524 l -3.45347,-0.483684 c -0.1368,-0.01974 -0.23128,-0.145247 -0.21295,-0.282032 0.0197,-0.135375 0.14525,-0.231266 0.28204,-0.211524 z m 5.91984,0.830584 3.45489,0.485094 c 0.13537,0.01833 0.23126,0.143836 0.21152,0.280622 -0.0183,0.136785 -0.14524,0.231266 -0.28062,0.211523 l -3.45489,-0.483684 c -0.13537,-0.01974 -0.23126,-0.145246 -0.21152,-0.282032 0.0197,-0.135375 0.14525,-0.231266 0.28062,-0.211523 z m 5.92127,0.830583 3.45346,0.483684 c 0.13679,0.01974 0.23127,0.145246 0.21295,0.282032 -0.0197,0.136785 -0.14526,0.231266 -0.28203,0.211523 l -3.45348,-0.483684 c -0.13679,-0.01974 -0.23127,-0.145246 -0.21152,-0.282031 0.0183,-0.135376 0.14524,-0.231266 0.28062,-0.211524 z m 5.92124,0.830583 3.45348,0.485094 c 0.13537,0.01833 0.23127,0.143837 0.21152,0.280622 -0.0183,0.136785 -0.14523,0.231266 -0.28062,0.211524 l -3.45348,-0.483685 c -0.13678,-0.01974 -0.23126,-0.145246 -0.21293,-0.282031 0.0197,-0.135375 0.14524,-0.231266 0.28203,-0.211524 z m 5.91984,0.830583 3.45349,0.485095 c 0.13678,0.01833 0.23126,0.143836 0.21293,0.280621 -0.0198,0.136786 -0.14525,0.231266 -0.28202,0.211524 l -3.45349,-0.483684 c -0.13538,-0.01974 -0.23126,-0.145247 -0.21153,-0.282032 0.0184,-0.135375 0.14526,-0.231266 0.28064,-0.211524 z m 5.92127,0.830583 3.45348,0.485095 c 0.13678,0.01833 0.23126,0.143836 0.21152,0.280621 -0.0184,0.136786 -0.14383,0.231266 -0.28063,0.211524 l -3.45348,-0.483684 c -0.13677,-0.01974 -0.23125,-0.145246 -0.21293,-0.282032 0.0197,-0.135375 0.14524,-0.231266 0.28203,-0.211524 z m 5.91983,0.830584 3.45348,0.485094 c 0.13679,0.01833 0.23269,0.143836 0.21293,0.280622 -0.0197,0.136785 -0.14523,0.231266 -0.28203,0.211523 l -3.45346,-0.483684 c -0.13539,-0.01974 -0.23128,-0.145246 -0.21153,-0.282032 0.0183,-0.135375 0.14524,-0.231266 0.28062,-0.211523 z m 5.92126,0.830583 3.45349,0.485094 c 0.13677,0.01833 0.23125,0.143836 0.21151,0.280622 -0.0183,0.136785 -0.14384,0.231266 -0.28062,0.211524 l -3.45348,-0.483685 c -0.13679,-0.01974 -0.23127,-0.145246 -0.21293,-0.282031 0.0197,-0.135376 0.14524,-0.231266 0.28203,-0.211524 z m 5.91985,0.830583 3.45488,0.485095 c 0.13537,0.01833 0.23127,0.143836 0.21152,0.280621 -0.0184,0.136785 -0.14524,0.231266 -0.28062,0.211524 l -3.45489,-0.483685 c -0.13537,-0.01974 -0.23126,-0.145246 -0.21152,-0.282031 0.0197,-0.135375 0.14525,-0.231266 0.28063,-0.211524 z m 5.92125,0.830583 3.45347,0.485095 c 0.13679,0.01833 0.23127,0.143836 0.21294,0.280621 -0.0197,0.136786 -0.14524,0.231266 -0.28203,0.212934 l -3.45347,-0.485094 c -0.1368,-0.01974 -0.23128,-0.145247 -0.21152,-0.282032 0.0183,-0.135375 0.14382,-0.231266 0.28061,-0.211524 z m 5.90997,1.171842 2.88095,1.96576 0.0663,0.345489 -0.34689,0.06628 -2.88097,-1.965761 -0.0649,-0.346898 0.34549,-0.06487 z m 4.93978,3.368868 2.87955,1.96576 0.0663,0.346899 -0.3469,0.06487 -2.88095,-1.965761 -0.0649,-0.345489 0.3469,-0.06628 z m 4.93838,3.370278 2.88095,1.965761 0.0649,0.345488 -0.3455,0.06487 -2.88094,-1.964351 -0.0663,-0.346898 0.3469,-0.06487 z m 4.93837,3.368868 2.88096,1.965761 0.0649,0.346899 -0.34549,0.06487 -2.88095,-1.965761 -0.0663,-0.345488 0.3469,-0.06628 z m 4.93838,3.370278 1.16056,0.791099 1.92909,0 c 0.1382,0 0.2496,0.111403 0.2496,0.249598 0,0.136785 -0.11146,0.248188 -0.2496,0.248188 l -2.00665,0 -0.13961,-0.0423 -1.22402,-0.834813 -0.0649,-0.346898 0.34549,-0.06487 z m 5.5814,0.791099 3.48732,0 c 0.13679,0 0.24819,0.111403 0.24819,0.249598 0,0.136785 -0.11134,0.248188 -0.24819,0.248188 l -3.48732,0 c -0.13819,0 -0.2496,-0.111403 -0.2496,-0.248188 0,-0.138195 0.11135,-0.249598 0.2496,-0.249598 z m 5.97766,0 3.48732,0 c 0.1382,0 0.2496,0.111403 0.2496,0.249598 0,0.136785 -0.11134,0.248188 -0.2496,0.248188 l -3.48732,0 c -0.13678,0 -0.24818,-0.111403 -0.24818,-0.248188 0,-0.138195 0.11134,-0.249598 0.24818,-0.249598 z m 5.97907,0 2.7752,0 c 0.13819,0 0.24959,0.111403 0.24959,0.249598 0,0.136785 -0.11134,0.248188 -0.24959,0.248188 l -2.7752,0 c -0.13819,0 -0.24959,-0.111403 -0.24959,-0.248188 0,-0.138195 0.11134,-0.249598 0.24959,-0.249598"
     style="fill:#231f20;fill-opacity:1;fill-rule:nonzero;stroke:none"
     id="path188" /><path
     inkscape:connector-curvature="0"
     d="m 206.05512,1.328369 -55.19781,0 -14.49924,31.727151 -0.19178,0.142426 -87.345201,12.254275 -21.507734,14.678337 -0.141016,0.04231 -19.2289174,0 c -0.136785,0 -0.248188,-0.111402 -0.248188,-0.248187 0,-0.138196 0.111403,-0.249599 0.248188,-0.249599 l 19.1527694,0 21.490811,-14.668466 0.107172,-0.04089 87.267646,-12.241585 14.50909,-31.748302 0.22563,-0.145246 55.35858,0 c 0.13679,0 0.24819,0.111403 0.24819,0.248188 0,0.138195 -0.11135,0.249598 -0.24819,0.249598"
     style="fill:#231f20;fill-opacity:1;fill-rule:nonzero;stroke:none"
     id="path190" /><path
     inkscape:connector-curvature="0"
     d="m 206.05512,0.830583 55.35719,0 0.22702,0.145246 14.50912,31.748303 87.26623,12.241584 0.10582,0.0409 21.49222,14.668465 19.15276,0 c 0.13819,0 0.24961,0.111403 0.24961,0.249599 0,0.136785 -0.11135,0.248187 -0.24961,0.248187 l -19.22891,0 -0.14102,-0.04231 -21.50773,-14.67834 -87.34379,-12.254276 -0.19178,-0.142426 -14.49925,-31.727151 -55.19782,0 c -0.1382,0 -0.2496,-0.111403 -0.2496,-0.249598 0,-0.136785 0.11135,-0.248188 0.2496,-0.248188"
     style="fill:#231f20;fill-opacity:1;fill-rule:nonzero;stroke:none"
     id="path192" /><path
     inkscape:connector-curvature="0"
     d="m 332.56747,1.328369 -3.48732,0 c -0.13679,0 -0.2496,-0.111403 -0.2496,-0.249598 0,-0.136785 0.11281,-0.248188 0.2496,-0.248188 l 3.48732,0 c 0.13819,0 0.2496,0.111403 0.2496,0.248188 0,0.138195 -0.11135,0.249598 -0.2496,0.249598 z m -5.97766,0 -3.48873,0 c -0.13679,0 -0.24819,-0.111403 -0.24819,-0.249598 0,-0.136785 0.11134,-0.248188 0.24819,-0.248188 l 3.48873,0 c 0.13678,0 0.24819,0.111403 0.24819,0.248188 0,0.138195 -0.11135,0.249598 -0.24819,0.249598 z m -5.97907,0 -3.48732,0 c -0.13819,0 -0.2496,-0.111403 -0.2496,-0.249598 0,-0.136785 0.11134,-0.248188 0.2496,-0.248188 l 3.48732,0 c 0.13678,0 0.2496,0.111403 0.2496,0.248188 0,0.138195 -0.11282,0.249598 -0.2496,0.249598 z m -5.97907,0 -3.48733,0 c -0.13819,0 -0.24959,-0.111403 -0.24959,-0.249598 0,-0.136785 0.11134,-0.248188 0.24959,-0.248188 l 3.48733,0 c 0.13819,0 0.24959,0.111403 0.24959,0.248188 0,0.138195 -0.11134,0.249598 -0.24959,0.249598 z m -5.97766,0 -3.48874,0 c -0.13678,0 -0.24818,-0.111403 -0.24818,-0.249598 0,-0.136785 0.11134,-0.248188 0.24818,-0.248188 l 3.48874,0 c 0.13678,0 0.24818,0.111403 0.24818,0.248188 0,0.138195 -0.11134,0.249598 -0.24818,0.249598 z m -5.97908,0 -3.48732,0 c -0.13819,0 -0.2496,-0.111403 -0.2496,-0.249598 0,-0.136785 0.11135,-0.248188 0.2496,-0.248188 l 3.48732,0 c 0.13679,0 0.24819,0.111403 0.24819,0.248188 0,0.138195 -0.11134,0.249598 -0.24819,0.249598 z m -5.97907,0 -3.48732,0 c -0.13819,0 -0.2496,-0.111403 -0.2496,-0.249598 0,-0.136785 0.11135,-0.248188 0.2496,-0.248188 l 3.48732,0 c 0.1382,0 0.2496,0.111403 0.2496,0.248188 0,0.138195 -0.11134,0.249598 -0.2496,0.249598 z m -5.97907,0 -3.48732,0 c -0.13678,0 -0.24819,-0.111403 -0.24819,-0.249598 0,-0.136785 0.11135,-0.248188 0.24819,-0.248188 l 3.48732,0 c 0.1382,0 0.2496,0.111403 0.2496,0.248188 0,0.138195 -0.11135,0.249598 -0.2496,0.249598 z m -5.97766,0 -3.48732,0 c -0.1382,0 -0.2496,-0.111403 -0.2496,-0.249598 0,-0.136785 0.11135,-0.248188 0.2496,-0.248188 l 3.48732,0 c 0.13679,0 0.24819,0.111403 0.24819,0.248188 0,0.138195 -0.11135,0.249598 -0.24819,0.249598 z m -5.97907,0 -1.38336,0 -0.74175,1.623092 -0.32997,0.122684 -0.12269,-0.329977 0.80802,-1.768339 0.22704,-0.145246 1.54271,0 c 0.1382,0 0.2496,0.111403 0.2496,0.248188 0,0.138195 -0.11135,0.249598 -0.2496,0.249598 z m -3.16016,3.887806 -1.44965,3.172856 -0.32997,0.122684 -0.12269,-0.329977 1.44965,-3.171446 0.32997,-0.124094 0.12269,0.329977 z m -2.4847,5.43757 -1.44965,3.172856 -0.32997,0.122684 -0.1241,-0.329976 1.44965,-3.171447 0.32997,-0.124094 0.1241,0.329977 z m -2.48611,5.438981 -1.44964,3.171446 -0.32998,0.122683 -0.12269,-0.329976 1.44965,-3.171446 0.32997,-0.124095 0.12269,0.331388 z m -2.4847,5.437569 -1.44964,3.171447 -0.32998,0.122684 -0.12268,-0.329977 1.44964,-3.171446 0.32998,-0.124094 0.12268,0.331386 z m -2.4847,5.437572 -1.44964,3.171445 -0.33139,0.122683 -0.12268,-0.329976 1.44964,-3.171447 0.32998,-0.122682 0.12409,0.329977 z m -2.48611,5.437569 -0.29613,0.650084 -0.19178,0.142426 -2.74699,0.384973 c -0.13538,0.01974 -0.26229,-0.07615 -0.28062,-0.211524 -0.0197,-0.136785 0.0747,-0.262289 0.21152,-0.282031 l 2.61161,-0.365231 0.23973,-0.525989 0.32998,-0.122684 0.12268,0.329977 z m -5.70127,1.524382 -3.45348,0.483684 c -0.13678,0.01974 -0.26229,-0.07474 -0.28203,-0.211523 -0.0184,-0.136786 0.0761,-0.26229 0.21294,-0.282032 l 3.45347,-0.483684 c 0.13538,-0.01974 0.26229,0.07615 0.28063,0.211523 0.0197,0.136786 -0.0761,0.262289 -0.21153,0.282032 z m -5.92125,0.830583 -3.45347,0.483685 c -0.1368,0.01974 -0.2623,-0.07474 -0.28062,-0.211524 -0.0197,-0.136786 0.0747,-0.26229 0.21152,-0.282032 l 3.45348,-0.483684 c 0.13677,-0.01974 0.26228,0.07615 0.28203,0.211524 0.0184,0.136784 -0.0761,0.262289 -0.21293,0.282031 z m -5.91985,0.830582 -3.45488,0.483686 c -0.13538,0.01974 -0.26088,-0.07474 -0.28063,-0.211524 -0.0197,-0.136785 0.0761,-0.262289 0.21153,-0.282032 l 3.45489,-0.483684 c 0.13537,-0.01974 0.26087,0.07615 0.28062,0.211524 0.0197,0.136785 -0.0761,0.262289 -0.21153,0.28203 z m -5.92125,0.830585 -3.45348,0.483684 c -0.13678,0.01974 -0.26229,-0.07474 -0.28203,-0.211524 -0.0184,-0.136785 0.0762,-0.262289 0.21293,-0.282031 l 3.45348,-0.483685 c 0.13679,-0.01974 0.26229,0.07615 0.28062,0.211524 0.0197,0.136785 -0.0747,0.262288 -0.21151,0.282032 z m -5.92126,0.830583 -3.45347,0.483683 c -0.13538,0.01974 -0.26229,-0.07474 -0.28063,-0.211523 -0.0197,-0.136785 0.0762,-0.262289 0.21153,-0.282031 l 3.45348,-0.483685 c 0.13678,-0.01974 0.26229,0.07615 0.28203,0.211524 0.0183,0.136784 -0.0762,0.26229 -0.21294,0.282032 z m -5.91984,0.830582 -3.45348,0.483685 c -0.13678,0.01974 -0.26229,-0.07474 -0.28203,-0.211523 -0.0184,-0.136786 0.0761,-0.26229 0.21293,-0.280622 l 3.45348,-0.485094 c 0.13538,-0.01974 0.26229,0.07615 0.28063,0.211522 0.0198,0.136787 -0.0748,0.26229 -0.21152,0.282032 z m -5.92126,0.830584 -3.45347,0.483685 c -0.13538,0.01974 -0.26229,-0.07474 -0.28062,-0.211524 -0.0198,-0.136785 0.0747,-0.26229 0.21152,-0.282032 l 3.45348,-0.483684 c 0.13678,-0.01974 0.26229,0.07615 0.28203,0.211524 0.0183,0.136784 -0.0761,0.262288 -0.21294,0.282031 z m -5.91983,0.830582 -3.45349,0.483685 c -0.13677,0.01974 -0.26229,-0.07474 -0.28203,-0.211523 -0.0183,-0.136785 0.0762,-0.262289 0.21294,-0.280621 l 3.45348,-0.485095 c 0.13538,-0.01974 0.26228,0.07615 0.28063,0.211524 0.0197,0.136784 -0.0762,0.262289 -0.21153,0.28203 z m -5.92126,0.830584 -3.45348,0.483685 c -0.13679,0.01974 -0.26229,-0.07474 -0.28062,-0.211524 -0.0197,-0.136785 0.0747,-0.262289 0.21152,-0.280621 l 3.45348,-0.485095 c 0.13678,-0.01974 0.26229,0.07615 0.28203,0.211523 0.0184,0.136786 -0.0762,0.262289 -0.21293,0.282032 z m -5.91985,0.830584 -3.45489,0.483684 c -0.13537,0.01974 -0.26086,-0.07474 -0.28061,-0.211523 -0.0197,-0.136786 0.0762,-0.26229 0.21152,-0.280622 l 3.45488,-0.485094 c 0.13538,-0.01974 0.26088,0.07615 0.28063,0.211523 0.0197,0.136785 -0.0762,0.262289 -0.21153,0.282032 z m -5.92124,0.830582 -3.45349,0.483684 c -0.13679,0.01974 -0.26229,-0.07474 -0.28203,-0.211523 -0.0183,-0.136785 0.0762,-0.262289 0.21293,-0.280621 l 3.45349,-0.485094 c 0.13677,-0.01974 0.26228,0.07615 0.28062,0.211522 0.0197,0.136786 -0.0747,0.262291 -0.21152,0.282032 z m -5.92127,0.830584 -3.45347,0.483685 c -0.13538,0.01974 -0.26229,-0.07474 -0.28063,-0.211524 -0.0197,-0.136785 0.0762,-0.26229 0.21153,-0.280622 l 3.45348,-0.485094 c 0.13678,-0.01974 0.26228,0.07615 0.28203,0.211524 0.0184,0.136785 -0.0761,0.262288 -0.21294,0.282031 z m -5.91984,0.830584 -3.45348,0.485093 c -0.13678,0.01833 -0.26229,-0.07615 -0.28203,-0.212934 -0.0183,-0.135375 0.0761,-0.262288 0.21294,-0.280621 l 3.45347,-0.485095 c 0.13539,-0.01974 0.26229,0.07615 0.28062,0.211524 0.0197,0.136785 -0.0747,0.262289 -0.21151,0.282031 z m -5.92126,0.830582 -3.45347,0.485095 c -0.13538,0.01833 -0.26229,-0.07615 -0.28063,-0.212934 -0.0197,-0.135375 0.0747,-0.262289 0.21153,-0.280622 l 3.45348,-0.485095 c 0.13678,-0.01974 0.26229,0.07615 0.28203,0.211524 0.0184,0.136785 -0.0762,0.262289 -0.21294,0.282032 z m -5.69843,1.090053 -2.88097,1.96576 -0.34549,-0.06628 0.0649,-0.34549 2.88095,-1.965759 0.34549,0.06487 -0.0649,0.346898 z m -4.93839,3.368868 -2.88095,1.965761 -0.3469,-0.06487 0.0663,-0.346898 2.88096,-1.965761 0.34548,0.06628 -0.0649,0.345489 z m -4.93837,3.370278 -2.88096,1.965761 -0.3469,-0.06628 0.0663,-0.345489 2.88094,-1.96576 0.3455,0.06487 -0.0649,0.346897 z m -4.93838,3.368868 -2.88095,1.965761 -0.3469,-0.06487 0.0663,-0.346899 2.87955,-1.965761 0.3469,0.06628 -0.0649,0.345488 z m -4.93978,3.370279 -1.22261,0.834813 -0.14102,0.04231 -2.00665,0 c -0.13679,0 -0.24819,-0.111402 -0.24819,-0.248187 0,-0.138196 0.11135,-0.249599 0.24819,-0.249599 l 1.93051,0 1.15915,-0.791097 0.3469,0.06487 -0.0663,0.346898 z m -5.86062,0.877118 -3.48732,0 c -0.1382,0 -0.2496,-0.111402 -0.2496,-0.248188 0,-0.138195 0.11135,-0.249599 0.2496,-0.249599 l 3.48732,0 c 0.13679,0 0.24819,0.111403 0.24819,0.249599 0,0.136786 -0.11135,0.248188 -0.24819,0.248188 z m -5.97907,0 -3.48732,0 c -0.1382,0 -0.2496,-0.111402 -0.2496,-0.248188 0,-0.138195 0.11135,-0.249599 0.2496,-0.249599 l 3.48732,0 c 0.13819,0 0.2496,0.111403 0.2496,0.249599 0,0.136786 -0.11135,0.248188 -0.2496,0.248188 z m -5.97905,0 -2.76814,0 c -0.1382,0 -0.2496,-0.111402 -0.2496,-0.248188 0,-0.138195 0.11135,-0.249599 0.2496,-0.249599 l 2.76814,0 c 0.1382,0 0.2496,0.111403 0.2496,0.249599 0,0.136786 -0.11135,0.248188 -0.2496,0.248188"
     style="fill:#231f20;fill-opacity:1;fill-rule:nonzero;stroke:none"
     id="path194" /><path
     inkscape:connector-curvature="0"
     d="m 332.56747,0.830583 3.48732,0 c 0.1382,0 0.2496,0.111403 0.2496,0.248188 0,0.138195 -0.11135,0.249598 -0.2496,0.249598 l -3.48732,0 c -0.13679,0 -0.24819,-0.111403 -0.24819,-0.249598 0,-0.136785 0.11135,-0.248188 0.24819,-0.248188 z m 5.97907,0 3.48732,0 c 0.1382,0 0.2496,0.111403 0.2496,0.248188 0,0.138195 -0.11135,0.249598 -0.2496,0.249598 l -3.48732,0 c -0.13818,0 -0.2496,-0.111403 -0.2496,-0.249598 0,-0.136785 0.11135,-0.248188 0.2496,-0.248188 z m 5.97907,0 3.48732,0 c 0.13679,0 0.24819,0.111403 0.24819,0.248188 0,0.138195 -0.11135,0.249598 -0.24819,0.249598 l -3.48732,0 c -0.13818,0 -0.2496,-0.111403 -0.2496,-0.249598 0,-0.136785 0.11135,-0.248188 0.2496,-0.248188 z m 5.97766,0 3.48732,0 c 0.1382,0 0.2496,0.111403 0.2496,0.248188 0,0.138195 -0.11135,0.249598 -0.2496,0.249598 l -3.48732,0 c -0.13678,0 -0.24819,-0.111403 -0.24819,-0.249598 0,-0.136785 0.11135,-0.248188 0.24819,-0.248188 z m 5.97908,0 3.48733,0 c 0.13818,0 0.24958,0.111403 0.24958,0.248188 0,0.138195 -0.11134,0.249598 -0.24958,0.249598 l -3.48733,0 c -0.13819,0 -0.24959,-0.111403 -0.24959,-0.249598 0,-0.136785 0.11134,-0.248188 0.24959,-0.248188 z m 5.97907,0 3.48732,0 c 0.13678,0 0.2496,0.111403 0.2496,0.248188 0,0.138195 -0.11282,0.249598 -0.2496,0.249598 l -3.48732,0 c -0.13819,0 -0.2496,-0.111403 -0.2496,-0.249598 0,-0.136785 0.11134,-0.248188 0.2496,-0.248188 z m 5.97767,0 3.48873,0 c 0.13678,0 0.24819,0.111403 0.24819,0.248188 0,0.138195 -0.11135,0.249598 -0.24819,0.249598 l -3.48873,0 c -0.13679,0 -0.24819,-0.111403 -0.24819,-0.249598 0,-0.136785 0.11134,-0.248188 0.24819,-0.248188 z m 5.97907,0 3.48732,0 c 0.13819,0 0.2496,0.111403 0.2496,0.248188 0,0.138195 -0.11135,0.249598 -0.2496,0.249598 l -3.48732,0 c -0.1382,0 -0.2496,-0.111403 -0.2496,-0.249598 0,-0.136785 0.11134,-0.248188 0.2496,-0.248188 z m 5.97907,0 3.48732,0 c 0.13677,0 0.2496,0.111403 0.2496,0.248188 0,0.138195 -0.11283,0.249598 -0.2496,0.249598 l -3.48732,0 c -0.1382,0 -0.2496,-0.111403 -0.2496,-0.249598 0,-0.136785 0.11135,-0.248188 0.2496,-0.248188 z m 5.97766,0 1.55117,0 0.22563,0.145246 0.8052,1.761288 -0.12269,0.331387 -0.32997,-0.124094 -0.73893,-1.616041 -1.39041,0 c -0.13679,0 -0.24819,-0.111403 -0.24819,-0.249598 0,-0.136785 0.11135,-0.248188 0.24819,-0.248188 z m 3.61846,4.172658 1.44965,3.172856 -0.1241,0.329977 -0.32997,-0.124094 -1.44965,-3.171445 0.1241,-0.329977 0.32997,0.122683 z m 2.4847,5.437571 1.44965,3.172855 -0.12269,0.329977 -0.32997,-0.124094 -1.44965,-3.171445 0.12269,-0.329977 0.32997,0.122684 z m 2.48469,5.437569 1.44965,3.172856 -0.12268,0.329977 -0.32998,-0.122684 -1.44965,-3.172856 0.12268,-0.329977 0.32998,0.122684 z m 2.4847,5.43757 1.44964,3.172856 -0.12267,0.329977 -0.32999,-0.122683 -1.44964,-3.172856 0.12268,-0.329977 0.32998,0.122683 z m 2.48611,5.437571 1.44965,3.172856 -0.12268,0.329977 -0.33139,-0.122684 -1.44964,-3.172856 0.12408,-0.329977 0.32998,0.122684 z m 2.4847,5.438981 0.24254,0.531629 2.60457,0.365232 c 0.13678,0.01833 0.23126,0.145245 0.21293,0.280621 -0.0197,0.136786 -0.14525,0.231266 -0.28203,0.212934 l -2.73994,-0.384973 -0.19178,-0.142426 -0.29895,-0.657134 0.12268,-0.329977 0.32998,0.124094 z m 5.31488,1.242348 3.45348,0.485095 c 0.13538,0.01833 0.23127,0.145246 0.21153,0.280622 -0.0184,0.136785 -0.14525,0.231265 -0.28063,0.212933 l -3.45347,-0.485094 c -0.13678,-0.01974 -0.23127,-0.145245 -0.21293,-0.280621 0.0197,-0.136786 0.14524,-0.231267 0.28204,-0.212935 z m 5.91985,0.830584 3.45348,0.485094 c 0.13678,0.01833 0.23126,0.145246 0.21293,0.280622 -0.0197,0.136785 -0.14525,0.231265 -0.28203,0.212933 l -3.45348,-0.485093 c -0.13537,-0.01974 -0.23127,-0.145247 -0.21152,-0.280622 0.0184,-0.136785 0.14524,-0.231265 0.28062,-0.212934 z m 5.92125,0.830583 3.45348,0.485094 c 0.13679,0.01833 0.23127,0.145247 0.21152,0.280622 -0.0183,0.136785 -0.14524,0.231266 -0.28062,0.212935 l -3.45347,-0.485096 c -0.13679,-0.01833 -0.23127,-0.145246 -0.21294,-0.280621 0.0197,-0.136786 0.14525,-0.231266 0.28204,-0.212934 z m 5.91985,0.830583 3.45488,0.485094 c 0.13538,0.01833 0.22986,0.145247 0.21153,0.280622 -0.0197,0.136785 -0.14525,0.231266 -0.28203,0.212934 l -3.45348,-0.485095 c -0.13538,-0.01833 -0.23127,-0.145246 -0.21152,-0.28062 0.0184,-0.136787 0.14524,-0.231267 0.28062,-0.212935 z m 5.92125,0.830583 3.45348,0.485095 c 0.13678,0.01833 0.23127,0.145246 0.21152,0.280621 -0.0184,0.136785 -0.14383,0.231266 -0.28062,0.212934 l -3.45348,-0.485094 c -0.13678,-0.01833 -0.23126,-0.145247 -0.21293,-0.280622 0.0197,-0.136784 0.14525,-0.231265 0.28203,-0.212934 z m 5.92126,0.830583 3.45347,0.485095 c 0.13538,0.01833 0.23127,0.145246 0.21153,0.280621 -0.0197,0.136786 -0.14525,0.231266 -0.28062,0.212934 l -3.45489,-0.485094 c -0.13538,-0.01833 -0.23127,-0.145247 -0.21153,-0.280622 0.0198,-0.136785 0.14525,-0.231266 0.28204,-0.212934 z m 5.91984,0.830584 3.45348,0.485094 c 0.13678,0.01833 0.23126,0.145246 0.21293,0.280621 -0.0197,0.136786 -0.14524,0.231267 -0.28203,0.212934 l -3.45348,-0.485094 c -0.13678,-0.01833 -0.23126,-0.145246 -0.21152,-0.280621 0.0184,-0.136786 0.14384,-0.231266 0.28062,-0.212934 z m 5.92126,0.830583 3.45347,0.485094 c 0.13538,0.01833 0.23127,0.145247 0.21153,0.280622 -0.0184,0.136785 -0.14525,0.231266 -0.28063,0.212934 l -3.45347,-0.485095 c -0.13679,-0.01833 -0.23127,-0.145246 -0.21294,-0.280621 0.0197,-0.136784 0.14525,-0.231265 0.28204,-0.212934 z m 5.91984,0.830583 3.45348,0.485094 c 0.13678,0.01833 0.23126,0.145247 0.21293,0.280622 -0.0197,0.136785 -0.14525,0.231266 -0.28203,0.212934 l -3.45348,-0.485095 c -0.13678,-0.01833 -0.23126,-0.145246 -0.21152,-0.280621 0.0183,-0.136785 0.14524,-0.231266 0.28062,-0.212934 z m 5.92125,0.830583 3.45348,0.485095 c 0.13679,0.01833 0.23127,0.145246 0.21153,0.280621 -0.0184,0.136785 -0.14525,0.231266 -0.28063,0.212934 l -3.45347,-0.485093 c -0.13679,-0.01833 -0.23127,-0.145248 -0.21294,-0.280623 0.0197,-0.136784 0.14525,-0.231266 0.28203,-0.212934 z m 5.91985,0.830584 3.45348,0.485094 c 0.13678,0.01974 0.23126,0.145246 0.21293,0.280621 -0.0197,0.136786 -0.14525,0.231266 -0.28203,0.212934 l -3.45348,-0.485094 c -0.13537,-0.01833 -0.23127,-0.145246 -0.21152,-0.280622 0.0184,-0.136785 0.14524,-0.231266 0.28062,-0.212933 z m 5.92125,0.830583 3.45348,0.485094 c 0.13679,0.01833 0.23127,0.145246 0.21152,0.280622 -0.0184,0.136785 -0.14383,0.231266 -0.28062,0.212934 l -3.45348,-0.485095 c -0.13678,-0.01833 -0.23126,-0.145245 -0.21293,-0.280621 0.0197,-0.136786 0.14525,-0.231266 0.28203,-0.212934 z m 5.91985,0.830583 3.45488,0.485094 c 0.13538,0.01974 0.23127,0.145247 0.21153,0.280622 -0.0197,0.136785 -0.14525,0.231266 -0.28062,0.212934 l -3.45489,-0.485094 c -0.13538,-0.01833 -0.23127,-0.145247 -0.21152,-0.280622 0.0197,-0.136784 0.14524,-0.231265 0.28062,-0.212934 z m 5.92125,0.830583 3.45348,0.485095 c 0.13678,0.01974 0.23127,0.145246 0.21293,0.280621 -0.0197,0.136785 -0.14524,0.231266 -0.28203,0.212935 l -3.45348,-0.485096 c -0.13678,-0.01833 -0.23126,-0.145246 -0.21152,-0.280621 0.0184,-0.136785 0.14384,-0.231266 0.28062,-0.212934 z m 5.91138,1.169021 2.88096,1.965761 0.0649,0.346899 -0.34549,0.06487 -2.88096,-1.96576 -0.0649,-0.345489 0.34548,-0.06628 z m 4.93838,3.370278 2.88095,1.965761 0.0662,0.345489 -0.3469,0.06487 -2.88095,-1.964349 -0.0649,-0.346899 0.34549,-0.06487 z m 4.93978,3.368869 2.88096,1.96576 0.0649,0.345489 -0.34689,0.06628 -2.88096,-1.965761 -0.0649,-0.345489 0.3469,-0.06628 z m 4.93838,3.370278 2.88095,1.96435 0.0649,0.346899 -0.34549,0.06487 -2.88095,-1.96576 -0.0662,-0.345489 0.34689,-0.06487 z m 4.93837,3.368868 1.1662,0.795329 1.92205,0 c 0.13819,0 0.2496,0.111403 0.2496,0.249599 0,0.136784 -0.11135,0.248187 -0.2496,0.248187 l -1.99961,0 -0.1396,-0.0423 -1.22966,-0.839045 -0.0663,-0.346899 0.3469,-0.06487 z m 5.57859,0.795329 3.48873,0 c 0.13678,0 0.24819,0.111403 0.24819,0.249599 0,0.136784 -0.11135,0.248187 -0.24819,0.248187 l -3.48873,0 c -0.13679,0 -0.24819,-0.111403 -0.24819,-0.248187 0,-0.138196 0.11135,-0.249599 0.24819,-0.249599 z m 5.97907,0 3.48732,0 c 0.1382,0 0.2496,0.111403 0.2496,0.249599 0,0.136784 -0.11135,0.248187 -0.2496,0.248187 l -3.48732,0 c -0.13679,0 -0.24819,-0.111403 -0.24819,-0.248187 0,-0.138196 0.11135,-0.249599 0.24819,-0.249599 z m 5.97907,0 2.77519,0 c 0.1382,0 0.2496,0.111403 0.2496,0.249599 0,0.136784 -0.11135,0.248187 -0.2496,0.248187 l -2.77519,0 c -0.1382,0 -0.2496,-0.111403 -0.2496,-0.248187 0,-0.138196 0.11135,-0.249599 0.2496,-0.249599"
     style="fill:#231f20;fill-opacity:1;fill-rule:nonzero;stroke:none"
     id="path196" /><path
     inkscape:connector-curvature="0"
     d="m 460.06975,1.328369 -3.48732,0 c -0.13678,0 -0.24819,-0.111403 -0.24819,-0.249598 0,-0.136785 0.11134,-0.248188 0.24819,-0.248188 l 3.48732,0 c 0.13819,0 0.2496,0.111403 0.2496,0.248188 0,0.138195 -0.11135,0.249598 -0.2496,0.249598 z m -5.97766,0 -3.48732,0 c -0.13819,0 -0.2496,-0.111403 -0.2496,-0.249598 0,-0.136785 0.11134,-0.248188 0.2496,-0.248188 l 3.48732,0 c 0.13678,0 0.24818,0.111403 0.24818,0.248188 0,0.138195 -0.11134,0.249598 -0.24818,0.249598 z m -5.97907,0 -3.48733,0 c -0.13818,0 -0.24959,-0.111403 -0.24959,-0.249598 0,-0.136785 0.11134,-0.248188 0.24959,-0.248188 l 3.48733,0 c 0.13819,0 0.24959,0.111403 0.24959,0.248188 0,0.138195 -0.11134,0.249598 -0.24959,0.249598 z m -5.97908,0 -3.48732,0 c -0.13677,0 -0.24818,-0.111403 -0.24818,-0.249598 0,-0.136785 0.11134,-0.248188 0.24818,-0.248188 l 3.48732,0 c 0.1382,0 0.2496,0.111403 0.2496,0.248188 0,0.138195 -0.11134,0.249598 -0.2496,0.249598 z m -5.97766,0 -3.48873,0 c -0.13678,0 -0.24819,-0.111403 -0.24819,-0.249598 0,-0.136785 0.11146,-0.248188 0.24819,-0.248188 l 3.48873,0 c 0.13679,0 0.24819,0.111403 0.24819,0.248188 0,0.138195 -0.11134,0.249598 -0.24819,0.249598 z m -5.97907,0 -3.48732,0 c -0.13819,0 -0.2496,-0.111403 -0.2496,-0.249598 0,-0.136785 0.11135,-0.248188 0.2496,-0.248188 l 3.48732,0 c 0.1382,0 0.2496,0.111403 0.2496,0.248188 0,0.138195 -0.11135,0.249598 -0.2496,0.249598 z m -5.97907,0 -3.48732,0 c -0.13678,0 -0.2496,-0.111403 -0.2496,-0.249598 0,-0.136785 0.11282,-0.248188 0.2496,-0.248188 l 3.48732,0 c 0.1382,0 0.2496,0.111403 0.2496,0.248188 0,0.138195 -0.11135,0.249598 -0.2496,0.249598 z m -5.97766,0 -3.48873,0 c -0.13679,0 -0.24819,-0.111403 -0.24819,-0.249598 0,-0.136785 0.11135,-0.248188 0.24819,-0.248188 l 3.48873,0 c 0.13679,0 0.24819,0.111403 0.24819,0.248188 0,0.138195 -0.11135,0.249598 -0.24819,0.249598 z m -5.97907,0 -3.48732,0 c -0.1382,0 -0.2496,-0.111403 -0.2496,-0.249598 0,-0.136785 0.11135,-0.248188 0.2496,-0.248188 l 3.48732,0 c 0.13679,0 0.2496,0.111403 0.2496,0.248188 0,0.138195 -0.11281,0.249598 -0.2496,0.249598 z m -5.97907,0 -1.39042,0 -0.73751,1.616041 -0.33139,0.124094 -0.12268,-0.331387 0.8052,-1.761288 0.22704,-0.145246 1.54976,0 c 0.13819,0 0.2496,0.111403 0.2496,0.248188 0,0.138195 -0.11135,0.249598 -0.2496,0.249598 z m -3.1644,3.882166 -1.44964,3.171445 -0.32998,0.124094 -0.12268,-0.329977 1.44964,-3.172856 0.32998,-0.122683 0.12268,0.329977 z m -2.48469,5.43757 -1.44965,3.171445 -0.32997,0.124095 -0.12269,-0.329977 1.44964,-3.172856 0.32998,-0.122684 0.12269,0.329977 z m -2.4847,5.437569 -1.44965,3.172856 -0.32997,0.122684 -0.1241,-0.329977 1.44965,-3.172856 0.33138,-0.122684 0.12269,0.329977 z m -2.48611,5.437571 -1.44965,3.172856 -0.32997,0.122683 -0.12269,-0.329977 1.44965,-3.172856 0.32997,-0.122683 0.12269,0.329977 z m -2.4847,5.43757 -1.44964,3.172856 -0.32998,0.122684 -0.12269,-0.329977 1.44965,-3.172856 0.32997,-0.122684 0.12269,0.329977 z m -2.4847,5.43757 -0.30035,0.657134 -0.19178,0.142426 -2.73853,0.384974 c -0.13679,0.01833 -0.26229,-0.07615 -0.28204,-0.212935 -0.0197,-0.135375 0.0761,-0.262288 0.21152,-0.280621 l 2.60456,-0.365231 0.24396,-0.53163 0.32998,-0.124094 0.12268,0.329977 z m -5.69845,1.530022 -3.45348,0.485094 c -0.13678,0.01833 -0.26229,-0.07615 -0.28203,-0.212934 -0.0184,-0.135375 0.0762,-0.262289 0.21293,-0.280621 l 3.45348,-0.485095 c 0.13679,-0.01833 0.26229,0.07615 0.28062,0.212934 0.0197,0.135375 -0.0747,0.260879 -0.21152,0.280622 z m -5.91984,0.830583 -3.45489,0.485094 c -0.13538,0.01833 -0.26229,-0.07615 -0.28062,-0.212933 -0.0197,-0.135376 0.0761,-0.26229 0.21152,-0.280622 l 3.45348,-0.485094 c 0.13678,-0.01833 0.26229,0.07615 0.28203,0.212934 0.0184,0.135375 -0.0761,0.260879 -0.21152,0.280621 z m -5.92125,0.830583 -3.45347,0.485095 c -0.13679,0.01833 -0.26229,-0.07615 -0.28205,-0.212934 -0.0184,-0.135375 0.0761,-0.26229 0.21294,-0.280622 l 3.45347,-0.485094 c 0.13538,-0.01833 0.26229,0.07615 0.28063,0.212934 0.0197,0.135375 -0.0748,0.260879 -0.21153,0.280621 z m -5.92125,0.830583 -3.45348,0.485095 c -0.13537,0.01833 -0.26229,-0.07615 -0.28062,-0.212934 -0.0197,-0.135375 0.0761,-0.26229 0.21152,-0.280622 l 3.45348,-0.485094 c 0.13679,-0.01833 0.26229,0.07615 0.28203,0.212934 0.0184,0.135375 -0.0761,0.262289 -0.21293,0.280621 z m -5.91985,0.830584 -3.45347,0.485094 c -0.13679,0.01833 -0.26229,-0.07615 -0.28204,-0.212934 -0.0184,-0.135375 0.0762,-0.262289 0.21293,-0.280621 l 3.45347,-0.485095 c 0.13538,-0.01833 0.26231,0.07615 0.28063,0.212934 0.0197,0.135375 -0.0762,0.26229 -0.21153,0.280622 z m -5.92125,0.830583 -3.45348,0.485094 c -0.13678,0.01833 -0.26229,-0.07615 -0.28062,-0.212934 -0.0197,-0.135375 0.0748,-0.262289 0.21152,-0.280621 l 3.45348,-0.485095 c 0.13679,-0.01833 0.26229,0.07615 0.28203,0.212934 0.0183,0.135375 -0.0761,0.26229 -0.21293,0.280622 z m -5.91985,0.830583 -3.45347,0.485094 c -0.13679,0.01833 -0.26229,-0.07615 -0.28203,-0.212934 -0.0197,-0.135375 0.0761,-0.262289 0.21152,-0.280621 l 3.45489,-0.485094 c 0.13537,-0.01833 0.26229,0.07615 0.28062,0.212933 0.0197,0.135376 -0.0762,0.26229 -0.21153,0.280622 z m -5.92125,0.830583 -3.45348,0.485095 c -0.13678,0.01833 -0.26229,-0.07615 -0.28203,-0.212934 -0.0184,-0.135375 0.0761,-0.26229 0.21294,-0.280622 l 3.45347,-0.485094 c 0.13679,-0.01833 0.26229,0.07615 0.28203,0.212934 0.0184,0.135375 -0.0761,0.262289 -0.21293,0.280621 z m -5.91984,0.830583 -3.45489,0.485095 c -0.13538,0.01833 -0.26229,-0.07615 -0.28062,-0.212934 -0.0197,-0.135375 0.0761,-0.26229 0.21152,-0.280622 l 3.45348,-0.485094 c 0.13678,-0.01833 0.26229,0.07615 0.28203,0.212934 0.0184,0.135375 -0.0761,0.262289 -0.21152,0.280621 z m -5.92126,0.830584 -3.45348,0.485094 c -0.13678,0.01833 -0.26229,-0.07615 -0.28203,-0.212934 -0.0184,-0.135375 0.0761,-0.262289 0.21294,-0.280621 l 3.45347,-0.485095 c 0.13679,-0.01833 0.26229,0.07615 0.28063,0.212934 0.0197,0.135375 -0.0747,0.26229 -0.21153,0.280622 z m -5.92125,0.830583 -3.45348,0.485094 c -0.13538,0.01833 -0.26229,-0.07615 -0.28062,-0.212934 -0.0197,-0.135375 0.0761,-0.262289 0.21152,-0.280621 l 3.45348,-0.485094 c 0.13678,-0.01833 0.26229,0.07615 0.28203,0.212933 0.0184,0.135376 -0.0761,0.26229 -0.21293,0.280622 z m -5.91985,0.830583 -3.45347,0.485095 c -0.13679,0.01833 -0.26229,-0.07615 -0.28204,-0.212934 -0.0183,-0.135376 0.0761,-0.26229 0.21294,-0.280622 l 3.45348,-0.485094 c 0.13537,-0.01833 0.26228,0.07615 0.28062,0.212934 0.0197,0.135375 -0.0761,0.262289 -0.21153,0.280621 z m -5.92125,0.830583 -3.45348,0.485095 c -0.13537,0.01833 -0.26229,-0.07615 -0.28062,-0.212934 -0.0197,-0.135375 0.0748,-0.26229 0.21152,-0.280622 l 3.45348,-0.485094 c 0.13679,-0.01833 0.26229,0.07615 0.28203,0.212934 0.0184,0.135375 -0.0761,0.262289 -0.21293,0.280621 z m -5.91985,0.830583 -3.45347,0.485095 c -0.13679,0.01833 -0.26229,-0.07615 -0.28204,-0.212934 -0.0197,-0.135375 0.0761,-0.262289 0.21153,-0.280621 l 3.45489,-0.485095 c 0.13537,-0.01833 0.26229,0.07615 0.28062,0.212934 0.0197,0.135375 -0.0762,0.262289 -0.21153,0.280621 z m -5.69986,1.087232 -2.88095,1.965761 -0.3469,-0.06487 0.0663,-0.346899 2.88095,-1.965761 0.34549,0.06487 -0.0649,0.346899 z m -4.93837,3.370279 -2.88095,1.96576 -0.34549,-0.06487 0.0649,-0.346899 2.88095,-1.965761 0.34549,0.06487 -0.0649,0.346899 z m -4.93837,3.370278 -2.88096,1.965761 -0.34549,-0.06487 0.0649,-0.346899 2.88095,-1.96576 0.34549,0.06487 -0.0649,0.346899 z m -4.93838,3.370278 -2.88095,1.965761 -0.34549,-0.06487 0.0649,-0.346898 2.88095,-1.965761 0.3469,0.06487 -0.0663,0.346899 z m -4.93837,3.370278 -1.22402,0.836224 -0.14102,0.0423 -2.00383,0 c -0.1382,0 -0.2496,-0.111403 -0.2496,-0.248188 0,-0.138195 0.11135,-0.249598 0.2496,-0.249598 l 1.92769,0 1.16056,-0.792509 0.34689,0.06487 -0.0663,0.346899 z m -5.86062,0.878529 -3.48732,0 c -0.1382,0 -0.2496,-0.111403 -0.2496,-0.248188 0,-0.138195 0.11135,-0.249598 0.2496,-0.249598 l 3.48732,0 c 0.1382,0 0.2496,0.111403 0.2496,0.249598 0,0.136785 -0.11135,0.248188 -0.2496,0.248188 z m -5.97907,0 -3.48732,0 c -0.13679,0 -0.24819,-0.111403 -0.24819,-0.248188 0,-0.138195 0.11135,-0.249598 0.24819,-0.249598 l 3.48732,0 c 0.13819,0 0.2496,0.111403 0.2496,0.249598 0,0.136785 -0.11135,0.248188 -0.2496,0.248188 z m -5.97766,0 -2.7766,0 c -0.1382,0 -0.2496,-0.111403 -0.2496,-0.248188 0,-0.138195 0.11134,-0.249598 0.2496,-0.249598 l 2.7766,0 c 0.13678,0 0.24819,0.111403 0.24819,0.249598 0,0.136785 -0.11135,0.248188 -0.24819,0.248188"
     style="fill:#231f20;fill-opacity:1;fill-rule:nonzero;stroke:none"
     id="path198" /><path
     inkscape:connector-curvature="0"
     d="m 460.06975,0.830583 3.48874,0 c 0.13677,0 0.24819,0.111403 0.24819,0.248188 0,0.138195 -0.11135,0.249598 -0.24819,0.249598 l -3.48874,0 c -0.13678,0 -0.24819,-0.111403 -0.24819,-0.249598 0,-0.136785 0.11135,-0.248188 0.24819,-0.248188 z m 5.97908,0 3.48731,0 c 0.1382,0 0.24961,0.111403 0.24961,0.248188 0,0.138195 -0.11135,0.249598 -0.24961,0.249598 l -3.48731,0 c -0.1368,0 -0.24961,-0.111403 -0.24961,-0.249598 0,-0.136785 0.11281,-0.248188 0.24961,-0.248188 z m 5.97906,0 3.48732,0 c 0.1382,0 0.2496,0.111403 0.2496,0.248188 0,0.138195 -0.11135,0.249598 -0.2496,0.249598 l -3.48732,0 c -0.13818,0 -0.2496,-0.111403 -0.2496,-0.249598 0,-0.136785 0.11135,-0.248188 0.2496,-0.248188 z m 5.97908,0 3.48731,0 c 0.13679,0 0.2482,0.111403 0.2482,0.248188 0,0.138195 -0.11135,0.249598 -0.2482,0.249598 l -3.48731,0 c -0.13819,0 -0.24961,-0.111403 -0.24961,-0.249598 0,-0.136785 0.11135,-0.248188 0.24961,-0.248188 z m 5.97766,0 3.48732,0 c 0.13819,0 0.2496,0.111403 0.2496,0.248188 0,0.138195 -0.11134,0.249598 -0.2496,0.249598 l -3.48732,0 c -0.13678,0 -0.2496,-0.111403 -0.2496,-0.249598 0,-0.136785 0.11282,-0.248188 0.2496,-0.248188 z m 5.97907,0 3.48731,0 c 0.1382,0 0.24961,0.111403 0.24961,0.248188 0,0.138195 -0.11146,0.249598 -0.24961,0.249598 l -3.48731,0 c -0.13819,0 -0.24961,-0.111403 -0.24961,-0.249598 0,-0.136785 0.11135,-0.248188 0.24961,-0.248188 z m 5.97907,0 3.48733,0 c 0.13677,0 0.24818,0.111403 0.24818,0.248188 0,0.138195 -0.11134,0.249598 -0.24818,0.249598 l -3.48733,0 c -0.13819,0 -0.24959,-0.111403 -0.24959,-0.249598 0,-0.136785 0.11134,-0.248188 0.24959,-0.248188 z m 5.97767,0 3.48732,0 c 0.13819,0 0.24959,0.111403 0.24959,0.248188 0,0.138195 -0.11134,0.249598 -0.24959,0.249598 l -3.48732,0 c -0.13679,0 -0.24819,-0.111403 -0.24819,-0.249598 0,-0.136785 0.11134,-0.248188 0.24819,-0.248188 z m 5.97907,0 3.48732,0 c 0.13818,0 0.2496,0.111403 0.2496,0.248188 0,0.138195 -0.11135,0.249598 -0.2496,0.249598 l -3.48732,0 c -0.1382,0 -0.2496,-0.111403 -0.2496,-0.249598 0,-0.136785 0.11134,-0.248188 0.2496,-0.248188 z m 5.97907,0 1.54271,0 0.22704,0.145246 0.80802,1.768339 -0.1241,0.329977 -0.32997,-0.122684 -0.74175,-1.623092 -1.38195,0 c -0.1382,0 -0.2496,-0.111403 -0.2496,-0.249598 0,-0.136785 0.11135,-0.248188 0.2496,-0.248188 z m 3.61282,4.179709 1.44965,3.171446 -0.12269,0.329977 -0.32998,-0.122684 -1.44964,-3.172856 0.12269,-0.329977 0.32997,0.124094 z m 2.4847,5.43757 1.44964,3.171447 -0.12268,0.329976 -0.32998,-0.122684 -1.44964,-3.171445 0.12267,-0.331388 0.32999,0.124094 z m 2.48611,5.437571 1.44964,3.171445 -0.12409,0.329977 -0.32998,-0.122683 -1.44964,-3.171447 0.12268,-0.329976 0.33139,0.122684 z m 2.4847,5.437569 1.44964,3.171447 -0.12268,0.329976 -0.33139,-0.122684 -1.44964,-3.171446 0.12408,-0.329977 0.32999,0.122684 z m 2.4847,5.43757 1.44963,3.171446 -0.12268,0.329977 -0.32998,-0.122683 -1.44964,-3.171446 0.12268,-0.329976 0.32999,0.122682 z m 2.48469,5.437571 0.29754,0.650083 -0.12268,0.329977 -0.32998,-0.122684 -0.29755,-0.650083 0.12269,-0.329977 0.32998,0.122684"
     style="fill:#231f20;fill-opacity:1;fill-rule:nonzero;stroke:none"
     id="path200" /><path
     inkscape:connector-curvature="0"
     d="m 1.0787711,59.675076 529.6004189,0 c 0.13679,0 0.24819,0.111403 0.24819,0.249599 0,0.136784 -0.11135,0.248187 -0.24819,0.248187 l -529.6004189,0 c -0.1381955,0 -0.249598,-0.111403 -0.249598,-0.248187 0,-0.138196 0.1114025,-0.249599 0.249598,-0.249599"
     style="fill:#231f20;fill-opacity:1;fill-rule:nonzero;stroke:none"
     id="path202" /><path
     inkscape:connector-curvature="0"
     d="m 140.69288,221.74174 208.55112,0 0,-14.71077 -208.55112,0 0,14.71077 z"
     style="fill:#b1d4f0;fill-opacity:1;fill-rule:nonzero;stroke:none"
     id="path204" /><path
     inkscape:connector-curvature="0"
     d="m 140.69288,221.74174 0,-0.2496 208.30152,0 0,-14.21298 -208.05193,0 0,14.46258 -0.24959,0 0,-0.2496 0,0.2496 -0.2496,0 0,-14.96037 209.05032,0 0,15.20997 -209.05032,0 0,-0.2496 0.2496,0"
     style="fill:#010202;fill-opacity:1;fill-rule:nonzero;stroke:none"
     id="path206" /><text
     sodipodi:linespacing="100%"
     y="218.61684"
     x="245.54102"
     style="font-style:normal;font-variant:normal;font-weight:normal;font-stretch:normal;font-size:15px;line-height:100%;font-family:'Latin Modern Roman';-inkscape-font-specification:'Latin Modern Roman, Normal';text-align:center;writing-mode:lr-tb;text-anchor:middle;fill:#231f20;fill-opacity:1;fill-rule:nonzero;stroke:none"
     id="text208"><tspan
       id="tspan210"
       style="font-style:normal;font-variant:normal;font-weight:normal;font-stretch:normal;font-size:15px;line-height:100%;font-family:'Latin Modern Roman';-inkscape-font-specification:'Latin Modern Roman, Normal';text-align:center;writing-mode:lr-tb;text-anchor:middle">Australia (59.40 GHz – 62.90 GHz)</tspan></text>
<text
     sodipodi:linespacing="125%"
     y="297.78903"
     x="205.7554"
     style="font-style:normal;font-variant:normal;font-weight:normal;font-stretch:normal;font-size:15px;line-height:125%;font-family:'Latin Modern Roman';-inkscape-font-specification:'Latin Modern Roman, Normal';text-align:center;writing-mode:lr-tb;text-anchor:middle;fill:#231f20;fill-opacity:1;fill-rule:nonzero;stroke:none"
     id="text162-5">$F_C$ = 60.48 GHz</text>
<text
     sodipodi:linespacing="125%"
     y="297.78903"
     x="332.86353"
     style="font-style:normal;font-variant:normal;font-weight:normal;font-stretch:normal;font-size:15px;line-height:125%;font-family:'Latin Modern Roman';-inkscape-font-specification:'Latin Modern Roman, Normal';text-align:center;writing-mode:lr-tb;text-anchor:middle;fill:#231f20;fill-opacity:1;fill-rule:nonzero;stroke:none"
     id="text162-3">$F_C$ = 62.64 GHz</text>
<text
     sodipodi:linespacing="125%"
     y="297.78903"
     x="459.96393"
     style="font-style:normal;font-variant:normal;font-weight:normal;font-stretch:normal;font-size:15px;line-height:125%;font-family:'Latin Modern Roman';-inkscape-font-specification:'Latin Modern Roman, Normal';text-align:center;writing-mode:lr-tb;text-anchor:middle;fill:#231f20;fill-opacity:1;fill-rule:nonzero;stroke:none"
     id="text162-2">$F_C$ = 64.80 GHz</text>
</svg>