<?xml version="1.0" encoding="UTF-8" standalone="no"?>
<svg
   xmlns:dc="http://purl.org/dc/elements/1.1/"
   xmlns:cc="http://creativecommons.org/ns#"
   xmlns:rdf="http://www.w3.org/1999/02/22-rdf-syntax-ns#"
   xmlns:svg="http://www.w3.org/2000/svg"
   xmlns="http://www.w3.org/2000/svg"
   viewBox="0 0 476.28156 289.27881"
   height="289.27881"
   width="476.28156"
   xml:space="preserve"
   version="1.1"
   id="svg2"><metadata
     id="metadata8"><rdf:RDF><cc:Work
         rdf:about=""><dc:format>image/svg+xml</dc:format><dc:type
           rdf:resource="http://purl.org/dc/dcmitype/StillImage" /><dc:title></dc:title></cc:Work></rdf:RDF></metadata><defs
     id="defs6"><clipPath
       id="clipPath50"
       clipPathUnits="userSpaceOnUse"><path
         id="path52"
         d="m 187.383,550.001 255.294,0 0,42.956 -255.294,0 0,-42.956" /></clipPath><clipPath
       id="clipPath50-3"
       clipPathUnits="userSpaceOnUse"><path
         id="path52-6"
         d="m 187.383,550.001 255.294,0 0,42.956 -255.294,0 0,-42.956" /></clipPath></defs><g
     transform="matrix(1.25,0,0,-1.25,-423.93812,571.81954)"
     id="g10"><g
       id="g46"
       transform="translate(171.39414,-135.65337)"><g
         clip-path="url(#clipPath50-3)"
         id="g48"><path
           id="path54"
           style="fill:#ffddb5;fill-opacity:1;fill-rule:nonzero;stroke:none"
           d="m 441.088,550.859 -252.115,0 14.582,9.953 62.057,8.706 10.32,22.58 78.027,0 10.491,-22.581 62.056,-8.705 14.582,-9.953" /><path
           id="path56"
           style="fill:#989695;fill-opacity:1;fill-rule:nonzero;stroke:none"
           d="m 442.677,550.369 -255.294,0 0.657,0.448 0.138,-0.203 -0.138,0.203 15.333,10.465 61.905,8.684 10.339,22.623 78.655,0 10.511,-22.623 61.905,-8.684 15.989,-10.913 0,0 m -253.704,0.49 252.115,0 -14.582,9.953 -62.056,8.705 -10.491,22.581 -78.027,0 -10.32,-22.58 -62.057,-8.706 -14.582,-9.953" /></g></g><path
       id="path58"
       style="fill:#231f20;fill-opacity:1;fill-rule:nonzero;stroke:none"
       d="m 359.57215,414.96063 -0.1,0.146 15.286,10.433 0.075,0.029 61.885,8.681 10.28999,22.514 0.16,0.103 78.341,0 0.16,-0.102 10.461,-22.515 61.886,-8.681 0.075,-0.029 15.285,-10.433 0.069,-0.198 -0.168,-0.124 -253.70499,0 -0.169,0.124 0.069,0.198 0.1,-0.146 0,0.177 253.13199,0 -14.778,10.086 -61.94,8.69 -0.136,0.1 -10.453,22.5 -78.115,0 -10.28199,-22.499 -0.137,-0.101 -61.94,-8.69 -15.251,-10.409 -0.1,0.146 0,0.177 0,-0.177" /><text
       transform="scale(1,-1)"
       id="text60"
       style="font-style:normal;font-variant:normal;font-weight:normal;font-stretch:normal;font-size:6.86990023px;line-height:125%;font-family:'Latin Modern Roman';-inkscape-font-specification:'Latin Modern Roman, Normal';text-align:start;writing-mode:lr-tb;text-anchor:start;fill:#231f20;fill-opacity:1;fill-rule:nonzero;stroke:none"
       x="465.97226"
       y="-434.0592"><tspan
         id="tspan62"
         y="-434.0592"
         x="465.97226 469.57895 472.84903 476.09161 479.15558 481.18909 483.26379 486.67813 491.71378 493.43124 499.07831 502.27966 505.2818">Spectrum Mask</tspan></text>
<path
       id="path64"
       style="fill:#a8aaac;fill-opacity:1;fill-rule:nonzero;stroke:none"
       d="m 621.48614,255.00063 90.137,0 0,153.007 -90.137,0 0,-153.007 z" /><text
       transform="scale(1,-1)"
       id="text66"
       style="font-style:normal;font-variant:normal;font-weight:normal;font-stretch:normal;font-size:6.86990023px;line-height:125%;font-family:'Latin Modern Roman';-inkscape-font-specification:'Latin Modern Roman, Normal';text-align:start;writing-mode:lr-tb;text-anchor:start;fill:#231f20;fill-opacity:1;fill-rule:nonzero;stroke:none"
       x="653.13177"
       y="-258.73065"><tspan
         id="tspan68"
         y="-258.73065"
         x="653.13177 656.86896 660.28333 663.48468 666.89899 670.31335 673.55597 675.10168 676.81915">Channel 4</tspan></text>
<path
       id="path70"
       style="fill:#bcbec0;fill-opacity:1;fill-rule:nonzero;stroke:none"
       d="m 531.35414,255.00063 90.137,0 0,153.007 -90.137,0 0,-153.007 z" /><text
       transform="scale(1,-1)"
       id="text72"
       style="font-style:normal;font-variant:normal;font-weight:normal;font-stretch:normal;font-size:6.86990023px;line-height:125%;font-family:'Latin Modern Roman';-inkscape-font-specification:'Latin Modern Roman, Normal';text-align:start;writing-mode:lr-tb;text-anchor:start;fill:#231f20;fill-opacity:1;fill-rule:nonzero;stroke:none"
       x="562.99927"
       y="-258.73065"><tspan
         id="tspan74"
         y="-258.73065"
         x="562.99927 566.73645 570.15082 573.35217 576.76654 580.18085 583.42346 584.96918 586.68665">Channel 3</tspan></text>
<path
       id="path76"
       style="fill:#d2d3d5;fill-opacity:1;fill-rule:nonzero;stroke:none"
       d="m 441.21614,255.00063 90.138,0 0,153.007 -90.138,0 0,-153.007 z" /><text
       transform="scale(1,-1)"
       id="text78"
       style="font-style:normal;font-variant:normal;font-weight:normal;font-stretch:normal;font-size:6.86990023px;line-height:125%;font-family:'Latin Modern Roman';-inkscape-font-specification:'Latin Modern Roman, Normal';text-align:start;writing-mode:lr-tb;text-anchor:start;fill:#231f20;fill-opacity:1;fill-rule:nonzero;stroke:none"
       x="472.86163"
       y="-258.73065"><tspan
         id="tspan80"
         y="-258.73065"
         x="472.86163 476.59888 480.01321 483.2146 486.62894 490.04327 493.28586 494.8316 496.54907">Channel 2</tspan></text>
<path
       id="path82"
       style="fill:#e7e7e8;fill-opacity:1;fill-rule:nonzero;stroke:none"
       d="m 351.08315,255.00063 90.13799,0 0,153.007 -90.13799,0 0,-153.007 z" /><text
       transform="scale(1,-1)"
       id="text84"
       style="font-style:normal;font-variant:normal;font-weight:normal;font-stretch:normal;font-size:6.86990023px;line-height:125%;font-family:'Latin Modern Roman';-inkscape-font-specification:'Latin Modern Roman, Normal';text-align:start;writing-mode:lr-tb;text-anchor:start;fill:#231f20;fill-opacity:1;fill-rule:nonzero;stroke:none"
       x="382.72894"
       y="-258.73065"><tspan
         id="tspan86"
         y="-258.73065"
         x="382.72894 386.46616 389.88052 393.08188 396.49622 399.91055 403.15317 404.69888 406.41635">Channel 1</tspan></text>
<path
       id="path88"
       style="fill:#b2d4f0;fill-opacity:1;fill-rule:nonzero;stroke:none"
       d="m 343.15515,383.66363 290.01599,0 0,10.432 -290.01599,0 0,-10.432 z" /><path
       id="path90"
       style="fill:#231f20;fill-opacity:1;fill-rule:nonzero;stroke:none"
       d="m 343.15515,383.66363 0,0.177 289.83899,0 0,10.079 -289.66299,0 0,-10.256 -0.176,0 0,0.177 0,-0.177 -0.177,0 0,10.433 0.052,0.125 0.125,0.051 290.01599,0 0.125,-0.051 0.051,-0.125 0,-10.433 -0.051,-0.125 -0.125,-0.051 -290.01599,0 -0.125,0.051 -0.052,0.125 0.177,0" /><text
       transform="scale(1,-1)"
       id="text92"
       style="font-style:normal;font-variant:normal;font-weight:normal;font-stretch:normal;font-size:6.86990023px;line-height:125%;font-family:'Latin Modern Roman';-inkscape-font-specification:'Latin Modern Roman, Normal';text-align:start;writing-mode:lr-tb;text-anchor:start;fill:#231f20;fill-opacity:1;fill-rule:nonzero;stroke:none"
       x="431.37244"
       y="-387.1134"><tspan
         id="tspan94"
         y="-387.1134"
         x="431.37244 435.43256 436.92331 440.53003 442.02078 443.73825 446.93964 450.35397 453.62405 455.34152 459.07877 462.28012 465.69446 468.89584 472.16592 475.36728 477.08478 479.09076 482.27841 485.46603 486.95682 490.14444 493.33209 495.04956 499.13715 503.34152 505.97269 507.63315 510.91696 512.63446 515.82208 519.0097 520.50049 523.68811 526.87573 528.5932 532.68079 536.88519 539.51636">U.S. and Canada (57.05 GHz – 64.00 GHz)</tspan></text>
<path
       id="path96"
       style="fill:#d6e7f7;fill-opacity:1;fill-rule:nonzero;stroke:none"
       d="m 716.62914,362.79863 -5.006,0 0,10.433 5.006,0 0,-10.433 m -365.54599,0 -10.015,0 0,10.433 10.015,0 0,-10.433" /><path
       id="path98"
       style="fill:#b2c0cf;fill-opacity:1;fill-rule:nonzero;stroke:none"
       d="m 621.49114,362.79863 90.132,0 0,10.432 -90.132,0 0,-10.432 z" /><path
       id="path100"
       style="fill:#bac9d7;fill-opacity:1;fill-rule:nonzero;stroke:none"
       d="m 531.35414,362.79863 90.137,0 0,10.432 -90.137,0 0,-10.432 z" /><path
       id="path102"
       style="fill:#c3d2e1;fill-opacity:1;fill-rule:nonzero;stroke:none"
       d="m 441.22014,362.79863 90.133,0 0,10.432 -90.133,0 0,-10.432 z" /><path
       id="path104"
       style="fill:#cbdbeb;fill-opacity:1;fill-rule:nonzero;stroke:none"
       d="m 351.08315,362.79863 90.13799,0 0,10.432 -90.13799,0 0,-10.432 z" /><path
       id="path106"
       style="fill:#b2d4f0;fill-opacity:1;fill-rule:nonzero;stroke:none"
       d="m 341.06815,362.79863 375.56099,0 0,10.432 -375.56099,0 0,-10.432 z" /><path
       id="path108"
       style="fill:#231f20;fill-opacity:1;fill-rule:nonzero;stroke:none"
       d="m 341.06815,362.79863 0,0.177 375.38399,0 0,10.079 -375.20699,0 0,-10.256 -0.177,0 0,0.177 0,-0.177 -0.177,0 0,10.433 0.052,0.125 0.125,0.051 375.56099,0 0.125,-0.051 0.052,-0.125 0,-10.433 -0.052,-0.125 -0.125,-0.051 -375.56099,0 -0.125,0.051 -0.052,0.125 0.177,0" /><text
       transform="scale(1,-1)"
       id="text110"
       style="font-style:normal;font-variant:normal;font-weight:normal;font-stretch:normal;font-size:6.86990023px;line-height:125%;font-family:'Latin Modern Roman';-inkscape-font-specification:'Latin Modern Roman, Normal';text-align:start;writing-mode:lr-tb;text-anchor:start;fill:#231f20;fill-opacity:1;fill-rule:nonzero;stroke:none"
       x="473.36707"
       y="-366.2486"><tspan
         id="tspan112"
         y="-366.2486"
         x="473.36707 476.79514 480.20947 482.28418 485.62296 488.89301 492.13562 495.33698 498.75134 500.47018 504.53027 507.94464 509.49036 512.8291 516.24347 517.96234 519.96832 523.15594 526.34357 527.83435 531.02197 534.20966 535.92847 540.01605 544.22046 546.85162 549.29663 552.58044 554.29926 557.48694 560.67456 562.16528 565.35297 568.54059 570.2594 574.34705 578.55139 581.18256">European Union (57.00 GHz – 66.00 GHz)</tspan></text>
<path
       id="path114"
       style="fill:#b2d4f0;fill-opacity:1;fill-rule:nonzero;stroke:none"
       d="m 341.06815,321.07463 375.56099,0 0,10.432 -375.56099,0 0,-10.432 z" /><path
       id="path116"
       style="fill:#231f20;fill-opacity:1;fill-rule:nonzero;stroke:none"
       d="m 341.06815,321.07463 0,0.176 375.38399,0 0,10.079 -375.20699,0 0,-10.255 -0.177,0 0,0.176 0,-0.176 -0.177,0 0,10.432 0.052,0.125 0.125,0.052 375.56099,0 0.125,-0.052 0.052,-0.125 0,-10.432 -0.052,-0.125 -0.125,-0.052 -375.56099,0 -0.125,0.052 -0.052,0.125 0.177,0" /><text
       transform="scale(1,-1)"
       id="text118"
       style="font-style:normal;font-variant:normal;font-weight:normal;font-stretch:normal;font-size:6.86990023px;line-height:125%;font-family:'Latin Modern Roman';-inkscape-font-specification:'Latin Modern Roman, Normal';text-align:start;writing-mode:lr-tb;text-anchor:start;fill:#231f20;fill-opacity:1;fill-rule:nonzero;stroke:none"
       x="486.62595"
       y="-324.52411"><tspan
         id="tspan120"
         y="-324.52411"
         x="486.62595 489.96472 493.16611 496.43616 499.63754 503.05188 504.77072 506.77673 509.96439 513.15204 514.64276 517.83038 521.01807 522.73688 526.82446 531.02887 533.66003 535.07318 538.35699 540.07581 543.26349 546.45111 547.94189 551.12952 554.31714 556.03601 560.1236 564.32794 566.95911">Japan (57.00 GHz – 66.00 GHz)</tspan></text>
<path
       id="path122"
       style="fill:#b2c0cf;fill-opacity:1;fill-rule:nonzero;stroke:none"
       d="m 621.49114,279.34463 11.684,0 0,10.432 -11.684,0 0,-10.432 z" /><path
       id="path124"
       style="fill:#bac9d7;fill-opacity:1;fill-rule:nonzero;stroke:none"
       d="m 531.35414,279.34463 90.137,0 0,10.432 -90.137,0 0,-10.432 z" /><path
       id="path126"
       style="fill:#c3d2e1;fill-opacity:1;fill-rule:nonzero;stroke:none"
       d="m 441.22014,279.34463 90.133,0 0,10.432 -90.133,0 0,-10.432 z" /><path
       id="path128"
       style="fill:#cbdbeb;fill-opacity:1;fill-rule:nonzero;stroke:none"
       d="m 424.52715,279.34463 16.69299,0 0,10.432 -16.69299,0 0,-10.432 z" /><path
       id="path130"
       style="fill:#b2d4f0;fill-opacity:1;fill-rule:nonzero;stroke:none"
       d="m 424.52715,279.34463 208.64799,0 0,10.432 -208.64799,0 0,-10.432 z" /><path
       id="path132"
       style="fill:#231f20;fill-opacity:1;fill-rule:nonzero;stroke:none"
       d="m 424.52715,279.34463 0,0.177 208.47099,0 0,10.079 -208.29399,0 0,-10.256 -0.177,0 0,0.177 0,-0.177 -0.177,0 0,10.433 0.052,0.125 0.125,0.051 208.64799,0 0.125,-0.051 0.051,-0.125 0,-10.433 -0.051,-0.125 -0.125,-0.051 -208.64799,0 -0.125,0.051 -0.052,0.125 0.177,0" /><text
       transform="scale(1,-1)"
       id="text134"
       style="font-style:normal;font-variant:normal;font-weight:normal;font-stretch:normal;font-size:6.86990023px;line-height:125%;font-family:'Latin Modern Roman';-inkscape-font-specification:'Latin Modern Roman, Normal';text-align:start;writing-mode:lr-tb;text-anchor:start;fill:#231f20;fill-opacity:1;fill-rule:nonzero;stroke:none"
       x="486.95465"
       y="-282.79431"><tspan
         id="tspan136"
         y="-282.79431"
         x="486.95465 490.69186 494.1062 495.65195 499.06628 502.26764 503.98651 505.99252 509.18015 512.3678 513.85858 517.0462 520.23383 521.9527 526.04028 530.24463 532.87579 534.72998 538.01379 539.73267 542.92029 546.10791 547.59869 550.78632 553.97394 555.69281 559.7804 563.98474 566.61597">China (59.00 GHz – 64.00 GHz)</tspan></text>
<path
       id="path138"
       style="fill:#b2d4f0;fill-opacity:1;fill-rule:nonzero;stroke:none"
       d="m 341.06815,341.93863 292.10699,0 0,10.432 -292.10699,0 0,-10.432 z" /><path
       id="path140"
       style="fill:#231f20;fill-opacity:1;fill-rule:nonzero;stroke:none"
       d="m 341.06815,341.93863 0,0.177 291.92999,0 0,10.079 -291.75299,0 0,-10.256 -0.177,0 0,0.177 0,-0.177 -0.177,0 0,10.433 0.052,0.125 0.125,0.052 292.10699,0 0.125,-0.052 0.051,-0.125 0,-10.433 -0.051,-0.124 -0.125,-0.052 -292.10699,0 -0.125,0.052 -0.052,0.124 0.177,0" /><text
       transform="scale(1,-1)"
       id="text142"
       style="font-style:normal;font-variant:normal;font-weight:normal;font-stretch:normal;font-size:6.86990023px;line-height:125%;font-family:'Latin Modern Roman';-inkscape-font-specification:'Latin Modern Roman, Normal';text-align:start;writing-mode:lr-tb;text-anchor:start;fill:#231f20;fill-opacity:1;fill-rule:nonzero;stroke:none"
       x="436.54956"
       y="-345.38885"><tspan
         id="tspan144"
         y="-345.38885"
         x="436.54956 440.15625 443.49503 446.90936 448.94284 452.35718 454.07468 457.68823 461.02701 463.10172 466.3443 469.54568 471.26315 473.26917 476.45679 479.64444 481.13519 484.32285 487.51047 489.22794 493.31555 497.51993 500.15109 501.81842 505.09534 506.81284 510.00046 513.18811 514.67889 517.86652 521.05414 522.77161 526.85919 531.0636 533.69476">South Korea (57.00 GHz – 64.00 GHz)</tspan></text>
<text
       id="text146"
       style="font-style:normal;font-variant:normal;font-weight:normal;font-stretch:normal;font-size:6.86990023px;line-height:125%;font-family:'Latin Modern Roman';-inkscape-font-specification:'Latin Modern Roman, Normal';text-align:start;writing-mode:lr-tb;text-anchor:start;fill:#231f20;fill-opacity:1;fill-rule:nonzero;stroke:none"
       transform="matrix(0,-1,-1,0,0,0)"
       x="-253.03815"
       y="-339.30164"><tspan
         id="tspan148"
         y="-339.30164"
         x="-253.03815 -249.85052 -246.66284 -245.17212 -241.98444 -238.79681 -237.07935 -232.99176 -228.78741">57.00 GHz</tspan><tspan
         id="tspan150"
         y="-349.72327"
         x="-253.03815 -249.85052 -246.66284 -245.17212 -241.98444 -238.79681 -237.07935 -232.99176 -228.78741">57.24 GHz</tspan><tspan
         id="tspan152"
         y="-440.13803"
         x="-253.03815 -249.85052 -246.66284 -245.17212 -241.98444 -238.79681 -237.07935 -232.99176 -228.78741">59.40 GHz</tspan><tspan
         id="tspan154"
         y="-529.84521"
         x="-253.03815 -249.85052 -246.66284 -245.17212 -241.98444 -238.79681 -237.07935 -232.99176 -228.78741">61.56 GHz</tspan><tspan
         id="tspan156"
         y="-619.55231"
         x="-253.03815 -249.85052 -246.66284 -245.17212 -241.98444 -238.79681 -237.07935 -232.99176 -228.78741">63.72 GHz</tspan><tspan
         id="tspan158"
         y="-709.47247"
         x="-253.03815 -249.85052 -246.66284 -245.17212 -241.98444 -238.79681 -237.07935 -232.99176 -228.78741">65.88 GHz</tspan><tspan
         id="tspan160"
         y="-715.33246"
         x="-253.03815 -249.85052 -246.66284 -245.17212 -241.98444 -238.79681 -237.07935 -232.99176 -228.78741">66.00 GHz</tspan></text>
<text
       transform="scale(1,-1)"
       id="text162"
       style="font-style:normal;font-variant:normal;font-weight:normal;font-stretch:normal;font-size:6.86990023px;line-height:125%;font-family:'Latin Modern Roman';-inkscape-font-specification:'Latin Modern Roman, Normal';text-align:start;writing-mode:lr-tb;text-anchor:start;fill:#231f20;fill-opacity:1;fill-rule:nonzero;stroke:none"
       x="373.56836"
       y="-246.28143"><tspan
         y="-246.28143"
         x="373.56836"
         id="tspan4678">F<tspan
   id="tspan4686"
   style="font-size:51.99999809%;baseline-shift:sub">c</tspan>= 58.32 GHz</tspan></text>
<path
       id="path182"
       style="fill:#231f20;fill-opacity:1;fill-rule:nonzero;stroke:none"
       d="m 340.30315,412.17863 0,44.512 c 0,0.423 0.342,0.765 0.765,0.765 0.423,0 0.766,-0.342 0.766,-0.765 l 0,-44.512 c 0,-0.423 -0.343,-0.766 -0.766,-0.766 -0.423,0 -0.765,0.343 -0.765,0.766" /><path
       id="path184"
       style="fill:#231f20;fill-opacity:1;fill-rule:nonzero;stroke:none"
       d="m 715.86314,412.17863 0,44.512 c 0,0.423 0.343,0.765 0.766,0.765 0.423,0 0.765,-0.342 0.765,-0.765 l 0,-44.512 c 0,-0.423 -0.342,-0.766 -0.765,-0.766 -0.423,0 -0.766,0.343 -0.766,0.766" /><path
       id="path186"
       style="fill:#231f20;fill-opacity:1;fill-rule:nonzero;stroke:none"
       d="m 396.01215,456.51363 -2.473,0 c -0.097,0 -0.176,0.079 -0.176,0.177 0,0.097 0.079,0.176 0.176,0.176 l 2.473,0 c 0.098,0 0.177,-0.079 0.177,-0.176 0,-0.098 -0.079,-0.177 -0.177,-0.177 z m -4.239,0 -2.473,0 c -0.098,0 -0.177,0.079 -0.177,0.177 0,0.097 0.079,0.176 0.177,0.176 l 2.473,0 c 0.097,0 0.176,-0.079 0.176,-0.176 0,-0.098 -0.079,-0.177 -0.176,-0.177 z m -4.24,0 -2.473,0 c -0.098,0 -0.177,0.079 -0.177,0.177 0,0.097 0.079,0.176 0.177,0.176 l 2.473,0 c 0.098,0 0.177,-0.079 0.177,-0.176 0,-0.098 -0.079,-0.177 -0.177,-0.177 z m -4.24,0 -2.473,0 c -0.097,0 -0.177,0.079 -0.177,0.177 0,0.097 0.08,0.176 0.177,0.176 l 2.473,0 c 0.098,0 0.177,-0.079 0.177,-0.176 0,-0.098 -0.079,-0.177 -0.177,-0.177 z m -4.239,0 -2.474,0 c -0.097,0 -0.176,0.079 -0.176,0.177 0,0.097 0.079,0.176 0.176,0.176 l 2.474,0 c 0.097,0 0.176,-0.079 0.176,-0.176 0,-0.098 -0.079,-0.177 -0.176,-0.177 z m -4.24,0 -2.473,0 c -0.098,0 -0.177,0.079 -0.177,0.177 0,0.097 0.079,0.176 0.177,0.176 l 2.473,0 c 0.097,0 0.177,-0.079 0.177,-0.176 0,-0.098 -0.08,-0.177 -0.177,-0.177 z m -4.24,0 -2.473,0 c -0.097,0 -0.177,0.079 -0.177,0.177 0,0.097 0.08,0.176 0.177,0.176 l 2.473,0 c 0.098,0 0.177,-0.079 0.177,-0.176 0,-0.098 -0.079,-0.177 -0.177,-0.177 z m -4.239,0 -2.474,0 c -0.097,0 -0.176,0.079 -0.176,0.177 0,0.097 0.079,0.176 0.176,0.176 l 2.474,0 c 0.097,0 0.176,-0.079 0.176,-0.176 0,-0.098 -0.079,-0.177 -0.176,-0.177 z m -4.24,0 -2.473,0 c -0.098,0 -0.177,0.079 -0.177,0.177 0,0.097 0.079,0.176 0.177,0.176 l 2.473,0 c 0.097,0 0.177,-0.079 0.177,-0.176 0,-0.098 -0.08,-0.177 -0.177,-0.177 z m -4.24,0 -0.984,0 -0.525,-1.148 -0.234,-0.087 -0.087,0.234 0.572,1.251 0.16,0.103 1.098,0 c 0.098,0 0.177,-0.079 0.177,-0.176 0,-0.098 -0.079,-0.177 -0.177,-0.177 z m -2.243,-2.754 -1.028,-2.25 -0.234,-0.087 -0.087,0.234 1.028,2.25 0.234,0.087 0.087,-0.234 z m -1.762,-3.856 -1.028,-2.25 -0.235,-0.087 -0.087,0.234 1.028,2.25 0.234,0.087 0.088,-0.234 z m -1.763,-3.856 -1.028,-2.25 -0.234,-0.087 -0.087,0.234 1.028,2.25 0.234,0.087 0.087,-0.234 z m -1.762,-3.856 -1.028,-2.25 -0.234,-0.087 -0.088,0.234 1.028,2.25 0.235,0.087 0.087,-0.234 z m -1.763,-3.856 -1.028,-2.25 -0.234,-0.087 -0.087,0.234 1.028,2.249 0.234,0.088 0.087,-0.234 z m -1.762,-3.856 -0.212,-0.465 -0.136,-0.101 -1.943,-0.278 c -0.097,-0.013 -0.186,0.054 -0.2,0.15 -0.014,0.097 0.054,0.186 0.15,0.2 l 1.848,0.264 0.172,0.376 0.234,0.088 0.087,-0.234 z m -4.04,-1.093 -1.667,-0.238 c -0.096,-0.014 -0.186,0.053 -0.2,0.149 -0.014,0.097 0.054,0.186 0.15,0.2 l 1.667,0.238 c 0.097,0.014 0.186,-0.053 0.2,-0.149 0.014,-0.097 -0.053,-0.187 -0.15,-0.2" /><path
       id="path188"
       style="fill:#231f20;fill-opacity:1;fill-rule:nonzero;stroke:none"
       d="m 396.01215,456.86663 2.474,0 c 0.097,0 0.176,-0.079 0.176,-0.176 0,-0.098 -0.079,-0.177 -0.176,-0.177 l -2.474,0 c -0.097,0 -0.176,0.079 -0.176,0.177 0,0.097 0.079,0.176 0.176,0.176 z m 4.24,0 2.473,0 c 0.098,0 0.177,-0.079 0.177,-0.176 0,-0.098 -0.079,-0.177 -0.177,-0.177 l -2.473,0 c -0.098,0 -0.177,0.079 -0.177,0.177 0,0.097 0.079,0.176 0.177,0.176 z m 4.24,0 2.473,0 c 0.097,0 0.177,-0.079 0.177,-0.176 0,-0.098 -0.08,-0.177 -0.177,-0.177 l -2.473,0 c -0.098,0 -0.177,0.079 -0.177,0.177 0,0.097 0.079,0.176 0.177,0.176 z m 4.239,0 2.474,0 c 0.097,0 0.176,-0.079 0.176,-0.176 0,-0.098 -0.079,-0.177 -0.176,-0.177 l -2.474,0 c -0.097,0 -0.176,0.079 -0.176,0.177 0,0.097 0.079,0.176 0.176,0.176 z m 4.24,0 2.473,0 c 0.098,0 0.177,-0.079 0.177,-0.176 0,-0.098 -0.079,-0.177 -0.177,-0.177 l -2.473,0 c -0.097,0 -0.177,0.079 -0.177,0.177 0,0.097 0.08,0.176 0.177,0.176 z m 4.24,0 2.473,0 c 0.098,0 0.177,-0.079 0.177,-0.176 0,-0.098 -0.079,-0.177 -0.177,-0.177 l -2.473,0 c -0.098,0 -0.177,0.079 -0.177,0.177 0,0.097 0.079,0.176 0.177,0.176 z m 4.24,0 2.473,0 c 0.097,0 0.176,-0.079 0.176,-0.176 0,-0.098 -0.079,-0.177 -0.176,-0.177 l -2.473,0 c -0.098,0 -0.177,0.079 -0.177,0.177 0,0.097 0.079,0.176 0.177,0.176 z m 4.239,0 2.473,0 c 0.098,0 0.177,-0.079 0.177,-0.176 0,-0.098 -0.079,-0.177 -0.177,-0.177 l -2.473,0 c -0.097,0 -0.176,0.079 -0.176,0.177 0,0.097 0.079,0.176 0.176,0.176 z m 4.24,0 2.473,0 c 0.098,0 0.177,-0.079 0.177,-0.176 0,-0.098 -0.079,-0.177 -0.177,-0.177 l -2.473,0 c -0.098,0 -0.177,0.079 -0.177,0.177 0,0.097 0.079,0.176 0.177,0.176 z m 4.24,0 1.094,0 0.16,-0.103 0.574,-1.254 -0.088,-0.234 -0.234,0.087 -0.526,1.151 -0.98,0 c -0.098,0 -0.177,0.079 -0.177,0.177 0,0.097 0.079,0.176 0.177,0.176 z m 2.562,-2.964 1.028,-2.249 -0.087,-0.234 -0.234,0.087 -1.028,2.25 0.087,0.234 0.234,-0.088 z m 1.762,-3.856 1.02799,-2.249 -0.087,-0.234 -0.23399,0.087 -1.028,2.249 0.087,0.235 0.234,-0.088 z m 1.76199,-3.856 1.028,-2.249 -0.087,-0.234 -0.234,0.087 -1.028,2.249 0.087,0.234 0.234,-0.087 z m 1.763,-3.856 1.028,-2.249 -0.088,-0.234 -0.234,0.087 -1.028,2.249 0.088,0.234 0.234,-0.087 z m 1.762,-3.856 1.028,-2.249 -0.087,-0.234 -0.234,0.087 -1.028,2.249 0.087,0.234 0.234,-0.087 z m 1.762,-3.856 0.171,-0.373 1.851,-0.259 c 0.097,-0.014 0.164,-0.103 0.151,-0.2 -0.014,-0.096 -0.103,-0.164 -0.2,-0.15 l -1.947,0.273 -0.137,0.101 -0.21,0.461 0.087,0.234 0.234,-0.087 z m 3.772,-0.878 2.449,-0.343 c 0.096,-0.014 0.164,-0.103 0.15,-0.2 -0.013,-0.097 -0.103,-0.164 -0.199,-0.15 l -2.449,0.343 c -0.097,0.014 -0.164,0.103 -0.151,0.2 0.014,0.096 0.103,0.164 0.2,0.15 z m 4.198,-0.589 2.449,-0.343 c 0.097,-0.014 0.164,-0.103 0.151,-0.2 -0.014,-0.097 -0.103,-0.164 -0.2,-0.15 l -2.449,0.343 c -0.096,0.014 -0.164,0.103 -0.15,0.2 0.013,0.096 0.103,0.164 0.199,0.15 z m 4.199,-0.589 2.449,-0.343 c 0.097,-0.014 0.164,-0.103 0.15,-0.2 -0.013,-0.097 -0.102,-0.164 -0.199,-0.15 l -2.449,0.343 c -0.097,0.014 -0.164,0.103 -0.151,0.2 0.014,0.096 0.103,0.164 0.2,0.15 z m 4.198,-0.589 2.45,-0.343 c 0.096,-0.014 0.164,-0.103 0.15,-0.2 -0.014,-0.097 -0.103,-0.164 -0.2,-0.15 l -2.449,0.343 c -0.096,0.014 -0.164,0.103 -0.15,0.2 0.013,0.096 0.103,0.164 0.199,0.15 z m 4.199,-0.589 2.449,-0.343 c 0.097,-0.014 0.164,-0.103 0.151,-0.2 -0.014,-0.097 -0.103,-0.164 -0.2,-0.15 l -2.449,0.343 c -0.097,0.014 -0.164,0.103 -0.151,0.2 0.014,0.096 0.103,0.164 0.2,0.15 z m 4.198,-0.589 2.45,-0.344 c 0.096,-0.013 0.164,-0.102 0.15,-0.199 -0.013,-0.097 -0.103,-0.164 -0.199,-0.15 l -2.45,0.343 c -0.096,0.014 -0.164,0.103 -0.15,0.2 0.014,0.096 0.103,0.164 0.199,0.15 z m 4.199,-0.589 2.449,-0.343 c 0.097,-0.014 0.164,-0.103 0.151,-0.2 -0.014,-0.097 -0.103,-0.164 -0.2,-0.15 l -2.449,0.343 c -0.097,0.014 -0.164,0.103 -0.15,0.2 0.013,0.096 0.103,0.164 0.199,0.15 z m 4.199,-0.589 2.449,-0.344 c 0.096,-0.013 0.164,-0.102 0.15,-0.199 -0.013,-0.097 -0.103,-0.164 -0.199,-0.15 l -2.449,0.343 c -0.097,0.014 -0.164,0.103 -0.151,0.2 0.014,0.096 0.103,0.164 0.2,0.15 z m 4.198,-0.589 2.449,-0.344 c 0.097,-0.013 0.164,-0.102 0.151,-0.199 -0.014,-0.097 -0.103,-0.164 -0.2,-0.15 l -2.449,0.343 c -0.096,0.014 -0.164,0.103 -0.15,0.2 0.013,0.096 0.103,0.164 0.199,0.15 z m 4.199,-0.589 2.449,-0.344 c 0.097,-0.013 0.164,-0.102 0.15,-0.199 -0.013,-0.097 -0.102,-0.164 -0.199,-0.15 l -2.449,0.343 c -0.097,0.014 -0.164,0.103 -0.151,0.2 0.014,0.096 0.103,0.164 0.2,0.15 z m 4.198,-0.589 2.449,-0.344 c 0.097,-0.013 0.165,-0.102 0.151,-0.199 -0.014,-0.097 -0.103,-0.164 -0.2,-0.15 l -2.449,0.343 c -0.096,0.014 -0.164,0.103 -0.15,0.2 0.013,0.096 0.103,0.164 0.199,0.15 z m 4.199,-0.589 2.449,-0.344 c 0.097,-0.013 0.164,-0.102 0.15,-0.199 -0.013,-0.097 -0.102,-0.164 -0.199,-0.15 l -2.449,0.343 c -0.097,0.014 -0.164,0.103 -0.151,0.2 0.014,0.096 0.103,0.164 0.2,0.15 z m 4.198,-0.589 2.45,-0.344 c 0.096,-0.013 0.164,-0.102 0.15,-0.199 -0.013,-0.097 -0.103,-0.164 -0.199,-0.15 l -2.45,0.343 c -0.096,0.014 -0.164,0.103 -0.15,0.2 0.014,0.096 0.103,0.164 0.199,0.15 z m 4.199,-0.589 2.449,-0.344 c 0.097,-0.013 0.164,-0.102 0.151,-0.199 -0.014,-0.097 -0.103,-0.164 -0.2,-0.151 l -2.449,0.344 c -0.097,0.014 -0.164,0.103 -0.15,0.2 0.013,0.096 0.102,0.164 0.199,0.15 z m 4.191,-0.831 2.043,-1.394 0.047,-0.245 -0.246,-0.047 -2.043,1.394 -0.046,0.246 0.245,0.046 z m 3.503,-2.389 2.042,-1.394 0.047,-0.246 -0.246,-0.046 -2.043,1.394 -0.046,0.245 0.246,0.047 z m 3.502,-2.39 2.043,-1.394 0.046,-0.245 -0.245,-0.046 -2.043,1.393 -0.047,0.246 0.246,0.046 z m 3.502,-2.389 2.043,-1.394 0.046,-0.246 -0.245,-0.046 -2.043,1.394 -0.047,0.245 0.246,0.047 z m 3.502,-2.39 0.823,-0.561 1.368,0 c 0.098,0 0.177,-0.079 0.177,-0.177 0,-0.097 -0.079,-0.176 -0.177,-0.176 l -1.423,0 -0.099,0.03 -0.868,0.592 -0.046,0.246 0.245,0.046 z m 3.958,-0.561 2.473,0 c 0.097,0 0.176,-0.079 0.176,-0.177 0,-0.097 -0.079,-0.176 -0.176,-0.176 l -2.473,0 c -0.098,0 -0.177,0.079 -0.177,0.176 0,0.098 0.079,0.177 0.177,0.177 z m 4.239,0 2.473,0 c 0.098,0 0.177,-0.079 0.177,-0.177 0,-0.097 -0.079,-0.176 -0.177,-0.176 l -2.473,0 c -0.097,0 -0.176,0.079 -0.176,0.176 0,0.098 0.079,0.177 0.176,0.177 z m 4.24,0 1.968,0 c 0.098,0 0.177,-0.079 0.177,-0.177 0,-0.097 -0.079,-0.176 -0.177,-0.176 l -1.968,0 c -0.098,0 -0.177,0.079 -0.177,0.176 0,0.098 0.079,0.177 0.177,0.177" /><path
       id="path190"
       style="fill:#231f20;fill-opacity:1;fill-rule:nonzero;stroke:none"
       d="m 486.42514,456.51363 -39.143,0 -10.28199,-22.499 -0.136,-0.101 -61.94,-8.69 -15.252,-10.409 -0.1,-0.03 -13.636,0 c -0.097,0 -0.176,0.079 -0.176,0.176 0,0.098 0.079,0.177 0.176,0.177 l 13.582,0 15.24,10.402 0.076,0.029 61.885,8.681 10.28899,22.514 0.16,0.103 39.257,0 c 0.097,0 0.176,-0.079 0.176,-0.176 0,-0.098 -0.079,-0.177 -0.176,-0.177" /><path
       id="path192"
       style="fill:#231f20;fill-opacity:1;fill-rule:nonzero;stroke:none"
       d="m 486.42514,456.86663 39.256,0 0.161,-0.103 10.289,-22.514 61.884,-8.681 0.075,-0.029 15.241,-10.402 13.582,0 c 0.098,0 0.177,-0.079 0.177,-0.177 0,-0.097 -0.079,-0.176 -0.177,-0.176 l -13.636,0 -0.1,0.03 -15.252,10.409 -61.939,8.69 -0.136,0.101 -10.282,22.499 -39.143,0 c -0.098,0 -0.177,0.079 -0.177,0.177 0,0.097 0.079,0.176 0.177,0.176" /><path
       id="path194"
       style="fill:#231f20;fill-opacity:1;fill-rule:nonzero;stroke:none"
       d="m 576.14014,456.51363 -2.473,0 c -0.097,0 -0.177,0.079 -0.177,0.177 0,0.097 0.08,0.176 0.177,0.176 l 2.473,0 c 0.098,0 0.177,-0.079 0.177,-0.176 0,-0.098 -0.079,-0.177 -0.177,-0.177 z m -4.239,0 -2.474,0 c -0.097,0 -0.176,0.079 -0.176,0.177 0,0.097 0.079,0.176 0.176,0.176 l 2.474,0 c 0.097,0 0.176,-0.079 0.176,-0.176 0,-0.098 -0.079,-0.177 -0.176,-0.177 z m -4.24,0 -2.473,0 c -0.098,0 -0.177,0.079 -0.177,0.177 0,0.097 0.079,0.176 0.177,0.176 l 2.473,0 c 0.097,0 0.177,-0.079 0.177,-0.176 0,-0.098 -0.08,-0.177 -0.177,-0.177 z m -4.24,0 -2.473,0 c -0.098,0 -0.177,0.079 -0.177,0.177 0,0.097 0.079,0.176 0.177,0.176 l 2.473,0 c 0.098,0 0.177,-0.079 0.177,-0.176 0,-0.098 -0.079,-0.177 -0.177,-0.177 z m -4.239,0 -2.474,0 c -0.097,0 -0.176,0.079 -0.176,0.177 0,0.097 0.079,0.176 0.176,0.176 l 2.474,0 c 0.097,0 0.176,-0.079 0.176,-0.176 0,-0.098 -0.079,-0.177 -0.176,-0.177 z m -4.24,0 -2.473,0 c -0.098,0 -0.177,0.079 -0.177,0.177 0,0.097 0.079,0.176 0.177,0.176 l 2.473,0 c 0.097,0 0.176,-0.079 0.176,-0.176 0,-0.098 -0.079,-0.177 -0.176,-0.177 z m -4.24,0 -2.473,0 c -0.098,0 -0.177,0.079 -0.177,0.177 0,0.097 0.079,0.176 0.177,0.176 l 2.473,0 c 0.098,0 0.177,-0.079 0.177,-0.176 0,-0.098 -0.079,-0.177 -0.177,-0.177 z m -4.24,0 -2.473,0 c -0.097,0 -0.176,0.079 -0.176,0.177 0,0.097 0.079,0.176 0.176,0.176 l 2.473,0 c 0.098,0 0.177,-0.079 0.177,-0.176 0,-0.098 -0.079,-0.177 -0.177,-0.177 z m -4.239,0 -2.473,0 c -0.098,0 -0.177,0.079 -0.177,0.177 0,0.097 0.079,0.176 0.177,0.176 l 2.473,0 c 0.097,0 0.176,-0.079 0.176,-0.176 0,-0.098 -0.079,-0.177 -0.176,-0.177 z m -4.24,0 -0.981,0 -0.526,-1.151 -0.234,-0.087 -0.087,0.234 0.573,1.254 0.161,0.103 1.094,0 c 0.098,0 0.177,-0.079 0.177,-0.176 0,-0.098 -0.079,-0.177 -0.177,-0.177 z m -2.241,-2.757 -1.028,-2.25 -0.234,-0.087 -0.087,0.234 1.028,2.249 0.234,0.088 0.087,-0.234 z m -1.762,-3.856 -1.028,-2.25 -0.234,-0.087 -0.088,0.234 1.028,2.249 0.234,0.088 0.088,-0.234 z m -1.763,-3.857 -1.028,-2.249 -0.234,-0.087 -0.087,0.234 1.028,2.249 0.234,0.088 0.087,-0.235 z m -1.762,-3.856 -1.028,-2.249 -0.234,-0.087 -0.087,0.234 1.028,2.249 0.234,0.088 0.087,-0.235 z m -1.762,-3.856 -1.028,-2.249 -0.235,-0.087 -0.087,0.234 1.028,2.249 0.234,0.087 0.088,-0.234 z m -1.763,-3.856 -0.21,-0.461 -0.136,-0.101 -1.948,-0.273 c -0.096,-0.014 -0.186,0.054 -0.199,0.15 -0.014,0.097 0.053,0.186 0.15,0.2 l 1.852,0.259 0.17,0.373 0.234,0.087 0.087,-0.234 z m -4.043,-1.081 -2.449,-0.343 c -0.097,-0.014 -0.186,0.053 -0.2,0.15 -0.013,0.097 0.054,0.186 0.151,0.2 l 2.449,0.343 c 0.096,0.014 0.186,-0.054 0.199,-0.15 0.014,-0.097 -0.054,-0.186 -0.15,-0.2 z m -4.199,-0.589 -2.449,-0.343 c -0.097,-0.014 -0.186,0.053 -0.199,0.15 -0.014,0.097 0.053,0.186 0.15,0.2 l 2.449,0.343 c 0.097,0.014 0.186,-0.054 0.2,-0.15 0.013,-0.097 -0.054,-0.186 -0.151,-0.2 z m -4.198,-0.589 -2.45,-0.343 c -0.096,-0.014 -0.185,0.053 -0.199,0.15 -0.014,0.097 0.054,0.186 0.15,0.2 l 2.45,0.343 c 0.096,0.014 0.185,-0.054 0.199,-0.15 0.014,-0.097 -0.054,-0.186 -0.15,-0.2 z m -4.199,-0.589 -2.449,-0.343 c -0.097,-0.014 -0.186,0.053 -0.2,0.15 -0.013,0.097 0.054,0.186 0.151,0.2 l 2.449,0.343 c 0.097,0.014 0.186,-0.054 0.199,-0.15 0.014,-0.097 -0.053,-0.186 -0.15,-0.2 z m -4.199,-0.589 -2.449,-0.343 c -0.096,-0.014 -0.186,0.053 -0.199,0.15 -0.014,0.097 0.054,0.186 0.15,0.2 l 2.449,0.343 c 0.097,0.014 0.186,-0.054 0.2,-0.15 0.013,-0.097 -0.054,-0.186 -0.151,-0.2 z m -4.198,-0.589 -2.449,-0.343 c -0.097,-0.014 -0.186,0.053 -0.2,0.15 -0.013,0.097 0.054,0.186 0.151,0.199 l 2.449,0.344 c 0.096,0.014 0.186,-0.054 0.199,-0.15 0.014,-0.097 -0.053,-0.186 -0.15,-0.2 z m -4.199,-0.589 -2.449,-0.343 c -0.096,-0.014 -0.186,0.053 -0.199,0.15 -0.014,0.097 0.053,0.186 0.15,0.2 l 2.449,0.343 c 0.097,0.014 0.186,-0.054 0.2,-0.15 0.013,-0.097 -0.054,-0.186 -0.151,-0.2 z m -4.198,-0.589 -2.449,-0.343 c -0.097,-0.014 -0.186,0.053 -0.2,0.15 -0.013,0.097 0.054,0.186 0.151,0.199 l 2.449,0.344 c 0.096,0.014 0.186,-0.054 0.199,-0.15 0.014,-0.097 -0.054,-0.186 -0.15,-0.2 z m -4.199,-0.589 -2.449,-0.343 c -0.097,-0.014 -0.186,0.053 -0.199,0.15 -0.014,0.097 0.053,0.186 0.15,0.199 l 2.449,0.344 c 0.097,0.014 0.186,-0.054 0.2,-0.15 0.013,-0.097 -0.054,-0.186 -0.151,-0.2 z m -4.198,-0.589 -2.45,-0.343 c -0.096,-0.014 -0.185,0.053 -0.199,0.15 -0.014,0.097 0.054,0.186 0.15,0.199 l 2.45,0.344 c 0.096,0.014 0.185,-0.054 0.199,-0.15 0.014,-0.097 -0.054,-0.186 -0.15,-0.2 z m -4.199,-0.589 -2.449,-0.343 c -0.097,-0.014 -0.186,0.053 -0.2,0.15 -0.013,0.097 0.054,0.186 0.151,0.199 l 2.449,0.344 c 0.097,0.014 0.186,-0.054 0.199,-0.15 0.014,-0.097 -0.053,-0.186 -0.15,-0.2 z m -4.199,-0.589 -2.449,-0.343 c -0.096,-0.014 -0.186,0.053 -0.199,0.15 -0.014,0.097 0.054,0.186 0.15,0.199 l 2.449,0.344 c 0.097,0.014 0.186,-0.054 0.2,-0.15 0.013,-0.097 -0.054,-0.186 -0.151,-0.2 z m -4.198,-0.589 -2.449,-0.344 c -0.097,-0.013 -0.186,0.054 -0.2,0.151 -0.013,0.096 0.054,0.186 0.151,0.199 l 2.449,0.344 c 0.096,0.014 0.186,-0.054 0.199,-0.15 0.014,-0.097 -0.053,-0.186 -0.15,-0.2 z m -4.199,-0.589 -2.449,-0.344 c -0.096,-0.013 -0.186,0.054 -0.199,0.151 -0.014,0.096 0.053,0.186 0.15,0.199 l 2.449,0.344 c 0.097,0.014 0.186,-0.054 0.2,-0.15 0.013,-0.097 -0.054,-0.186 -0.151,-0.2 z m -4.041,-0.773 -2.043,-1.394 -0.245,0.047 0.046,0.245 2.043,1.394 0.245,-0.046 -0.046,-0.246 z m -3.502,-2.389 -2.043,-1.394 -0.246,0.046 0.047,0.246 2.043,1.394 0.245,-0.047 -0.046,-0.245 z m -3.502,-2.39 -2.043,-1.394 -0.246,0.047 0.047,0.245 2.043,1.394 0.245,-0.046 -0.046,-0.246 z m -3.502,-2.389 -2.043,-1.394 -0.246,0.046 0.047,0.246 2.042,1.394 0.246,-0.047 -0.046,-0.245 z m -3.503,-2.39 -0.867,-0.592 -0.1,-0.03 -1.423,0 c -0.097,0 -0.176,0.079 -0.176,0.176 0,0.098 0.079,0.177 0.176,0.177 l 1.369,0 0.822,0.561 0.246,-0.046 -0.047,-0.246 z m -4.156,-0.622 -2.473,0 c -0.098,0 -0.177,0.079 -0.177,0.176 0,0.098 0.079,0.177 0.177,0.177 l 2.473,0 c 0.097,0 0.176,-0.079 0.176,-0.177 0,-0.097 -0.079,-0.176 -0.176,-0.176 z m -4.24,0 -2.473,0 c -0.098,0 -0.177,0.079 -0.177,0.176 0,0.098 0.079,0.177 0.177,0.177 l 2.473,0 c 0.098,0 0.177,-0.079 0.177,-0.177 0,-0.097 -0.079,-0.176 -0.177,-0.176 z m -4.23999,0 -1.963,0 c -0.098,0 -0.177,0.079 -0.177,0.176 0,0.098 0.079,0.177 0.177,0.177 l 1.963,0 c 0.098,0 0.177,-0.079 0.177,-0.177 0,-0.097 -0.079,-0.176 -0.177,-0.176" /><path
       id="path196"
       style="fill:#231f20;fill-opacity:1;fill-rule:nonzero;stroke:none"
       d="m 576.14014,456.86663 2.473,0 c 0.098,0 0.177,-0.079 0.177,-0.176 0,-0.098 -0.079,-0.177 -0.177,-0.177 l -2.473,0 c -0.097,0 -0.176,0.079 -0.176,0.177 0,0.097 0.079,0.176 0.176,0.176 z m 4.24,0 2.473,0 c 0.098,0 0.177,-0.079 0.177,-0.176 0,-0.098 -0.079,-0.177 -0.177,-0.177 l -2.473,0 c -0.098,0 -0.177,0.079 -0.177,0.177 0,0.097 0.079,0.176 0.177,0.176 z m 4.24,0 2.473,0 c 0.097,0 0.176,-0.079 0.176,-0.176 0,-0.098 -0.079,-0.177 -0.176,-0.177 l -2.473,0 c -0.098,0 -0.177,0.079 -0.177,0.177 0,0.097 0.079,0.176 0.177,0.176 z m 4.239,0 2.473,0 c 0.098,0 0.177,-0.079 0.177,-0.176 0,-0.098 -0.079,-0.177 -0.177,-0.177 l -2.473,0 c -0.097,0 -0.176,0.079 -0.176,0.177 0,0.097 0.079,0.176 0.176,0.176 z m 4.24,0 2.473,0 c 0.098,0 0.177,-0.079 0.177,-0.176 0,-0.098 -0.079,-0.177 -0.177,-0.177 l -2.473,0 c -0.098,0 -0.177,0.079 -0.177,0.177 0,0.097 0.079,0.176 0.177,0.176 z m 4.24,0 2.473,0 c 0.097,0 0.177,-0.079 0.177,-0.176 0,-0.098 -0.08,-0.177 -0.177,-0.177 l -2.473,0 c -0.098,0 -0.177,0.079 -0.177,0.177 0,0.097 0.079,0.176 0.177,0.176 z m 4.239,0 2.474,0 c 0.097,0 0.176,-0.079 0.176,-0.176 0,-0.098 -0.079,-0.177 -0.176,-0.177 l -2.474,0 c -0.097,0 -0.176,0.079 -0.176,0.177 0,0.097 0.079,0.176 0.176,0.176 z m 4.24,0 2.473,0 c 0.098,0 0.177,-0.079 0.177,-0.176 0,-0.098 -0.079,-0.177 -0.177,-0.177 l -2.473,0 c -0.098,0 -0.177,0.079 -0.177,0.177 0,0.097 0.079,0.176 0.177,0.176 z m 4.24,0 2.473,0 c 0.097,0 0.177,-0.079 0.177,-0.176 0,-0.098 -0.08,-0.177 -0.177,-0.177 l -2.473,0 c -0.098,0 -0.177,0.079 -0.177,0.177 0,0.097 0.079,0.176 0.177,0.176 z m 4.239,0 1.1,0 0.16,-0.103 0.571,-1.249 -0.087,-0.235 -0.234,0.088 -0.524,1.146 -0.986,0 c -0.097,0 -0.176,0.079 -0.176,0.177 0,0.097 0.079,0.176 0.176,0.176 z m 2.566,-2.959 1.028,-2.25 -0.088,-0.234 -0.234,0.088 -1.028,2.249 0.088,0.234 0.234,-0.087 z m 1.762,-3.856 1.028,-2.25 -0.087,-0.234 -0.234,0.088 -1.028,2.249 0.087,0.234 0.234,-0.087 z m 1.762,-3.856 1.028,-2.25 -0.087,-0.234 -0.234,0.087 -1.028,2.25 0.087,0.234 0.234,-0.087 z m 1.762,-3.856 1.028,-2.25 -0.087,-0.234 -0.234,0.087 -1.028,2.25 0.087,0.234 0.234,-0.087 z m 1.763,-3.856 1.028,-2.25 -0.087,-0.234 -0.235,0.087 -1.028,2.25 0.088,0.234 0.234,-0.087 z m 1.762,-3.857 0.172,-0.377 1.847,-0.259 c 0.097,-0.013 0.164,-0.103 0.151,-0.199 -0.014,-0.097 -0.103,-0.164 -0.2,-0.151 l -1.943,0.273 -0.136,0.101 -0.212,0.466 0.087,0.234 0.234,-0.088 z m 3.769,-0.881 2.449,-0.344 c 0.096,-0.013 0.164,-0.103 0.15,-0.199 -0.013,-0.097 -0.103,-0.164 -0.199,-0.151 l -2.449,0.344 c -0.097,0.014 -0.164,0.103 -0.151,0.199 0.014,0.097 0.103,0.164 0.2,0.151 z m 4.198,-0.589 2.449,-0.344 c 0.097,-0.013 0.164,-0.103 0.151,-0.199 -0.014,-0.097 -0.103,-0.164 -0.2,-0.151 l -2.449,0.344 c -0.096,0.014 -0.164,0.103 -0.15,0.199 0.013,0.097 0.103,0.164 0.199,0.151 z m 4.199,-0.589 2.449,-0.344 c 0.097,-0.013 0.164,-0.103 0.15,-0.199 -0.013,-0.097 -0.103,-0.164 -0.199,-0.151 l -2.449,0.344 c -0.097,0.013 -0.164,0.103 -0.151,0.199 0.014,0.097 0.103,0.164 0.2,0.151 z m 4.198,-0.589 2.45,-0.344 c 0.096,-0.013 0.163,-0.103 0.15,-0.199 -0.014,-0.097 -0.103,-0.164 -0.2,-0.151 l -2.449,0.344 c -0.096,0.013 -0.164,0.103 -0.15,0.199 0.013,0.097 0.103,0.164 0.199,0.151 z m 4.199,-0.589 2.449,-0.344 c 0.097,-0.013 0.164,-0.103 0.15,-0.199 -0.013,-0.097 -0.102,-0.164 -0.199,-0.151 l -2.449,0.344 c -0.097,0.013 -0.164,0.103 -0.151,0.199 0.014,0.097 0.103,0.164 0.2,0.151 z m 4.199,-0.589 2.449,-0.344 c 0.096,-0.013 0.164,-0.103 0.15,-0.199 -0.014,-0.097 -0.103,-0.164 -0.199,-0.151 l -2.45,0.344 c -0.096,0.013 -0.164,0.103 -0.15,0.199 0.014,0.097 0.103,0.164 0.2,0.151 z m 4.198,-0.589 2.449,-0.344 c 0.097,-0.013 0.164,-0.103 0.151,-0.199 -0.014,-0.097 -0.103,-0.164 -0.2,-0.151 l -2.449,0.344 c -0.097,0.013 -0.164,0.103 -0.15,0.199 0.013,0.097 0.102,0.164 0.199,0.151 z m 4.199,-0.589 2.449,-0.344 c 0.096,-0.013 0.164,-0.103 0.15,-0.199 -0.013,-0.097 -0.103,-0.164 -0.199,-0.151 l -2.449,0.344 c -0.097,0.013 -0.164,0.103 -0.151,0.199 0.014,0.097 0.103,0.164 0.2,0.151 z m 4.198,-0.589 2.449,-0.344 c 0.097,-0.013 0.164,-0.103 0.151,-0.199 -0.014,-0.097 -0.103,-0.164 -0.2,-0.151 l -2.449,0.344 c -0.097,0.013 -0.164,0.103 -0.15,0.199 0.013,0.097 0.103,0.164 0.199,0.151 z m 4.199,-0.589 2.449,-0.344 c 0.097,-0.013 0.164,-0.103 0.15,-0.199 -0.013,-0.097 -0.103,-0.164 -0.199,-0.151 l -2.449,0.344 c -0.097,0.013 -0.164,0.103 -0.151,0.199 0.014,0.097 0.103,0.164 0.2,0.151 z m 4.198,-0.589 2.449,-0.344 c 0.097,-0.014 0.164,-0.103 0.151,-0.199 -0.014,-0.097 -0.103,-0.164 -0.2,-0.151 l -2.449,0.344 c -0.096,0.013 -0.164,0.103 -0.15,0.199 0.013,0.097 0.103,0.164 0.199,0.151 z m 4.199,-0.589 2.449,-0.344 c 0.097,-0.013 0.164,-0.103 0.15,-0.199 -0.013,-0.097 -0.102,-0.164 -0.199,-0.151 l -2.449,0.344 c -0.097,0.013 -0.164,0.103 -0.151,0.199 0.014,0.097 0.103,0.164 0.2,0.151 z m 4.198,-0.589 2.45,-0.344 c 0.096,-0.014 0.164,-0.103 0.15,-0.199 -0.014,-0.097 -0.103,-0.164 -0.199,-0.151 l -2.45,0.344 c -0.096,0.013 -0.164,0.103 -0.15,0.199 0.014,0.097 0.103,0.164 0.199,0.151 z m 4.199,-0.589 2.449,-0.344 c 0.097,-0.014 0.164,-0.103 0.151,-0.199 -0.014,-0.097 -0.103,-0.164 -0.2,-0.151 l -2.449,0.344 c -0.097,0.013 -0.164,0.103 -0.15,0.199 0.013,0.097 0.102,0.164 0.199,0.151 z m 4.192,-0.829 2.043,-1.394 0.046,-0.246 -0.245,-0.046 -2.043,1.394 -0.046,0.245 0.245,0.047 z m 3.502,-2.39 2.043,-1.394 0.047,-0.245 -0.246,-0.046 -2.043,1.393 -0.046,0.246 0.245,0.046 z m 3.503,-2.389 2.043,-1.394 0.046,-0.245 -0.246,-0.047 -2.043,1.394 -0.046,0.245 0.246,0.047 z m 3.502,-2.39 2.043,-1.393 0.046,-0.246 -0.245,-0.046 -2.043,1.394 -0.047,0.245 0.246,0.046 z m 3.502,-2.389 0.827,-0.564 1.363,0 c 0.098,0 0.177,-0.079 0.177,-0.177 0,-0.097 -0.079,-0.176 -0.177,-0.176 l -1.418,0 -0.099,0.03 -0.872,0.595 -0.047,0.246 0.246,0.046 z m 3.956,-0.564 2.474,0 c 0.097,0 0.176,-0.079 0.176,-0.177 0,-0.097 -0.079,-0.176 -0.176,-0.176 l -2.474,0 c -0.097,0 -0.176,0.079 -0.176,0.176 0,0.098 0.079,0.177 0.176,0.177 z m 4.24,0 2.473,0 c 0.098,0 0.177,-0.079 0.177,-0.177 0,-0.097 -0.079,-0.176 -0.177,-0.176 l -2.473,0 c -0.097,0 -0.176,0.079 -0.176,0.176 0,0.098 0.079,0.177 0.176,0.177 z m 4.24,0 1.968,0 c 0.098,0 0.177,-0.079 0.177,-0.177 0,-0.097 -0.079,-0.176 -0.177,-0.176 l -1.968,0 c -0.098,0 -0.177,0.079 -0.177,0.176 0,0.098 0.079,0.177 0.177,0.177" /><path
       id="path198"
       style="fill:#231f20;fill-opacity:1;fill-rule:nonzero;stroke:none"
       d="m 666.55714,456.51363 -2.473,0 c -0.097,0 -0.176,0.079 -0.176,0.177 0,0.097 0.079,0.176 0.176,0.176 l 2.473,0 c 0.098,0 0.177,-0.079 0.177,-0.176 0,-0.098 -0.079,-0.177 -0.177,-0.177 z m -4.239,0 -2.473,0 c -0.098,0 -0.177,0.079 -0.177,0.177 0,0.097 0.079,0.176 0.177,0.176 l 2.473,0 c 0.097,0 0.176,-0.079 0.176,-0.176 0,-0.098 -0.079,-0.177 -0.176,-0.177 z m -4.24,0 -2.473,0 c -0.098,0 -0.177,0.079 -0.177,0.177 0,0.097 0.079,0.176 0.177,0.176 l 2.473,0 c 0.098,0 0.177,-0.079 0.177,-0.176 0,-0.098 -0.079,-0.177 -0.177,-0.177 z m -4.24,0 -2.473,0 c -0.097,0 -0.176,0.079 -0.176,0.177 0,0.097 0.079,0.176 0.176,0.176 l 2.473,0 c 0.098,0 0.177,-0.079 0.177,-0.176 0,-0.098 -0.079,-0.177 -0.177,-0.177 z m -4.239,0 -2.474,0 c -0.097,0 -0.176,0.079 -0.176,0.177 0,0.097 0.079,0.176 0.176,0.176 l 2.474,0 c 0.097,0 0.176,-0.079 0.176,-0.176 0,-0.098 -0.079,-0.177 -0.176,-0.177 z m -4.24,0 -2.473,0 c -0.098,0 -0.177,0.079 -0.177,0.177 0,0.097 0.079,0.176 0.177,0.176 l 2.473,0 c 0.098,0 0.177,-0.079 0.177,-0.176 0,-0.098 -0.079,-0.177 -0.177,-0.177 z m -4.24,0 -2.473,0 c -0.097,0 -0.177,0.079 -0.177,0.177 0,0.097 0.08,0.176 0.177,0.176 l 2.473,0 c 0.098,0 0.177,-0.079 0.177,-0.176 0,-0.098 -0.079,-0.177 -0.177,-0.177 z m -4.239,0 -2.474,0 c -0.097,0 -0.176,0.079 -0.176,0.177 0,0.097 0.079,0.176 0.176,0.176 l 2.474,0 c 0.097,0 0.176,-0.079 0.176,-0.176 0,-0.098 -0.079,-0.177 -0.176,-0.177 z m -4.24,0 -2.473,0 c -0.098,0 -0.177,0.079 -0.177,0.177 0,0.097 0.079,0.176 0.177,0.176 l 2.473,0 c 0.097,0 0.177,-0.079 0.177,-0.176 0,-0.098 -0.08,-0.177 -0.177,-0.177 z m -4.24,0 -0.986,0 -0.523,-1.146 -0.235,-0.088 -0.087,0.235 0.571,1.249 0.161,0.103 1.099,0 c 0.098,0 0.177,-0.079 0.177,-0.176 0,-0.098 -0.079,-0.177 -0.177,-0.177 z m -2.244,-2.753 -1.028,-2.249 -0.234,-0.088 -0.087,0.234 1.028,2.25 0.234,0.087 0.087,-0.234 z m -1.762,-3.856 -1.028,-2.249 -0.234,-0.088 -0.087,0.234 1.028,2.25 0.234,0.087 0.087,-0.234 z m -1.762,-3.856 -1.028,-2.25 -0.234,-0.087 -0.088,0.234 1.028,2.25 0.235,0.087 0.087,-0.234 z m -1.763,-3.856 -1.028,-2.25 -0.234,-0.087 -0.087,0.234 1.028,2.25 0.234,0.087 0.087,-0.234 z m -1.762,-3.856 -1.028,-2.25 -0.234,-0.087 -0.087,0.234 1.028,2.25 0.234,0.087 0.087,-0.234 z m -1.762,-3.856 -0.213,-0.466 -0.136,-0.101 -1.942,-0.273 c -0.097,-0.013 -0.186,0.054 -0.2,0.151 -0.014,0.096 0.054,0.186 0.15,0.199 l 1.847,0.259 0.173,0.377 0.234,0.088 0.087,-0.234 z m -4.041,-1.085 -2.449,-0.344 c -0.097,-0.013 -0.186,0.054 -0.2,0.151 -0.013,0.096 0.054,0.186 0.151,0.199 l 2.449,0.344 c 0.097,0.013 0.186,-0.054 0.199,-0.151 0.014,-0.096 -0.053,-0.185 -0.15,-0.199 z m -4.198,-0.589 -2.45,-0.344 c -0.096,-0.013 -0.186,0.054 -0.199,0.151 -0.014,0.096 0.054,0.186 0.15,0.199 l 2.449,0.344 c 0.097,0.013 0.186,-0.054 0.2,-0.151 0.013,-0.096 -0.054,-0.185 -0.15,-0.199 z m -4.199,-0.589 -2.449,-0.344 c -0.097,-0.013 -0.186,0.054 -0.2,0.151 -0.013,0.096 0.054,0.186 0.151,0.199 l 2.449,0.344 c 0.096,0.013 0.186,-0.054 0.199,-0.151 0.014,-0.096 -0.053,-0.185 -0.15,-0.199 z m -4.199,-0.589 -2.449,-0.344 c -0.096,-0.013 -0.186,0.054 -0.199,0.151 -0.014,0.096 0.054,0.186 0.15,0.199 l 2.449,0.344 c 0.097,0.013 0.186,-0.054 0.2,-0.151 0.013,-0.096 -0.054,-0.186 -0.151,-0.199 z m -4.198,-0.589 -2.449,-0.344 c -0.097,-0.013 -0.186,0.054 -0.2,0.151 -0.013,0.096 0.054,0.186 0.151,0.199 l 2.449,0.344 c 0.096,0.013 0.186,-0.054 0.199,-0.151 0.014,-0.096 -0.054,-0.186 -0.15,-0.199 z m -4.199,-0.589 -2.449,-0.344 c -0.097,-0.013 -0.186,0.054 -0.199,0.151 -0.014,0.096 0.053,0.186 0.15,0.199 l 2.449,0.344 c 0.097,0.013 0.186,-0.054 0.2,-0.151 0.013,-0.096 -0.054,-0.186 -0.151,-0.199 z m -4.198,-0.589 -2.449,-0.344 c -0.097,-0.013 -0.186,0.054 -0.2,0.151 -0.014,0.096 0.054,0.186 0.15,0.199 l 2.45,0.344 c 0.096,0.013 0.186,-0.054 0.199,-0.151 0.014,-0.096 -0.054,-0.186 -0.15,-0.199 z m -4.199,-0.589 -2.449,-0.344 c -0.097,-0.013 -0.186,0.054 -0.2,0.151 -0.013,0.096 0.054,0.186 0.151,0.199 l 2.449,0.344 c 0.097,0.013 0.186,-0.054 0.2,-0.151 0.013,-0.096 -0.054,-0.186 -0.151,-0.199 z m -4.198,-0.589 -2.45,-0.344 c -0.096,-0.013 -0.186,0.054 -0.199,0.151 -0.014,0.096 0.054,0.186 0.15,0.199 l 2.449,0.344 c 0.097,0.013 0.186,-0.054 0.2,-0.151 0.013,-0.096 -0.054,-0.186 -0.15,-0.199 z m -4.199,-0.589 -2.449,-0.344 c -0.097,-0.013 -0.186,0.054 -0.2,0.151 -0.013,0.096 0.054,0.186 0.151,0.199 l 2.449,0.344 c 0.097,0.013 0.186,-0.054 0.199,-0.151 0.014,-0.096 -0.053,-0.186 -0.15,-0.199 z m -4.199,-0.589 -2.449,-0.344 c -0.096,-0.013 -0.186,0.054 -0.199,0.151 -0.014,0.096 0.054,0.186 0.15,0.199 l 2.449,0.344 c 0.097,0.013 0.186,-0.054 0.2,-0.151 0.013,-0.096 -0.054,-0.186 -0.151,-0.199 z m -4.198,-0.589 -2.449,-0.344 c -0.097,-0.013 -0.186,0.054 -0.2,0.151 -0.013,0.096 0.054,0.186 0.151,0.199 l 2.449,0.344 c 0.096,0.013 0.186,-0.054 0.199,-0.151 0.014,-0.096 -0.054,-0.186 -0.15,-0.199 z m -4.199,-0.589 -2.449,-0.344 c -0.096,-0.013 -0.186,0.054 -0.199,0.151 -0.014,0.096 0.053,0.186 0.15,0.199 l 2.449,0.344 c 0.097,0.013 0.186,-0.054 0.2,-0.151 0.013,-0.096 -0.054,-0.186 -0.151,-0.199 z m -4.198,-0.589 -2.449,-0.344 c -0.097,-0.013 -0.186,0.054 -0.2,0.151 -0.014,0.096 0.054,0.186 0.15,0.199 l 2.45,0.344 c 0.096,0.013 0.186,-0.054 0.199,-0.151 0.014,-0.096 -0.054,-0.186 -0.15,-0.199 z m -4.042,-0.771 -2.043,-1.394 -0.246,0.046 0.047,0.246 2.043,1.394 0.245,-0.046 -0.046,-0.246 z m -3.502,-2.39 -2.043,-1.394 -0.245,0.046 0.046,0.246 2.043,1.394 0.245,-0.046 -0.046,-0.246 z m -3.502,-2.39 -2.043,-1.394 -0.245,0.046 0.046,0.246 2.043,1.394 0.245,-0.046 -0.046,-0.246 z m -3.502,-2.39 -2.043,-1.394 -0.245,0.046 0.046,0.246 2.043,1.394 0.246,-0.046 -0.047,-0.246 z m -3.502,-2.39 -0.868,-0.593 -0.1,-0.03 -1.421,0 c -0.098,0 -0.177,0.079 -0.177,0.176 0,0.098 0.079,0.177 0.177,0.177 l 1.367,0 0.823,0.562 0.246,-0.046 -0.047,-0.246 z m -4.156,-0.623 -2.473,0 c -0.098,0 -0.177,0.079 -0.177,0.176 0,0.098 0.079,0.177 0.177,0.177 l 2.473,0 c 0.098,0 0.177,-0.079 0.177,-0.177 0,-0.097 -0.079,-0.176 -0.177,-0.176 z m -4.24,0 -2.473,0 c -0.097,0 -0.176,0.079 -0.176,0.176 0,0.098 0.079,0.177 0.176,0.177 l 2.473,0 c 0.098,0 0.177,-0.079 0.177,-0.177 0,-0.097 -0.079,-0.176 -0.177,-0.176 z m -4.239,0 -1.969,0 c -0.098,0 -0.177,0.079 -0.177,0.176 0,0.098 0.079,0.177 0.177,0.177 l 1.969,0 c 0.097,0 0.176,-0.079 0.176,-0.177 0,-0.097 -0.079,-0.176 -0.176,-0.176" /><path
       id="path200"
       style="fill:#231f20;fill-opacity:1;fill-rule:nonzero;stroke:none"
       d="m 666.55714,456.86663 2.474,0 c 0.097,0 0.176,-0.079 0.176,-0.176 0,-0.098 -0.079,-0.177 -0.176,-0.177 l -2.474,0 c -0.097,0 -0.176,0.079 -0.176,0.177 0,0.097 0.079,0.176 0.176,0.176 z m 4.24,0 2.473,0 c 0.098,0 0.177,-0.079 0.177,-0.176 0,-0.098 -0.079,-0.177 -0.177,-0.177 l -2.473,0 c -0.097,0 -0.177,0.079 -0.177,0.177 0,0.097 0.08,0.176 0.177,0.176 z m 4.24,0 2.473,0 c 0.098,0 0.177,-0.079 0.177,-0.176 0,-0.098 -0.079,-0.177 -0.177,-0.177 l -2.473,0 c -0.098,0 -0.177,0.079 -0.177,0.177 0,0.097 0.079,0.176 0.177,0.176 z m 4.24,0 2.473,0 c 0.097,0 0.176,-0.079 0.176,-0.176 0,-0.098 -0.079,-0.177 -0.176,-0.177 l -2.473,0 c -0.098,0 -0.177,0.079 -0.177,0.177 0,0.097 0.079,0.176 0.177,0.176 z m 4.239,0 2.473,0 c 0.098,0 0.177,-0.079 0.177,-0.176 0,-0.098 -0.079,-0.177 -0.177,-0.177 l -2.473,0 c -0.097,0 -0.177,0.079 -0.177,0.177 0,0.097 0.08,0.176 0.177,0.176 z m 4.24,0 2.473,0 c 0.098,0 0.177,-0.079 0.177,-0.176 0,-0.098 -0.079,-0.177 -0.177,-0.177 l -2.473,0 c -0.098,0 -0.177,0.079 -0.177,0.177 0,0.097 0.079,0.176 0.177,0.176 z m 4.24,0 2.473,0 c 0.097,0 0.176,-0.079 0.176,-0.176 0,-0.098 -0.079,-0.177 -0.176,-0.177 l -2.473,0 c -0.098,0 -0.177,0.079 -0.177,0.177 0,0.097 0.079,0.176 0.177,0.176 z m 4.239,0 2.473,0 c 0.098,0 0.177,-0.079 0.177,-0.176 0,-0.098 -0.079,-0.177 -0.177,-0.177 l -2.473,0 c -0.097,0 -0.176,0.079 -0.176,0.177 0,0.097 0.079,0.176 0.176,0.176 z m 4.24,0 2.473,0 c 0.098,0 0.177,-0.079 0.177,-0.176 0,-0.098 -0.079,-0.177 -0.177,-0.177 l -2.473,0 c -0.098,0 -0.177,0.079 -0.177,0.177 0,0.097 0.079,0.176 0.177,0.176 z m 4.24,0 1.094,0 0.161,-0.103 0.573,-1.254 -0.088,-0.234 -0.234,0.087 -0.526,1.151 -0.98,0 c -0.098,0 -0.177,0.079 -0.177,0.177 0,0.097 0.079,0.176 0.177,0.176 z m 2.562,-2.964 1.028,-2.249 -0.087,-0.234 -0.234,0.087 -1.028,2.25 0.087,0.234 0.234,-0.088 z m 1.762,-3.856 1.028,-2.249 -0.087,-0.234 -0.234,0.087 -1.028,2.249 0.087,0.235 0.234,-0.088 z m 1.763,-3.856 1.028,-2.249 -0.088,-0.234 -0.234,0.087 -1.028,2.249 0.087,0.234 0.235,-0.087 z m 1.762,-3.856 1.028,-2.249 -0.087,-0.234 -0.235,0.087 -1.028,2.249 0.088,0.234 0.234,-0.087 z m 1.762,-3.856 1.028,-2.249 -0.087,-0.234 -0.234,0.087 -1.028,2.249 0.087,0.234 0.234,-0.087 z m 1.762,-3.856 0.211,-0.461 -0.087,-0.234 -0.234,0.087 -0.211,0.461 0.087,0.234 0.234,-0.087" /><path
       id="path202"
       style="fill:#231f20;fill-opacity:1;fill-rule:nonzero;stroke:none"
       d="m 341.06815,415.13763 375.56099,0 c 0.097,0 0.176,-0.079 0.176,-0.177 0,-0.097 -0.079,-0.176 -0.176,-0.176 l -375.56099,0 c -0.098,0 -0.177,0.079 -0.177,0.176 0,0.098 0.079,0.177 0.177,0.177" /><path
       id="path204"
       style="fill:#b1d4f0;fill-opacity:1;fill-rule:nonzero;stroke:none"
       d="m 440.07414,300.20963 147.892,0 0,10.432 -147.892,0 0,-10.432 z" /><path
       id="path206"
       style="fill:#010202;fill-opacity:1;fill-rule:nonzero;stroke:none"
       d="m 440.07414,300.20963 0,0.177 147.715,0 0,10.079 -147.538,0 0,-10.256 -0.177,0 0,0.177 0,-0.177 -0.177,0 0,10.609 148.246,0 0,-10.786 -148.246,0 0,0.177 0.177,0" /><text
       transform="scale(1,-1)"
       id="text208"
       style="font-style:normal;font-variant:normal;font-weight:normal;font-stretch:normal;font-size:6.86990023px;line-height:125%;font-family:'Latin Modern Roman';-inkscape-font-specification:'Latin Modern Roman, Normal';text-align:start;writing-mode:lr-tb;text-anchor:start;fill:#231f20;fill-opacity:1;fill-rule:nonzero;stroke:none"
       x="468.93604"
       y="-303.6593"><tspan
         id="tspan210"
         y="-303.6593"
         x="468.93604 473.13354 476.54791 479.55005 481.58353 483.65823 486.85962 488.40533 489.95108 493.15244 494.86993 496.87592 500.06357 503.25119 504.74197 507.9296 511.11725 512.83472 516.9223 521.12671 523.75787 525.34271 528.61969 530.33716 533.52478 536.7124 538.20319 541.39081 544.57849 546.29596 550.38354 554.58789 557.21906">Australia (59.40 GHz – 62.90 GHz)</tspan></text>
<text
       transform="scale(1,-1)"
       id="text162-5"
       style="font-style:normal;font-variant:normal;font-weight:normal;font-stretch:normal;font-size:6.86990023px;line-height:125%;font-family:'Latin Modern Roman';-inkscape-font-specification:'Latin Modern Roman, Normal';text-align:start;writing-mode:lr-tb;text-anchor:start;fill:#231f20;fill-opacity:1;fill-rule:nonzero;stroke:none"
       x="463.70135"
       y="-246.28143"><tspan
         y="-246.28143"
         x="463.70135"
         id="tspan4680">F<tspan
   id="tspan4688"
   style="font-size:51.99999809%;baseline-shift:sub">c</tspan>= 60.48 GHz</tspan></text>
<text
       transform="scale(1,-1)"
       id="text162-3"
       style="font-style:normal;font-variant:normal;font-weight:normal;font-stretch:normal;font-size:6.86990023px;line-height:125%;font-family:'Latin Modern Roman';-inkscape-font-specification:'Latin Modern Roman, Normal';text-align:start;writing-mode:lr-tb;text-anchor:start;fill:#231f20;fill-opacity:1;fill-rule:nonzero;stroke:none"
       x="553.83887"
       y="-246.28143"><tspan
         y="-246.28143"
         x="553.83887"
         id="tspan4682">F<tspan
   id="tspan4690"
   style="font-size:51.99999809%;baseline-shift:sub">c</tspan>= 62.64 GHz</tspan></text>
<text
       transform="scale(1,-1)"
       id="text162-2"
       style="font-style:normal;font-variant:normal;font-weight:normal;font-stretch:normal;font-size:6.86990023px;line-height:125%;font-family:'Latin Modern Roman';-inkscape-font-specification:'Latin Modern Roman, Normal';text-align:start;writing-mode:lr-tb;text-anchor:start;fill:#231f20;fill-opacity:1;fill-rule:nonzero;stroke:none"
       x="643.97089"
       y="-246.28143"><tspan
         y="-246.28143"
         x="643.97089"
         id="tspan4684">F<tspan
   id="tspan4692"
   style="font-size:51.99999809%;baseline-shift:sub">c</tspan>= 64.80 GHz</tspan></text>
</g></svg>